<?xml version="1.0" encoding="UTF-8" standalone="no"?>
<svg
   xmlns:dc="http://purl.org/dc/elements/1.1/"
   xmlns:cc="http://creativecommons.org/ns#"
   xmlns:rdf="http://www.w3.org/1999/02/22-rdf-syntax-ns#"
   xmlns:svg="http://www.w3.org/2000/svg"
   xmlns="http://www.w3.org/2000/svg"
   viewBox="0 0 1600 1600"
   height="1600"
   width="1600"
   xml:space="preserve"
   id="svg2"
   version="1.1"><metadata
     id="metadata8"><rdf:RDF><cc:Work
         rdf:about=""><dc:format>image/svg+xml</dc:format><dc:type
           rdf:resource="http://purl.org/dc/dcmitype/StillImage" /></cc:Work></rdf:RDF></metadata><defs
     id="defs6" /><g
     transform="matrix(1.3333333,0,0,-1.3333333,0,1600)"
     id="g10"><g
       transform="scale(0.1)"
       id="g12"><path
         id="path14"
         style="fill:#ffffff;fill-opacity:1;fill-rule:nonzero;stroke:none"
         d="M 12000,0 H 0 V 12000 H 12000 V 0" /><path
         id="path16"
         style="fill:#f9f9f9;fill-opacity:1;fill-rule:nonzero;stroke:none"
         d="m 3578.93,1652.6 c -211.78,45.8 -2756.391,458.44 -2569.08,3501.84 187.3,3043.41 422.42,3958.66 1411.73,4293.51 989.3,334.85 3394.13,1919.35 5281.21,412.74 C 9589.87,8354.11 11626.2,7002.85 10818.1,4597.27 10010,2191.69 9877.73,1389.3 7769.42,1512 5661.11,1634.8 4585.99,1434.7 3578.93,1652.6" /><path
         id="path18"
         style="fill:#e5e5e5;fill-opacity:1;fill-rule:nonzero;stroke:none"
         d="m 5438,2743.65 c 8.99,66.78 4.69,135.29 -15.88,201.8 -90.46,292.59 -493.52,242.78 -733.93,256.41 -312.42,17.72 -636.12,6.45 -955.9,-12.44 -547.96,-32.38 -1133.79,-77.88 -1652.89,-197.53 -235.4,-54.26 -478.28,-156.38 -366.53,-283.28 143.48,-162.93 698.19,-139.18 1016.32,-143.3 131.56,-1.7 275.3,17.63 404.16,-8.82 45.13,-9.27 88.2,-26.34 131.45,-42.22 366.05,-134.44 764.12,-210.18 1151.16,-252.05 205.87,-22.27 424.5,-39.32 627.22,17.35 202.94,56.73 366.2,251.62 394.82,464.08" /><path
         id="path20"
         style="fill:#cfcfcf;fill-opacity:1;fill-rule:nonzero;stroke:none"
         d="m 4283.89,4232.91 c -19.33,363.18 -121.64,818.5 -214.19,1172.39 -20.98,80.23 -223.24,-69.08 -322.91,-86.76 -152.34,-27.02 -306.67,-56.78 -461.43,-68.16 -302.93,-22.27 -1195.46,90.71 -1195.49,90.71 -32.27,-4.02 -26.96,-1021.44 -26.82,-1108.69 0.46,-283.27 -5.47,-565.81 11.8,-848.86 9.28,-152.07 -16.76,-485.29 123.38,-601.1 14.85,-12.28 27.79,-24.43 49.25,-26.13 95.44,-7.52 159.69,155.69 186.35,213.79 171.75,374.22 196.18,786.42 350.21,1167.39 34.53,85.41 75.82,172.3 150.1,234.04 71.97,59.82 190.99,129.66 286.56,86.02 206,-94.07 337.74,-347.88 444.4,-525.23 89.65,-149.08 166.63,-304.5 229.89,-464.49 59.54,-150.57 102.11,-306.13 200.01,-441.49 40.18,-55.56 88.54,-122.23 168.1,-123.94 96.89,-2.07 84.57,240.92 87.73,287.54 14.93,220.18 -14.16,435.75 -26.74,654.48 -7.44,129.43 -33.31,259.04 -40.2,388.49" /><path
         id="path22"
         style="fill:#e3e3e3;fill-opacity:1;fill-rule:nonzero;stroke:none"
         d="m 4273.89,4232.91 c -19.33,363.18 -111.64,818.5 -204.19,1172.39 -20.98,80.23 -223.24,-69.08 -322.91,-86.76 -152.34,-27.02 -306.67,-56.78 -461.43,-68.16 -302.93,-22.27 -1093.31,98.9 -1093.34,98.9 -13.74,-66.53 -26.84,-778.06 -27.57,-850.34 -4.23,-418.96 -3.36,-837.96 2.61,-1256.87 1.29,-90.61 1.1,-181.42 4.17,-271.97 1.77,-51.98 -6.11,-143.32 27,-187.66 11.61,-15.56 27.79,-24.43 49.25,-26.13 95.44,-7.52 149.54,155.47 176.2,213.57 171.75,374.22 187.02,744.06 420.2,1172.07 44.07,80.9 85.79,173.04 160.07,234.79 120.27,99.97 173.49,140.61 315.18,73.7 170.1,-80.32 293.15,-242.74 380.33,-405.47 87.94,-164.12 181.37,-329.98 256.69,-500.29 74.61,-168.71 130.27,-347.58 220.73,-508.84 20.44,-36.45 55.52,-138.5 101.71,-131.55 32.26,4.85 50.53,48.96 60.32,75.83 24.23,66.46 6.87,139.34 11.62,209.39 14.92,220.18 -23.86,436.19 -36.44,654.91 -7.44,129.43 -33.31,259.04 -40.2,388.49" /><path
         id="path24"
         style="fill:#cfcfcf;fill-opacity:1;fill-rule:nonzero;stroke:none"
         d="m 2162.19,4895.51 c 238.96,11.48 477.71,39.73 715.2,67.61 232.74,27.32 461.33,59.11 687.57,122.24 173.41,48.39 344.96,105.53 511.08,175.06 29.12,12.19 52.78,48.59 33.33,78.02 -21.05,31.85 -69.78,24.93 -98.92,12.73 -248.63,-104.07 -518.44,-192 -785.52,-232.91 -229.52,-35.15 -461.1,-59.51 -692.12,-82.31 -119.49,-11.79 -239.22,-23.29 -359.18,-29.05 -32.64,-1.57 -75.99,-24.18 -79.31,-60.48 -3.4,-37.3 37.58,-52.36 67.87,-50.91 v 0" /><path
         id="path26"
         style="fill:#6a79a8;fill-opacity:1;fill-rule:nonzero;stroke:none"
         d="m 4298.04,4239.38 c -29.56,239.64 -63.37,478.88 -106.21,716.53 -21.5,119.27 -45.27,238.17 -73.19,356.11 -14.7,62.09 -14.3,142.97 -95.67,132.54 -71.08,-9.11 -138.21,-53.66 -202.39,-82.52 -109.64,-49.29 -241.1,-58.25 -359.06,-75.19 -164.9,-23.68 -324.88,-24.21 -490.69,-14.21 -281.2,16.96 -561.84,47.33 -841.42,81.58 -20.32,2.49 -44.15,9.43 -60.92,-6.6 -29.98,-28.65 -22.69,-103.69 -24.12,-140.59 -6.7,-173.05 -4.62,-347.33 -5.49,-520.43 -1.38,-274.66 -0.52,-549.38 1.94,-824.03 2.42,-270.27 -7.78,-544.1 23.96,-813.02 11.23,-95.09 30.32,-200.46 102.41,-269.73 58.96,-56.66 131.32,-49.09 184.47,11.55 59.24,67.57 94.08,168.58 125.08,250.98 42.43,112.79 74.32,229.19 108.13,344.74 79.09,270.25 164.97,545.43 302.41,792.52 52.86,95.04 133.09,238.9 249.56,265.66 69.72,16.02 141.56,-31.82 192.79,-73.72 78.03,-63.81 136.71,-149.49 188.87,-234.77 122.21,-199.81 238.25,-405.68 331.54,-620.63 83.02,-191.29 129.97,-443.45 295.54,-585.57 50.47,-43.33 138.23,-69.19 190.39,-13.92 44.26,46.89 42.64,126.37 41.44,186.17 -4.87,244.43 -16.21,488.73 -37.08,732.33 -11.56,135 -25.88,269.73 -42.29,404.22 -2.6,21.24 -51.04,9.54 -48.3,-12.94 32.69,-267.75 56.59,-536.56 68.59,-806.06 4.63,-103.87 7.23,-207.84 10,-311.76 1.32,-49.34 10.79,-187.54 -62.38,-188.53 -104.31,-1.43 -185.52,165.52 -222.23,243.43 -48.08,102.05 -80.51,210.59 -123.69,314.67 -86.36,208.19 -197.1,401.5 -308.6,596.76 -114.09,199.81 -355.31,559.8 -607.45,330.28 -95.3,-86.75 -159.73,-207.29 -214.86,-321.97 -64.92,-135.05 -117.66,-275.88 -165.28,-417.83 -37.33,-111.26 -70.8,-223.7 -103.53,-336.38 -35.89,-123.57 -71.58,-247.83 -123.66,-365.78 -24.95,-56.51 -85.38,-232.37 -168.78,-176.26 -87.98,59.21 -104.98,188.67 -115.86,284.96 -15.27,135.26 -18.41,271.51 -19.47,407.51 -2.03,260.4 -4.35,520.81 -4.97,781.22 -0.6,249.76 2.74,499.41 3.8,749.15 0.23,53.56 -0.55,107.09 0.64,160.64 0.71,32.35 1.74,64.76 4.35,97.02 1.04,12.86 2.11,25.8 4.17,38.55 0.36,2.24 2.5,9.46 2.13,12.29 -2.02,15.64 14.8,10.36 -8.71,9.54 -30.66,-1.08 -2.05,-4.64 1.5,-5.53 14.3,-3.6 30.51,-3.75 45.13,-5.51 48.72,-5.88 97.47,-11.54 146.24,-17.04 149.9,-16.91 299.99,-32.35 450.3,-45.12 144.38,-12.27 289.33,-23.27 434.31,-24.18 79.6,-0.51 158.22,5.61 237.23,15.73 118.05,15.1 243.87,29.26 358.93,60.26 70.56,19 133.91,59.64 201.05,87.4 23.43,9.69 60.42,30.53 76.91,4.93 11.89,-18.46 14.15,-55.5 19.19,-76.29 7.01,-28.97 13.74,-58.01 20.25,-87.1 50.79,-227.05 88.84,-456.91 121.96,-687.13 15.41,-107.14 29.54,-214.45 42.79,-321.87 2.62,-21.24 51.07,-9.53 48.3,12.94" /><path
         id="path28"
         style="fill:#6a79a8;fill-opacity:1;fill-rule:nonzero;stroke:none"
         d="m 2124.73,4879.74 c 471.79,32.34 952.76,51.02 1411.14,175.47 173.45,47.1 344.89,103.21 510.83,172.43 30.84,12.86 3.1,32.9 -19.99,23.27 -264.63,-110.38 -548.97,-198.23 -832.65,-243.31 -231.21,-36.74 -466.49,-52.62 -699.69,-70.99 -121.27,-9.56 -242.6,-18.4 -363.96,-26.72 -25.2,-1.73 -38.97,-32.43 -5.68,-30.15 v 0" /><path
         id="path30"
         style="fill:#6a79a8;fill-opacity:1;fill-rule:nonzero;stroke:none"
         d="m 2523.68,4636.04 c 10.37,-97.61 -14.81,-191.93 -73.74,-270.54 -10.04,-13.39 36.54,-7.22 43.98,2.7 61.47,82.01 88.9,178.8 78.05,280.78 -1.12,10.52 -49.78,1.04 -48.29,-12.94 v 0" /><path
         id="path32"
         style="fill:#e5e5e5;fill-opacity:1;fill-rule:nonzero;stroke:none"
         d="m 2062.99,4990.83 c -57.99,234.17 -42.11,465.04 -63.8,700.51 -11.99,130.18 -29.37,260.83 -31.25,391.56 -0.94,64.92 -0.52,129.87 1.51,194.77 1.69,53.87 19.86,124.07 12.44,176.09 -7.1,49.76 -53.82,79.84 -86.79,111.11 29.43,53.36 77.89,90.51 111.14,140.36 30.13,45.18 24.68,105.7 38.33,157.94 27.73,106.13 65.26,211.42 122.31,305.59 101.01,166.72 263.11,268.38 461.64,249.7 19.37,-1.82 38.65,-4.65 57.77,-8.26 C 3235.96,7306.19 3980,6040 4079.1,5379.02 c 0,0 -489.1,-249.02 -1014.97,-301.5 -253.6,-25.32 -1001.14,-86.69 -1001.14,-86.69" /><path
         id="path34"
         style="fill:#e5e5e5;fill-opacity:1;fill-rule:nonzero;stroke:none"
         d="m 2783.25,7997.28 c -133.05,443.97 -436.38,745.29 -677.5,673.03 -241.11,-72.26 -328.72,-490.74 -195.67,-934.7 3.08,-10.28 18.41,-61.43 23.84,-79.57 73.77,-246.15 146.11,-411.4 218.5,-519.8 148.81,-222.82 474.15,-236.94 474.15,-236.94 0,0 271.58,190.9 283.1,433.41 6.3,132.74 -22.84,318.94 -102.58,585 -5.27,17.59 -20.6,68.76 -23.84,79.57" /><path
         id="path36"
         style="fill:#ffffff;fill-opacity:1;fill-rule:nonzero;stroke:none"
         d="M 2170.19,4986.63 C 2105,5350 2054.51,5926.32 2051.57,6412.72 c -0.18,29.18 -21.65,9.49 -70.78,46.93 -32.57,24.82 -99.8,115.36 -99.8,115.36 63.45,64.22 144.17,132.24 154.51,225.27 0.51,4.65 1.44,9.73 5.06,12.69 6.43,5.25 15.87,0.35 22.7,-4.39 112.37,-78.03 246.79,-117.33 380.89,-137.05 132.69,-19.5 283.05,-34.69 409.38,20.14 14.17,6.15 27.23,125.66 41.12,132.03 52.76,24.18 156,-63.39 220.55,-36.72 92.87,38.38 68.03,288.13 68.03,288.13 368.25,-383.5 749.27,-1005.11 895.87,-1696.09 0,0 -454.1,-229.02 -1014.97,-301.5 -252.76,-32.67 -893.94,-90.89 -893.94,-90.89" /><path
         id="path38"
         style="fill:#ffffff;fill-opacity:1;fill-rule:nonzero;stroke:none"
         d="m 3104.53,7167.11 -178.54,127.41 -140.11,-239.97 -672.95,-16.58 c -10.99,-29.33 -26.5,-59.57 -33.72,-89.92 -7.49,-31.53 204.56,-132.12 299.72,-165.53 87.2,-30.62 322.3,-55.06 414.3,-62.04 38.72,-2.94 55.39,217.07 55.39,217.07 96.47,-47.34 234.63,-105.3 235.14,-105.47 -0.15,0.05 109.84,171.57 20.77,335.03" /><path
         id="path40"
         style="fill:#ffffff;fill-opacity:1;fill-rule:nonzero;stroke:none"
         d="m 2807.09,7917.71 c -5.27,17.59 -20.6,68.76 -23.84,79.57 -133.05,443.97 -436.38,745.29 -677.5,673.03 -104.45,-31.3 -147.18,-107.38 -151.2,-212.23 -10.44,-272.3 13.45,-561.79 79.82,-826.46 24.98,-99.61 63.18,-214.69 81.58,-275.67 19.82,-65.69 67.91,-215.58 67.91,-215.58 0,0 -30.7,-7.03 -29.97,-11.65 0.39,-2.54 1.13,-5.12 2.07,-7.72 -34.53,-25.65 -59.9,-55.87 -43.03,-83.03 25.8,-41.53 135.63,-149.66 201,-176.31 34.34,-14 70.18,-23.72 106.72,-29.77 53.16,-8.8 107.81,-9.84 161.53,-5.02 88.7,7.95 160.5,40.66 231.84,93.96 73.14,54.65 170.14,249.35 148.83,349.73 -6.51,30.65 -26.6,48.17 -53.55,57.64 0.09,1.51 0.3,3 0.37,4.51 6.3,132.74 -22.84,318.94 -102.58,585" /><path
         id="path42"
         style="fill:#6a79a8;fill-opacity:1;fill-rule:nonzero;stroke:none"
         d="m 2071.5,6895.28 c 154.59,-96.1 332.78,-146.78 511.89,-174.68 69.32,-10.8 145.47,-21.43 215.8,-11.69 10.94,1.52 24.38,6.9 26.7,19.18 13.83,73.45 27.67,146.9 41.51,220.36 -12.83,-5.97 -25.65,-11.94 -38.47,-17.9 80.23,-38.16 160.01,-77.45 240.79,-114.4 12.6,-5.76 30.4,2.52 37.06,13.41 61.52,100.69 62.68,223.98 9.89,328.06 -9.37,18.48 -55.55,1.19 -44.29,-21.02 48.57,-95.74 44.48,-210.15 -11.65,-302 12.35,4.47 24.71,8.94 37.06,13.41 -80.79,36.96 -160.57,76.25 -240.79,114.4 -13.04,6.2 -35.73,-3.37 -38.46,-17.9 -13.84,-73.46 -27.68,-146.91 -41.51,-220.36 8.9,6.39 17.8,12.78 26.7,19.17 -62.56,-8.66 -129.68,0.65 -191.46,9.73 -175.67,25.83 -352.02,75.51 -503.41,169.62 -17.51,10.88 -60.15,-13.23 -37.36,-27.39 v 0" /><path
         id="path44"
         style="fill:#dddddd;fill-opacity:1;fill-rule:nonzero;stroke:none"
         d="m 2919.16,6631.46 c -15.16,-154.43 -30.89,-308.84 -45.06,-463.4 -16.76,-182.84 -66.42,-350.23 -157.01,-488.97 15.54,-53.17 132.7,-227.1 133.45,-284.09 36.6,30.78 178.73,165.16 215.71,198.11 74.11,66.01 42.96,547.6 23.88,689.4 -9.6,71.31 -43.79,394.93 -110.11,397.63 l -24.33,0.99 c -18.97,0.77 -35.2,-19.8 -36.27,-45.95 -0.05,-1.24 -0.13,-2.48 -0.26,-3.72" /><path
         id="path46"
         style="fill:#bbdff5;fill-opacity:1;fill-rule:nonzero;stroke:none"
         d="m 2923.92,6648.84 c -2.24,-155.17 -5.04,-310.35 -6.26,-465.55 -1.45,-183.6 -36.98,-354.54 -115.68,-500.36 19.91,-51.69 151.17,-215.24 156.67,-271.97 33.91,33.72 164.33,179.49 198.44,215.41 68.34,71.96 -2.87,549.27 -33.71,688.99 -15.51,70.26 -76.57,389.9 -142.88,387.06 l -24.33,-1.04 c -18.96,-0.81 -33.43,-22.67 -32.31,-48.81 0.06,-1.25 0.07,-2.49 0.06,-3.73" /><path
         id="path48"
         style="fill:#6a79a8;fill-opacity:1;fill-rule:nonzero;stroke:none"
         d="m 2905.52,6647.63 c -2.07,-142.25 -4.57,-284.49 -5.92,-426.75 -1.26,-132.32 -11.74,-263.24 -53,-389.84 -9.51,-29.21 -20.42,-57.96 -32.83,-86.07 -7.59,-17.2 -28.9,-44.77 -30.19,-63.24 -1.5,-21.51 28.92,-55.59 39.81,-72.25 38.88,-59.47 105.87,-131.04 117.15,-203.37 2.44,-15.71 26.69,-7.72 33.39,-0.96 39.9,40.24 77.41,82.98 115.53,124.89 29.96,32.93 73,67.24 93.9,107.04 18.64,35.48 19.3,81.83 20.44,120.8 1.81,62.18 -2.3,124.53 -7.73,186.44 -19.24,219.61 -52.43,455.71 -128.51,663.88 -12.43,34.02 -30.01,92.04 -68.64,105.67 -47.85,16.87 -94.11,-16.44 -93.4,-66.24 0.28,-19.62 37.03,-14.73 36.79,2.41 -0.45,31.99 21.77,47.99 44.41,33 15.09,-10 25.34,-37.57 32.11,-52.9 20.86,-47.25 34.56,-97.96 47.42,-147.85 20.19,-78.31 37.6,-157.85 51.93,-237.46 19.19,-106.55 33.76,-214.25 42.69,-322.15 4.6,-55.54 7.77,-111.47 6.14,-167.21 -1.03,-34.89 -0.49,-79.53 -17.32,-111.34 -20,-37.8 -62.19,-71.03 -90.79,-102.47 -38.13,-41.91 -75.63,-84.65 -115.53,-124.89 11.13,-0.32 22.26,-0.64 33.39,-0.96 -10.41,66.8 -68.34,131.86 -104.63,186.33 -16.8,25.23 -52.21,62.28 -45.02,93.05 6.43,27.54 27.04,56.78 37.41,83.55 11.17,28.85 20.8,58.24 29.16,88.03 32.77,116.74 41.56,235.81 42.71,356.53 1.35,142.25 3.85,284.5 5.92,426.74 0.29,19.58 -36.54,14.8 -36.79,-2.41" /><path
         id="path50"
         style="fill:#bbdff5;fill-opacity:1;fill-rule:nonzero;stroke:none"
         d="m 2892.98,6842.66 c 6.2,13.46 16.48,21.08 35.81,11.18 27.63,-14.16 51.79,-44.95 73.09,-66.97 17.64,-18.24 27.01,-31.65 -1.38,-45.81 -25.05,-12.49 -57.47,-17.08 -84.39,-25.08 -43.05,-12.79 -37.94,62.67 -33.61,84.39 2.61,13.1 4.87,30.09 10.48,42.29" /><path
         id="path52"
         style="fill:#6a79a8;fill-opacity:1;fill-rule:nonzero;stroke:none"
         d="m 2909.75,6842.65 c 4.28,7.88 8.22,1.14 15.69,-4.05 6.88,-4.78 13.15,-10.45 19.25,-16.18 12.32,-11.57 23.41,-24.42 34.93,-36.77 13.3,-14.24 31.14,-28.11 6.19,-41.38 -17.44,-9.27 -40.58,-11.67 -59.46,-16.57 -14,-3.64 -17.7,-3.78 -23.61,10.66 -3.76,9.19 -4.52,20.07 -4.83,29.87 -0.8,25.44 4.1,53.32 13.13,76.9 4.1,10.71 -31.74,6.48 -36.11,-4.94 -11.93,-31.14 -23.93,-88.66 -4.5,-119.73 8.56,-13.7 22.49,-16.73 37.88,-14.94 28.4,3.29 60.83,13.23 87.39,23.73 14.97,5.92 42.29,16.68 40.84,36.85 -1.53,21.09 -32.39,43.8 -45.95,57.92 -27.62,28.74 -85.62,71.61 -114.37,18.65 -7.72,-14.22 28.22,-9.79 33.53,-0.02" /><path
         id="path54"
         style="fill:#6a79a8;fill-opacity:1;fill-rule:nonzero;stroke:none"
         d="m 2459.17,7499.03 c 81.5,-81.63 238.33,-85.29 292.19,29.24 4.74,10.07 -41.54,5.87 -47.88,-7.61 -41.64,-88.56 -141.57,-61.84 -199.04,-4.28 -9.84,9.86 -54.84,-7.76 -45.27,-17.35 v 0" /><path
         id="path56"
         style="fill:#bbdff5;fill-opacity:1;fill-rule:nonzero;stroke:none"
         d="m 2459.81,8578.96 c 18.26,52.97 47.58,142.25 23.5,195.82 48.49,-49.28 85.51,-114.11 133.31,-166.6 26.64,-29.25 53.54,-58.85 72.58,-93.53 29.39,-53.53 38.3,-116.4 35.3,-177.4 -3,-60.99 -17.28,-120.8 -31.88,-180.09 8.4,-2.42 9.35,11.95 5.45,19.78 -16.7,33.54 -33.41,67.09 -50.11,100.63 -3.34,-9.64 -20.8,-30.93 -24.14,-40.57 -7.25,-20.89 -14.5,-41.79 -21.76,-62.68 1.42,27.55 -10.86,55.48 -32.12,73.07 -3.86,-1.81 -7.72,-3.62 -11.58,-5.43 -6.85,-32.07 -29.18,-54.6 -48.22,-81.3 4.43,3.69 8.86,7.39 13.28,11.09 -8.52,16.79 -20.25,31.96 -34.35,44.43 -26.95,23.83 -63.05,35.15 -89.61,58.96 -40.65,36.44 -16.3,42.55 -13.42,90.8 4.28,71.88 50.63,145.89 73.77,213.02" /><path
         id="path58"
         style="fill:#bbdff5;fill-opacity:1;fill-rule:nonzero;stroke:none"
         d="m 1554.16,8174.12 c 3.15,10.68 5.95,21.45 8.39,32.3 -58.37,-38.39 -121.57,-52.03 -188.22,-69.63 68.68,22.72 125.32,72.81 170.5,129.3 149.59,187.04 224.98,440.71 438.35,571.1 84.22,51.47 185.16,53.86 279.02,31.89 79.21,-18.55 212.29,-38.34 193.84,-140.9 -28.68,-159.42 -93.06,-311.99 -185.37,-444.97 -46.16,-66.49 -99.32,-128.15 -158.54,-183.34 -26.12,-24.35 -60.56,-44.39 -74.91,-76.78 -7.08,-15.98 -20.23,-87.48 -12.21,-102.52 -3.87,7.26 -68.19,78.45 -74.2,66.08 -20.12,-41.43 -35.43,-90.41 -36.18,-136.85 -0.66,-40.58 44.28,-83.71 32.87,-121.28 -55.2,-5.03 -86.8,54.33 -112.57,93.31 -22.43,33.93 -63.5,-47.03 -71.32,-60.72 -20.47,-35.8 -86.82,-103.5 -85.07,-140.81 -2.76,58.86 -5.53,117.72 -8.29,176.58 -44.19,-31.3 -89.3,-61.3 -135.26,-89.95 37.31,23.26 54.01,122.55 60.71,162.24 9.39,55.63 20.27,124.38 14.11,179.95 -21.49,-13.72 -38.21,-34.46 -61.97,-46.24 -24.87,-12.33 -55.79,-15.89 -79.95,-2.23 35.61,55.14 67.59,109.96 86.27,173.47" /><path
         id="path60"
         style="fill:#6a79a8;fill-opacity:1;fill-rule:nonzero;stroke:none"
         d="m 2143.6,6386.91 c -49.84,11.75 -105.05,42.45 -140.16,79.73 -20.4,21.66 -39,45.68 -58.97,67.85 -8.83,9.81 -27.07,24.05 -31.74,37.01 -7.26,20.12 -7.49,-4.17 -4.07,10.69 2.97,12.88 25.39,31.85 33.62,41.63 14.49,17.23 29.24,34.94 46.25,49.76 16.63,14.5 43.54,27.53 54.03,47.12 8.79,16.39 10.01,43.18 14.33,61.07 10.53,43.56 21.57,87 33.43,130.21 21.56,78.53 44.86,153.24 84.39,224.48 2.09,3.76 2.64,5.21 0.24,8.85 -119.8,181.81 -182.88,398.49 -243.29,605.52 -66.87,229.13 -97.85,504.41 2.29,729.17 35.35,79.33 95.46,159.47 183.62,182.17 86.02,22.15 176.85,-15.05 247.35,-62.64 188.73,-127.42 307.99,-349.31 378.71,-559.99 76.26,-227.21 151.84,-478.05 141.99,-720.24 -0.72,-17.73 47.51,-7.53 48.09,6.82 5.98,147.08 -22.77,294.49 -58.03,436.58 -40.32,162.47 -86.92,328.36 -161.76,478.61 -102.44,205.68 -310.25,493.95 -577.46,447.5 -282.44,-49.11 -325.9,-414.66 -309.41,-644.63 12.38,-172.63 62.55,-339.06 116.68,-502.56 27.84,-84.1 58.56,-167.45 95.37,-248.07 13.87,-30.38 28.61,-60.38 44.62,-89.69 7.16,-13.12 14.57,-26.1 22.28,-38.91 3.49,-5.8 23.05,-28.78 23.16,-30.68 0.87,-15.32 -23.89,-41.51 -30.99,-56.76 -14.11,-30.33 -23.77,-63.29 -33.61,-95.19 -21.54,-69.84 -39.73,-140.75 -56.83,-211.79 -4.03,-16.75 -5.78,-36.88 -12.39,-52.83 -0.4,-0.95 -0.31,-2.59 -0.81,-3.59 5.07,10.13 -3.1,-0.97 -7.22,-4.34 -8.55,-6.99 -16.75,-14.4 -25.25,-21.45 -39.6,-32.81 -72.12,-72.69 -103.36,-113.52 -2.4,-3.14 -2.49,-5.78 -0.24,-8.86 64.55,-88.23 144.35,-177.16 255.02,-203.25 13.8,-3.25 56.41,18.02 30.12,24.22 v 0" /><path
         id="path62"
         style="fill:#6a79a8;fill-opacity:1;fill-rule:nonzero;stroke:none"
         d="m 1959.15,6425.63 c -20.33,-284.08 -4.25,-571.35 17.16,-854.89 14.69,-194.63 26.28,-394.21 62.53,-586.38 1.6,-8.5 15.06,-8.73 21.23,-8.32 235.91,15.46 471.77,32.88 707.21,54.38 357.84,32.68 706.53,101.22 1045.38,223.4 93.43,33.69 187.3,69.58 276.36,113.85 6.57,3.26 15.9,9.1 14.23,17.82 -59.92,313.4 -180.74,614 -330.4,894.82 -143.78,269.81 -316.29,528.33 -524.66,752.79 -94.42,101.71 -197.27,196.99 -313.18,273.85 -12.07,8.01 -45.52,-1.29 -43.16,-18.9 10.9,-81.41 1.82,-202.34 -82.43,-241.35 -196.01,-90.76 -428.5,-2.57 -615.97,66.66 -16.93,6.25 -56.43,-18.21 -29.01,-28.33 208.75,-77.08 458.85,-161.73 674.7,-56.65 97.64,47.54 113.98,175.76 101,272.61 -14.39,-6.3 -28.78,-12.6 -43.16,-18.9 220.85,-146.45 398.76,-357.72 552.14,-571.16 186.85,-260.02 343.05,-544.1 459.74,-842.35 62.9,-160.77 113.66,-326.36 146.09,-496.03 4.75,5.94 9.49,11.89 14.23,17.83 -242.55,-120.57 -511.67,-199.68 -775.32,-256.65 -311.81,-67.37 -632.85,-85.14 -950.27,-108.59 -92.53,-6.84 -185.09,-13.45 -277.68,-19.52 7.07,-2.77 14.15,-5.54 21.23,-8.32 -35.43,187.77 -46.92,382.75 -61.51,572.9 -21.9,285.48 -38.45,574.64 -17.98,860.7 1.54,21.44 -47.21,12.79 -48.5,-5.27 v 0" /><path
         id="path64"
         style="fill:#ffffff;fill-opacity:1;fill-rule:nonzero;stroke:none"
         d="M 3237.63,6387.69 5372.08,6519 5462.23,5044.12 3327.78,4912.82 3237.63,6387.69" /><path
         id="path66"
         style="fill:#6a79a8;fill-opacity:1;fill-rule:nonzero;stroke:none"
         d="m 3235.16,6371.23 c 239.64,14.74 479.28,29.49 718.92,44.23 383.96,23.62 767.92,47.24 1151.88,70.86 87.88,5.41 175.76,10.81 263.65,16.22 -7.23,3.33 -14.45,6.66 -21.68,9.99 26.31,-430.35 52.61,-860.69 78.92,-1291.04 3.74,-61.28 7.49,-122.56 11.23,-183.84 8.87,7.65 17.75,15.29 26.62,22.93 -239.64,-14.74 -479.28,-29.48 -718.92,-44.23 -383.96,-23.62 -767.91,-47.24 -1151.87,-70.86 -87.89,-5.4 -175.77,-10.81 -263.65,-16.22 7.22,-3.33 14.45,-6.65 21.67,-9.98 -26.3,430.34 -52.61,860.69 -78.91,1291.03 -3.75,61.28 -7.49,122.56 -11.24,183.84 -1.22,20.06 -49.64,9.05 -48.29,-12.94 26.3,-430.35 52.6,-860.69 78.91,-1291.04 3.75,-61.28 7.49,-122.55 11.24,-183.83 0.54,-8.97 15.61,-10.36 21.67,-9.99 239.64,14.74 479.28,29.48 718.92,44.23 383.96,23.62 767.92,47.24 1151.88,70.86 87.88,5.4 175.77,10.81 263.65,16.22 12.46,0.76 27.47,9.03 26.62,22.92 -26.31,430.35 -52.61,860.69 -78.91,1291.04 -3.75,61.28 -7.5,122.56 -11.24,183.84 -0.55,8.97 -15.62,10.36 -21.68,9.99 -239.64,-14.75 -479.28,-29.49 -718.92,-44.23 -383.96,-23.62 -767.91,-47.24 -1151.87,-70.86 -87.89,-5.41 -175.77,-10.82 -263.66,-16.22 -26.33,-1.62 -38.04,-34.95 -4.94,-32.92" /><path
         id="path68"
         style="fill:#ffffff;fill-opacity:1;fill-rule:nonzero;stroke:none"
         d="M 3237.63,6387.69 5372.08,6519 4839.87,6689.87 2705.43,6558.56 3237.63,6387.69" /><path
         id="path70"
         style="fill:#6a79a8;fill-opacity:1;fill-rule:nonzero;stroke:none"
         d="m 3235.19,6371.12 c 239.64,14.74 479.28,29.49 718.92,44.23 383.96,23.62 767.92,47.24 1151.88,70.86 87.88,5.41 175.76,10.81 263.65,16.22 14.63,0.9 42.05,23.86 16.6,32.03 -82.37,26.45 -164.74,52.89 -247.11,79.34 -59.86,19.22 -119.73,38.44 -179.59,57.65 -33.22,10.67 -67.74,25.88 -102,32.75 -25.08,5.03 -52.85,-0.08 -78.26,-1.64 -72.64,-4.47 -145.28,-8.94 -217.92,-13.41 -484.08,-29.78 -968.16,-59.56 -1452.24,-89.34 -133.75,-8.23 -267.5,-16.46 -401.25,-24.68 -14.63,-0.9 -42.05,-23.87 -16.6,-32.04 177.4,-56.95 354.8,-113.91 532.21,-170.86 19.31,-6.2 56.85,21.76 28.31,30.92 -177.4,56.96 -354.8,113.92 -532.21,170.87 -5.53,-10.68 -11.06,-21.35 -16.59,-32.03 347.43,21.37 694.86,42.75 1042.29,64.12 242.1,14.89 484.19,29.79 726.29,44.68 120.8,7.43 242.61,20.24 363.65,22.37 4.03,0.07 -16.77,6.04 -1.75,-1.25 14.87,-7.21 33.11,-10.63 48.82,-15.67 61.93,-19.89 123.87,-39.77 185.8,-59.65 96.61,-31.02 193.22,-62.04 289.83,-93.06 5.54,10.68 11.07,21.36 16.6,32.04 -239.64,-14.75 -479.28,-29.49 -718.92,-44.23 -383.95,-23.62 -767.91,-47.24 -1151.87,-70.86 -87.89,-5.41 -175.77,-10.81 -263.65,-16.22 -26.43,-1.63 -37.98,-35.17 -4.89,-33.14" /><path
         id="path72"
         style="fill:#ffffff;fill-opacity:1;fill-rule:nonzero;stroke:none"
         d="m 2702.33,6561.29 535.3,-173.6 90.15,-1474.87 -534.83,165.99 -90.62,1482.48" /><path
         id="path74"
         style="fill:#6a79a8;fill-opacity:1;fill-rule:nonzero;stroke:none"
         d="m 2683.06,6549.81 c 141.21,-45.79 282.41,-91.58 423.62,-137.38 29.72,-9.64 59.44,-19.27 89.15,-28.91 5.23,-1.7 16.28,-3.06 20.58,-6.67 4.62,-3.89 -5.23,8.7 -2.76,1.68 9.64,-27.42 4.26,-69.74 6.02,-98.41 21.34,-349.21 42.69,-698.42 64.03,-1047.63 6.65,-108.71 13.29,-217.43 19.94,-326.14 14.47,5.98 28.94,11.96 43.42,17.94 -141.09,43.79 -282.17,87.58 -423.26,131.36 -30.37,9.43 -60.74,18.86 -91.11,28.28 -4.9,1.52 -14.51,2.47 -18.52,5.75 -3.9,3.19 5.08,-8.78 2.73,-1.24 -9.07,29.08 -4.28,70.11 -6.13,100.27 -21.47,351.26 -42.94,702.53 -64.41,1053.79 -6.62,108.42 -13.25,216.84 -19.88,325.26 -0.91,14.92 -49.4,5.16 -48.3,-12.94 26.48,-433.07 52.95,-866.14 79.42,-1299.21 3.73,-61.09 7.47,-122.18 11.2,-183.27 0.86,-2.4 2.48,-4.07 4.87,-5.01 178.28,-55.33 356.56,-110.66 534.84,-165.99 12,-3.73 44.53,-0.15 43.42,17.95 -26.3,430.34 -52.61,860.69 -78.91,1291.03 -3.75,61.28 -7.49,122.56 -11.24,183.84 -0.85,2.4 -2.48,4.06 -4.87,5.01 -178.44,57.86 -356.87,115.73 -535.3,173.6 -14.28,4.63 -57.86,-16.69 -38.55,-22.96" /><path
         id="path76"
         style="fill:#6a79a8;fill-opacity:1;fill-rule:nonzero;stroke:none"
         d="m 5194,5427.22 c -133.79,-8.23 -267.57,-16.46 -401.35,-24.69 -24.72,-1.52 -39.4,-30.88 -6.04,-28.82 133.78,8.23 267.57,16.46 401.35,24.69 24.72,1.52 39.4,30.88 6.04,28.82 v 0" /><path
         id="path78"
         style="fill:#6a79a8;fill-opacity:1;fill-rule:nonzero;stroke:none"
         d="m 5199.84,5329.58 c -134.93,-8.3 -269.86,-16.6 -404.79,-24.9 -25.3,-1.56 -38.92,-32.33 -5.64,-30.28 134.92,8.3 269.85,16.6 404.78,24.9 25.31,1.55 38.92,32.32 5.65,30.28 v 0" /><path
         id="path80"
         style="fill:#bbdff5;fill-opacity:1;fill-rule:nonzero;stroke:none"
         d="m 3478.14,5085.35 613.97,33.63 -14.68,269.2 -613.97,-33.63 14.68,-269.2" /><path
         id="path82"
         style="fill:#6a79a8;fill-opacity:1;fill-rule:nonzero;stroke:none"
         d="m 3981.35,5311.85 c -130.09,-7.13 -260.19,-14.25 -390.29,-21.38 -25.52,-1.4 -38.76,-32.54 -5.53,-30.72 130.1,7.13 260.2,14.25 390.3,21.38 25.52,1.4 38.76,32.54 5.52,30.72 v 0" /><path
         id="path84"
         style="fill:#6a79a8;fill-opacity:1;fill-rule:nonzero;stroke:none"
         d="m 3999.95,5215.45 c -133.86,-7.34 -267.72,-14.67 -401.59,-22 -24.3,-1.33 -39.75,-29.54 -6.33,-27.71 133.86,7.33 267.73,14.66 401.59,21.99 24.3,1.33 39.75,29.55 6.33,27.72 v 0" /><path
         id="path86"
         style="fill:#6a79a8;fill-opacity:1;fill-rule:nonzero;stroke:none"
         d="m 3475.88,5071.44 c 204.66,11.21 409.32,22.42 613.97,33.63 10.7,0.58 27.88,8.02 27.19,20.83 -4.9,89.73 -9.79,179.46 -14.68,269.19 -0.46,8.4 -16.1,8.16 -21.12,7.89 -204.65,-11.21 -409.31,-22.42 -613.97,-33.63 -10.69,-0.59 -27.88,-8.03 -27.18,-20.83 4.89,-89.73 9.78,-179.46 14.68,-269.2 0.92,-16.93 49.37,-6.74 48.29,12.95 -4.89,89.73 -9.78,179.46 -14.67,269.19 -9.07,-6.94 -18.13,-13.88 -27.19,-20.82 204.66,11.21 409.32,22.42 613.98,33.63 -7.04,2.62 -14.08,5.25 -21.12,7.88 4.89,-89.73 9.79,-179.46 14.68,-269.2 9.06,6.95 18.12,13.89 27.18,20.83 -204.66,-11.21 -409.31,-22.42 -613.97,-33.63 -24.72,-1.35 -39.42,-30.54 -6.07,-28.71" /><path
         id="path88"
         style="fill:#bbdff5;fill-opacity:1;fill-rule:nonzero;stroke:none"
         d="m 4110.94,6442.06 360.16,19.73 17.01,-311.94 -360.16,-19.72 -17.01,311.93" /><path
         id="path90"
         style="fill:#bbdff5;fill-opacity:1;fill-rule:nonzero;stroke:none"
         d="m 4110.94,6442.06 360.16,19.73 -529.26,171.42 -360.15,-19.73 529.25,-171.42" /><path
         id="path92"
         style="fill:#6a79a8;fill-opacity:1;fill-rule:nonzero;stroke:none"
         d="m 4444.75,6460.46 c 5.67,-103.98 11.34,-207.95 17.01,-311.93 8.83,6.63 17.67,13.26 26.5,19.9 -120.05,-6.58 -240.1,-13.16 -360.15,-19.73 7.5,-5.5 15,-11.01 22.5,-16.51 -5.67,103.98 -11.34,207.96 -17.01,311.94 -1.41,25.83 -50.22,18.82 -49.01,-3.39 5.67,-103.98 11.34,-207.96 17.01,-311.94 0.66,-12.16 11.03,-17.14 22.5,-16.51 120.05,6.58 240.1,13.15 360.16,19.73 9.25,0.51 27.15,8.06 26.5,19.9 -5.67,103.98 -11.34,207.95 -17.01,311.93 -1.41,25.84 -50.21,18.83 -49,-3.39 v 0" /><path
         id="path94"
         style="fill:#6a79a8;fill-opacity:1;fill-rule:nonzero;stroke:none"
         d="m 4145.79,6431.43 c 75.1,4.12 150.2,8.23 225.3,12.34 24.02,1.32 39.98,28.87 6.52,27.04 -75.1,-4.12 -150.2,-8.23 -225.3,-12.34 -24.02,-1.32 -39.98,-28.87 -6.52,-27.04 v 0" /><path
         id="path96"
         style="fill:#6a79a8;fill-opacity:1;fill-rule:nonzero;stroke:none"
         d="m 4483.91,6475.73 c -127.85,41.41 -255.71,82.83 -383.56,124.24 -46.37,15.01 -96.86,39.29 -145.14,47 -49.43,7.91 -108.34,-4.67 -157.97,-7.39 -71.42,-3.91 -142.85,-7.82 -214.27,-11.74 -12.78,-0.7 -42.17,-19.67 -17.8,-27.56 176.42,-57.14 352.84,-114.28 529.26,-171.42 16.07,-5.21 56.59,18.32 29.33,27.15 -176.42,57.14 -352.84,114.28 -529.26,171.42 -5.93,-9.19 -11.86,-18.38 -17.79,-27.57 58.39,3.2 116.78,6.39 175.16,9.59 59.72,3.27 124.92,14.72 184.64,10.11 -25.72,1.99 15.46,-8.19 22.93,-10.6 30.23,-9.8 60.46,-19.59 90.7,-29.38 81.92,-26.54 163.85,-53.07 245.77,-79.61 52.89,-17.13 105.78,-34.26 158.68,-51.39 16.06,-5.2 56.58,18.32 29.32,27.15 v 0" /><path
         id="path98"
         style="fill:#ffffff;fill-opacity:1;fill-rule:nonzero;stroke:none"
         d="m 3361.98,7642.36 1652.3,149.96 102.41,-1182.56 -1652.31,-149.97 -102.4,1182.57" /><path
         id="path100"
         style="fill:#6a79a8;fill-opacity:1;fill-rule:nonzero;stroke:none"
         d="m 3358.68,7629.01 c 482.02,43.74 964.04,87.49 1446.07,131.24 68.74,6.24 137.49,12.48 206.23,18.72 -6.95,2.29 -13.9,4.58 -20.84,6.88 29.88,-345.07 59.76,-690.14 89.64,-1035.21 4.25,-49.12 8.51,-98.24 12.76,-147.36 9.15,6.61 18.3,13.22 27.45,19.83 -482.02,-43.75 -964.05,-87.5 -1446.07,-131.25 -68.75,-6.24 -137.49,-12.48 -206.23,-18.71 6.94,-2.3 13.89,-4.59 20.84,-6.88 -29.88,345.06 -59.76,690.13 -89.64,1035.2 -4.25,49.12 -8.51,98.24 -12.76,147.36 -1.36,15.72 -49.89,5.45 -48.3,-12.94 29.88,-345.07 59.76,-690.14 89.64,-1035.21 4.26,-49.12 8.51,-98.24 12.76,-147.36 0.69,-7.93 16.12,-7.3 20.85,-6.88 482.02,43.75 964.05,87.5 1446.07,131.25 68.75,6.24 137.49,12.48 206.23,18.72 9.41,0.85 28.53,7.39 27.46,19.82 -29.89,345.06 -59.77,690.13 -89.65,1035.2 -4.25,49.12 -8.5,98.24 -12.76,147.36 -0.68,7.93 -16.12,7.31 -20.84,6.88 -482.03,-43.75 -964.05,-87.5 -1446.07,-131.25 -68.75,-6.24 -137.49,-12.47 -206.24,-18.71 -23.63,-2.15 -40.14,-29.75 -6.6,-26.7" /><path
         id="path102"
         style="fill:#ffffff;fill-opacity:1;fill-rule:nonzero;stroke:none"
         d="m 3361.98,7642.36 1652.3,149.96 -416.47,126.12 L 2944.59,7774 3361.98,7642.36" /><path
         id="path104"
         style="fill:#6a79a8;fill-opacity:1;fill-rule:nonzero;stroke:none"
         d="m 3358.29,7630.45 c 482.02,43.75 964.05,87.49 1446.07,131.24 68.75,6.24 137.49,12.48 206.23,18.72 6.23,0.56 41.58,17.24 23.12,22.83 -63.11,19.11 -126.22,38.22 -189.33,57.33 -73.14,22.15 -147.82,52.23 -222.74,67.45 -20.81,4.23 -42.04,0.41 -63.26,-1.44 -54.41,-4.75 -108.82,-9.51 -163.23,-14.26 -376.12,-32.86 -752.24,-65.72 -1128.37,-98.58 -106.16,-9.28 -212.33,-18.56 -318.5,-27.83 -6.3,-0.55 -41.53,-17.02 -23.11,-22.83 139.13,-43.88 278.26,-87.76 417.39,-131.64 13.33,-4.21 56.87,16.15 38.84,21.84 -139.13,43.88 -278.26,87.76 -417.39,131.64 -7.7,-7.61 -15.41,-15.22 -23.11,-22.83 268.9,23.5 537.79,46.99 806.69,70.48 189.13,16.52 378.25,33.05 567.37,49.57 92.05,8.04 186.44,10.81 277.89,24.28 -4.82,-0.71 -19.97,5.48 -6.21,-1.4 11.84,-5.92 27.38,-8.29 40.02,-12.12 47.02,-14.24 94.04,-28.48 141.06,-42.72 75.71,-22.93 151.43,-45.85 227.14,-68.78 7.71,7.61 15.41,15.21 23.11,22.82 -482.02,-43.74 -964.04,-87.49 -1446.07,-131.24 -68.74,-6.24 -137.49,-12.48 -206.23,-18.72 -22.42,-2.03 -41.11,-26.87 -7.38,-23.81" /><path
         id="path106"
         style="fill:#ffffff;fill-opacity:1;fill-rule:nonzero;stroke:none"
         d="m 2943.05,7770.61 418.93,-128.25 102.4,-1182.57 -418.4,122.16 -102.93,1188.66" /><path
         id="path108"
         style="fill:#6a79a8;fill-opacity:1;fill-rule:nonzero;stroke:none"
         d="m 2928.6,7756.23 c 114.15,-34.94 228.3,-69.89 342.45,-104.84 20.2,-6.18 42.33,-16.38 63.34,-19.39 3.28,-0.47 9.96,-2.03 12.86,-3.93 -16.15,10.61 -7.88,10.15 -8.96,2.53 -3.62,-25.41 5,-57.77 7.21,-83.23 24.13,-278.7 48.26,-557.41 72.4,-836.11 7.44,-85.98 14.89,-171.96 22.33,-257.94 12.87,6.95 25.74,13.9 38.6,20.85 -114,33.28 -228.01,66.57 -342.02,99.85 -20.12,5.88 -42.36,15.86 -63.26,18.47 -3.29,0.41 -9.9,1.91 -12.84,3.75 16.23,-10.17 7.84,-10.29 8.95,-2.51 3.67,25.51 -5.03,58.1 -7.24,83.66 -24.26,280.14 -48.52,560.28 -72.78,840.42 -7.48,86.43 -14.96,172.85 -22.45,259.27 -1.58,18.27 -50.06,7.44 -48.29,-12.94 30.03,-346.85 60.07,-693.7 90.1,-1040.55 4.28,-49.37 8.55,-98.74 12.83,-148.11 0.36,-4.19 6.53,-6.98 9.7,-7.91 139.47,-40.72 278.93,-81.43 418.4,-122.15 13.12,-3.83 40.08,3.72 38.6,20.85 -29.88,345.06 -59.76,690.13 -89.64,1035.2 -4.26,49.12 -8.51,98.24 -12.76,147.36 -0.37,4.22 -6.53,6.93 -9.7,7.9 -139.65,42.75 -279.29,85.5 -418.94,128.26 -17.47,5.34 -56.84,-20.2 -28.89,-28.76" /><path
         id="path110"
         style="fill:#6a79a8;fill-opacity:1;fill-rule:nonzero;stroke:none"
         d="m 4908.68,6909.89 c -103.57,-9.4 -207.13,-18.79 -310.69,-28.19 -12.76,-1.16 -52.43,-22.28 -20.93,-19.43 103.57,9.4 207.13,18.8 310.7,28.2 12.75,1.16 52.42,22.28 20.92,19.42 v 0" /><path
         id="path112"
         style="fill:#6a79a8;fill-opacity:1;fill-rule:nonzero;stroke:none"
         d="m 4916.23,6820.57 c -103.57,-9.4 -207.13,-18.8 -310.7,-28.2 -14.03,-1.28 -52.03,-24.57 -20.31,-21.69 103.56,9.4 207.13,18.8 310.69,28.2 14.04,1.27 52.03,24.56 20.32,21.69 v 0" /><path
         id="path114"
         style="fill:#bbdff5;fill-opacity:1;fill-rule:nonzero;stroke:none"
         d="m 3575.81,6599.78 475.38,39.81 -17.32,215.88 -475.37,-39.81 17.31,-215.88" /><path
         id="path116"
         style="fill:#6a79a8;fill-opacity:1;fill-rule:nonzero;stroke:none"
         d="m 3989.48,6757.37 c -102.42,-8.58 -204.83,-17.16 -307.25,-25.73 -22.78,-1.91 -40.86,-27.37 -7.19,-24.55 102.42,8.57 204.84,17.15 307.26,25.73 22.78,1.91 40.86,27.37 7.18,24.55 v 0" /><path
         id="path118"
         style="fill:#6a79a8;fill-opacity:1;fill-rule:nonzero;stroke:none"
         d="m 3574.04,6590.11 c 158.46,13.27 316.91,26.54 475.37,39.81 8.03,0.68 28.79,6.88 27.88,18.22 -5.77,71.96 -11.54,143.92 -17.31,215.88 -0.59,7.32 -16.56,5.61 -20.42,5.28 -158.45,-13.27 -316.91,-26.54 -475.37,-39.81 -8.03,-0.67 -28.79,-6.87 -27.88,-18.22 5.77,-71.96 11.54,-143.92 17.31,-215.88 1.06,-13.23 49.62,-3.61 48.3,12.94 -5.77,71.96 -11.55,143.92 -17.32,215.88 -9.29,-6.07 -18.58,-12.14 -27.88,-18.22 158.46,13.27 316.92,26.54 475.38,39.81 -6.81,1.76 -13.61,3.52 -20.42,5.28 5.77,-71.96 11.55,-143.92 17.32,-215.88 9.29,6.08 18.58,12.15 27.88,18.22 -158.46,-13.27 -316.92,-26.54 -475.38,-39.81 -22.33,-1.87 -41.21,-26.32 -7.46,-23.5" /><path
         id="path120"
         style="fill:#bbdff5;fill-opacity:1;fill-rule:nonzero;stroke:none"
         d="m 4039.53,7701.32 278.86,23.35 20.06,-250.15 -278.85,-23.36 -20.07,250.16" /><path
         id="path122"
         style="fill:#bbdff5;fill-opacity:1;fill-rule:nonzero;stroke:none"
         d="m 4039.53,7701.32 278.86,23.35 -414.2,126.63 -278.85,-23.35 414.19,-126.63" /><path
         id="path124"
         style="fill:#6a79a8;fill-opacity:1;fill-rule:nonzero;stroke:none"
         d="m 4291.27,7721.37 c 6.69,-83.38 13.38,-166.77 20.06,-250.15 8.79,7.97 17.57,15.94 26.36,23.91 -92.95,-7.78 -185.91,-15.57 -278.86,-23.35 7.32,-3.66 14.63,-7.32 21.95,-10.97 -6.69,83.38 -13.38,166.77 -20.07,250.15 -1.73,21.59 -50.14,10.11 -48.29,-12.94 6.68,-83.39 13.37,-166.77 20.06,-250.16 0.73,-9.08 15.31,-11.52 21.94,-10.97 92.95,7.79 185.9,15.57 278.86,23.35 13.02,1.1 27.51,9.39 26.35,23.92 -6.69,83.38 -13.38,166.77 -20.06,250.15 -1.73,21.6 -50.15,10.11 -48.3,-12.94 v 0" /><path
         id="path126"
         style="fill:#6a79a8;fill-opacity:1;fill-rule:nonzero;stroke:none"
         d="m 4085.56,7690.72 c 44.79,3.75 89.57,7.5 134.35,11.25 27.55,2.31 36.83,39.36 3.95,36.61 -44.78,-3.75 -89.56,-7.5 -134.35,-11.25 -27.55,-2.31 -36.82,-39.36 -3.95,-36.61 v 0" /><path
         id="path128"
         style="fill:#6a79a8;fill-opacity:1;fill-rule:nonzero;stroke:none"
         d="m 4335.23,7737.32 c -128.41,39.25 -256.81,78.51 -385.22,117.76 -39.89,12.2 -73.07,6.4 -115.18,2.88 -67.35,-5.64 -134.71,-11.28 -202.06,-16.92 -4.36,-0.37 -47.4,-14.14 -30.21,-19.4 138.06,-42.21 276.13,-84.42 414.2,-126.63 11.16,-3.41 53.86,14.6 39.61,18.96 -138.06,42.2 -276.13,84.41 -414.19,126.62 -10.08,-6.46 -20.15,-12.93 -30.22,-19.39 65.85,5.51 131.7,11.03 197.56,16.54 25.57,2.14 53.77,8.05 79.46,6.66 -1.33,0.07 -11.88,1.81 -0.59,-1.54 10.07,-2.99 20.11,-6.15 30.16,-9.22 125.69,-38.42 251.37,-76.85 377.06,-115.27 11.16,-3.42 53.87,14.59 39.62,18.95 v 0" /><path
         id="path130"
         style="fill:#ffffff;fill-opacity:1;fill-rule:nonzero;stroke:none"
         d="m 3275.41,8604.15 1300.82,167.28 114.31,-888.93 -1300.82,-167.28 -114.31,888.93" /><path
         id="path132"
         style="fill:#6a79a8;fill-opacity:1;fill-rule:nonzero;stroke:none"
         d="m 3272.18,8590.5 c 379.52,48.8 759.04,97.6 1138.55,146.41 54.1,6.95 108.19,13.91 162.28,20.87 -6.97,2.39 -13.95,4.79 -20.92,7.18 33.29,-258.92 66.59,-517.83 99.88,-776.75 4.81,-37.39 9.62,-74.79 14.43,-112.18 9.12,6.71 18.24,13.42 27.37,20.12 -379.52,-48.8 -759.04,-97.6 -1138.55,-146.4 -54.1,-6.96 -108.19,-13.92 -162.28,-20.87 6.97,-2.4 13.95,-4.79 20.92,-7.19 -33.29,258.92 -66.59,517.83 -99.88,776.75 -4.81,37.4 -9.62,74.79 -14.43,112.18 -2.12,16.5 -50.67,5.55 -48.29,-12.94 33.29,-258.91 66.59,-517.83 99.88,-776.74 4.81,-37.4 9.62,-74.79 14.43,-112.19 1.01,-7.9 15.79,-7.84 20.92,-7.18 379.52,48.8 759.04,97.6 1138.55,146.41 54.09,6.95 108.19,13.91 162.28,20.86 9.17,1.18 29.01,7.36 27.37,20.13 -33.29,258.92 -66.59,517.83 -99.88,776.75 -4.81,37.39 -9.62,74.79 -14.43,112.18 -1.01,7.9 -15.79,7.85 -20.92,7.19 -379.52,-48.81 -759.04,-97.61 -1138.55,-146.41 -54.1,-6.96 -108.19,-13.92 -162.28,-20.87 -23.57,-3.03 -39.9,-31.61 -6.45,-27.31" /><path
         id="path134"
         style="fill:#ffffff;fill-opacity:1;fill-rule:nonzero;stroke:none"
         d="m 3275.41,8604.15 1300.82,167.28 -332.51,81.52 -1300.83,-167.28 332.52,-81.52" /><path
         id="path136"
         style="fill:#6a79a8;fill-opacity:1;fill-rule:nonzero;stroke:none"
         d="m 3272.27,8590.17 c 379.52,48.81 759.03,97.61 1138.55,146.41 54.09,6.96 108.19,13.91 162.28,20.87 10.92,1.4 43.81,21.17 17.8,27.55 -52.22,12.8 -104.45,25.6 -156.67,38.41 -56.2,13.77 -115.13,35.22 -172.65,42.32 -56.67,7 -124.36,-12.9 -180.42,-20.11 -295.85,-38.04 -591.71,-76.09 -887.57,-114.13 -82.52,-10.61 -165.04,-21.22 -247.57,-31.84 -10.91,-1.4 -43.81,-21.16 -17.8,-27.54 110.84,-27.17 221.68,-54.35 332.52,-81.52 16.17,-3.96 56.88,20.37 29.33,27.13 -110.84,27.17 -221.68,54.35 -332.51,81.52 -5.94,-9.18 -11.87,-18.36 -17.81,-27.54 211.86,27.24 423.71,54.48 635.56,81.72 147.07,18.92 294.14,37.83 441.22,56.74 73.59,9.46 148.37,23.81 222.47,28.61 5.86,0.38 -17.78,2.96 -4.35,-0.76 10.82,-2.99 21.85,-5.35 32.74,-8.02 36.26,-8.89 72.52,-17.78 108.77,-26.67 61.8,-15.15 123.61,-30.3 185.41,-45.45 5.93,9.18 11.87,18.36 17.8,27.54 -379.52,-48.8 -759.03,-97.61 -1138.55,-146.41 -54.09,-6.96 -108.19,-13.91 -162.28,-20.87 -23.83,-3.06 -39.67,-32.25 -6.27,-27.96" /><path
         id="path138"
         style="fill:#ffffff;fill-opacity:1;fill-rule:nonzero;stroke:none"
         d="m 2940.89,8687.2 334.52,-83.05 114.31,-888.93 -333.93,78.46 -114.9,893.52" /><path
         id="path140"
         style="fill:#6a79a8;fill-opacity:1;fill-rule:nonzero;stroke:none"
         d="m 2921.26,8677.05 c 87.67,-21.76 175.35,-43.53 263.03,-65.3 18.15,-4.5 36.51,-10.43 54.93,-13.63 12.12,-2.11 14.41,-6.11 12.27,-2.23 7.65,-13.85 5.57,-43.34 7.54,-58.69 27.11,-210.76 54.21,-421.52 81.31,-632.28 8.41,-65.39 16.82,-130.78 25.23,-196.17 14.59,5.54 29.18,11.08 43.77,16.62 -87.52,20.57 -175.04,41.13 -262.57,61.7 -18.09,4.25 -36.47,9.97 -54.83,12.88 -2.74,0.43 -12.63,1.52 -15.08,3.54 -3.43,2.82 5.62,-6.51 2.78,-1.06 -7.69,14.78 -5.66,44.04 -7.75,60.3 -27.28,212.1 -54.55,424.19 -81.82,636.28 -8.35,64.89 -16.69,129.78 -25.04,194.66 -1.5,11.7 -50.16,1.59 -48.29,-12.94 33.53,-260.75 67.06,-521.51 100.59,-782.26 4.77,-37.09 9.54,-74.17 14.31,-111.26 0.85,-1.97 2.36,-3.2 4.52,-3.67 111.31,-26.16 222.62,-52.31 333.93,-78.47 9.12,-2.14 45.71,1.58 43.77,16.62 -33.29,258.92 -66.59,517.83 -99.88,776.75 -4.81,37.4 -9.62,74.79 -14.43,112.18 -0.85,1.98 -2.36,3.21 -4.52,3.68 -111.5,27.68 -223.01,55.37 -334.52,83.05 -12.25,3.04 -55,-16.39 -39.25,-20.3" /><path
         id="path142"
         style="fill:#6a79a8;fill-opacity:1;fill-rule:nonzero;stroke:none"
         d="m 4513.79,8105.19 c -81.54,-10.49 -163.07,-20.97 -244.6,-31.46 -21.11,-2.71 -41.91,-25.77 -8.03,-21.41 81.54,10.48 163.07,20.97 244.6,31.45 21.11,2.72 41.91,25.78 8.03,21.42 v 0" /><path
         id="path144"
         style="fill:#6a79a8;fill-opacity:1;fill-rule:nonzero;stroke:none"
         d="m 4520.13,8049.29 c -81.53,-10.48 -163.06,-20.97 -244.59,-31.45 -26.04,-3.35 -37.74,-37.85 -4.75,-33.61 81.52,10.48 163.05,20.97 244.58,31.45 26.04,3.35 37.74,37.85 4.76,33.61 v 0" /><path
         id="path146"
         style="fill:#bbdff5;fill-opacity:1;fill-rule:nonzero;stroke:none"
         d="m 3479.42,7823.24 374.35,45.61 -19.77,162.32 -374.35,-45.61 19.77,-162.32" /><path
         id="path148"
         style="fill:#6a79a8;fill-opacity:1;fill-rule:nonzero;stroke:none"
         d="m 3796.42,7959.66 c -80.65,-9.83 -161.3,-19.65 -241.96,-29.48 -26.78,-3.26 -37.14,-39.44 -4.26,-35.44 80.65,9.83 161.3,19.66 241.95,29.48 26.79,3.27 37.14,39.44 4.27,35.44 v 0" /><path
         id="path150"
         style="fill:#6a79a8;fill-opacity:1;fill-rule:nonzero;stroke:none"
         d="m 3471.99,7812.66 c 124.78,15.2 249.56,30.4 374.35,45.61 9.1,1.11 28.95,7.32 27.41,19.94 -6.59,54.11 -13.18,108.22 -19.77,162.33 -0.96,7.86 -15.88,7.61 -20.88,7 -124.78,-15.2 -249.57,-30.41 -374.35,-45.61 -9.1,-1.11 -28.96,-7.32 -27.42,-19.95 6.59,-54.1 13.19,-108.21 19.78,-162.32 1.97,-16.19 50.53,-5.38 48.3,12.94 -6.6,54.11 -13.19,108.22 -19.78,162.32 -9.14,-6.64 -18.28,-13.29 -27.42,-19.94 124.78,15.2 249.57,30.41 374.35,45.61 -6.96,2.33 -13.92,4.67 -20.88,7 6.59,-54.1 13.19,-108.21 19.78,-162.32 9.14,6.65 18.28,13.3 27.42,19.95 -124.79,-15.21 -249.57,-30.41 -374.35,-45.61 -23.48,-2.86 -40.03,-31.03 -6.54,-26.95" /><path
         id="path152"
         style="fill:#bbdff5;fill-opacity:1;fill-rule:nonzero;stroke:none"
         d="m 3810.09,8674.65 219.6,26.76 22.91,-188.09 -219.59,-26.76 -22.92,188.09" /><path
         id="path154"
         style="fill:#bbdff5;fill-opacity:1;fill-rule:nonzero;stroke:none"
         d="m 3810.09,8674.65 219.6,26.76 -330.74,81.98 -219.59,-26.76 330.73,-81.98" /><path
         id="path156"
         style="fill:#6a79a8;fill-opacity:1;fill-rule:nonzero;stroke:none"
         d="m 4001.91,8693.42 c 7.64,-62.7 15.28,-125.4 22.92,-188.09 11.59,5.2 23.17,10.41 34.76,15.62 -73.2,-8.92 -146.4,-17.84 -219.6,-26.75 4.52,-0.9 9.03,-1.79 13.54,-2.69 -7.64,62.7 -15.28,125.4 -22.91,188.09 -1.01,8.3 -49.75,-1.08 -48.3,-12.94 7.64,-62.69 15.28,-125.39 22.92,-188.09 0.5,-4.15 11.48,-2.94 13.54,-2.69 73.19,8.92 146.39,17.84 219.59,26.76 6.1,0.74 36.01,5.36 34.76,15.63 -7.64,62.69 -15.28,125.39 -22.92,188.09 -1.01,8.29 -49.74,-1.09 -48.3,-12.94 v 0" /><path
         id="path158"
         style="fill:#6a79a8;fill-opacity:1;fill-rule:nonzero;stroke:none"
         d="m 3833.87,8668.04 c 36.81,4.49 73.63,8.97 110.44,13.46 8.65,1.05 27.32,3.12 32.3,11.61 4.75,8.09 -4.12,9.09 -11.48,8.19 -36.81,-4.49 -73.63,-8.97 -110.44,-13.46 -8.65,-1.05 -27.32,-3.12 -32.3,-11.61 -4.75,-8.09 4.11,-9.09 11.48,-8.19 v 0" /><path
         id="path160"
         style="fill:#6a79a8;fill-opacity:1;fill-rule:nonzero;stroke:none"
         d="m 4040.05,8715.97 c -103.22,25.59 -206.44,51.17 -309.66,76.75 -33.46,8.3 -61.07,3.12 -95.6,-1.09 -52.28,-6.37 -104.56,-12.74 -156.84,-19.11 -13.59,-1.65 -43.4,-26.75 -16.21,-33.49 110.25,-27.33 220.49,-54.65 330.74,-81.98 20.44,-5.07 57.07,24.96 27.98,32.17 -110.24,27.32 -220.49,54.65 -330.73,81.97 -5.41,-11.16 -10.81,-22.33 -16.21,-33.49 49.28,6 98.56,12 147.83,18.01 23.17,2.82 46.34,6.22 69.57,8.48 5.21,0.5 -17.29,3.35 -4.01,0.21 7.87,-1.86 15.71,-3.89 23.57,-5.84 100.53,-24.92 201.06,-49.84 301.59,-74.75 20.44,-5.07 57.08,24.95 27.98,32.16 v 0" /><path
         id="path162"
         style="fill:#6a79a8;fill-opacity:1;fill-rule:nonzero;stroke:none"
         d="m 2007.53,6405.77 c 2.32,-394.33 43.17,-826.3 292.67,-1149.38 133.18,-172.45 311.21,-280.28 521.04,-334.65 123.1,-31.89 250.21,-57.76 377.44,-63.95 100.28,-4.88 295.53,-0.73 295.67,141.13 0.03,23.52 -48.68,15.11 -48.7,-4.51 -0.13,-124.58 -181.67,-108.64 -265.3,-101.86 -113.25,9.19 -225.66,32.06 -335.48,60.78 -202.3,52.92 -371.92,157.36 -500.23,323.51 -114.88,148.75 -185.13,326.22 -227.1,508.25 -47.2,204.76 -60.07,415.63 -61.31,625.19 -0.13,23.54 -48.82,15.08 -48.7,-4.51 v 0" /><path
         id="path164"
         style="fill:#e3e3e3;fill-opacity:1;fill-rule:nonzero;stroke:none"
         d="m 7520.57,2735.44 c -44.06,-22.91 -60.18,-50.33 -38.83,-83.09 148.5,-227.77 810.73,-228.53 1131.97,-231.97 404.08,-4.34 824.55,-15.15 1188.16,35.7 152.16,21.28 497.13,38.49 555.83,114.3 154,199.15 -947.3,267.12 -1125.51,271.91 -297.08,7.98 -1459.99,24.02 -1711.62,-106.85" /><path
         id="path166"
         style="fill:#ffffff;fill-opacity:1;fill-rule:nonzero;stroke:none"
         d="m 5636.99,8303.93 c 570.17,-476.86 867.82,-757.02 1330.84,-1232.29 186.71,273.12 366.77,464.07 617.43,663.93 -531.84,401.01 -831.08,684.02 -1334.87,1241.3 -191.38,-258.63 -370.26,-452.37 -613.4,-672.94" /><path
         id="path168"
         style="fill:#6a79a6;fill-opacity:1;fill-rule:nonzero;stroke:none"
         d="m 5609.62,8297.12 c 189.42,-162.33 359.13,-303.66 507.82,-433.97 236.75,-205.76 430.48,-397.7 663.05,-635.06 53.66,-54.47 108.97,-110.58 165.7,-167.36 8.23,-8.2 36.77,6.18 42.64,14.66 162.97,237.06 321.24,411.92 529.25,585.56 30.05,25.21 61.04,50.41 93.03,75.77 2.37,1.88 4.2,3.4 1.37,5.58 -176.43,135.92 -337.46,260.54 -482.13,383.12 -230.32,193.62 -429.21,395.17 -678.28,665.5 -57.5,62.15 -117.22,127.23 -178.94,194.26 -8.95,9.71 -38.95,-1.23 -44.96,-9.28 -166.83,-224.99 -324.43,-401.07 -527.18,-589.31 -29.26,-27.35 -59.37,-54.99 -90.35,-83.09 -10.88,-10 43.6,-7.45 52.4,0.87 209.1,192.04 371.77,364 536.88,578.05 24.05,30.97 48.23,62.75 72.71,95.44 -15,-3.1 -29.97,-6.17 -44.92,-9.22 315.49,-339.87 553.3,-594.86 810.92,-817.65 138.27,-120.95 288.6,-241.03 455.66,-371.95 16.57,-12.98 33.29,-30.37 52.58,-41.18 2.41,-1.34 9.53,-5.96 10.57,-8.26 0.26,-0.6 2.97,9.14 -3.3,0.27 -14.55,-20.48 -47.79,-39.36 -67.21,-55.98 -40.02,-34.08 -78.37,-68.19 -115.31,-102.78 -157.32,-146.8 -287.93,-303.67 -424.79,-503.25 14.21,4.9 28.42,9.75 42.61,14.56 -154.89,152.64 -296.92,297.72 -431.8,429.42 -213.73,210.32 -422.05,394.18 -696.34,628.73 -63.16,54.27 -129.15,110.98 -197.29,170.12 -10.82,9.61 -62.57,-6.36 -54.39,-13.57" /><path
         id="path170"
         style="fill:#bbf9bc;fill-opacity:1;fill-rule:nonzero;stroke:none"
         d="m 5738.21,8300.69 c 509.63,-435.91 797.55,-705.15 1221.91,-1131.52 161.64,223.92 320.62,393.49 526.13,566.12 -476.28,369.9 -765.45,641.44 -1225.16,1138.79 -165.13,-213.15 -323.13,-385.02 -522.88,-573.39" /><path
         id="path172"
         style="fill:#ffffff;fill-opacity:1;fill-rule:nonzero;stroke:none"
         d="m 5835.32,8297.81 c 454.08,-396.64 730.26,-653.74 1117.64,-1035.02 136.67,179.99 273.07,326.06 438.34,471.88 -425.34,339.71 -702.48,598.64 -1120.2,1040.7 -139.15,-172.4 -274.75,-320.3 -435.78,-477.56" /><path
         id="path174"
         style="fill:#6a79a6;fill-opacity:1;fill-rule:nonzero;stroke:none"
         d="m 5810.92,8289.04 c 402.4,-351.16 665.13,-587.13 984.16,-903.74 44.65,-43.68 90.35,-88.46 137.14,-134.03 10.92,-10.65 31.1,-5.26 39.83,6.21 136.62,179.9 273.8,325.69 440.74,471.57 3.79,3.33 8.13,9.97 2.83,14.24 -376.93,300.42 -636.9,531.72 -976.14,888.08 -47.45,49.3 -96.4,100.59 -146.84,153.62 -11.76,12.39 -32.91,9.18 -41.79,-1.83 -138.95,-172.65 -275.24,-320.56 -437.84,-478.2 -21.4,-20.9 31.06,-27.63 44.43,-14.23 159.51,156.88 294.48,304.75 433.83,476.9 -13.88,-0.62 -27.79,-1.21 -41.7,-1.79 369.14,-386.43 625.12,-635.21 969.91,-918.28 47.89,-39.75 97.2,-80.23 147.79,-121.51 0.9,4.73 1.8,9.47 2.71,14.2 -163.64,-145.75 -299.31,-292.08 -436.05,-472.15 13.24,2.05 26.5,4.08 39.78,6.07 -342.37,332.34 -593.93,573.26 -957.42,892.69 -50.48,44.88 -102.82,91.41 -156.85,139.66 -15.97,14.48 -66.17,-1.75 -48.52,-17.48" /><path
         id="path176"
         style="fill:#bbf9bc;fill-opacity:1;fill-rule:nonzero;stroke:none"
         d="m 6465.86,8145.29 c 79.3,86.2 215.27,87.38 301.17,7.57 85.97,-79.86 89.39,-209.96 9.88,-295.72 -79.54,-85.68 -212.04,-94.67 -297.8,-15.13 -85.73,79.35 -92.65,217.26 -13.25,303.28" /><path
         id="path178"
         style="fill:#6a79a6;fill-opacity:1;fill-rule:nonzero;stroke:none"
         d="m 6485.64,8146.52 c 86.28,87.91 226.05,62.02 292.27,-37.78 51.81,-78.04 43.51,-183.51 -20.54,-253.28 -81.12,-88.33 -213.99,-69.61 -282.54,22.23 -60.45,80.81 -54.29,193.84 10.81,268.83 8.7,9.99 -32.62,5.58 -39.6,-2.45 -66.16,-76.19 -77.88,-189.29 -17.96,-274.69 55.59,-79.34 152.07,-105.94 242.64,-82.78 89.49,22.99 165.57,91.04 182.03,182.99 17.19,96.26 -37.22,192.82 -129.94,232.14 -94.11,39.76 -207.31,13.3 -276.77,-57.66 -8.91,-9.12 32.18,-5.15 39.6,2.45" /><path
         id="path180"
         style="fill:#bbf9bc;fill-opacity:1;fill-rule:nonzero;stroke:none"
         d="m 6202.64,8395.08 c 36.82,40.32 101.89,38.32 144.18,-3.03 42.32,-41.4 46.32,-105.19 10.41,-144.27 -35.92,-39.04 -99.05,-39.69 -142.3,0.45 -43.24,40.12 -49.18,106.61 -12.29,146.85" /><path
         id="path182"
         style="fill:#6a79a6;fill-opacity:1;fill-rule:nonzero;stroke:none"
         d="m 6224.27,8394.14 c 36.88,36.91 95.53,10.37 120.82,-34.31 20.95,-36.96 18.22,-83.42 -8.6,-111.68 -35.03,-37.01 -94.02,-11.74 -119.8,31.99 -22.55,38.34 -18.23,83.05 7.58,114 11.07,13.21 -34.98,11.85 -43.39,1.92 -42.78,-50.93 -29.89,-133.21 33.27,-170.8 53.93,-32.12 126.21,-19.45 163.74,22.18 43.11,47.8 30.34,129.08 -30.4,168.08 -55.06,35.18 -125.3,21.69 -166.61,-19.46 -7.75,-7.72 7.65,-11.75 12.74,-12.27 11.01,-1.13 23.36,3.04 30.65,10.35" /><path
         id="path184"
         style="fill:#bbf9bc;fill-opacity:1;fill-rule:nonzero;stroke:none"
         d="m 6885.75,7765.64 c 36.06,38.79 98.36,40.94 139.6,4.9 41.25,-36.07 44.68,-97.3 7.57,-137.12 -37.06,-39.83 -99.92,-42.48 -140.13,-5.36 -40.2,37.12 -43.1,98.81 -7.04,137.58" /><path
         id="path186"
         style="fill:#6a79a6;fill-opacity:1;fill-rule:nonzero;stroke:none"
         d="m 6904.07,7760.05 c 72.1,71.31 175.13,-50.73 109.83,-120.74 -31.71,-33.97 -84.44,-25.03 -111.84,10.23 -26.26,33.74 -24.84,79.26 2.01,110.51 17.67,20.54 -24.72,25.09 -36.57,11.15 -40.51,-47.41 -38.67,-119.9 14.45,-160.97 50.23,-38.8 127.64,-28.39 170.1,17.28 43.98,47.27 38.02,121.32 -15.31,159.98 -53.44,38.73 -126.24,26.51 -169.24,-16.29 -18.99,-18.9 23.63,-23.89 36.57,-11.15" /><path
         id="path188"
         style="fill:#6a79a6;fill-opacity:1;fill-rule:nonzero;stroke:none"
         d="m 6637.03,8026.57 c 12.37,11.38 24.75,22.73 37.17,34.07 -6.64,3.95 -12.69,6.23 -18.15,6.84 -5.47,0.62 -10.89,-1.53 -16.25,-6.46 -5.11,-4.68 -7.66,-9.65 -7.65,-14.91 0.01,-5.26 1.65,-11.76 4.88,-19.54 z m -17.35,-38.81 c -14.11,-13.07 -28.2,-26.19 -42.31,-39.38 7.32,-5.32 14.58,-7.9 21.78,-7.77 7.2,0.13 13.41,2.63 18.62,7.48 5.6,5.22 8.33,10.96 8.22,17.25 -0.14,6.28 -2.24,13.75 -6.31,22.42 z m 95.45,87.48 c -3.52,-3.2 -7.04,-6.39 -10.55,-9.59 5.67,-7.55 9.72,-14.75 12.13,-21.62 2.42,-6.86 3.14,-14.11 2.19,-21.72 -0.63,-5.9 -1.97,-11.24 -4.01,-16.01 -2.05,-4.77 -4.52,-8.49 -7.45,-11.15 -3.23,-2.96 -7.12,-4.36 -11.65,-4.18 -4.55,0.17 -8.36,1.93 -11.46,5.26 -5.84,6.29 -6.2,13.52 -1.06,21.66 6.12,9.53 6.76,19.55 1.92,30.1 -13.5,-12.31 -26.94,-24.64 -40.37,-37 5.2,-10.01 9.07,-18.21 11.65,-24.6 2.58,-6.38 3.88,-13.01 3.91,-19.9 0.14,-7.25 -1.24,-14.24 -4.18,-20.96 -2.93,-6.72 -7.34,-12.81 -13.21,-18.28 -7.32,-6.83 -15.78,-11.54 -25.37,-14.11 -9.59,-2.56 -19.51,-2.4 -29.75,0.48 -10.25,2.89 -20.03,8.58 -29.34,17.1 -8.02,-7.54 -16.05,-15.1 -24.09,-22.69 -3.81,-3.6 -6.95,-5.87 -9.37,-6.77 -2.44,-0.91 -4.83,-0.11 -7.15,2.42 -2.16,2.34 -2.97,4.65 -2.41,6.94 0.57,2.28 2.33,4.83 5.3,7.63 8.72,8.23 17.44,16.43 26.14,24.6 -6.15,8.36 -10.51,16.64 -13.04,24.86 -2.54,8.21 -3.55,16.11 -3.04,23.67 0.53,7.57 2.1,14.29 4.78,20.16 2.68,5.87 6.1,10.76 10.3,14.65 3.09,2.87 7.01,4.24 11.75,4.11 4.73,-0.15 8.78,-2.05 12.15,-5.68 2.69,-2.93 4.28,-6.03 4.79,-9.29 0.51,-3.26 -0.11,-6.42 -1.83,-9.47 -3.67,-6.65 -6.32,-11.95 -7.91,-15.84 -1.63,-3.91 -2.35,-8.26 -2.25,-13.04 0.1,-4.79 1.54,-9.92 4.32,-15.4 14.98,14 29.94,27.91 44.92,41.78 -5.61,10.85 -9.65,20.57 -12.1,29.11 -2.46,8.55 -2.64,17.15 -0.59,25.79 2.07,8.64 7.37,16.88 15.89,24.72 11.14,10.22 23.53,15.01 37.24,14.4 13.71,-0.6 27.33,-7.11 40.87,-19.43 3.45,3.14 6.9,6.28 10.36,9.42 5.47,4.97 10.1,5.4 13.87,1.34 3.82,-4.14 3.06,-8.63 -2.3,-13.47" /><path
         id="path190"
         style="fill:#ffffff;fill-opacity:1;fill-rule:nonzero;stroke:none"
         d="m 7074.82,7103.38 c -562.71,338.89 -908.6,562.89 -1558.54,883.46 178.01,279.19 316.73,512.37 437.09,816.72 609.92,-423.9 967.21,-665.43 1587.61,-939.26 -194.31,-245.21 -341.52,-460.96 -466.16,-760.92" /><path
         id="path192"
         style="fill:#6a79a6;fill-opacity:1;fill-rule:nonzero;stroke:none"
         d="m 7096.3,7113.55 c -342.28,199.39 -628.44,386.16 -927.34,550.76 -162.09,90.41 -337.68,182.1 -545.03,289.11 -21.59,11.16 -43.96,21.97 -65.84,34.01 -17.31,9.53 -10.85,1 -9.31,9.82 4.3,24.48 35.03,55.79 47.79,76.37 28.66,46.07 56.46,91.36 83.28,136.27 114.7,191.35 208.44,373.93 297.44,597.48 -15.45,-4.06 -30.9,-8.08 -46.34,-12.06 371.63,-253.07 673.88,-466.3 973.02,-632.49 162.31,-91.25 333.79,-176.77 532.61,-269.96 20.71,-9.71 42.16,-19.06 63.02,-29.42 16.5,-8.19 10.66,-0.78 8.57,-8.51 -5.86,-21.42 -38.18,-49.24 -52.02,-67.58 -31.11,-40.98 -61.15,-81.66 -90,-122.42 -123.31,-173.72 -222.28,-346.67 -314.06,-567.74 -2.47,-5.98 39.68,-1.27 45.46,12.31 109.71,260.19 236.4,455.73 400.08,666.79 23.52,30.43 47.64,61.04 72.25,91.91 1.06,1.43 0.7,2.59 -1.07,3.46 -213.52,96.99 -396.83,184.49 -565.57,275.91 -266.39,143.1 -512,308.36 -814.1,517.42 -69.39,47.88 -140.86,97.29 -213.34,146.91 -11.46,7.84 -41.54,-0.19 -46.35,-12.1 -105.69,-264.77 -225.06,-474.88 -375.87,-712.77 -21.63,-34.33 -43.76,-69.1 -66.24,-104.41 -0.95,-1.64 -0.49,-2.97 1.36,-4 223.56,-113.34 412.29,-209.1 581.96,-301.52 267.92,-144.59 503.6,-293.23 785.19,-465.76 64.63,-39.39 130.8,-79.25 197.5,-118.27 11.91,-6.89 48.38,17.45 42.95,20.48" /><path
         id="path194"
         style="fill:#bbf9bc;fill-opacity:1;fill-rule:nonzero;stroke:none"
         d="m 7047.16,7193.4 c -514.53,308.34 -849.83,516 -1432.86,815.04 146.48,235.54 265,442.72 372.03,696.04 555.2,-380.95 899.52,-602.78 1456.38,-860 -159.19,-209.11 -284.83,-401.99 -395.55,-651.08" /><path
         id="path196"
         style="fill:#ffffff;fill-opacity:1;fill-rule:nonzero;stroke:none"
         d="m 7020.37,7280.72 c -468.34,278.25 -790.67,471.71 -1312.09,748.51 117.97,194.58 217.39,373.03 309.82,579.45 502.91,-339.46 832.17,-544.05 1330.57,-783.7 -127.56,-174.72 -232.75,-341.81 -328.3,-544.26" /><path
         id="path198"
         style="fill:#6a79a6;fill-opacity:1;fill-rule:nonzero;stroke:none"
         d="m 7037.88,7294.31 c -410.63,241.16 -712.27,424.54 -1126.92,648.11 -58.27,31.84 -118.88,64.84 -182.11,99.32 1.63,-4.94 3.25,-9.88 4.86,-14.8 116.67,193.6 215.06,371.69 307.63,578.23 -13.68,-3.13 -27.38,-6.24 -41.11,-9.31 440.89,-294.97 751.64,-492.94 1152.4,-694.6 56.34,-28.72 114.6,-57.87 175.02,-87.7 -1.32,4.38 -2.65,8.76 -3.96,13.14 -125.98,-174.32 -229.91,-341.56 -325.37,-544.69 -10.76,-22.88 36.11,-19.43 44.15,-2.59 95.73,201.75 202.25,368.69 331.44,543.83 3.57,4.86 1.91,10.33 -4,13.2 -443.75,212.86 -745.31,389.91 -1158.46,667.63 -57.02,38 -115.63,77.32 -175.51,117.52 -13.42,9.03 -35.13,4.02 -41.15,-9.38 -92.35,-206.27 -192.9,-385.1 -312.22,-580.67 -3.3,-5.42 -1.25,-11.63 4.93,-14.94 463.92,-245.54 762.69,-417.52 1151.32,-652.47 53.62,-31.98 108.4,-64.52 164.08,-97.18 15.85,-9.22 56.68,14.86 34.98,27.35" /><path
         id="path200"
         style="fill:#bbf9bc;fill-opacity:1;fill-rule:nonzero;stroke:none"
         d="m 6715.96,7816.08 c 58.77,100.27 26.13,226.32 -75.82,286.66 -102.07,60.29 -233.82,28.27 -291.24,-74.53 -57.53,-102.57 -21.57,-235.13 79.02,-292.95 100.79,-57.99 229.26,-19.47 288.04,80.82" /><path
         id="path202"
         style="fill:#6a79a6;fill-opacity:1;fill-rule:nonzero;stroke:none"
         d="m 6737.38,7819.87 c 48.43,88.07 35.41,195.64 -41.64,264.58 -68.82,61.53 -169.21,71.36 -252.92,38.52 -89.97,-35.09 -150.33,-123.44 -142.5,-223.2 8.22,-104.06 89.11,-188 189.2,-199.4 97.04,-11.08 195.79,36.86 247.86,119.5 3.12,5.01 -36.13,3.16 -42.77,-7.6 -64.66,-104.1 -196.2,-124.69 -285.44,-40.08 -69.39,65.66 -85.51,175.98 -38.74,259.55 60.49,108.72 200.77,117.53 288.45,34.21 71.08,-67.43 81.2,-170.04 35.73,-253.68 -3.2,-5.82 36.72,-3.31 42.77,7.6" /><path
         id="path204"
         style="fill:#bbf9bc;fill-opacity:1;fill-rule:nonzero;stroke:none"
         d="m 7014.85,7649.34 c 27.58,46.24 10.09,104.73 -38.62,131.04 -48.7,26.28 -109.21,11.06 -135.88,-34.28 -26.66,-45.32 -10.07,-104.58 37.77,-131.82 47.85,-27.22 109.2,-11.17 136.73,35.06" /><path
         id="path206"
         style="fill:#6a79a6;fill-opacity:1;fill-rule:nonzero;stroke:none"
         d="m 7038.03,7652.35 c 31.99,59.51 -0.69,130.41 -69.91,147.56 -55.39,13.73 -121.53,-8.39 -148.96,-55.61 -31.81,-54.59 -3.56,-125.7 58.4,-147.76 56.75,-20.13 126.3,4.7 158.78,53.02 10.08,15.11 -35.93,10.18 -42.84,-0.46 -61.75,-93.96 -179.14,18.62 -131.46,98.55 26.58,44.88 83.66,42.4 118.48,4.87 27.99,-30.26 29.67,-71.25 11.33,-106.22 -5.28,-9.95 39.32,-6.59 46.18,6.05" /><path
         id="path208"
         style="fill:#bbf9bc;fill-opacity:1;fill-rule:nonzero;stroke:none"
         d="m 6223.73,8108.87 c 25.86,46.79 7.43,109.17 -42.73,140.44 -50.12,31.21 -112.92,17.72 -139.1,-30.99 -26.27,-48.67 -5.59,-112.89 44.86,-142.19 50.48,-29.3 111.09,-14.03 136.97,32.74" /><path
         id="path210"
         style="fill:#6a79a6;fill-opacity:1;fill-rule:nonzero;stroke:none"
         d="m 6245.2,8106.25 c 28.09,57.29 4.89,131 -60.37,162.48 -60.34,29.02 -135.77,9.21 -165.8,-47.11 -31.42,-58.82 0.02,-136.83 63.53,-164.49 63.09,-27.55 130.21,-3.02 162.64,49.12 12.24,19.66 -33.57,20.49 -43.04,5.28 -54.62,-90.2 -182.98,16.79 -137.55,103.54 23.95,44.56 82.79,43.78 119.26,6.05 30.54,-31.53 35.27,-74.71 18.29,-109.59 -10.46,-21.59 35.17,-21.5 43.04,-5.28" /><path
         id="path212"
         style="fill:#6a79a6;fill-opacity:1;fill-rule:nonzero;stroke:none"
         d="m 6541.58,7952.42 c 8.43,14.54 16.87,29.07 25.35,43.61 -7.53,1.83 -13.98,2.24 -19.38,1.21 -5.41,-1.02 -9.93,-4.69 -13.59,-11 -3.47,-6 -4.44,-11.52 -2.85,-16.55 1.58,-5.02 5.08,-10.78 10.47,-17.27 z m -5.08,-42.22 c -9.61,-16.65 -19.21,-33.34 -28.81,-50.11 8.54,-2.9 16.23,-3.19 23.09,-0.93 6.84,2.26 12.04,6.48 15.6,12.65 3.82,6.63 4.75,12.91 2.77,18.87 -1.98,5.95 -6.18,12.46 -12.65,19.52 z m 65.16,111.84 c -2.41,-4.1 -4.81,-8.2 -7.22,-12.29 7.67,-5.59 13.7,-11.31 18.07,-17.19 4.36,-5.87 7.23,-12.6 8.6,-20.17 1.15,-5.84 1.48,-11.33 0.93,-16.48 -0.54,-5.15 -1.8,-9.43 -3.8,-12.83 -2.21,-3.78 -5.52,-6.24 -9.91,-7.41 -4.41,-1.16 -8.57,-0.61 -12.53,1.67 -7.45,4.3 -9.95,11.1 -7.46,20.4 3.01,10.9 0.64,20.7 -7.15,29.38 -9.22,-15.76 -18.4,-31.52 -27.55,-47.3 7.93,-8.04 14.07,-14.71 18.43,-20.05 4.35,-5.35 7.57,-11.29 9.64,-17.84 2.28,-6.88 3.01,-13.94 2.19,-21.22 -0.81,-7.27 -3.23,-14.36 -7.23,-21.29 -5.01,-8.68 -11.73,-15.65 -20.15,-20.94 -8.44,-5.28 -17.96,-8.08 -28.61,-8.37 -10.65,-0.31 -21.68,2.2 -33.06,7.52 -5.46,-9.57 -10.93,-19.18 -16.41,-28.82 -2.6,-4.57 -4.93,-7.66 -6.99,-9.26 -2.05,-1.58 -4.58,-1.54 -7.53,0.16 -2.74,1.58 -4.18,3.55 -4.31,5.89 -0.14,2.35 0.82,5.3 2.84,8.86 5.94,10.46 11.87,20.89 17.8,31.28 -8.32,6.12 -14.9,12.71 -19.72,19.79 -4.82,7.06 -8.1,14.3 -9.82,21.67 -1.72,7.37 -2.17,14.29 -1.36,20.68 0.81,6.42 2.65,12.12 5.49,17.1 2.11,3.67 5.43,6.15 9.99,7.43 4.54,1.27 8.96,0.68 13.23,-1.8 3.45,-1.99 5.87,-4.48 7.32,-7.45 1.45,-2.97 1.8,-6.17 1.04,-9.6 -1.54,-7.45 -2.5,-13.29 -2.88,-17.49 -0.38,-4.21 0.18,-8.58 1.68,-13.11 1.51,-4.53 4.39,-9.01 8.66,-13.39 10.19,17.81 20.37,35.54 30.57,53.23 -8.57,8.7 -15.29,16.78 -20.16,24.24 -4.86,7.45 -7.62,15.62 -8.2,24.51 -0.6,8.9 1.98,18.4 7.78,28.45 7.55,13.11 17.96,21.39 31.19,24.86 13.24,3.46 28.2,1.22 44.82,-6.63 2.36,4.02 4.72,8.05 7.08,12.08 3.75,6.38 8.03,8.17 12.85,5.35 4.9,-2.86 5.52,-7.39 1.85,-13.62" /><path
         id="path214"
         style="fill:#6a79a8;fill-opacity:1;fill-rule:nonzero;stroke:none"
         d="m 9118.08,6903.16 c -37.1,-198.99 -281.67,-276.19 -456.6,-280.58 -167.23,-4.19 -333.33,39.32 -486.4,104.12 -293.48,124.22 -565.61,328.44 -769.06,573.75 -41.14,49.61 -91.44,106.41 -117.47,166.11 -12.31,28.23 1.9,53.86 -24.03,77.03 -38.22,34.14 -67.04,20.82 -113.28,10.89 -18.3,-3.93 -43.28,-23.6 -9.39,-16.32 45.14,9.69 88.87,3.73 93.44,-49.95 1.63,-19.06 -3.6,-19.79 7.23,-38.51 8.63,-14.92 17.73,-29.56 27.16,-43.99 36.72,-56.13 78.66,-108.76 123.02,-159.01 113.17,-128.21 243.89,-241.62 384.22,-339.15 275.86,-191.72 620.37,-344.6 963.52,-294.27 167.19,24.53 390.92,114.99 425.94,302.82 0.67,3.61 -45.65,1.26 -48.3,-12.94 v 0" /><path
         id="path216"
         style="fill:#cfcfcf;fill-opacity:1;fill-rule:nonzero;stroke:none"
         d="m 7808.7,3925.16 c -11.56,363.5 51.75,825.87 113.94,1186.33 14.1,81.72 228.29,-49.89 329.11,-59.04 154.08,-14 310.38,-30.56 465.55,-28.77 303.73,3.52 1183.45,191.83 1183.48,191.83 32.5,-1.27 113.52,-1015.47 120.82,-1102.42 23.6,-282.29 53.4,-563.3 60.2,-846.8 3.7,-152.3 57.9,-482.12 -71.9,-609.4 -13.74,-13.49 -25.6,-26.7 -46.84,-30.21 -94.45,-15.6 -172.32,141.57 -203.82,197.2 -202.88,358.3 -262.2,766.94 -448,1133.47 -41.66,82.17 -90.17,165.24 -169.42,220.46 -76.79,53.5 -201.3,112.98 -292.82,61.39 -197.28,-111.22 -307.01,-375.29 -398.23,-561.04 -76.69,-156.16 -140.19,-317.55 -189.65,-482.33 -46.55,-155.07 -75.76,-313.68 -161.83,-456.87 -35.32,-58.76 -77.85,-129.3 -156.98,-137.75 -96.36,-10.28 -104.7,232.88 -111.81,279.06 -33.55,218.12 -22.86,435.38 -28.89,654.38 -3.57,129.6 11.21,260.94 7.09,390.51" /><path
         id="path218"
         style="fill:#e3e3e3;fill-opacity:1;fill-rule:nonzero;stroke:none"
         d="m 7818.67,3926.01 c -11.56,363.5 16.62,772.37 103.97,1185.48 17.16,81.13 228.29,-49.89 329.11,-59.04 154.08,-14 310.38,-30.56 465.55,-28.77 303.73,3.52 1080.97,191.32 1081,191.32 19.34,-65.13 92.76,-772.98 99.62,-844.93 39.77,-417.09 74.46,-834.66 104.08,-1252.57 6.4,-90.38 14.3,-180.85 18.9,-271.33 2.6,-51.95 18.2,-142.29 -11,-189.28 -10.23,-16.49 -25.6,-26.7 -46.84,-30.21 -94.45,-15.6 -162.19,142.21 -193.69,197.84 -202.88,358.3 -249.48,725.51 -518.13,1132.19 -50.78,76.87 -100.17,165.14 -179.42,220.36 -128.32,89.4 -184.79,125.39 -320.29,46.7 -162.67,-94.47 -271.5,-266.75 -344.56,-436.29 -73.69,-170.98 -152.71,-344.18 -213.31,-520.26 -60.03,-174.43 -100.31,-357.38 -176.76,-525.74 -17.27,-38.05 -43.57,-142.71 -90.18,-139.7 -32.55,2.09 -54.5,44.49 -66.54,70.44 -29.78,64.16 -18.66,138.25 -29.34,207.64 -33.56,218.12 -13.24,436.64 -19.27,655.64 -3.56,129.6 11.22,260.93 7.1,390.51" /><path
         id="path220"
         style="fill:#cfcfcf;fill-opacity:1;fill-rule:nonzero;stroke:none"
         d="m 9864.78,4865.05 c -232.56,-8.61 -471.95,-0.17 -706.47,7.39 -224.59,7.25 -448.07,17.77 -670.04,55.18 -160.22,27 -323.55,61.05 -473.81,124.39 -32.84,13.85 -73.59,8.3 -103.05,-11.87 -18.41,-12.6 -44.59,-48.81 -10.98,-62.97 262.1,-110.49 557.25,-155.71 839.44,-177.82 237.66,-18.63 477.24,-22.05 715.51,-25.43 130.64,-1.86 261.44,-2.98 392.04,1.85 26.9,1 77.91,20.76 81.45,52.47 3.92,35.05 -40.11,37.69 -64.09,36.81 v 0" /><path
         id="path222"
         style="fill:#6a79a8;fill-opacity:1;fill-rule:nonzero;stroke:none"
         d="m 7842.82,3932.48 c 8.62,236.15 10.46,472.65 30.43,708.25 10.54,124.47 25.92,248.71 50.32,371.28 5.76,28.88 11.63,57.85 18.81,86.41 4.24,16.86 7.18,27.2 11.32,28.43 28.2,8.41 84.98,-21.4 111.1,-31.15 77.83,-29.03 146.3,-51.38 229.33,-59.04 130,-11.99 260.21,-23.82 390.89,-23.56 130.22,0.26 260.47,19.88 388.94,39.41 264.01,40.16 526.54,91.19 787.89,145.94 8.78,1.84 19.38,2.58 27.76,5.85 1.32,0.52 4.77,1.58 6.32,1.34 -25.49,3.8 -7.8,-3.74 -6.99,-15.81 1.51,-22.87 11.07,-48 14.53,-70.99 5.29,-35.18 9.17,-70.58 12.7,-105.98 17.89,-179.46 34.32,-359.2 50.05,-538.87 23.13,-264.19 44.88,-528.52 64.68,-792.98 18.9,-253.15 50.5,-508.35 40.1,-762.55 -2.2,-52.29 -6.9,-105.3 -22.3,-155.56 -13,-42.49 -51.1,-137.98 -108.06,-121.7 -39.92,11.41 -69.51,57.75 -90.04,90.39 -28.13,44.72 -53.78,91.69 -77.45,138.87 -77.22,153.86 -132.17,317.81 -196.27,477.33 -104.79,260.83 -219.67,537.43 -400.85,755.59 -61.68,74.27 -144.99,157.41 -248.33,159.31 -134.1,2.46 -244.99,-118.26 -313.14,-220.18 -51.48,-77 -91.44,-160.97 -130.1,-244.91 -42.07,-91.33 -87.01,-181.43 -126.53,-273.9 -48.02,-112.37 -90.64,-227.4 -126.97,-344.09 -33.49,-107.6 -56.63,-218.5 -97.42,-323.77 -22.61,-58.34 -125.97,-302.81 -219.79,-232.29 -52.05,39.13 -51.72,135.3 -54.78,193.54 -12.66,240.45 -24.36,480.32 -23.98,721.22 0.2,131.43 3.03,262.83 7.83,394.17 0.31,8.56 -47.75,2.09 -48.3,-12.94 -10.32,-282.71 -10.84,-565.74 1.63,-848.39 4.51,-102.08 8.37,-204.81 17.1,-306.64 4.74,-55.28 12.51,-142.61 72.14,-167.78 58.32,-24.61 133.82,14.6 173.82,55.88 73.14,75.48 115.75,184.74 147.11,282.9 37.71,118.01 66.06,238.42 106.67,355.61 42.19,121.78 90.24,241.59 145.66,357.97 80.3,168.64 147.46,360.51 279.62,496.89 50.35,51.97 118.81,109.95 195.65,90.93 54.3,-13.43 101.06,-50.87 140.42,-89.04 107.13,-103.86 184.19,-239.13 253.09,-370.08 70.76,-134.49 132.38,-273.7 189.62,-414.41 66.38,-163.15 122.27,-331.25 199.75,-489.6 37.21,-76.05 80.95,-180.36 150.52,-233.68 58.7,-44.98 128.8,-23.15 174.38,28.45 64.2,72.82 74.4,176.79 77.8,269.77 5,136.54 -3,273.29 -13.3,409.41 -20.6,272.6 -41.8,545.2 -64.4,817.64 -20.4,245.39 -45.62,490.33 -66.5,735.63 -5.59,65.7 -10.55,131.43 -18.87,196.87 -3.44,26.96 -3.44,112.84 -34.09,126.93 -13.79,6.34 -42.93,-4.98 -56.24,-7.77 -45.87,-9.59 -91.77,-18.98 -137.71,-28.22 -152.63,-30.72 -305.6,-59.9 -459.03,-86.35 -151.33,-26.09 -303.68,-51.75 -456.87,-63.99 -97.71,-7.82 -195.75,-3.88 -293.44,2.75 -111.03,7.55 -230.32,6.88 -335.99,44.44 -65.48,23.27 -138.75,65.01 -210.16,62.33 -83.99,-3.16 -83.34,-74.79 -97.08,-144.04 -47.82,-241 -62.16,-487.35 -70.55,-732.42 -4.02,-117.32 -6.47,-234.68 -10.75,-351.99 -0.31,-8.56 47.75,-2.1 48.3,12.94" /><path
         id="path224"
         style="fill:#6a79a8;fill-opacity:1;fill-rule:nonzero;stroke:none"
         d="m 9910.46,4781.39 c -472.74,-7.82 -950.95,-24.09 -1420.06,45.75 -171.12,25.48 -343.23,61.91 -501.58,133.43 -14.33,6.47 -58.45,-14.37 -38.42,-23.42 259.93,-117.4 552.59,-147.9 833.74,-172.87 237.16,-21.07 477.52,-16.08 715.34,-14.8 130.75,0.7 261.49,2.26 392.22,4.42 18.12,0.3 51.2,28.02 18.76,27.49 v 0" /><path
         id="path226"
         style="fill:#6a79a8;fill-opacity:1;fill-rule:nonzero;stroke:none"
         d="m 9479.6,4474.12 c -2.12,-101.3 33.14,-194.62 100.44,-270.1 8.26,-9.26 53.42,7.74 45.44,16.69 -66.19,74.23 -99.66,167.12 -97.58,266.35 0.17,8.16 -47.99,1.59 -48.3,-12.94 v 0" /><path
         id="path228"
         style="fill:#e5e5e5;fill-opacity:1;fill-rule:nonzero;stroke:none"
         d="m 9957.28,4868.79 c 37.91,238.25 2.5,466.93 4.13,703.4 0.9,130.73 7.13,262.38 -2.08,392.8 -4.58,64.76 -10.51,129.44 -18.04,193.93 -6.25,53.54 -30.32,121.95 -27.34,174.41 2.85,50.18 46.86,84.11 77.06,118.07 -33.86,50.68 -85.3,83.58 -122.65,130.42 -33.86,42.46 -33.57,103.23 -51.6,154.12 -36.63,103.4 -82.96,205.12 -147.8,294.11 -114.79,157.55 -284.94,245.09 -481.16,209.63 -19.15,-3.46 -38.12,-7.91 -56.86,-13.14 C 8592.08,7076.27 8076.2,5758.16 7915.5,5084.51 c 0,0 508.47,-206.62 1036.89,-214.3 254.84,-3.7 1004.89,-1.42 1004.89,-1.42" /><path
         id="path230"
         style="fill:#e5e5e5;fill-opacity:1;fill-rule:nonzero;stroke:none"
         d="m 8984.52,7803.29 c 94.9,453.65 371.56,779.63 617.94,728.09 246.38,-51.54 369.18,-461.08 274.28,-914.74 -2.2,-10.5 -13.13,-62.76 -17.01,-81.3 -52.61,-251.52 -110.67,-422.31 -173.6,-536.46 -129.37,-234.65 -452.34,-276.32 -452.34,-276.32 0,0 -286.79,167.17 -318.85,407.82 -17.54,131.73 -4.3,319.73 52.57,591.6 3.76,17.97 14.7,70.25 17.01,81.31" /><path
         id="path232"
         style="fill:#ffffff;fill-opacity:1;fill-rule:nonzero;stroke:none"
         d="m 9850.83,4855.51 c 34.12,367.59 35.52,946.11 -2.82,1431.01 -2.3,29.1 20.77,11.3 66.54,52.77 30.34,27.49 89.65,123.41 89.65,123.41 -68.66,58.6 -154.87,119.53 -173.06,211.35 -0.91,4.58 -2.26,9.57 -6.12,12.21 -6.86,4.69 -15.85,-0.99 -22.25,-6.3 -105.34,-87.28 -235.94,-137.85 -367.89,-168.87 -130.55,-30.69 -279.08,-58.59 -409.61,-14.67 -14.64,4.92 -37.79,122.89 -52.17,128.06 -54.62,19.62 -150.06,-76.39 -216.64,-55.3 -95.79,30.36 -82.25,281.75 -82.25,281.75 -308.84,-414.58 -562.18,-1111.23 -758.71,-1766.42 0,0 471.9,-189.66 1036.89,-214.3 254.62,-11.1 898.44,-14.7 898.44,-14.7" /><path
         id="path234"
         style="fill:#ffffff;fill-opacity:1;fill-rule:nonzero;stroke:none"
         d="m 8734.84,6948.85 167.08,142.1 159.97,-227.22 671.93,40.58 c 13.44,-28.29 31.46,-57.11 41.22,-86.74 10.14,-30.77 -192.61,-149 -284.59,-190.36 -84.29,-37.91 -316.46,-82.21 -407.54,-96.97 -38.33,-6.22 -73.61,211.59 -73.61,211.59 -92.11,-55.35 -224.85,-124.83 -225.34,-125.04 0.15,0.06 -124.01,161.63 -49.12,332.06" /><path
         id="path236"
         style="fill:#ffffff;fill-opacity:1;fill-rule:nonzero;stroke:none"
         d="m 8967.51,7721.98 c 3.76,17.97 14.7,70.25 17.01,81.31 94.9,453.65 371.56,779.63 617.94,728.09 106.73,-22.33 155.76,-94.51 168.67,-198.64 33.51,-270.43 34.26,-560.9 -9.41,-830.25 -16.43,-101.38 -44.73,-219.28 -57.89,-281.6 -14.18,-67.14 -49.38,-220.57 -49.38,-220.57 0,0 31.19,-4.39 30.86,-9.06 -0.18,-2.56 -0.7,-5.2 -1.41,-7.87 36.58,-22.62 64.43,-50.58 49.92,-79.08 -22.18,-43.57 -122.45,-160.63 -185.32,-192.73 -33.03,-16.86 -67.91,-29.59 -103.81,-38.71 -52.21,-13.28 -106.58,-18.96 -160.52,-18.72 -89.05,0.4 -163.37,26.9 -238.97,73.96 -77.52,48.24 -190.69,234.01 -177.97,335.83 3.88,31.1 22.41,50.26 48.46,61.98 -0.22,1.5 -0.55,2.96 -0.75,4.46 -17.54,131.73 -4.3,319.73 52.57,591.6" /><path
         id="path238"
         style="fill:#6a79a8;fill-opacity:1;fill-rule:nonzero;stroke:none"
         d="m 9751.58,6788.12 c -139.54,-104.19 -305.26,-166.62 -473.73,-207.76 -60.38,-14.75 -138.86,-31.22 -195.09,-28.26 5.21,-3.49 10.42,-6.98 15.62,-10.47 -20.02,72.02 -40.04,144.03 -60.05,216.04 -3.7,13.3 -25.49,12.45 -34.66,7.09 -76.7,-44.83 -152.86,-90.74 -230.22,-134.42 10.89,-1.03 21.78,-2.07 32.67,-3.1 -63.67,86.87 -77.07,200.69 -36.63,300.12 10.2,25.08 -38.23,23.87 -45.98,4.82 -44.02,-108.22 -31.29,-230.9 38.3,-325.84 6.67,-9.11 24.09,-7.95 32.66,-3.1 77.36,43.67 153.52,89.59 230.22,134.41 -11.55,2.36 -23.11,4.72 -34.66,7.08 20.02,-72.01 40.04,-144.03 60.06,-216.04 1.82,-6.56 9.3,-10.14 15.62,-10.47 73.38,-3.87 150.01,13.21 220.63,30.46 176.56,43.12 350.71,109.43 496.95,218.62 26.23,19.59 -13.16,34.67 -31.71,20.82 v 0" /><path
         id="path240"
         style="fill:#dddddd;fill-opacity:1;fill-rule:nonzero;stroke:none"
         d="m 8956.3,6429.79 c 18.67,-154.05 37.91,-308.06 55.58,-462.26 20.91,-182.41 74.36,-348.62 168.08,-485.27 -14.32,-53.51 -127.51,-230.06 -126.96,-287.05 -37.29,29.93 -182.43,161.06 -220.16,193.15 -75.58,64.32 -55.38,546.49 -39.53,688.68 7.97,71.52 34.81,395.83 101.05,400.03 l 24.3,1.55 c 18.94,1.2 35.64,-19 37.3,-45.11 0.08,-1.25 0.19,-2.48 0.34,-3.72" /><path
         id="path242"
         style="fill:#96e296;fill-opacity:1;fill-rule:nonzero;stroke:none"
         d="m 8951.15,6447.05 c 5.76,-155.07 12.09,-310.15 16.84,-465.28 5.62,-183.52 45.03,-353.61 127.02,-497.6 -18.73,-52.13 -146.25,-218.62 -150.45,-275.46 -34.67,32.94 -168.37,175.71 -203.29,210.84 -69.96,70.39 -9.61,549.2 18.04,689.58 13.91,70.6 67.7,391.54 134.06,390.21 l 24.34,-0.49 c 18.98,-0.38 33.94,-21.9 33.41,-48.07 -0.02,-1.24 -0.01,-2.48 0.03,-3.73" /><path
         id="path244"
         style="fill:#6a79a8;fill-opacity:1;fill-rule:nonzero;stroke:none"
         d="m 8932.77,6445.81 c 5.3,-142.16 11.04,-284.31 15.61,-426.5 4.04,-125.49 16.02,-249.37 54.43,-369.6 17.04,-53.33 41.37,-101.75 64.08,-152.55 9.1,-20.35 5.73,-23.24 -5.13,-42.61 -10.47,-18.68 -22.15,-36.73 -33.6,-54.81 -36.05,-56.93 -92.87,-123.54 -101.99,-192.27 10.76,3.98 21.52,7.97 32.28,11.96 -67.84,65.37 -141.97,134.56 -200.64,208.24 -47.55,59.73 -32.07,176.1 -29.27,246.56 7.53,188.97 34.51,377.21 73.87,562.06 12.39,58.19 25.75,116.8 46.09,172.81 7.57,20.82 15.77,48.6 31.21,65.23 21.94,23.64 52.77,5.13 53.06,-28.52 0.16,-19.47 36.91,-14.48 36.77,2.49 -0.41,48.37 -34.41,73.74 -81.13,64.08 -34.54,-7.14 -51.92,-43.37 -64.61,-72.82 -43.21,-100.24 -60.21,-212.62 -80.48,-319.21 -20.68,-108.79 -34.49,-218.94 -43.88,-329.26 -9.12,-107.28 -28.79,-240.93 7.05,-345.53 14.6,-42.63 56.59,-73.8 86.74,-105.46 45.4,-47.68 90.02,-96.41 137.44,-142.11 9.21,-8.88 30.66,-0.17 32.27,11.96 9.62,72.48 75.64,145.62 113,205.74 10.71,17.24 38.48,49.85 37.32,71.53 -1.06,19.72 -28.56,55.8 -36.53,73.46 -12.25,27.15 -23.04,54.95 -32.58,83.16 -41.44,122.57 -54.86,249.29 -58.99,377.96 -4.58,142.18 -10.32,284.33 -15.62,426.5 -0.73,19.49 -37.4,14.39 -36.77,-2.49" /><path
         id="path246"
         style="fill:#96e296;fill-opacity:1;fill-rule:nonzero;stroke:none"
         d="m 8977.67,6641.53 c -6.5,13.32 -16.94,20.7 -36.04,10.36 -27.3,-14.78 -50.76,-46.11 -71.55,-68.61 -17.23,-18.63 -26.29,-32.26 2.42,-45.77 25.33,-11.91 57.84,-15.77 84.93,-23.15 43.34,-11.81 36.51,63.51 31.69,85.13 -2.91,13.04 -5.56,29.98 -11.45,42.04" /><path
         id="path248"
         style="fill:#6a79a8;fill-opacity:1;fill-rule:nonzero;stroke:none"
         d="m 8995.79,6646.38 c -25.67,44.82 -86.09,-3.54 -108.78,-27.23 -11.5,-12 -22.39,-24.7 -33.34,-37.2 -5.96,-6.81 -15.08,-15.1 -16.9,-24.38 -4.49,-22.9 28.6,-31.09 45.25,-35.97 32.38,-9.49 94.46,-32.52 119.69,4.34 20.94,30.6 6.57,89.92 -5.92,120.44 -3.57,8.71 -39.02,-2.87 -36.23,-9.7 9.34,-22.82 14.42,-49 14.95,-73.76 0.26,-12.75 -2.8,-23.43 -4.6,-35.69 -0.6,-1.34 -1.2,-2.68 -1.8,-4.03 -5.35,-6.25 -3.96,-6.85 4.2,-1.79 -8.38,0.81 -17.31,4.19 -25.51,6 -25.83,5.72 -94.37,14.07 -65.21,51.76 9.77,12.64 21.54,24.58 32.35,36.33 6.76,7.34 13.63,14.6 21.17,21.15 11.68,10.13 15.8,15.14 24.45,0.03 5.13,-8.95 39.23,4.45 36.23,9.7" /><path
         id="path250"
         style="fill:#96e296;fill-opacity:1;fill-rule:nonzero;stroke:none"
         d="m 9257.43,8410.31 c -22.69,51.23 -59.48,137.7 -40.03,193.11 -44.13,-53.21 -75.52,-120.95 -118.69,-177.3 -24.07,-31.4 -48.35,-63.19 -64.38,-99.36 -24.74,-55.82 -28.29,-119.23 -20.13,-179.74 8.17,-60.52 27.47,-118.91 47.05,-176.75 -8.17,-3.12 -10.33,11.12 -7.11,19.25 13.8,34.84 27.6,69.68 41.39,104.52 4.15,-9.32 23.35,-29.05 27.5,-38.37 9,-20.21 18,-40.41 27,-60.61 -3.75,27.33 6.11,56.2 25.8,75.53 4,-1.48 8,-2.95 12,-4.43 9.54,-31.37 33.71,-51.93 54.94,-76.92 -4.72,3.31 -9.44,6.62 -14.17,9.93 7.07,17.46 17.46,33.56 30.46,47.19 24.83,26.03 59.84,40.37 84.29,66.35 37.41,39.75 12.63,43.77 5.66,91.61 -10.36,71.25 -62.83,141.07 -91.58,205.99" /><path
         id="path252"
         style="fill:#96e296;fill-opacity:1;fill-rule:nonzero;stroke:none"
         d="m 10194.2,8083.78 c -4.1,10.37 -7.8,20.86 -11.1,31.47 61.4,-33.3 125.5,-41.53 193.4,-53.41 -70.3,16.81 -131,61.91 -180.8,114.37 -165,173.67 -261.6,420.02 -485.27,531.84 -88.29,44.14 -189.06,37.96 -280.72,8.1 -77.35,-25.2 -208.27,-56.22 -181.19,-156.84 42.11,-156.41 119.2,-302.97 222.46,-427.63 51.64,-62.34 109.84,-119.26 173.53,-169.23 28.09,-22.05 64.11,-39.09 81.15,-70.15 8.41,-15.32 27.58,-85.44 20.87,-101.12 3.24,7.57 61.29,83.96 68.32,72.14 23.56,-39.57 42.98,-87.07 47.67,-133.28 4.1,-40.38 -37.02,-87.16 -22.47,-123.64 55.43,-0.32 81.88,61.51 104.25,102.53 19.47,35.72 67.3,-41.47 76.2,-54.45 23.4,-33.93 95.3,-95.76 96.7,-133.08 -2.2,58.89 -4.5,117.77 -6.7,176.65 46.7,-27.44 94.2,-53.51 142.4,-78.15 -39.1,20 -64.2,117.52 -74.2,156.5 -14.1,54.64 -30.8,122.21 -29.4,178.1 22.6,-11.84 41,-31.09 65.7,-40.81 25.8,-10.17 56.9,-11.1 79.8,4.56 -40.1,51.92 -76.6,103.83 -100.6,165.53" /><path
         id="path254"
         style="fill:#6a79a8;fill-opacity:1;fill-rule:nonzero;stroke:none"
         d="m 9777.56,6230.93 c 113.68,37.23 188.99,133.01 249.04,231.67 1.9,3.15 2.8,6.31 0.1,9.34 -31.63,34.76 -64.42,70.65 -102.92,97.83 -32.34,22.84 -43.24,25.98 -55.01,61.97 -35.65,108.94 -68.49,229.75 -127.99,328.49 -8.79,14.59 -28.75,36.03 -27.45,47.44 2.64,23.1 27.96,55.87 37.33,77.44 31.01,71.36 55.36,145.53 76.59,220.33 46.09,162.43 87.38,334.18 101,502.86 13.06,161.65 2.78,332.04 -57.69,484.08 -41.65,104.7 -113.37,208.58 -225.48,244.18 -251.85,79.97 -462.65,-185.89 -561.06,-379.49 -84.95,-167.14 -125.54,-349.13 -159.04,-532.3 -30.47,-166.57 -54.71,-341.54 -33.34,-510.82 1.89,-14.93 50.48,-4.29 48.3,12.94 -28.05,222.2 20.48,450.5 66.02,666.99 47.3,224.84 137.52,463.25 310.24,622.7 64.58,59.62 148.01,112.9 239.52,106.72 83.33,-5.62 152.78,-57.95 201.13,-123.17 138.85,-187.29 144.59,-462.34 113.88,-682.96 -17.71,-127.27 -47.69,-255.2 -80.89,-379.17 -31.14,-116.26 -68.43,-232.89 -126.09,-339.02 -2.07,-3.81 -2.57,-5.67 -0.11,-9.34 44.39,-66.06 73.71,-136.32 101.34,-210.94 15.2,-41.04 29.61,-82.39 43.54,-123.88 6.66,-19.82 10.62,-49.93 22.15,-67.6 9.73,-14.92 31.28,-24.48 45.91,-34.96 33.19,-23.76 61.69,-52.41 89.69,-82.14 16.31,-17.31 15.38,-13.55 -1.5,-33.88 -20.68,-24.9 -40.28,-52.05 -58.84,-78.59 -31.92,-45.64 -80.56,-86.53 -134.42,-104.17 -27.94,-9.15 -22.73,-31.97 6.05,-22.55 v 0" /><path
         id="path256"
         style="fill:#6a79a8;fill-opacity:1;fill-rule:nonzero;stroke:none"
         d="m 9890.46,6321.32 c 44.69,-283.36 52.53,-573.1 55.23,-859.48 1.86,-197.49 7.68,-399.9 -12.37,-596.77 11.32,5.05 22.64,10.1 33.96,15.16 -196.21,-1.23 -392.43,-1.88 -588.64,-1.78 -308.93,0.15 -617.52,-1.29 -922.62,55.15 -131.6,24.34 -262.13,57.7 -387.76,104.13 -33.36,12.32 -66.43,25.55 -98.77,40.37 -6.64,3.05 -18.68,6.13 -23.85,11.35 -11.45,11.56 -4.63,-7.16 -2.57,12.3 4.35,40.82 23.17,84.62 34.51,124.04 12.28,42.72 24.93,85.32 37.96,127.81 27.79,90.68 57.22,180.86 88.3,270.46 62.9,181.35 132.4,360.51 210.49,535.88 83.92,188.43 177.4,373.84 289.56,547.19 90.95,140.56 195.01,277.75 326.86,382.55 -14.34,-1.45 -28.68,-2.9 -43.02,-4.36 -2.07,-42.81 3.19,-87.63 15.3,-128.67 22.22,-75.33 67.63,-117.03 143.51,-134.82 221.36,-51.89 434.06,40.72 630.68,132.98 28.99,13.6 -15.35,16.09 -28.75,9.81 -94.93,-44.55 -191.13,-89.83 -293.29,-115.34 -98.27,-24.54 -238.03,-39.42 -330.55,13.51 -75.5,43.19 -92.45,155.95 -88.6,235.47 0.63,13 -38.7,-0.92 -43.02,-4.35 -203.51,-161.77 -347.38,-393.01 -469.18,-619.13 -152.63,-283.32 -273.97,-583.54 -378.09,-887.72 -57.15,-166.95 -108.6,-335.81 -154.2,-506.27 -0.7,-1.99 -0.25,-3.66 1.35,-5.03 56.18,-30.51 117.49,-52.86 177.77,-73.54 167.36,-57.41 342.02,-93.92 517.29,-116.6 343.59,-44.45 695.05,-30.68 1040.75,-29.67 106.2,0.32 212.39,0.74 318.58,1.41 6.78,0.04 32.91,4.79 33.96,15.16 13.57,133.26 11.9,269.28 12.92,403.04 1.74,229.42 -2.14,459.18 -16.89,688.18 -7.98,123.92 -19.16,247.81 -38.51,370.52 -1.99,12.59 -50.62,1.83 -48.3,-12.94 v 0" /><path
         id="path258"
         style="fill:#6a79a8;fill-opacity:1;fill-rule:nonzero;stroke:none"
         d="m 9366.5,7241.46 c -71.25,-32.65 -247.04,-68.28 -252.73,54.45 -0.66,14.23 -49.12,4.83 -48.3,-12.94 6.84,-147.35 237.73,-97.43 319.71,-59.87 30.59,14.01 2.47,28.05 -18.68,18.36 v 0" /><path
         id="path260"
         style="fill:#6a79a8;fill-opacity:1;fill-rule:nonzero;stroke:none"
         d="m 9867.45,6285.16 c 49.44,-143.84 -47.72,-304.23 -149.85,-398.88 -122.68,-113.71 -275.96,-187.55 -437.73,-226.77 -344.34,-83.49 -724.12,-31.03 -1050.34,97.68 -91.45,36.08 -177.88,80.43 -262.01,131.11 -74.45,44.83 -147.43,81.9 -235.51,87.68 -10.37,0.68 -24.69,-0.83 -33.65,-6.6 -2.17,-1.39 -17.76,-10.19 -6.35,-10.93 94.96,-6.24 170.36,-50.5 249.98,-98.14 87.55,-52.4 179.3,-95.88 274.86,-131.62 186.51,-69.76 383.29,-111.25 582.08,-122.64 314.47,-18.02 657.56,40.37 910.13,240.5 126.27,100.06 265.93,279.2 206.69,451.55 -3.34,9.71 -51.13,-4.71 -48.3,-12.94 v 0" /></g></g></svg>