<?xml version="1.0" encoding="UTF-8" standalone="no"?>
<svg
   xmlns:dc="http://purl.org/dc/elements/1.1/"
   xmlns:cc="http://creativecommons.org/ns#"
   xmlns:rdf="http://www.w3.org/1999/02/22-rdf-syntax-ns#"
   xmlns:svg="http://www.w3.org/2000/svg"
   xmlns="http://www.w3.org/2000/svg"
   viewBox="0 0 1600 1600"
   height="1600"
   width="1600"
   xml:space="preserve"
   id="svg2"
   version="1.1"><metadata
     id="metadata8"><rdf:RDF><cc:Work
         rdf:about=""><dc:format>image/svg+xml</dc:format><dc:type
           rdf:resource="http://purl.org/dc/dcmitype/StillImage" /></cc:Work></rdf:RDF></metadata><defs
     id="defs6" /><g
     transform="matrix(1.3333333,0,0,-1.3333333,0,1600)"
     id="g10"><g
       transform="scale(0.1)"
       id="g12"><path
         id="path14"
         style="fill:#fafafa;fill-opacity:1;fill-rule:nonzero;stroke:none"
         d="M 12000,0 H 0 V 12000 H 12000 V 0" /><path
         id="path16"
         style="fill:#f9f9f9;fill-opacity:1;fill-rule:nonzero;stroke:none"
         d="m 3578.93,1652.6 c -211.78,45.8 -2756.391,458.44 -2569.08,3501.84 187.3,3043.41 422.42,3958.66 1411.73,4293.51 989.3,334.85 3394.13,1919.35 5281.21,412.74 C 9589.87,8354.11 11626.2,7002.85 10818.1,4597.27 10010,2191.69 9877.73,1389.3 7769.42,1512 5661.11,1634.8 4585.99,1434.7 3578.93,1652.6" /><path
         id="path18"
         style="fill:#e3e3e3;fill-opacity:1;fill-rule:nonzero;stroke:none"
         d="m 5394.15,2184.25 c 44.14,-22.75 60.36,-50.11 39.13,-82.94 C 5285.61,1873 4623.38,1869.8 4302.15,1865.2 c -404.05,-5.8 -824.48,-18.1 -1188.27,31.4 -152.24,20.8 -497.25,36.7 -556.25,112.32 -154.73,198.6 946.32,270.55 1124.52,275.98 297.05,9.07 1459.9,29.32 1712,-100.65" /><path
         id="path20"
         style="fill:#ffffff;fill-opacity:1;fill-rule:nonzero;stroke:none"
         d="m 5110.14,8162.43 c 0,-147.73 -209.31,-267.5 -467.5,-267.5 -258.19,0 -467.5,119.77 -467.5,267.5 0,147.74 209.31,267.5 467.5,267.5 258.19,0 467.5,-119.76 467.5,-267.5" /><path
         id="path22"
         style="fill:#6a79a8;fill-opacity:1;fill-rule:nonzero;stroke:none"
         d="m 5085.62,8160.8 c -4.48,-142.58 -174.08,-210 -292.18,-233.34 -159.67,-31.55 -351.95,-16.83 -489.84,76.97 -105.64,71.85 -141.76,195.35 -40.09,289.15 118.27,109.11 310.27,130.38 463.12,112.88 131.38,-15.05 353.8,-80.48 358.99,-245.66 0.82,-26.08 49.75,-19.41 49.04,3.26 -5.03,160.1 -186.67,238.92 -320.72,267.38 -180.72,38.35 -401.84,19.75 -555.13,-92.04 -112.09,-81.73 -146.49,-218.82 -41.89,-322.83 130.14,-129.41 350.64,-155.45 524.07,-133.91 149.75,18.6 387.85,96.33 393.67,281.4 0.82,25.97 -48.32,19.61 -49.04,-3.26" /><path
         id="path24"
         style="fill:#ffffff;fill-opacity:1;fill-rule:nonzero;stroke:none"
         d="m 4157.77,7718.55 c 0,-63.76 -90.32,-115.44 -201.74,-115.44 -111.42,0 -201.75,51.68 -201.75,115.44 0,63.75 90.33,115.43 201.75,115.43 111.42,0 201.74,-51.68 201.74,-115.43" /><path
         id="path26"
         style="fill:#6a79a8;fill-opacity:1;fill-rule:nonzero;stroke:none"
         d="m 4133.25,7716.92 c -5.45,-77.22 -114.41,-95.76 -175.28,-95.37 -56.2,0.36 -177.7,21.69 -179.17,98.63 -1.46,76.79 120.7,95.72 175.29,95.36 59.73,-0.38 173.71,-21.45 179.16,-98.62 1.84,-26.06 50.63,-19.21 49.04,3.26 -7.26,102.78 -140.75,132.57 -224.32,132.24 -78.49,-0.3 -226.08,-33.1 -228.21,-135.5 -2.13,-102.54 148.26,-132.57 224.33,-132.25 82.48,0.34 220.96,32.97 228.2,135.51 1.82,25.79 -47.42,19.63 -49.04,-3.26" /><path
         id="path28"
         style="fill:#ffffff;fill-opacity:1;fill-rule:nonzero;stroke:none"
         d="m 10150,9054.16 c 0,-883.5 -1142.61,-1599.71 -2552.09,-1599.71 -1409.48,0 -2552.09,716.21 -2552.09,1599.71 0,883.5 1142.61,1599.74 2552.09,1599.74 1409.48,0 2552.09,-716.24 2552.09,-1599.74" /><path
         id="path30"
         style="fill:#6a79a8;fill-opacity:1;fill-rule:nonzero;stroke:none"
         d="M 10125.5,9052.53 C 10123.6,8685.3 9921.7,8363.87 9650.64,8129.06 9315.47,7838.7 8889.23,7663.6 8460.43,7566.5 7953.21,7451.64 7418.67,7442.28 6906.94,7533.46 c -445.25,79.33 -889.88,238.61 -1253.59,512.74 -287.59,216.76 -529.97,521.46 -575.58,888.42 -44.2,355.57 114.86,690.85 358.4,941.89 300.85,310.09 710.74,504.59 1121.99,620.39 498.35,140.3 1028.97,172 1541.92,106.8 461.55,-58.8 924.52,-198.6 1316.87,-453.7 308.05,-200.35 586.75,-487.22 678.05,-852.97 20,-80.08 30.1,-161.98 30.5,-244.5 0.1,-26.06 49.1,-19.51 49,3.26 -1.9,369.59 -200.9,693.45 -470.88,933.49 -339.47,301.82 -776.91,483.42 -1215.35,584.72 -520.2,120.1 -1068.91,130 -1594.16,36.4 -456.91,-81.4 -913.84,-246.2 -1285.46,-529.8 -289.57,-221 -533.44,-531.1 -579.55,-902.06 -45.2,-363.62 115.18,-708.1 364.66,-965.27 307.88,-317.36 724.79,-517.45 1145.96,-636.01 511.39,-143.96 1056.36,-176.35 1582.54,-107.2 470.8,61.87 941.32,206.76 1340.24,469.35 310.94,204.68 588.9,497.21 681.2,867.04 20.4,81.64 30.4,165.24 30.8,249.34 0.2,26.05 -48.9,19.55 -49,-3.26" /><path
         id="path32"
         style="fill:#ffffff;fill-opacity:1;fill-rule:nonzero;stroke:none"
         d="m 7025.74,7527.59 c -599.81,-280.63 -921.98,-515.67 -1445.58,-935.22 -125.39,281.49 -270.43,496.22 -465.35,753.34 582.07,325.35 908.94,547.43 1468.85,889 127.32,-281.67 264.45,-481.59 442.08,-707.12" /><path
         id="path34"
         style="fill:#6a79a6;fill-opacity:1;fill-rule:nonzero;stroke:none"
         d="m 7003.7,7527.67 c -200.73,-97.77 -372.07,-186.33 -527.29,-277.73 -246.34,-143.97 -466.68,-307.33 -730.67,-514.13 -60.04,-46.95 -121.51,-95.39 -183.39,-144.1 13.93,3.27 27.85,6.54 41.77,9.83 -79.68,176.55 -163.35,325.61 -263.89,476.06 -53.25,79.89 -111.04,160.2 -173.12,243.9 -6.95,9.37 -21.56,39.5 -29.23,24.83 3.85,7.35 28.35,16.52 35.5,20.69 415.3,238.34 691.34,404.5 1041.54,629.01 121.27,76.46 251.72,158.01 387.63,237.2 -14.83,-1.45 -29.65,-2.93 -44.45,-4.42 112.48,-246.83 228.2,-429.83 374,-623.03 21.04,-28.02 42.56,-56.14 64.51,-84.5 7.86,-10.47 62.55,7.48 58.64,12.68 -156.68,197.07 -284.26,375.04 -396.67,602.97 -16.57,33.31 -32.96,67.76 -49.32,103.61 -5.31,11.67 -36.56,0.36 -44.49,-4.36 -181.83,-107.43 -350.53,-216.22 -505.37,-314.35 -248.01,-158.53 -470.01,-291.6 -758.91,-456.46 -66.21,-38.03 -135.54,-77.79 -208.02,-119.73 -0.8,-0.47 -8.64,-5 -6.78,-7.46 172.13,-225.33 308.02,-418.61 421.28,-650.43 16.7,-33.87 33.05,-68.63 49.22,-104.53 5.24,-11.68 34.39,3.94 41.78,9.8 169.26,133.87 329.7,261.16 479.43,370.61 240.04,176.43 461.2,310.42 756.6,458.73 67.74,34.17 139.05,69.11 214,105.16 24.33,11.76 -34.11,5.2 -44.3,0.15" /><path
         id="path36"
         style="fill:#bbf9bc;fill-opacity:1;fill-rule:nonzero;stroke:none"
         d="m 6932.9,7543.24 c -537.79,-262.34 -850.01,-480.21 -1328.75,-856.68 -111.17,233.92 -235.68,424.91 -395.14,642.05 521.72,302.27 837.98,509.52 1347.38,819.5 112.21,-233.28 230.41,-412.21 376.51,-604.87" /><path
         id="path38"
         style="fill:#ffffff;fill-opacity:1;fill-rule:nonzero;stroke:none"
         d="m 6843.87,7558.71 c -480.79,-243.49 -780.77,-445.86 -1216.58,-781.18 -95.82,190.43 -200.5,355.06 -328.18,534.61 466.37,278.86 769.71,472.78 1231.09,752.12 96.16,-189.18 195.94,-344.31 313.67,-505.55" /><path
         id="path40"
         style="fill:#6a79a6;fill-opacity:1;fill-rule:nonzero;stroke:none"
         d="m 6827.1,7566.74 c -420.28,-215.71 -697.55,-391.75 -1059.08,-663.26 -50.63,-37.79 -102.44,-76.91 -155.1,-116.98 12.17,1.27 24.31,2.51 36.43,3.75 -95.86,189.74 -199.61,353.93 -325.86,532.76 -2.37,-6.55 -4.75,-13.09 -7.13,-19.66 407.35,246.95 686.25,419.69 1064.9,652.93 53.14,32.28 107.81,65.15 163.76,98.18 -12.75,-0.09 -25.48,-0.16 -38.15,-0.22 96.42,-188.92 195.49,-344.01 312.04,-504.95 10.13,-14.32 62.84,1.49 50.19,18.9 -118.99,161.54 -219.52,316.68 -315.45,506.08 -6.19,12.17 -29.73,5 -38.27,-0.11 -403.14,-243.65 -686.76,-427.56 -1066.02,-652.08 -53.89,-32.41 -109.74,-66.01 -167.66,-101.1 -7.51,-4.54 -12.47,-12.5 -7.21,-19.85 129.17,-180.26 234.84,-345.31 330.65,-536.38 6.18,-12.27 28.44,-2.43 36.49,3.75 380.46,292.96 659.42,488.69 1046.79,692.38 55.13,29.37 112.52,59.22 172.35,89.78 31.69,16.2 -13.79,26.45 -33.67,16.08" /><path
         id="path42"
         style="fill:#bbf9bc;fill-opacity:1;fill-rule:nonzero;stroke:none"
         d="m 6240.27,7546.84 c -57.94,93.1 -183.82,125.39 -278.2,67.13 -94.3,-58.07 -120.87,-184.78 -61.94,-279.75 58.94,-95.18 181.5,-121 275.01,-60.91 93.32,60.14 123.15,180.42 65.13,273.53" /><path
         id="path44"
         style="fill:#6a79a6;fill-opacity:1;fill-rule:nonzero;stroke:none"
         d="m 6262.26,7552.49 c -102.17,153.38 -369.7,121.6 -410.15,-68.26 -20.69,-94.97 27.87,-195.63 114.66,-234.36 73.55,-32.87 163.31,-18.69 229.94,26.33 92.81,63.08 120.95,181.11 65.55,276.29 -6.22,10.6 -47.5,-5.2 -43.89,-11.3 44.65,-76.79 38.16,-172.91 -25.51,-239.21 -81.43,-84.94 -212.02,-55.33 -271.05,38.41 -46.69,73.92 -39.87,176.05 18.69,240.47 82.22,90.49 216.33,52.96 277.87,-39.67 6.98,-10.55 47.34,6.05 43.89,11.3" /><path
         id="path46"
         style="fill:#bbf9bc;fill-opacity:1;fill-rule:nonzero;stroke:none"
         d="m 6525.84,7714.48 c -26.54,42.94 -86.42,56.21 -132.54,28.85 -46.15,-27.36 -61.17,-84.07 -35.02,-126.15 26.16,-42.11 83.91,-54.56 130.48,-28.11 46.55,26.5 63.71,82.47 37.08,125.41" /><path
         id="path48"
         style="fill:#6a79a6;fill-opacity:1;fill-rule:nonzero;stroke:none"
         d="m 6548.58,7722.88 c -74.84,106.46 -286.11,2.95 -212.22,-112.57 64.66,-106.65 278.64,-9.61 213.65,110.32 -7.4,13.13 -53.58,-2.6 -48.14,-12.25 17.15,-31.09 17.25,-69.28 -8.19,-98.3 -34.81,-39.61 -89.59,-23.57 -113.01,14.2 -18.81,30.36 -15.9,72 10.45,100.45 36.64,39.58 87.75,17 112.17,-18.6 7.01,-10.37 53.93,4.09 45.29,16.75" /><path
         id="path50"
         style="fill:#bbf9bc;fill-opacity:1;fill-rule:nonzero;stroke:none"
         d="m 5781.66,7263 c -26.76,43.25 -84.76,55.78 -130.17,26.53 -45.4,-29.23 -60.07,-90.41 -32.4,-135.31 27.62,-44.95 86.3,-55.56 130.85,-24.65 44.55,30.96 58.48,90.15 31.72,133.43" /><path
         id="path52"
         style="fill:#6a79a6;fill-opacity:1;fill-rule:nonzero;stroke:none"
         d="m 5802.15,7273.18 c -34.91,51 -104.78,61.68 -160.58,28.5 -54.33,-32.22 -78.3,-104.68 -44.22,-158.73 34.37,-54.67 109.05,-60.02 161.94,-25.59 55.14,35.96 72.6,102.37 42.86,155.82 -8.78,15.94 -51.81,-1.05 -41.1,-20.46 18.72,-33.67 14.65,-81.13 -18.4,-108.81 -34.53,-28.94 -81.13,-13.1 -101.98,21.46 -20.33,33.67 -14.13,84.16 18.58,109.94 36.41,28.68 79.68,9.71 101.8,-22.59 10.55,-15.31 53.32,2.69 41.1,20.46" /><path
         id="path54"
         style="fill:#6a79a6;fill-opacity:1;fill-rule:nonzero;stroke:none"
         d="m 6080.05,7439.83 c 9.65,-15.43 19.28,-30.82 28.91,-46.2 6.24,5.88 9.96,12.16 11.15,18.86 1.2,6.71 0.02,12.89 -3.54,18.59 -3.82,6.1 -8.67,9.64 -14.54,10.64 -5.86,0.99 -13.19,0.35 -21.98,-1.89 z m -33.09,23.05 c -8.47,13.55 -16.97,27.14 -25.51,40.79 -4.81,-5.47 -7.98,-10.7 -9.46,-15.69 -1.5,-4.99 -0.39,-10.44 3.3,-16.34 3.52,-5.62 7.71,-8.88 12.62,-9.81 4.89,-0.93 11.25,-0.57 19.05,1.05 z m -32.37,81.68 c 2.42,-3.88 4.84,-7.75 7.26,-11.62 8.06,3.9 15.54,6.34 22.43,7.33 6.89,0.99 13.85,0.34 20.87,-1.95 5.45,-1.67 10.26,-3.9 14.38,-6.66 4.13,-2.77 7.19,-5.76 9.18,-8.96 2.22,-3.54 2.83,-7.42 1.86,-11.6 -0.97,-4.17 -3.3,-7.41 -6.97,-9.68 -6.94,-4.3 -13.76,-3.32 -20.51,2.93 -7.88,7.42 -17.18,9.86 -27.91,7.26 9.26,-14.82 18.48,-29.58 27.67,-44.28 10.25,3.05 18.58,5.19 25.02,6.44 6.42,1.25 12.86,1.26 19.29,0.07 6.81,-1.16 13.08,-3.68 18.81,-7.61 5.74,-3.9 10.61,-9.05 14.61,-15.44 5.02,-7.99 7.8,-16.64 8.4,-25.95 0.58,-9.32 -1.4,-18.47 -5.98,-27.47 -4.57,-9 -11.64,-17.09 -21.19,-24.27 5.47,-8.74 10.95,-17.48 16.43,-26.23 2.61,-4.15 4.08,-7.41 4.47,-9.84 0.37,-2.41 -0.8,-4.48 -3.56,-6.22 -2.53,-1.62 -4.8,-1.97 -6.79,-1.07 -1.99,0.89 -4,2.97 -6.02,6.21 -5.94,9.5 -11.88,18.99 -17.81,28.48 -8.81,-4.29 -17.22,-6.92 -25.22,-7.88 -7.99,-0.95 -15.43,-0.54 -22.29,1.25 -6.86,1.78 -12.77,4.44 -17.71,7.95 -4.94,3.51 -8.84,7.56 -11.7,12.15 -2.12,3.39 -2.7,7.29 -1.76,11.69 0.95,4.39 3.37,7.84 7.33,10.33 3.16,2 6.31,2.95 9.41,2.85 3.11,-0.11 5.92,-1.24 8.44,-3.38 5.52,-4.59 9.92,-7.96 13.25,-10.13 3.32,-2.18 7.19,-3.64 11.62,-4.36 4.44,-0.74 9.43,-0.29 14.98,1.35 -10.22,16.35 -20.44,32.7 -30.7,49.09 -11.08,-3.31 -20.77,-5.35 -29.12,-6.12 -8.35,-0.77 -16.36,0.57 -24.03,4.04 -7.67,3.47 -14.44,9.89 -20.32,19.28 -7.66,12.24 -10.1,24.72 -7.29,37.41 2.8,12.69 11.11,24.25 24.95,34.64 -2.38,3.79 -4.76,7.59 -7.14,11.4 -3.78,6.04 -3.44,10.45 1.03,13.21 4.52,2.8 8.64,1.26 12.33,-4.64" /><path
         id="path56"
         style="fill:#ffffff;fill-opacity:1;fill-rule:nonzero;stroke:none"
         d="m 6948.97,8695.69 c -579.63,-20.27 -1101.61,-69.18 -1676.15,-112.76 -11.56,310.86 -42.69,607.42 -74.74,919.5 609.07,-13.98 1160.76,-2.44 1771.18,-2.72 -18.66,-273.51 -19.17,-531.95 -20.29,-804.02" /><path
         id="path58"
         style="fill:#6a79a6;fill-opacity:1;fill-rule:nonzero;stroke:none"
         d="m 6965.64,8704.68 c -372.58,-11.6 -701.46,-33.79 -1048.65,-60.6 -182.91,-14.14 -369.2,-29.47 -557.28,-44.47 -19.03,-1.51 -40.12,-0.38 -59.02,-4.69 -18,-4.1 -5.2,-4.28 -4.35,3.94 9.02,81.74 -4.98,169.05 -10.04,247.61 -12.97,219.15 -36.1,435.18 -62.76,661.56 -13.78,-5.02 -27.74,-9.99 -41.92,-14.9 390.86,-9.5 737.71,-9.22 1104.56,-6.6 193.3,1.34 390.43,3.26 589.91,4.22 20.2,0.08 42.3,-2.3 62.62,0.27 19.36,2.42 5.89,3.43 4.2,-3.77 -17.05,-71.7 -10.95,-149.28 -13.75,-218.24 -8.69,-192.59 -8.13,-381.49 -5.04,-579.61 0.02,-7 49.52,0.41 50.07,12.45 5.94,234.91 6.8,466.66 16.04,700.26 1.34,34.14 2.87,68.41 4.59,102.91 0.13,2.57 -7.35,3.18 -8.4,3.19 -200.73,1.27 -403.33,0.54 -602.47,-0.36 -318.85,-1.48 -625.8,-3.25 -945.04,0.5 -73.74,0.85 -148.41,1.98 -224.65,3.45 -8.48,0.15 -43.01,-1.86 -41.99,-14.88 23.47,-270.61 51.35,-537.03 69.7,-804.32 2.68,-39.05 5.16,-78.21 7.42,-117.6 0.16,-2.93 7.25,-3.06 8.23,-2.98 188.39,13.73 379.22,28.92 567.13,43.62 300.93,23.52 591.31,45.63 894.36,61.19 70.01,3.6 140.95,6.86 213.48,9.75 9.68,0.52 56.52,18.9 33.05,18.1" /><path
         id="path60"
         style="fill:#bbf9bc;fill-opacity:1;fill-rule:nonzero;stroke:none"
         d="m 6888.24,8748.51 c -555.94,-11.88 -1005.58,-49.51 -1559.3,-98.19 -2.28,270.35 -25.64,518.12 -60.86,788.33 580.76,-16.01 1053.92,-7.87 1635.94,5 -21.86,-240.09 -23.73,-457.36 -15.78,-695.14" /><path
         id="path62"
         style="fill:#ffffff;fill-opacity:1;fill-rule:nonzero;stroke:none"
         d="m 6825.21,8802.06 c -521.17,-8.01 -916.38,-37.13 -1437.22,-84.15 1.3,226.38 -16.13,431.57 -48.29,657.22 541.31,-13.83 954.76,-7.5 1497.18,11.21 -20.03,-202.65 -22.26,-384.02 -11.67,-584.28" /><path
         id="path64"
         style="fill:#6a79a6;fill-opacity:1;fill-rule:nonzero;stroke:none"
         d="m 6827.89,8816.7 c -461.28,-6.35 -812.97,-28.24 -1248.44,-65.38 -61.21,-5.23 -123.79,-10.76 -188.04,-16.56 7.31,-4.26 14.56,-8.53 21.74,-12.82 3.26,226.41 -13.57,428.72 -47.15,654.29 -9.07,-5.83 -18.24,-11.64 -27.53,-17.45 478.23,-11.8 845.28,-8.69 1298,5.87 63.65,2.05 128.71,4.3 195.49,6.75 -7.2,4.12 -14.34,8.28 -21.43,12.46 -21.23,-203.48 -23.33,-382.84 -10.8,-583.78 1.3,-21.78 51.76,-13.59 51.24,3.91 -8.48,199.63 -6.17,383.08 12.39,584.83 1.03,11.27 -10.91,12.86 -21.53,12.52 -472.38,-14.98 -858.38,-22.02 -1304.97,-14 -63.59,1.12 -128.71,2.52 -196.03,4.22 -8.63,0.21 -29.2,-6.21 -27.71,-17.49 30.57,-225.78 48.65,-433.93 49.6,-660.22 0.07,-12.64 11.66,-13.79 21.84,-12.87 452.43,40.87 821.19,69.6 1249.75,81.98 61.04,1.77 123.6,3.23 188.32,4.39 26.96,0.53 40.63,29.84 5.26,29.35" /><path
         id="path66"
         style="fill:#bbf9bc;fill-opacity:1;fill-rule:nonzero;stroke:none"
         d="m 6299.05,9077.47 c -0.97,107.35 -91.74,199.52 -207.92,198.71 -116.05,-1.98 -199.11,-99.43 -193.37,-211.66 5.06,-112.3 94.61,-203.81 206.73,-198.04 111.99,6.96 196.32,103.67 194.56,210.99" /><path
         id="path68"
         style="fill:#6a79a6;fill-opacity:1;fill-rule:nonzero;stroke:none"
         d="m 6321.14,9083.14 c -2.8,196.99 -278.29,272.19 -399.84,118.37 -59.96,-75.65 -59.96,-187.12 -1.41,-265.15 53.61,-71.36 144.34,-94.58 228.37,-70.16 101.41,29.78 170.89,114.26 172.88,216.94 0.07,6.93 -43.97,0.89 -44.04,-11.35 -1.08,-104.34 -85.14,-215.03 -202.74,-192.4 -88.52,18.23 -150.28,100.88 -154.77,191.02 -5.82,105.3 77.28,212.99 192.49,193.53 98.51,-17.63 160.72,-101.74 165.02,-192.15 0.33,-7.64 44.49,-0.4 44.04,11.35" /><path
         id="path70"
         style="fill:#bbf9bc;fill-opacity:1;fill-rule:nonzero;stroke:none"
         d="m 6635.04,9087.8 c 0.53,49.47 -43.9,88.29 -98.86,86.35 -55.02,-2 -99.1,-43.65 -98.79,-92.38 0.27,-48.74 44.08,-87.44 98.23,-86.13 54.09,1.37 98.84,42.68 99.42,92.16" /><path
         id="path72"
         style="fill:#6a79a6;fill-opacity:1;fill-rule:nonzero;stroke:none"
         d="m 6660.17,9093.62 c -7.27,134.4 -249.31,108.51 -245.66,-17.54 1.91,-133.54 234.05,-109.38 245.66,17.54 0.65,10.41 -49.1,3.33 -49.95,-11.61 -3.13,-44.46 -42.65,-90.85 -96.27,-70.02 -32.72,12.71 -53.65,43.45 -53.48,75.48 0.11,42.06 39.53,84.8 88.94,72.57 38.9,-9.68 58.9,-43.35 60.81,-78.03 0.49,-11.47 50.5,-2.88 49.95,11.61" /><path
         id="path74"
         style="fill:#bbf9bc;fill-opacity:1;fill-rule:nonzero;stroke:none"
         d="m 5758.98,9065.28 c -2.82,51.69 -49.66,93.72 -104.75,93.28 -55.03,-0.48 -96.95,-45.29 -93.31,-99.78 3.71,-54.48 50.81,-96.26 105.01,-93.15 54.25,3.17 95.89,47.95 93.05,99.65" /><path
         id="path76"
         style="fill:#6a79a6;fill-opacity:1;fill-rule:nonzero;stroke:none"
         d="m 5781.64,9071.31 c -14.97,141.5 -254.87,131.39 -245.66,-16.83 11.05,-153.3 246.26,-123.23 245.96,12.83 0.04,22.13 -46.08,14.87 -46.1,-4.08 0.06,-39.44 -24.89,-83.71 -72.06,-81.52 -42.53,2.03 -74.93,40.6 -77.6,81.34 -2.87,44.58 30.39,86.8 79.09,77.92 42.43,-7.7 66.75,-44.03 70.87,-81.78 2.15,-19.03 47.81,-8.24 45.5,12.12" /><path
         id="path78"
         style="fill:#6a79a6;fill-opacity:1;fill-rule:nonzero;stroke:none"
         d="m 6106.32,9063.64 c 0.58,-18.18 1.15,-36.38 1.71,-54.71 8.32,2.01 14.68,5.63 19.09,10.88 4.4,5.25 6.5,11.24 6.29,17.95 -0.22,7.22 -2.6,12.73 -7.17,16.51 -4.56,3.79 -11.19,6.91 -19.92,9.37 z m -17.07,36.54 c -0.55,15.95 -1.12,31.97 -1.71,48.11 -6.97,-2.27 -12.36,-5.19 -16.17,-8.75 -3.81,-3.54 -5.56,-8.82 -5.29,-15.78 0.26,-6.64 2.28,-11.58 6.08,-14.86 3.8,-3.28 9.5,-6.18 17.09,-8.72 z m 12.97,87.06 c 0.16,-4.62 0.32,-9.22 0.47,-13.81 9.06,-0.72 16.86,-2.41 23.39,-5.04 6.54,-2.65 12.28,-6.72 17.22,-12.24 3.9,-4.2 6.93,-8.53 9.1,-12.98 2.18,-4.46 3.3,-8.58 3.39,-12.33 0.1,-4.16 -1.33,-7.8 -4.31,-10.93 -2.98,-3.12 -6.63,-4.74 -10.97,-4.86 -8.19,-0.24 -13.62,4 -16.32,12.8 -3.07,10.35 -9.94,17.15 -20.64,20.34 0.58,-17.51 1.16,-34.86 1.73,-52.16 10.41,-2.52 18.71,-4.84 24.9,-6.98 6.19,-2.12 11.76,-5.31 16.71,-9.54 5.29,-4.4 9.42,-9.71 12.39,-15.93 2.96,-6.25 4.55,-13.12 4.78,-20.65 0.28,-9.43 -1.67,-18.36 -5.86,-26.79 -4.19,-8.44 -10.51,-15.47 -18.97,-21.09 -8.47,-5.61 -18.62,-9.18 -30.45,-10.68 0.31,-10.49 0.63,-21.04 0.94,-31.68 0.15,-5.03 -0.21,-8.73 -1.1,-11.1 -0.89,-2.37 -2.97,-3.62 -6.21,-3.78 -3,-0.13 -5.14,0.73 -6.39,2.57 -1.26,1.83 -1.94,4.73 -2.05,8.67 -0.33,11.57 -0.66,23.04 -0.99,34.44 -9.74,0.69 -18.31,2.66 -25.67,5.91 -7.36,3.25 -13.55,7.41 -18.57,12.48 -5.01,5.07 -8.76,10.41 -11.27,15.99 -2.51,5.59 -3.84,11.11 -4.02,16.56 -0.13,4.03 1.3,7.71 4.31,11.04 3.01,3.33 6.84,5.08 11.49,5.24 3.75,0.13 6.93,-0.64 9.56,-2.3 2.64,-1.66 4.51,-4.07 5.61,-7.2 2.46,-6.78 4.58,-11.95 6.35,-15.53 1.77,-3.57 4.39,-6.8 7.84,-9.69 3.45,-2.89 7.98,-5.02 13.58,-6.4 -0.59,19.48 -1.2,38.81 -1.84,58.14 -11.24,2.72 -20.66,5.85 -28.29,9.42 -7.62,3.55 -13.9,8.77 -18.85,15.66 -4.94,6.89 -7.66,15.87 -8.13,26.97 -0.63,14.47 3.42,26.52 12.22,36.06 8.8,9.55 21.92,15.3 39.32,17.23 -0.17,4.51 -0.34,9.04 -0.51,13.58 -0.27,7.19 2.25,10.88 7.6,10.98 5.44,0.11 8.28,-3.36 8.51,-10.39" /><path
         id="path80"
         style="fill:#ffffff;fill-opacity:1;fill-rule:nonzero;stroke:none"
         d="m 8408.4,8653.81 c -579.63,-20.27 -1101.6,-69.18 -1676.14,-112.76 -11.57,310.86 -42.7,607.43 -74.75,919.5 609.07,-13.97 1160.76,-2.44 1771.18,-2.72 -18.66,-273.51 -19.17,-531.94 -20.29,-804.02" /><path
         id="path82"
         style="fill:#6a79a6;fill-opacity:1;fill-rule:nonzero;stroke:none"
         d="m 8425.08,8662.8 c -372.59,-11.59 -701.46,-33.78 -1048.65,-60.59 -182.92,-14.15 -369.21,-29.48 -557.29,-44.48 -19.03,-1.51 -40.11,-0.38 -59.02,-4.69 -18,-4.09 -5.2,-4.28 -4.34,3.95 9.01,81.73 -5,169.04 -10.04,247.6 -12.98,219.15 -36.11,435.19 -62.77,661.57 -13.77,-5.03 -27.73,-9.99 -41.91,-14.9 390.85,-9.51 737.72,-9.22 1104.55,-6.61 193.32,1.34 390.42,3.26 589.92,4.22 20.19,0.08 42.29,-2.3 62.61,0.27 19.36,2.42 5.89,3.43 4.21,-3.77 -17.06,-71.7 -10.95,-149.27 -13.75,-218.23 -8.7,-192.6 -8.14,-381.49 -5.05,-579.62 0.02,-7 49.52,0.41 50.07,12.46 5.93,234.9 6.81,466.66 16.05,700.25 1.34,34.14 2.85,68.42 4.59,102.91 0.12,2.58 -7.36,3.19 -8.4,3.19 -200.74,1.28 -403.34,0.54 -602.47,-0.35 -318.86,-1.48 -625.81,-3.25 -945.05,0.49 -73.74,0.85 -148.4,1.98 -224.65,3.46 -8.47,0.15 -43.01,-1.86 -41.99,-14.89 23.48,-270.61 51.36,-537.02 69.7,-804.31 2.68,-39.05 5.17,-78.22 7.42,-117.6 0.17,-2.94 7.26,-3.07 8.24,-2.99 188.38,13.73 379.22,28.92 567.12,43.62 300.93,23.52 591.32,45.63 894.37,61.19 70,3.6 140.95,6.86 213.47,9.76 9.69,0.51 56.52,18.89 33.06,18.09" /><path
         id="path84"
         style="fill:#bbf9bc;fill-opacity:1;fill-rule:nonzero;stroke:none"
         d="m 8347.68,8706.63 c -555.95,-11.88 -1005.59,-49.51 -1559.3,-98.19 -2.28,270.35 -25.65,518.13 -60.87,788.33 580.76,-16.01 1053.92,-7.86 1635.95,5 -21.87,-240.08 -23.74,-457.36 -15.78,-695.14" /><path
         id="path86"
         style="fill:#ffffff;fill-opacity:1;fill-rule:nonzero;stroke:none"
         d="m 8284.65,8760.18 c -521.17,-8.01 -916.38,-37.13 -1437.22,-84.15 1.29,226.39 -16.14,431.57 -48.3,657.23 541.31,-13.84 954.76,-7.5 1497.18,11.2 -20.02,-202.65 -22.25,-384.02 -11.66,-584.28" /><path
         id="path88"
         style="fill:#6a79a6;fill-opacity:1;fill-rule:nonzero;stroke:none"
         d="m 8287.32,8774.82 c -461.27,-6.35 -812.98,-28.23 -1248.44,-65.38 -61.2,-5.23 -123.78,-10.76 -188.04,-16.56 7.31,-4.25 14.56,-8.52 21.74,-12.81 3.27,226.41 -13.57,428.71 -47.15,654.29 -9.07,-5.84 -18.25,-11.65 -27.52,-17.46 478.23,-11.8 845.26,-8.69 1298,5.87 63.64,2.05 128.7,4.3 195.48,6.75 -7.19,4.13 -14.34,8.28 -21.42,12.46 -21.22,-203.48 -23.34,-382.84 -10.81,-583.78 1.29,-21.78 51.76,-13.59 51.25,3.92 -8.49,199.62 -6.17,383.08 12.38,584.82 1.03,11.27 -10.91,12.86 -21.52,12.52 -472.39,-14.98 -858.39,-22.01 -1304.97,-13.99 -63.59,1.11 -128.72,2.51 -196.03,4.21 -8.65,0.22 -29.2,-6.21 -27.71,-17.49 30.57,-225.78 48.64,-433.93 49.59,-660.21 0.07,-12.65 11.66,-13.8 21.84,-12.87 452.44,40.86 821.19,69.59 1249.76,81.97 61.05,1.77 123.59,3.23 188.32,4.39 26.95,0.53 40.62,29.85 5.25,29.35" /><path
         id="path90"
         style="fill:#bbf9bc;fill-opacity:1;fill-rule:nonzero;stroke:none"
         d="m 7758.49,9035.59 c -0.97,107.35 -91.75,199.53 -207.92,198.71 -116.05,-1.98 -199.12,-99.43 -193.37,-211.65 5.04,-112.3 94.6,-203.82 206.72,-198.05 111.99,6.96 196.32,103.68 194.57,210.99" /><path
         id="path92"
         style="fill:#6a79a6;fill-opacity:1;fill-rule:nonzero;stroke:none"
         d="m 7780.57,9041.26 c -2.79,196.99 -278.29,272.18 -399.84,118.38 -59.96,-75.66 -59.95,-187.12 -1.41,-265.16 53.61,-71.36 144.34,-94.58 228.38,-70.16 101.41,29.78 170.88,114.26 172.87,216.94 0.07,6.93 -43.96,0.89 -44.03,-11.35 -1.09,-104.33 -85.14,-215.02 -202.75,-192.4 -88.52,18.23 -150.27,100.88 -154.76,191.02 -5.81,105.3 77.27,212.99 192.48,193.53 98.53,-17.63 160.73,-101.74 165.03,-192.15 0.33,-7.63 44.48,-0.4 44.03,11.35" /><path
         id="path94"
         style="fill:#bbf9bc;fill-opacity:1;fill-rule:nonzero;stroke:none"
         d="m 8094.48,9045.92 c 0.52,49.47 -43.91,88.3 -98.86,86.35 -55.02,-2 -99.11,-43.65 -98.8,-92.38 0.28,-48.74 44.1,-87.44 98.24,-86.13 54.08,1.37 98.84,42.68 99.42,92.16" /><path
         id="path96"
         style="fill:#6a79a6;fill-opacity:1;fill-rule:nonzero;stroke:none"
         d="m 8119.61,9051.74 c -7.27,134.4 -249.32,108.51 -245.66,-17.54 1.9,-133.53 234.05,-109.37 245.66,17.54 0.64,10.41 -49.11,3.33 -49.95,-11.61 -3.14,-44.46 -42.65,-90.85 -96.27,-70.01 -32.73,12.71 -53.65,43.44 -53.49,75.48 0.12,42.05 39.54,84.79 88.94,72.56 38.9,-9.67 58.91,-43.34 60.82,-78.03 0.49,-11.47 50.49,-2.87 49.95,11.61" /><path
         id="path98"
         style="fill:#bbf9bc;fill-opacity:1;fill-rule:nonzero;stroke:none"
         d="m 7218.41,9023.4 c -2.8,51.69 -49.65,93.72 -104.74,93.28 -55.04,-0.48 -96.96,-45.29 -93.32,-99.78 3.72,-54.48 50.81,-96.25 105.01,-93.15 54.25,3.17 95.89,47.95 93.05,99.65" /><path
         id="path100"
         style="fill:#6a79a6;fill-opacity:1;fill-rule:nonzero;stroke:none"
         d="m 7241.07,9029.43 c -14.96,141.51 -254.86,131.39 -245.65,-16.82 11.04,-153.31 246.27,-123.24 245.95,12.82 0.05,22.13 -46.07,14.87 -46.1,-4.08 0.06,-39.44 -24.89,-83.7 -72.06,-81.52 -42.54,2.03 -74.92,40.6 -77.6,81.34 -2.86,44.58 30.39,86.8 79.09,77.92 42.44,-7.7 66.75,-44.02 70.88,-81.78 2.14,-19.02 47.8,-8.24 45.49,12.12" /><path
         id="path102"
         style="fill:#6a79a6;fill-opacity:1;fill-rule:nonzero;stroke:none"
         d="m 7565.76,9021.77 c 0.57,-18.19 1.14,-36.39 1.7,-54.71 8.33,2 14.69,5.63 19.09,10.88 4.4,5.25 6.51,11.23 6.3,17.95 -0.22,7.22 -2.61,12.72 -7.17,16.51 -4.56,3.79 -11.21,6.91 -19.92,9.37 z m -17.07,36.53 c -0.55,15.96 -1.12,31.97 -1.72,48.11 -6.98,-2.26 -12.36,-5.19 -16.16,-8.74 -3.8,-3.55 -5.57,-8.82 -5.3,-15.79 0.27,-6.63 2.28,-11.57 6.08,-14.85 3.8,-3.29 9.51,-6.19 17.1,-8.73 z m 12.97,87.06 c 0.15,-4.61 0.31,-9.21 0.46,-13.8 9.07,-0.73 16.86,-2.41 23.4,-5.05 6.54,-2.64 12.28,-6.72 17.21,-12.24 3.91,-4.19 6.94,-8.52 9.1,-12.97 2.16,-4.47 3.31,-8.58 3.4,-12.33 0.1,-4.17 -1.33,-7.81 -4.31,-10.94 -2.98,-3.12 -6.64,-4.73 -10.98,-4.86 -8.19,-0.24 -13.61,4.01 -16.31,12.8 -3.07,10.36 -9.94,17.16 -20.65,20.35 0.59,-17.51 1.17,-34.87 1.73,-52.16 10.41,-2.52 18.72,-4.84 24.9,-6.98 6.19,-2.13 11.76,-5.31 16.72,-9.55 5.29,-4.4 9.41,-9.7 12.38,-15.93 2.97,-6.24 4.56,-13.11 4.78,-20.65 0.28,-9.42 -1.66,-18.35 -5.86,-26.79 -4.17,-8.44 -10.5,-15.46 -18.97,-21.08 -8.47,-5.61 -18.61,-9.18 -30.45,-10.68 0.31,-10.49 0.63,-21.05 0.95,-31.68 0.15,-5.04 -0.22,-8.74 -1.11,-11.11 -0.9,-2.37 -2.97,-3.62 -6.21,-3.77 -3,-0.14 -5.12,0.72 -6.39,2.56 -1.26,1.83 -1.95,4.74 -2.05,8.68 -0.32,11.56 -0.65,23.03 -0.98,34.43 -9.75,0.69 -18.31,2.67 -25.67,5.92 -7.37,3.24 -13.55,7.4 -18.58,12.47 -5,5.07 -8.75,10.42 -11.27,15.99 -2.5,5.6 -3.84,11.12 -4.01,16.56 -0.15,4.04 1.29,7.71 4.3,11.05 3.01,3.32 6.84,5.07 11.5,5.23 3.74,0.13 6.93,-0.64 9.55,-2.3 2.64,-1.65 4.52,-4.07 5.61,-7.2 2.48,-6.78 4.58,-11.94 6.36,-15.52 1.77,-3.58 4.38,-6.81 7.83,-9.69 3.46,-2.9 7.99,-5.03 13.59,-6.4 -0.6,19.47 -1.21,38.8 -1.85,58.14 -11.23,2.71 -20.65,5.85 -28.29,9.41 -7.61,3.56 -13.89,8.77 -18.85,15.66 -4.94,6.9 -7.66,15.87 -8.13,26.97 -0.62,14.47 3.42,26.52 12.22,36.06 8.8,9.56 21.93,15.3 39.32,17.24 -0.16,4.51 -0.33,9.03 -0.5,13.57 -0.29,7.2 2.26,10.88 7.6,10.98 5.43,0.12 8.26,-3.36 8.51,-10.39" /><path
         id="path104"
         style="fill:#ffffff;fill-opacity:1;fill-rule:nonzero;stroke:none"
         d="m 9877.05,8728.43 c -579.63,-20.27 -1101.6,-69.18 -1676.15,-112.76 -11.56,310.86 -42.69,607.42 -74.74,919.5 609.07,-13.98 1160.76,-2.44 1771.18,-2.73 -18.66,-273.51 -19.17,-531.94 -20.29,-804.01" /><path
         id="path106"
         style="fill:#6a79a6;fill-opacity:1;fill-rule:nonzero;stroke:none"
         d="m 9893.72,8737.42 c -372.58,-11.59 -701.46,-33.79 -1048.64,-60.6 -182.92,-14.14 -369.2,-29.47 -557.29,-44.47 -19.03,-1.51 -40.12,-0.39 -59.02,-4.69 -18,-4.1 -5.21,-4.28 -4.35,3.94 9.02,81.73 -4.99,169.04 -10.04,247.61 -12.98,219.15 -36.09,435.18 -62.76,661.56 -13.77,-5.03 -27.73,-9.99 -41.92,-14.9 390.86,-9.5 737.73,-9.22 1104.56,-6.61 193.3,1.35 390.43,3.27 589.91,4.23 20.19,0.08 42.31,-2.3 62.62,0.26 19.36,2.43 5.89,3.44 4.2,-3.76 -17.05,-71.7 -10.95,-149.27 -13.75,-218.24 -8.68,-192.6 -8.13,-381.49 -5.04,-579.62 0.02,-6.99 49.52,0.42 50.07,12.46 5.94,234.9 6.8,466.66 16.04,700.26 1.34,34.14 2.86,68.41 4.59,102.91 0.13,2.57 -7.36,3.18 -8.4,3.19 -200.74,1.27 -403.33,0.54 -602.47,-0.36 -318.86,-1.48 -625.81,-3.25 -945.04,0.49 -73.75,0.86 -148.4,1.99 -224.65,3.46 -8.48,0.15 -43.01,-1.86 -41.99,-14.89 23.48,-270.6 51.35,-537.02 69.7,-804.31 2.68,-39.04 5.17,-78.21 7.42,-117.6 0.17,-2.93 7.25,-3.05 8.23,-2.98 188.39,13.73 379.23,28.92 567.13,43.62 300.93,23.52 591.31,45.63 894.36,61.19 70.01,3.59 140.94,6.86 213.48,9.75 9.68,0.52 56.52,18.89 33.05,18.1" /><path
         id="path108"
         style="fill:#bbf9bc;fill-opacity:1;fill-rule:nonzero;stroke:none"
         d="m 9816.33,8781.25 c -555.95,-11.88 -1005.59,-49.52 -1559.31,-98.19 -2.28,270.35 -25.64,518.12 -60.86,788.33 580.76,-16.02 1053.92,-7.87 1635.94,5 -21.86,-240.09 -23.74,-457.36 -15.77,-695.14" /><path
         id="path110"
         style="fill:#ffffff;fill-opacity:1;fill-rule:nonzero;stroke:none"
         d="m 9753.3,8834.8 c -521.18,-8.01 -916.39,-37.14 -1437.23,-84.15 1.3,226.38 -16.13,431.56 -48.29,657.22 541.31,-13.83 954.76,-7.5 1497.18,11.21 -20.03,-202.65 -22.26,-384.02 -11.66,-584.28" /><path
         id="path112"
         style="fill:#6a79a6;fill-opacity:1;fill-rule:nonzero;stroke:none"
         d="m 9755.96,8849.43 c -461.27,-6.34 -812.96,-28.23 -1248.43,-65.37 -61.2,-5.24 -123.79,-10.76 -188.04,-16.56 7.32,-4.26 14.56,-8.53 21.74,-12.82 3.26,226.41 -13.57,428.71 -47.15,654.29 -9.08,-5.83 -18.25,-11.65 -27.53,-17.46 478.23,-11.79 845.28,-8.68 1298,5.88 63.65,2.04 128.7,4.3 195.49,6.75 -7.2,4.12 -14.34,8.28 -21.43,12.46 -21.21,-203.49 -23.34,-382.84 -10.8,-583.78 1.3,-21.79 51.76,-13.59 51.24,3.91 -8.48,199.62 -6.16,383.08 12.39,584.83 1.03,11.27 -10.91,12.86 -21.53,12.51 -472.38,-14.98 -858.38,-22 -1304.97,-13.99 -63.59,1.12 -128.71,2.52 -196.03,4.21 -8.64,0.22 -29.2,-6.21 -27.71,-17.49 30.57,-225.77 48.65,-433.92 49.6,-660.21 0.07,-12.65 11.67,-13.79 21.84,-12.87 452.44,40.87 821.19,69.59 1249.75,81.97 61.04,1.77 123.6,3.25 188.32,4.4 26.96,0.53 40.62,29.84 5.25,29.34" /><path
         id="path114"
         style="fill:#bbf9bc;fill-opacity:1;fill-rule:nonzero;stroke:none"
         d="m 9227.13,9110.2 c -0.96,107.35 -91.74,199.53 -207.92,198.72 -116.04,-1.99 -199.11,-99.43 -193.37,-211.66 5.05,-112.29 94.61,-203.82 206.73,-198.04 111.99,6.95 196.31,103.67 194.56,210.98" /><path
         id="path116"
         style="fill:#6a79a6;fill-opacity:1;fill-rule:nonzero;stroke:none"
         d="m 9249.22,9115.88 c -2.8,196.99 -278.3,272.18 -399.84,118.37 -59.96,-75.65 -59.95,-187.12 -1.41,-265.15 53.61,-71.36 144.34,-94.59 228.37,-70.16 101.41,29.78 170.89,114.26 172.88,216.94 0.07,6.93 -43.96,0.89 -44.04,-11.35 -1.09,-104.33 -85.13,-215.03 -202.74,-192.4 -88.52,18.22 -150.28,100.88 -154.77,191.02 -5.81,105.3 77.27,212.99 192.49,193.53 98.52,-17.63 160.72,-101.74 165.02,-192.15 0.33,-7.64 44.49,-0.41 44.04,11.35" /><path
         id="path118"
         style="fill:#bbf9bc;fill-opacity:1;fill-rule:nonzero;stroke:none"
         d="m 9563.12,9120.54 c 0.53,49.46 -43.9,88.29 -98.86,86.35 -55.02,-2.01 -99.11,-43.65 -98.79,-92.38 0.27,-48.74 44.09,-87.44 98.23,-86.13 54.08,1.37 98.85,42.68 99.42,92.16" /><path
         id="path120"
         style="fill:#6a79a6;fill-opacity:1;fill-rule:nonzero;stroke:none"
         d="m 9588.25,9126.36 c -7.26,134.4 -249.3,108.5 -245.66,-17.55 1.91,-133.53 234.05,-109.37 245.66,17.55 0.66,10.4 -49.09,3.33 -49.95,-11.61 -3.14,-44.46 -42.63,-90.85 -96.27,-70.02 -32.72,12.71 -53.65,43.45 -53.48,75.48 0.11,42.05 39.53,84.8 88.94,72.57 38.89,-9.68 58.91,-43.35 60.81,-78.03 0.5,-11.48 50.49,-2.88 49.95,11.61" /><path
         id="path122"
         style="fill:#bbf9bc;fill-opacity:1;fill-rule:nonzero;stroke:none"
         d="m 8687.06,9098.01 c -2.81,51.7 -49.66,93.72 -104.75,93.29 -55.02,-0.48 -96.94,-45.29 -93.31,-99.78 3.7,-54.48 50.81,-96.26 105.01,-93.15 54.26,3.17 95.89,47.95 93.05,99.64" /><path
         id="path124"
         style="fill:#6a79a6;fill-opacity:1;fill-rule:nonzero;stroke:none"
         d="m 8709.71,9104.04 c -14.95,141.51 -254.86,131.4 -245.65,-16.82 11.05,-153.3 246.27,-123.23 245.96,12.83 0.04,22.12 -46.08,14.87 -46.1,-4.09 0.07,-39.44 -24.89,-83.7 -72.06,-81.52 -42.54,2.04 -74.93,40.6 -77.6,81.35 -2.86,44.57 30.39,86.8 79.09,77.92 42.43,-7.7 66.75,-44.03 70.87,-81.78 2.14,-19.03 47.82,-8.24 45.49,12.11" /><path
         id="path126"
         style="fill:#6a79a6;fill-opacity:1;fill-rule:nonzero;stroke:none"
         d="m 9034.39,9096.38 c 0.58,-18.18 1.15,-36.38 1.72,-54.7 8.32,2 14.67,5.63 19.08,10.88 4.4,5.25 6.51,11.23 6.3,17.95 -0.24,7.21 -2.6,12.73 -7.17,16.51 -4.57,3.79 -11.2,6.91 -19.93,9.36 z m -17.06,36.54 c -0.55,15.96 -1.12,31.97 -1.71,48.11 -6.97,-2.26 -12.37,-5.19 -16.17,-8.75 -3.81,-3.54 -5.56,-8.81 -5.29,-15.78 0.26,-6.64 2.28,-11.57 6.08,-14.85 3.79,-3.29 9.49,-6.19 17.09,-8.73 z m 12.97,87.06 c 0.16,-4.61 0.32,-9.22 0.47,-13.8 9.05,-0.73 16.86,-2.41 23.39,-5.05 6.54,-2.64 12.26,-6.72 17.22,-12.24 3.89,-4.2 6.93,-8.52 9.1,-12.98 2.16,-4.46 3.29,-8.58 3.39,-12.32 0.1,-4.17 -1.33,-7.81 -4.31,-10.94 -2.97,-3.12 -6.63,-4.73 -10.98,-4.86 -8.19,-0.24 -13.62,4.01 -16.31,12.8 -3.07,10.35 -9.95,17.16 -20.65,20.35 0.59,-17.51 1.16,-34.87 1.73,-52.17 10.42,-2.52 18.72,-4.83 24.91,-6.97 6.19,-2.13 11.77,-5.31 16.71,-9.55 5.3,-4.4 9.42,-9.7 12.39,-15.93 2.97,-6.24 4.54,-13.11 4.77,-20.65 0.29,-9.43 -1.67,-18.36 -5.86,-26.79 -4.19,-8.44 -10.5,-15.47 -18.96,-21.08 -8.48,-5.61 -18.63,-9.19 -30.45,-10.68 0.31,-10.5 0.63,-21.05 0.94,-31.68 0.14,-5.04 -0.21,-8.74 -1.1,-11.11 -0.89,-2.36 -2.96,-3.62 -6.21,-3.77 -3.02,-0.14 -5.13,0.72 -6.39,2.56 -1.26,1.83 -1.94,4.73 -2.06,8.68 -0.32,11.56 -0.65,23.03 -0.99,34.43 -9.75,0.69 -18.29,2.66 -25.66,5.92 -7.37,3.24 -13.55,7.4 -18.57,12.47 -5.02,5.07 -8.77,10.42 -11.27,15.99 -2.5,5.6 -3.85,11.11 -4.03,16.56 -0.11,4.04 1.31,7.71 4.31,11.05 3.01,3.32 6.84,5.07 11.5,5.23 3.74,0.13 6.93,-0.64 9.56,-2.3 2.64,-1.66 4.49,-4.07 5.61,-7.2 2.47,-6.78 4.58,-11.94 6.35,-15.52 1.77,-3.58 4.39,-6.81 7.84,-9.69 3.45,-2.89 7.97,-5.03 13.58,-6.41 -0.59,19.48 -1.21,38.81 -1.85,58.14 -11.22,2.72 -20.66,5.85 -28.28,9.42 -7.63,3.56 -13.91,8.77 -18.85,15.66 -4.95,6.89 -7.66,15.87 -8.13,26.97 -0.63,14.47 3.42,26.52 12.22,36.06 8.8,9.56 21.92,15.31 39.32,17.24 -0.17,4.51 -0.34,9.03 -0.51,13.57 -0.28,7.2 2.25,10.88 7.6,10.98 5.43,0.11 8.27,-3.36 8.51,-10.39" /><path
         id="path128"
         style="fill:#ffffff;fill-opacity:1;fill-rule:nonzero;stroke:none"
         d="m 7797.58,9488.63 c -577.87,-19.62 -1102.72,-65.32 -1676.13,-106.26 -11.33,310.74 -40.88,607.79 -71.91,919.83 607.86,-15.3 1162.83,-7.1 1771.88,-9.5 -19.27,-273.2 -21.57,-531.99 -23.84,-804.07" /><path
         id="path130"
         style="fill:#6a79a6;fill-opacity:1;fill-rule:nonzero;stroke:none"
         d="m 7814.18,9497.66 c -370.89,-11.09 -701.35,-32 -1048.6,-57.15 -183.06,-13.27 -369.2,-27.65 -557.26,-41.8 -19.04,-1.42 -40.1,-0.22 -59.02,-4.42 -18.03,-3.99 -5.21,-4.26 -4.33,3.99 9.14,81.62 -4.7,169.03 -9.53,247.62 -12.37,219.31 -34.52,435.4 -60.55,661.9 -13.72,-5 -27.61,-10 -41.73,-14.9 389.49,-10.4 738.25,-11.7 1105.24,-10.7 193.5,0.5 390.48,1.6 589.89,1.8 20.2,0 42.26,-2.4 62.6,0.1 19.37,2.3 5.89,3.4 4.18,-3.8 -17.29,-71.6 -11.43,-149.2 -14.52,-218.1 -9.51,-192.69 -10.05,-381.64 -7.7,-579.92 0,-6.96 49.22,0.49 49.83,12.57 7.06,234.84 9.49,466.85 19.45,700.35 1.45,34.1 3.05,68.4 4.85,102.8 0.13,2.6 -7.38,3.2 -8.41,3.2 -200.66,1.9 -403.02,2.1 -602.28,2.1 -318.94,0 -627.2,-0.4 -946.43,4.3 -73.72,1 -148.25,2.3 -224.21,4 -8.49,0.2 -42.78,-2 -41.8,-15 22.46,-270.5 48.93,-537.2 66.88,-804.6 2.62,-39.05 5.06,-78.19 7.3,-117.55 0.17,-2.93 7.28,-3.05 8.25,-2.98 188.39,12.89 378.99,27.07 566.97,40.85 300.93,22.02 592.41,42.86 895.17,57.77 69.92,3.44 140.68,6.59 212.86,9.39 9.65,0.51 56.27,18.95 32.9,18.18" /><path
         id="path132"
         style="fill:#bbf9bc;fill-opacity:1;fill-rule:nonzero;stroke:none"
         d="m 7737.3,9541.61 c -555.04,-10.71 -1006.37,-45.86 -1559.61,-92.13 -1.76,270.36 -24.01,518.34 -58.51,788.72 580.35,-17.7 1055.5,-12.2 1636.84,-1.3 -22.67,-239.9 -25.84,-457.32 -18.72,-695.29" /><path
         id="path134"
         style="fill:#ffffff;fill-opacity:1;fill-rule:nonzero;stroke:none"
         d="m 7674.58,9595.38 c -520.78,-6.58 -916.9,-33.73 -1437.65,-78.56 1.9,226.43 -14.73,431.69 -46.37,657.58 541.37,-15.7 955.94,-11.5 1498.08,5.5 -20.84,-202.62 -24.01,-384.02 -14.06,-584.52" /><path
         id="path136"
         style="fill:#6a79a6;fill-opacity:1;fill-rule:nonzero;stroke:none"
         d="m 7677.23,9610.04 c -460.81,-5.03 -813.4,-25.33 -1248.75,-60.61 -61.22,-4.97 -123.83,-10.23 -188.15,-15.77 7.33,-4.26 14.58,-8.53 21.77,-12.82 3.91,226.47 -12.17,428.81 -45.27,654.66 -9.05,-5.8 -18.2,-11.7 -27.46,-17.5 478.16,-13.5 846.3,-12.1 1298.81,0.8 63.66,1.9 128.73,3.9 195.54,6.1 -7.2,4.1 -14.35,8.3 -21.44,12.5 -22.07,-203.44 -25.08,-382.79 -13.14,-584.01 1.25,-21.81 51.61,-13.6 51.15,3.94 -7.78,199.82 -4.5,383.33 14.86,584.97 1.07,11.3 -10.97,12.8 -21.55,12.5 -472.22,-13.4 -858.8,-18.5 -1305.92,-8.9 -63.63,1.4 -128.75,3 -196.01,4.9 -8.67,0.3 -29.09,-6.2 -27.64,-17.5 29.98,-225.93 47.23,-434.19 47.6,-660.54 0.04,-12.67 11.74,-13.74 21.87,-12.87 452.44,38.96 821.61,65.84 1250.38,76.91 61.03,1.59 123.53,2.87 188.14,3.85 26.92,0.46 40.51,29.78 5.21,29.39" /><path
         id="path138"
         style="fill:#bbf9bc;fill-opacity:1;fill-rule:nonzero;stroke:none"
         d="m 7149.42,9872.83 c -0.55,107.34 -90.89,199.87 -207.16,199.57 -116.15,-1.5 -199.55,-98.75 -194.19,-210.98 4.65,-112.29 93.82,-204.26 205.99,-198.94 112.05,6.52 196.7,103.04 195.36,210.35" /><path
         id="path140"
         style="fill:#6a79a6;fill-opacity:1;fill-rule:nonzero;stroke:none"
         d="m 7171.5,9878.51 c -1.91,197.09 -277.26,273.29 -399.43,119.75 -60.19,-75.46 -60.58,-186.9 -2.33,-265.19 53.35,-71.62 143.98,-95.24 228.13,-71.04 101.56,29.51 171.24,113.8 173.63,216.48 0.1,6.88 -43.92,0.91 -44.04,-11.35 -1.47,-104.43 -85.97,-214.74 -203.52,-191.56 -88.46,18.65 -149.85,101.54 -154.04,191.7 -5.48,105.41 78.11,212.6 193.3,192.7 98.5,-18.1 160.31,-102.42 164.26,-192.84 0.3,-7.6 44.45,-0.44 44.04,11.35" /><path
         id="path142"
         style="fill:#bbf9bc;fill-opacity:1;fill-rule:nonzero;stroke:none"
         d="m 7485.46,9881.97 c 0.72,49.47 -43.55,88.45 -98.52,86.7 -55.03,-1.81 -99.3,-43.3 -99.18,-92.04 0.09,-48.74 43.78,-87.62 97.93,-86.5 54.1,1.18 99,42.35 99.77,91.84" /><path
         id="path144"
         style="fill:#6a79a6;fill-opacity:1;fill-rule:nonzero;stroke:none"
         d="m 7510.6,9887.78 c -6.72,134.52 -248.9,109.2 -245.71,-16.84 1.45,-133.65 233.61,-110.05 245.71,16.84 0.68,10.36 -49.05,3.36 -49.97,-11.6 -3.29,-44.5 -42.88,-90.25 -96.59,-69.55 -32.72,12.62 -53.5,43.83 -53.2,75.71 0.3,43.08 41.89,85.85 92.22,71.47 37.16,-10.66 55.85,-44.13 57.57,-77.63 0.44,-11.44 50.45,-2.91 49.97,11.6" /><path
         id="path146"
         style="fill:#bbf9bc;fill-opacity:1;fill-rule:nonzero;stroke:none"
         d="m 6609.25,9862.73 c -2.65,51.7 -49.41,93.93 -104.53,93.72 -55.06,-0.26 -97.15,-44.91 -93.66,-99.41 3.54,-54.5 50.55,-96.47 104.77,-93.59 54.28,2.95 96.08,47.57 93.42,99.28" /><path
         id="path148"
         style="fill:#6a79a6;fill-opacity:1;fill-rule:nonzero;stroke:none"
         d="m 6631.91,9868.75 c -14.55,141.65 -254.65,132.25 -245.8,-16 10.66,-153.42 245.96,-124.02 246.1,12 0.11,22.12 -46.03,14.9 -46.11,-4.07 -0.07,-39.46 -25.24,-83.57 -72.43,-81.11 -42.54,2.29 -74.81,40.95 -77.34,81.72 -2.72,44.62 30.74,86.64 79.44,77.48 42.43,-7.95 66.64,-44.34 70.64,-82.12 2.08,-19.01 47.75,-8.27 45.5,12.1" /><path
         id="path150"
         style="fill:#6a79a6;fill-opacity:1;fill-rule:nonzero;stroke:none"
         d="m 6957.03,9859.57 c 0.51,-18.19 1.02,-36.39 1.51,-54.72 8.32,1.96 14.7,5.58 19.13,10.81 4.42,5.23 6.54,11.21 6.37,17.94 -0.19,7.22 -2.58,12.71 -7.12,16.53 -4.55,3.8 -11.17,6.95 -19.89,9.44 z m -16.92,36.6 c -0.49,15.96 -1,31.97 -1.52,48.12 -6.98,-2.25 -12.39,-5.16 -16.2,-8.69 -3.83,-3.54 -5.61,-8.8 -5.36,-15.76 0.23,-6.64 2.23,-11.6 6.03,-14.88 3.78,-3.31 9.47,-6.23 17.05,-8.79 z m 13.3,87.01 c 0.15,-4.61 0.29,-9.22 0.43,-13.8 9.05,-0.77 16.85,-2.49 23.37,-5.14 6.53,-2.67 12.25,-6.77 17.17,-12.31 3.89,-4.2 6.89,-8.54 9.05,-13.01 2.15,-4.48 3.26,-8.59 3.34,-12.34 0.09,-4.16 -1.35,-7.8 -4.35,-10.91 -2.98,-3.11 -6.65,-4.73 -10.99,-4.84 -8.19,-0.2 -13.61,4.07 -16.27,12.87 -3.03,10.36 -9.88,17.19 -20.56,20.42 0.51,-17.51 1.02,-34.86 1.51,-52.16 10.41,-2.56 18.72,-4.91 24.88,-7.07 6.18,-2.15 11.74,-5.36 16.68,-9.61 5.27,-4.42 9.38,-9.73 12.32,-15.98 2.94,-6.25 4.5,-13.13 4.71,-20.66 0.25,-9.44 -1.76,-18.35 -5.97,-26.78 -4.21,-8.43 -10.56,-15.43 -19.04,-21.01 -8.49,-5.58 -18.65,-9.11 -30.5,-10.57 0.28,-10.49 0.56,-21.05 0.84,-31.69 0.13,-5.05 -0.27,-8.75 -1.16,-11.11 -0.89,-2.36 -2.97,-3.62 -6.21,-3.75 -3.01,-0.12 -5.14,0.74 -6.39,2.58 -1.25,1.85 -1.93,4.75 -2.02,8.69 -0.28,11.57 -0.57,23.05 -0.86,34.45 -9.74,0.73 -18.28,2.74 -25.64,6.02 -7.36,3.27 -13.52,7.46 -18.53,12.56 -4.99,5.08 -8.72,10.43 -11.2,16.03 -2.49,5.61 -3.8,11.12 -3.96,16.57 -0.12,4.03 1.33,7.7 4.34,11.03 3.04,3.32 6.86,5.05 11.53,5.19 3.72,0.12 6.92,-0.67 9.55,-2.33 2.63,-1.69 4.48,-4.09 5.57,-7.22 2.44,-6.79 4.54,-11.97 6.3,-15.56 1.76,-3.57 4.35,-6.81 7.79,-9.72 3.44,-2.91 7.97,-5.06 13.57,-6.45 -0.52,19.48 -1.06,38.82 -1.63,58.16 -11.22,2.75 -20.63,5.91 -28.25,9.51 -7.6,3.58 -13.88,8.83 -18.79,15.73 -4.91,6.92 -7.59,15.9 -8.03,27 -0.57,14.47 3.52,26.5 12.36,36.02 8.83,9.52 21.99,15.23 39.39,17.09 -0.14,4.51 -0.3,9.03 -0.45,13.57 -0.25,7.2 2.3,10.86 7.64,10.95 5.43,0.1 8.26,-3.39 8.46,-10.42" /><path
         id="path152"
         style="fill:#ffffff;fill-opacity:1;fill-rule:nonzero;stroke:none"
         d="m 8998.61,9508.86 c -577.87,-19.63 -1102.72,-65.32 -1676.13,-106.27 -11.33,310.74 -40.89,607.81 -71.91,919.81 607.85,-15.2 1162.83,-7.1 1771.88,-9.5 -19.27,-273.1 -21.58,-531.97 -23.84,-804.04" /><path
         id="path154"
         style="fill:#6a79a6;fill-opacity:1;fill-rule:nonzero;stroke:none"
         d="m 9015.21,9517.88 c -370.9,-11.08 -701.35,-31.99 -1048.6,-57.14 -183.05,-13.28 -369.21,-27.66 -557.26,-41.8 -19.04,-1.43 -40.1,-0.23 -59.03,-4.43 -18.02,-3.99 -5.2,-4.25 -4.32,4 9.14,81.62 -4.7,169.02 -9.53,247.62 -12.38,219.3 -34.53,435.47 -60.55,661.97 -13.71,-5.1 -27.61,-10.1 -41.73,-15 389.49,-10.4 738.25,-11.6 1105.24,-10.7 193.5,0.5 390.48,1.6 589.89,1.8 20.18,0 42.27,-2.4 62.6,0.1 19.36,2.3 5.89,3.4 4.18,-3.8 -17.29,-71.6 -11.44,-149.2 -14.53,-218.1 -9.5,-192.67 -10.04,-381.61 -7.69,-579.9 0.01,-6.95 49.22,0.5 49.83,12.57 7.06,234.84 9.49,466.85 19.45,700.33 1.46,34.2 3.04,68.4 4.85,102.8 0.12,2.6 -7.38,3.2 -8.41,3.2 -200.67,2 -403.02,2.1 -602.28,2.1 -318.94,0 -627.2,-0.4 -946.43,4.3 -73.71,1.1 -148.24,2.4 -224.22,4 -8.48,0.2 -42.77,-1.9 -41.79,-15 22.45,-270.4 48.93,-537.18 66.88,-804.57 2.62,-39.05 5.06,-78.21 7.3,-117.55 0.17,-2.93 7.27,-3.05 8.24,-2.99 188.39,12.89 378.99,27.08 566.98,40.85 300.93,22.03 592.41,42.86 895.17,57.77 69.92,3.45 140.68,6.59 212.86,9.4 9.65,0.51 56.27,18.94 32.9,18.17" /><path
         id="path156"
         style="fill:#bbf9bc;fill-opacity:1;fill-rule:nonzero;stroke:none"
         d="m 8938.33,9561.83 c -555.04,-10.7 -1006.37,-45.85 -1559.61,-92.13 -1.76,270.36 -24.01,518.35 -58.51,788.7 580.35,-17.7 1055.5,-12.2 1636.84,-1.3 -22.67,-239.9 -25.84,-457.3 -18.72,-695.27" /><path
         id="path158"
         style="fill:#ffffff;fill-opacity:1;fill-rule:nonzero;stroke:none"
         d="m 8875.61,9615.6 c -520.78,-6.57 -916.9,-33.73 -1437.65,-78.56 1.9,226.44 -14.73,431.7 -46.37,657.56 541.37,-15.7 955.94,-11.4 1498.08,5.5 -20.84,-202.6 -24.02,-383.99 -14.06,-584.5" /><path
         id="path160"
         style="fill:#6a79a6;fill-opacity:1;fill-rule:nonzero;stroke:none"
         d="m 8878.26,9630.26 c -460.81,-5.03 -813.4,-25.33 -1248.75,-60.6 -61.22,-4.98 -123.83,-10.24 -188.15,-15.78 7.33,-4.25 14.58,-8.52 21.77,-12.81 3.91,226.46 -12.16,428.8 -45.27,654.63 -9.05,-5.8 -18.2,-11.6 -27.46,-17.5 478.16,-13.5 846.29,-12.1 1298.81,0.9 63.64,1.8 128.73,3.8 195.54,6 -7.2,4.2 -14.35,8.3 -21.44,12.5 -22.07,-203.42 -25.1,-382.76 -13.14,-583.99 1.24,-21.81 51.61,-13.6 51.15,3.95 -7.79,199.81 -4.49,383.34 14.86,585.04 1.06,11.3 -10.97,12.8 -21.55,12.5 -472.23,-13.4 -858.8,-18.6 -1305.92,-8.9 -63.63,1.3 -128.75,2.9 -196.01,4.9 -8.67,0.2 -29.1,-6.3 -27.64,-17.5 29.99,-226.01 47.23,-434.27 47.6,-660.61 0.03,-12.68 11.74,-13.75 21.87,-12.87 452.44,38.95 821.62,65.83 1250.38,76.91 61.02,1.58 123.53,2.87 188.14,3.84 26.93,0.47 40.5,29.79 5.21,29.39" /><path
         id="path162"
         style="fill:#bbf9bc;fill-opacity:1;fill-rule:nonzero;stroke:none"
         d="m 8350.44,9893.06 c -0.54,107.34 -90.89,199.84 -207.15,199.54 -116.15,-1.5 -199.56,-98.72 -194.19,-210.95 4.65,-112.3 93.82,-204.26 205.99,-198.95 112.06,6.52 196.69,103.05 195.35,210.36" /><path
         id="path164"
         style="fill:#6a79a6;fill-opacity:1;fill-rule:nonzero;stroke:none"
         d="m 8372.53,9898.73 c -1.91,197.07 -277.26,273.27 -399.43,119.77 -60.19,-75.48 -60.57,-186.92 -2.33,-265.21 53.35,-71.61 143.98,-95.24 228.13,-71.03 101.56,29.5 171.24,113.8 173.63,216.47 0.09,6.88 -43.91,0.92 -44.04,-11.35 -1.47,-104.43 -85.98,-214.74 -203.52,-191.56 -88.46,18.65 -149.86,101.54 -154.04,191.71 -5.48,105.4 78.11,212.67 193.3,192.67 98.5,-18.1 160.31,-102.4 164.26,-192.82 0.3,-7.59 44.44,-0.44 44.04,11.35" /><path
         id="path166"
         style="fill:#bbf9bc;fill-opacity:1;fill-rule:nonzero;stroke:none"
         d="m 8686.49,9902.19 c 0.72,49.48 -43.55,88.46 -98.52,86.7 -55.04,-1.81 -99.3,-43.3 -99.18,-92.03 0.09,-48.74 43.78,-87.63 97.93,-86.51 54.1,1.18 98.98,42.35 99.77,91.84" /><path
         id="path168"
         style="fill:#6a79a6;fill-opacity:1;fill-rule:nonzero;stroke:none"
         d="m 8711.62,9908.01 c -6.72,134.49 -248.9,109.19 -245.7,-16.84 1.47,-133.65 233.61,-110.06 245.7,16.84 0.69,10.36 -49.05,3.35 -49.96,-11.61 -3.3,-44.5 -42.88,-90.25 -96.59,-69.54 -32.73,12.61 -53.5,43.83 -53.2,75.7 0.31,43.08 41.88,85.85 92.22,71.48 37.15,-10.67 55.85,-44.14 57.57,-77.64 0.44,-11.44 50.45,-2.91 49.96,11.61" /><path
         id="path170"
         style="fill:#bbf9bc;fill-opacity:1;fill-rule:nonzero;stroke:none"
         d="m 7810.28,9882.95 c -2.64,51.71 -49.41,93.93 -104.53,93.72 -55.07,-0.25 -97.14,-44.9 -93.66,-99.41 3.55,-54.5 50.54,-96.47 104.77,-93.58 54.28,2.95 96.09,47.56 93.42,99.27" /><path
         id="path172"
         style="fill:#6a79a6;fill-opacity:1;fill-rule:nonzero;stroke:none"
         d="m 7832.94,9888.97 c -14.55,141.63 -254.65,132.23 -245.8,-15.99 10.67,-153.42 245.96,-124.03 246.1,12 0.12,22.11 -46.02,14.89 -46.11,-4.07 -0.06,-39.46 -25.24,-83.58 -72.43,-81.12 -42.53,2.29 -74.8,40.95 -77.34,81.72 -2.72,44.63 30.74,86.64 79.44,77.48 42.44,-7.94 66.63,-44.33 70.64,-82.12 2.08,-19.01 47.74,-8.27 45.5,12.1" /><path
         id="path174"
         style="fill:#6a79a6;fill-opacity:1;fill-rule:nonzero;stroke:none"
         d="m 8158.07,9879.79 c 0.5,-18.19 1,-36.39 1.5,-54.72 8.33,1.97 14.69,5.58 19.13,10.82 4.43,5.23 6.54,11.2 6.36,17.93 -0.2,7.22 -2.55,12.71 -7.1,16.54 -4.55,3.8 -11.18,6.94 -19.89,9.43 z m -16.93,36.61 c -0.49,15.96 -0.99,31.97 -1.52,48.12 -6.98,-2.25 -12.39,-5.16 -16.21,-8.7 -3.8,-3.53 -5.59,-8.79 -5.36,-15.76 0.24,-6.63 2.25,-11.59 6.04,-14.88 3.78,-3.3 9.47,-6.22 17.05,-8.78 z m 13.31,87 c 0.14,-4.61 0.28,-9.21 0.42,-13.8 9.06,-0.76 16.86,-2.48 23.37,-5.14 6.53,-2.66 12.24,-6.77 17.18,-12.3 3.87,-4.21 6.88,-8.55 9.04,-13.01 2.15,-4.48 3.27,-8.59 3.35,-12.34 0.08,-4.17 -1.37,-7.81 -4.36,-10.92 -3,-3.11 -6.65,-4.73 -10.99,-4.83 -8.19,-0.2 -13.61,4.06 -16.27,12.87 -3.02,10.36 -9.88,17.19 -20.56,20.42 0.52,-17.51 1.03,-34.87 1.52,-52.17 10.4,-2.55 18.71,-4.9 24.88,-7.06 6.18,-2.15 11.74,-5.36 16.67,-9.62 5.28,-4.41 9.39,-9.73 12.32,-15.98 2.95,-6.24 4.51,-13.13 4.71,-20.66 0.25,-9.43 -1.75,-18.35 -5.97,-26.77 -4.21,-8.44 -10.55,-15.43 -19.05,-21.01 -8.48,-5.59 -18.64,-9.12 -30.49,-10.57 0.28,-10.5 0.56,-21.06 0.83,-31.7 0.14,-5.04 -0.26,-8.74 -1.14,-11.11 -0.91,-2.36 -2.98,-3.61 -6.22,-3.74 -3,-0.13 -5.13,0.74 -6.38,2.57 -1.26,1.85 -1.94,4.75 -2.03,8.69 -0.29,11.58 -0.57,23.05 -0.86,34.45 -9.74,0.73 -18.28,2.75 -25.64,6.03 -7.36,3.27 -13.52,7.46 -18.52,12.55 -4.99,5.08 -8.74,10.44 -11.22,16.04 -2.48,5.6 -3.79,11.11 -3.95,16.56 -0.12,4.04 1.34,7.71 4.35,11.03 3.02,3.32 6.86,5.05 11.52,5.19 3.73,0.12 6.93,-0.66 9.54,-2.33 2.64,-1.68 4.49,-4.08 5.58,-7.22 2.44,-6.78 4.54,-11.97 6.3,-15.56 1.76,-3.57 4.36,-6.81 7.8,-9.71 3.43,-2.91 7.96,-5.06 13.56,-6.46 -0.52,19.49 -1.06,38.82 -1.63,58.16 -11.22,2.75 -20.64,5.92 -28.25,9.51 -7.6,3.58 -13.86,8.83 -18.78,15.73 -4.93,6.92 -7.6,15.91 -8.04,27.01 -0.58,14.46 3.51,26.5 12.36,36.02 8.84,9.51 21.97,15.22 39.39,17.08 -0.15,4.51 -0.3,9.04 -0.45,13.6 -0.25,7.2 2.29,10.8 7.64,10.9 5.44,0.1 8.26,-3.4 8.47,-10.4" /><path
         id="path176"
         style="fill:#ffffff;fill-opacity:1;fill-rule:nonzero;stroke:none"
         d="m 9286.86,7889.1 c -577.08,-19.34 -1103.23,-63.55 -1676.12,-103.31 -11.23,310.69 -40.06,607.95 -70.62,919.93 607.29,-15.77 1163.77,-9.19 1772.19,-12.53 -19.55,-273.02 -22.67,-532.02 -25.45,-804.09" /><path
         id="path178"
         style="fill:#6a79a6;fill-opacity:1;fill-rule:nonzero;stroke:none"
         d="m 9303.42,7898.15 c -370.11,-10.87 -701.31,-31.19 -1048.58,-55.59 -183.11,-12.87 -369.19,-26.83 -557.24,-40.58 -19.04,-1.38 -40.08,-0.15 -59.02,-4.3 -18.04,-3.94 -5.2,-4.25 -4.32,4.02 9.21,81.56 -4.57,169.01 -9.31,247.62 -12.09,219.38 -33.79,435.53 -59.53,662.08 -13.68,-5.07 -27.56,-10.07 -41.64,-15.01 388.84,-10.77 738.48,-12.69 1105.54,-12.45 193.57,0.1 390.5,0.76 589.87,0.69 20.2,-0.03 42.25,-2.48 62.59,-0.05 19.38,2.29 5.89,3.4 4.17,-3.83 -17.38,-71.46 -11.65,-149.08 -14.87,-218.04 -9.87,-192.66 -10.92,-381.63 -8.9,-579.99 -0.01,-6.93 49.09,0.54 49.72,12.63 7.56,234.8 10.73,466.93 21,700.42 1.49,34.1 3.14,68.32 4.96,102.72 0.14,2.57 -7.39,3.17 -8.41,3.18 -200.63,2.26 -402.87,2.83 -602.19,3.24 -318.97,0.62 -627.83,0.92 -947.05,5.98 -73.71,1.16 -148.19,2.56 -224.02,4.26 -8.48,0.18 -42.67,-1.98 -41.71,-15 22,-270.43 47.83,-537.31 65.6,-804.74 2.59,-39.05 5.02,-78.2 7.25,-117.53 0.17,-2.93 7.28,-3.05 8.25,-2.98 188.39,12.5 378.87,26.23 566.9,39.58 300.93,21.35 592.91,41.59 895.54,56.22 69.89,3.38 140.56,6.47 212.57,9.23 9.64,0.51 56.15,18.97 32.83,18.22" /><path
         id="path180"
         style="fill:#bbf9bc;fill-opacity:1;fill-rule:nonzero;stroke:none"
         d="m 9226.77,7942.15 c -554.61,-10.18 -1006.72,-44.19 -1559.74,-89.38 -1.53,270.37 -23.26,518.44 -57.43,788.88 580.15,-18.49 1056.22,-14.15 1637.24,-4.12 -23.05,-239.84 -26.8,-457.32 -20.07,-695.38" /><path
         id="path182"
         style="fill:#ffffff;fill-opacity:1;fill-rule:nonzero;stroke:none"
         d="m 9164.21,7996.02 c -520.61,-5.93 -917.14,-32.19 -1437.85,-76.03 2.17,226.47 -14.09,431.76 -45.49,657.75 541.39,-16.59 956.47,-13.25 1498.48,2.83 -21.22,-202.53 -24.82,-383.94 -15.14,-584.55" /><path
         id="path184"
         style="fill:#6a79a6;fill-opacity:1;fill-rule:nonzero;stroke:none"
         d="m 9166.84,8010.69 c -460.61,-4.43 -813.6,-24.01 -1248.88,-58.44 -61.23,-4.86 -123.86,-10 -188.21,-15.41 7.34,-4.26 14.6,-8.53 21.79,-12.82 4.2,226.49 -11.53,428.84 -44.42,654.82 -9.04,-5.84 -18.18,-11.68 -27.43,-17.49 478.12,-14.31 846.77,-13.67 1299.17,-1.48 63.66,1.72 128.74,3.64 195.57,5.78 -7.2,4.12 -14.36,8.26 -21.45,12.44 -22.47,-203.37 -25.88,-382.71 -14.19,-584.07 1.21,-21.82 51.53,-13.6 51.1,3.96 -7.47,199.9 -3.74,383.45 15.98,585.08 1.09,11.3 -11,12.79 -21.56,12.5 -472.15,-12.69 -858.99,-17 -1306.35,-6.6 -63.64,1.45 -128.77,3.2 -196,5.23 -8.67,0.27 -29.05,-6.26 -27.61,-17.53 29.73,-226.04 46.58,-434.35 46.7,-660.72 0.02,-12.68 11.77,-13.73 21.89,-12.86 452.44,38.08 821.79,64.12 1250.65,74.6 61.03,1.5 123.51,2.7 188.07,3.6 26.91,0.43 40.44,29.76 5.18,29.41" /><path
         id="path186"
         style="fill:#bbf9bc;fill-opacity:1;fill-rule:nonzero;stroke:none"
         d="m 8639.49,8274.4 c -0.36,107.33 -90.5,200.07 -206.81,199.94 -116.19,-1.32 -199.75,-98.42 -194.56,-210.65 4.48,-112.3 93.46,-204.46 205.65,-199.35 112.09,6.31 196.87,102.76 195.72,210.06" /><path
         id="path188"
         style="fill:#6a79a6;fill-opacity:1;fill-rule:nonzero;stroke:none"
         d="m 8661.57,8280.08 c -1.51,197.07 -276.79,273.76 -399.23,120.38 -60.31,-75.38 -60.87,-186.81 -2.76,-265.21 53.23,-71.73 143.82,-95.54 228.02,-71.44 101.6,29.39 171.4,113.61 173.97,216.27 0.11,6.86 -43.9,0.92 -44.03,-11.35 -1.66,-104.46 -86.35,-214.61 -203.88,-191.18 -88.42,18.84 -149.67,101.84 -153.71,192.02 -5.33,105.44 78.46,212.5 193.67,192.3 98.49,-18.27 160.12,-102.72 163.92,-193.14 0.28,-7.58 44.42,-0.45 44.03,11.35" /><path
         id="path190"
         style="fill:#bbf9bc;fill-opacity:1;fill-rule:nonzero;stroke:none"
         d="m 8975.55,8282.99 c 0.82,49.48 -43.39,88.53 -98.36,86.87 -55.04,-1.73 -99.39,-43.14 -99.35,-91.88 0,-48.75 43.64,-87.71 97.79,-86.68 54.1,1.09 99.06,42.2 99.92,91.69" /><path
         id="path192"
         style="fill:#6a79a6;fill-opacity:1;fill-rule:nonzero;stroke:none"
         d="m 9000.69,8288.81 c -6.46,134.54 -248.71,109.49 -245.73,-16.53 1.27,-133.7 233.43,-110.35 245.73,16.53 0.71,10.34 -49.03,3.36 -49.97,-11.6 -3.38,-44.53 -43.05,-90.15 -96.74,-69.34 -32.69,12.68 -53.43,43.93 -53.06,75.81 0.38,43.11 42.07,85.75 92.37,71.26 37.14,-10.74 55.77,-44.23 57.43,-77.73 0.42,-11.43 50.43,-2.93 49.97,11.6" /><path
         id="path194"
         style="fill:#bbf9bc;fill-opacity:1;fill-rule:nonzero;stroke:none"
         d="m 8099.28,8265.24 c -2.56,51.71 -49.3,94.03 -104.43,93.92 -55.09,-0.15 -97.22,-44.73 -93.82,-99.24 3.48,-54.51 50.42,-96.57 104.66,-93.78 54.31,2.85 96.19,47.39 93.59,99.1" /><path
         id="path196"
         style="fill:#6a79a6;fill-opacity:1;fill-rule:nonzero;stroke:none"
         d="m 8121.94,8271.26 c -14.36,141.71 -254.56,132.64 -245.86,-15.62 10.47,-153.47 245.82,-124.39 246.17,11.62 0.14,22.12 -46.01,14.92 -46.12,-4.06 -0.13,-39.47 -25.4,-83.52 -72.6,-80.93 -42.53,2.41 -74.74,41.11 -77.22,81.9 -2.64,44.64 30.89,86.56 79.6,77.27 42.44,-8.05 66.58,-44.48 70.53,-82.28 2.05,-18.99 47.71,-8.27 45.5,12.1" /><path
         id="path198"
         style="fill:#6a79a6;fill-opacity:1;fill-rule:nonzero;stroke:none"
         d="m 8446.86,8262.29 c 0.47,-18.19 0.95,-36.39 1.41,-54.72 8.32,1.95 14.72,5.55 19.14,10.78 4.44,5.22 6.57,11.18 6.4,17.91 -0.18,7.23 -2.54,12.74 -7.08,16.56 -4.54,3.81 -11.17,6.96 -19.87,9.47 z m -16.87,36.63 c -0.47,15.96 -0.94,31.98 -1.44,48.13 -6.99,-2.23 -12.4,-5.12 -16.22,-8.65 -3.82,-3.53 -5.63,-8.81 -5.38,-15.77 0.21,-6.63 2.21,-11.59 6,-14.88 3.79,-3.32 9.47,-6.26 17.04,-8.83 z m 13.46,87.03 c 0.13,-4.63 0.26,-9.23 0.4,-13.83 9.05,-0.78 16.85,-2.51 23.37,-5.17 6.51,-2.68 12.24,-6.8 17.15,-12.35 3.87,-4.22 6.87,-8.57 9.02,-13.03 2.14,-4.48 3.25,-8.6 3.33,-12.36 0.08,-4.17 -1.39,-7.78 -4.38,-10.9 -3,-3.1 -6.66,-4.71 -11.01,-4.8 -8.19,-0.2 -13.59,4.09 -16.24,12.88 -3.02,10.39 -9.85,17.23 -20.53,20.47 0.49,-17.52 0.97,-34.87 1.44,-52.17 10.4,-2.58 18.68,-4.94 24.86,-7.12 6.18,-2.16 11.72,-5.39 16.66,-9.65 5.27,-4.4 9.37,-9.74 12.3,-15.99 2.92,-6.26 4.48,-13.13 4.66,-20.67 0.24,-9.43 -1.78,-18.35 -6.01,-26.76 -4.23,-8.43 -10.59,-15.42 -19.09,-20.99 -8.49,-5.56 -18.65,-9.08 -30.5,-10.5 0.26,-10.49 0.52,-21.05 0.77,-31.69 0.12,-5.04 -0.26,-8.75 -1.17,-11.11 -0.9,-2.36 -2.98,-3.61 -6.22,-3.74 -2.99,-0.12 -5.13,0.75 -6.38,2.59 -1.24,1.85 -1.92,4.76 -2.01,8.7 -0.25,11.57 -0.52,23.04 -0.79,34.44 -9.74,0.75 -18.29,2.78 -25.63,6.07 -7.35,3.28 -13.53,7.48 -18.5,12.59 -4.99,5.09 -8.72,10.45 -11.2,16.05 -2.47,5.61 -3.78,11.13 -3.93,16.58 -0.11,4.03 1.35,7.69 4.38,11.02 3.03,3.31 6.86,5.03 11.53,5.17 3.73,0.1 6.92,-0.69 9.54,-2.35 2.63,-1.69 4.48,-4.1 5.56,-7.24 2.43,-6.78 4.52,-11.97 6.27,-15.56 1.75,-3.57 4.35,-6.83 7.79,-9.73 3.44,-2.92 7.95,-5.08 13.54,-6.48 -0.48,19.48 -0.99,38.82 -1.52,58.15 -11.22,2.78 -20.62,5.97 -28.24,9.57 -7.6,3.59 -13.85,8.85 -18.77,15.78 -4.9,6.9 -7.58,15.9 -7.98,27.01 -0.55,14.48 3.55,26.5 12.41,36 8.86,9.51 22.02,15.19 39.44,17.02 -0.14,4.52 -0.29,9.05 -0.44,13.59 -0.24,7.2 2.32,10.86 7.67,10.94 5.43,0.09 8.25,-3.41 8.45,-10.43" /><path
         id="path200"
         style="fill:#6a79a8;fill-opacity:1;fill-rule:nonzero;stroke:none"
         d="m 3530.86,6362.65 c 40.21,-172.57 244.91,-256.26 402.69,-275 156.4,-18.58 314.75,7.23 463.1,57.48 316.88,107.32 601.56,318.89 824.27,565.75 53.79,59.62 104.36,122.43 148.96,189.26 19.94,29.87 38.65,60.57 55.48,92.3 4.83,9.1 13.04,20.41 13.92,30.42 0.8,9.21 -5.69,17.85 -4.07,27.94 3.92,24.42 24.51,33.63 44.55,44.12 -9.91,-2.02 -19.82,-4.05 -29.73,-6.08 18.74,-3.18 37.47,-6.36 56.21,-9.55 14.42,-2.44 56.59,20.5 29.89,25.04 -39.73,6.74 -65.6,16.18 -100.92,-4.39 -22.68,-13.22 -46.43,-30.46 -49.07,-58.57 -1.78,-18.98 2.25,-29.57 -5.52,-48.77 -4.61,-11.39 -12.05,-22.15 -18.22,-32.77 -16.2,-27.86 -33.76,-54.92 -52.17,-81.37 -86.94,-124.91 -192.62,-236.91 -306.49,-337.52 -250.47,-221.32 -573.96,-421.33 -917.29,-433.03 -184.92,-6.3 -458.17,56.85 -507.3,267.68 -3.62,15.54 -52.07,3.26 -48.29,-12.94 v 0" /><path
         id="path202"
         style="fill:#cfcfcf;fill-opacity:1;fill-rule:nonzero;stroke:none"
         d="m 5016.77,3445.33 c -4.22,363.66 -87.53,822.85 -165.3,1180.27 -17.63,81.03 -225.91,-59.75 -326.24,-73.27 -153.33,-20.67 -308.76,-44 -463.86,-48.94 -303.6,-9.67 -1190.66,140.3 -1190.69,140.3 -32.41,-2.68 -69.36,-1019.44 -72.85,-1106.63 -11.31,-283.04 -28.97,-565.08 -23.47,-848.61 2.95,-152.32 -36.91,-484.18 98.3,-605.71 14.33,-12.88 26.76,-25.56 48.13,-28.15 95.04,-11.48 166.01,148.92 195.07,205.87 187.14,366.76 228.68,777.59 398.4,1151.83 38.05,83.9 82.91,169 159.69,227.61 74.39,56.78 196.21,121.6 289.88,74.03 201.92,-102.55 323,-361.61 422.2,-543.23 83.39,-152.68 153.84,-311.16 210.4,-473.64 53.24,-152.91 89.3,-310.1 181.5,-449.42 37.83,-57.18 83.39,-125.8 162.81,-130.81 96.72,-6.09 94.5,237.2 99.59,283.65 24.06,219.37 3.95,435.96 0.47,655.02 -2.06,129.63 -22.52,260.2 -24.03,389.83" /><path
         id="path204"
         style="fill:#e3e3e3;fill-opacity:1;fill-rule:nonzero;stroke:none"
         d="m 5006.78,3445.74 c -4.22,363.67 -50.11,770.93 -155.31,1179.86 -20.66,80.31 -225.91,-59.75 -326.24,-73.27 -153.33,-20.67 -308.76,-44 -463.86,-48.94 -303.6,-9.67 -1088.26,144.24 -1088.29,144.24 -16.49,-65.91 -59.13,-776.28 -62.86,-848.46 -21.64,-418.42 -38.17,-837.1 -49.61,-1255.9 -2.47,-90.58 -6.43,-181.3 -7.12,-271.9 -0.4,-52.02 -12.07,-142.95 19.17,-188.63 10.96,-16.03 26.76,-25.56 48.13,-28.15 95.04,-11.48 155.86,149.12 184.92,206.07 187.14,366.76 217.76,735.65 468.52,1153.6 47.39,79 92.9,169.33 169.69,227.93 124.31,94.89 179.17,133.3 317.96,60.56 166.62,-87.33 282.81,-254.72 363.17,-420.93 81.04,-167.62 167.5,-337.23 235.68,-510.52 67.54,-171.66 115.72,-352.69 199.4,-517.57 18.91,-37.27 49.72,-140.68 96.16,-135.66 32.43,3.51 52.52,46.82 63.42,73.26 26.97,65.39 12.65,138.94 20.3,208.73 24.06,219.36 -5.72,436.8 -9.2,655.85 -2.06,129.64 -22.52,260.2 -24.03,389.83" /><path
         id="path206"
         style="fill:#cfcfcf;fill-opacity:1;fill-rule:nonzero;stroke:none"
         d="m 2926.74,4195.21 c 245.73,1.57 491.99,20.58 736.89,39.32 237.15,18.14 471.92,42.15 704.73,92.84 165.58,36.05 331.75,81.79 485.34,154.54 28.41,13.46 53.34,47.74 33.33,78.02 -20.44,30.93 -70.49,26.19 -98.93,12.72 -239.87,-113.61 -517.51,-166.32 -779.84,-196.76 -231.22,-26.83 -464.44,-41.04 -696.75,-54.43 -124.28,-7.17 -248.81,-14.07 -373.33,-14.87 -84.56,-0.54 -109.65,-112.01 -11.44,-111.38 v 0" /><path
         id="path208"
         style="fill:#6a79a8;fill-opacity:1;fill-rule:nonzero;stroke:none"
         d="m 5030.93,3452.21 c -19.82,247.54 -32.19,495.84 -65.87,742.06 -17.02,124.36 -39.13,248.22 -70.69,369.78 -7.28,28.03 -10.62,75.61 -37.68,93.72 -20,13.39 -48.36,10.01 -70.4,5.7 -78.8,-15.43 -148.66,-61.09 -224.64,-85.32 -53.47,-17.05 -113.3,-19.71 -168.74,-27.03 -70.79,-9.35 -141.7,-18.03 -212.87,-23.87 -154.82,-12.7 -306.88,-1.62 -460.99,14.77 -273.23,29.06 -545.43,69.88 -816.49,114.75 -22.01,3.64 -42.58,8.28 -58.57,-12.48 -27.72,-35.98 -22.77,-111.47 -25.79,-153.8 -12.3,-172.62 -18.54,-346.21 -26.49,-519.05 -12.92,-281.02 -23.75,-562.19 -32.65,-843.36 -8.29,-261.7 -29.38,-526.24 -7.29,-787.71 8.13,-96.24 26.43,-200.94 100.46,-269.66 59.62,-55.35 132.94,-33.55 182.2,24.18 60.33,70.69 99.42,169.02 134.44,253.69 43.9,106.17 78.84,215.76 115.67,324.51 91.44,270 189.93,545.65 341.34,788.66 56.06,89.97 146.8,234.6 265.58,244.99 74.74,6.54 149.32,-54.16 198.61,-103.44 68,-68 119.11,-151.48 165.1,-235.3 113.54,-206.96 221.2,-418.22 305.2,-639.03 42.46,-111.62 72.44,-227.7 117.09,-338.48 35.33,-87.68 83.07,-189.03 157.59,-250.44 48.8,-40.22 129.45,-60.88 179.38,-11.18 47.94,47.74 48.01,131.67 48.94,194.31 3.66,246.26 3.7,492.18 -7.57,738.28 -5.97,130.39 -14.45,260.65 -24.87,390.75 -1.68,21.02 -50.11,9.66 -48.3,-12.94 21.28,-265.65 33.75,-531.97 34.83,-798.49 0.44,-107.22 -1.33,-214.44 -2.92,-321.64 -0.71,-47.78 3.51,-181.44 -65.28,-185.33 -100.72,-5.7 -178.63,165.68 -210.5,238.57 -45.22,103.44 -73.35,213.15 -111.38,319.24 -75,209.21 -176.06,403.82 -277.23,600.97 -103.3,201.31 -329.1,600.72 -597.59,383.91 -98.49,-79.53 -167.82,-194.55 -227.43,-304.34 -71.73,-132.13 -130.97,-270.97 -185.03,-411.13 -43.55,-112.94 -82.89,-227.38 -121.45,-342.1 -39.57,-117.76 -78.98,-236.09 -132.48,-348.43 -27.35,-57.43 -98.43,-245.03 -184.25,-183.63 -82.99,59.38 -95.91,187.32 -102.95,280.23 -10.03,132.45 -7.9,265.61 -3.65,398.25 8.33,260.12 17.22,520.25 27.35,780.3 9.92,254.57 23.16,508.88 35.49,763.33 2.51,51.66 3.74,103.35 6.87,154.99 1.81,29.74 3.89,59.49 7.02,89.13 1.48,14.04 3.06,28.1 5.32,42.04 0.89,5.53 9.82,31.59 8,35.96 -2.91,7.01 -26.48,1.02 -21.41,-4.69 1.15,-1.29 5.58,-0.49 7.25,-1.21 11.08,-4.83 27.68,-4.59 39.58,-6.54 45.98,-7.52 92,-14.85 138.03,-22.03 143.08,-22.32 286.39,-43.27 429.99,-61.94 148.96,-19.36 298.55,-37.57 448.61,-45.75 198.34,-10.82 400.06,13.96 595.5,46.36 70.2,11.64 134.13,46.29 199.46,72.81 21.29,8.64 69.85,34.65 93.45,23.49 15.93,-7.54 16.78,-30.62 21.11,-46.35 9.43,-34.19 18.06,-68.6 26,-103.17 53.45,-232.78 76.82,-471.28 95.03,-709.02 8.52,-111.24 15.76,-222.57 24.66,-333.79 1.69,-21.01 50.11,-9.65 48.3,12.94" /><path
         id="path210"
         style="fill:#6a79a8;fill-opacity:1;fill-rule:nonzero;stroke:none"
         d="m 2886.97,4181.16 c 484.77,13.03 975.13,18.22 1452.2,114.02 165.47,33.22 331.2,77.88 482.43,154.27 29.65,14.98 2.73,34.75 -19.99,23.27 -251.66,-127.12 -540.93,-169.25 -817.67,-204.96 -233.43,-30.11 -471.15,-35.23 -706.1,-44.11 -128.37,-4.86 -256.77,-8.89 -385.19,-12.34 -25.45,-0.69 -38.86,-31.04 -5.68,-30.15 v 0" /><path
         id="path212"
         style="fill:#6a79a8;fill-opacity:1;fill-rule:nonzero;stroke:none"
         d="m 3275.07,3920.22 c 6.33,-98.11 -22.9,-190.97 -85.11,-267.15 -10.36,-12.68 36.09,-6.95 43.97,2.7 64.75,79.28 96.03,175.18 89.44,277.39 -0.65,10.02 -49.22,1.43 -48.3,-12.94 v 0" /><path
         id="path214"
         style="fill:#e5e5e5;fill-opacity:1;fill-rule:nonzero;stroke:none"
         d="m 2829.27,4294.85 c -48.21,236.37 -22.75,466.38 -34.64,702.55 -6.57,130.57 -18.51,261.82 -14.96,392.52 1.76,64.9 4.88,129.78 9.6,194.54 3.93,53.75 25,123.14 19.75,175.42 -5.03,50.02 -50.46,82 -82.11,114.62 31.62,52.1 81.59,87.2 116.88,135.62 31.98,43.89 29.05,104.59 44.85,156.21 32.12,104.89 73.99,208.53 134.9,300.25 107.85,162.38 274.04,257.22 471.62,230.31 19.28,-2.62 38.42,-6.25 57.37,-10.66 C 4097.41,6559.48 4670,5265 4859.77,4598.96 c 0,0 -499.02,-228.49 -1026.61,-259.09 -254.44,-14.76 -1003.89,-45.02 -1003.89,-45.02" /><path
         id="path216"
         style="fill:#e5e5e5;fill-opacity:1;fill-rule:nonzero;stroke:none"
         d="m 3673.79,7268.78 c -114.49,449.11 -405.03,762.78 -648.95,700.6 -243.91,-62.19 -348.82,-476.67 -234.33,-925.77 2.65,-10.4 15.84,-62.14 20.52,-80.5 63.48,-249 128.89,-417.11 196.72,-528.42 139.43,-228.81 463.9,-256.43 463.9,-256.43 0,0 279.27,179.45 300.85,421.27 11.81,132.37 -9.57,319.62 -78.19,588.76 -4.53,17.79 -17.73,69.55 -20.52,80.49" /><path
         id="path218"
         style="fill:#ffffff;fill-opacity:1;fill-rule:nonzero;stroke:none"
         d="m 2936.21,4286.2 c -50.04,365.76 -76.55,943.68 -59.28,1429.78 1.03,29.17 -21.24,10.39 -68.77,49.83 -31.51,26.15 -94.92,119.41 -94.92,119.41 66.06,61.52 149.54,126.14 163.73,218.66 0.71,4.62 1.84,9.66 5.58,12.46 6.65,4.98 15.88,29.7 22.5,24.68 188.5,-142.85 552.25,-269.27 784.73,-179.64 14.41,5.55 32.43,124.42 46.57,130.2 53.72,21.97 153.24,-69.81 218.84,-45.84 94.38,34.48 69.94,285.05 69.94,285.05 C 4351.67,5930 4635,5245 4859.77,4598.96 c 0,0 -463.22,-209.97 -1026.61,-259.09 -253.9,-22.14 -896.95,-53.67 -896.95,-53.67" /><path
         id="path220"
         style="fill:#ffffff;fill-opacity:1;fill-rule:nonzero;stroke:none"
         d="m 3960.31,6425.98 -173.08,134.72 -149.97,-233.94 -673.05,11.38 c -12.21,-28.84 -28.96,-58.42 -37.42,-88.44 -8.8,-31.19 198.89,-140.5 292.58,-177.84 85.85,-34.21 319.73,-68.39 411.36,-79.19 38.57,-4.55 64.36,214.58 64.36,214.58 94.42,-51.3 230.05,-114.96 230.55,-115.14 -0.15,0.05 116.88,166.85 34.67,333.87" /><path
         id="path222"
         style="fill:#ffffff;fill-opacity:1;fill-rule:nonzero;stroke:none"
         d="m 3694.31,7188.29 c -4.53,17.79 -17.73,69.55 -20.52,80.49 -114.49,449.11 -405.03,762.78 -648.95,700.6 -105.66,-26.94 -151.51,-101.18 -159.89,-205.77 -21.74,-271.63 -9.89,-561.86 45.42,-829.06 20.82,-100.57 54.21,-217.13 70.06,-278.82 17.08,-66.46 58.9,-218.22 58.9,-218.22 0,0 -30.97,-5.74 -30.43,-10.39 0.29,-2.56 0.92,-5.16 1.74,-7.8 -35.56,-24.19 -62.16,-53.34 -46.43,-81.18 24.05,-42.56 129.3,-155.16 193.5,-184.5 33.73,-15.42 69.13,-26.61 105.39,-34.18 52.75,-11 107.31,-14.31 161.19,-11.73 88.94,4.27 162.05,33.97 235.53,84.25 75.36,51.57 180.36,242.07 163.24,343.25 -5.23,30.9 -24.58,49.23 -51.11,59.81 0.15,1.51 0.42,2.98 0.55,4.49 11.81,132.37 -9.57,319.62 -78.19,588.76" /><path
         id="path224"
         style="fill:#6a79a8;fill-opacity:1;fill-rule:nonzero;stroke:none"
         d="m 2917.44,6196.51 c 150.53,-102.48 326.52,-160.05 504.34,-195.37 68.96,-13.7 144.34,-27.21 215.13,-20.39 11.32,1.09 23.94,7.25 26.7,19.18 16.88,72.82 33.76,145.63 50.63,218.45 -14.37,-5.22 -28.74,-10.44 -43.11,-15.67 78.57,-41.45 156.66,-84.02 235.83,-124.29 14.76,-7.51 32.58,-2.47 41.71,11.17 64.14,95.88 72.63,219.05 24.97,323.3 -9.47,20.71 -57.25,6.64 -48.3,-12.94 45.52,-99.57 38.53,-213.76 -22.72,-305.32 13.9,3.72 27.8,7.45 41.7,11.17 -79.18,40.28 -157.26,82.85 -235.83,124.3 -14.49,7.65 -38.99,2.09 -43.11,-15.66 -16.87,-72.82 -33.75,-145.63 -50.62,-218.45 8.9,6.39 17.8,12.78 26.7,19.18 -62.73,-6.05 -129.68,6.29 -190.88,17.93 -174.43,33.16 -348.48,90.52 -495.79,190.8 -17.1,11.64 -59.73,-12.16 -37.35,-27.39 v 0" /><path
         id="path226"
         style="fill:#dddddd;fill-opacity:1;fill-rule:nonzero;stroke:none"
         d="m 3761.58,5897.81 c -11.97,-154.72 -24.5,-309.42 -35.47,-464.24 -12.97,-183.14 -59.16,-351.52 -146.86,-492.11 16.63,-52.84 137.36,-224.3 139.29,-281.27 35.96,31.53 175.28,168.82 211.57,202.53 72.73,67.53 31.62,548.37 9.61,689.75 -11.07,71.1 -51.95,393.94 -118.31,395.26 l -24.34,0.49 c -18.97,0.38 -34.78,-20.52 -35.31,-46.69 -0.02,-1.24 -0.08,-2.48 -0.18,-3.72" /><path
         id="path228"
         style="fill:#bbdff5;fill-opacity:1;fill-rule:nonzero;stroke:none"
         d="m 3765.97,5915.28 c 0.98,-155.18 1.39,-310.39 3.37,-465.58 2.35,-183.59 -29.64,-355.23 -105.31,-502.64 20.98,-51.27 155.6,-212.07 162.27,-268.68 33.2,34.42 160.58,182.85 193.94,219.47 66.84,73.36 -14.22,549.1 -47.94,688.14 -16.96,69.93 -84.63,388.24 -150.87,384.03 l -24.29,-1.54 c -18.95,-1.21 -32.96,-23.36 -31.3,-49.47 0.08,-1.25 0.13,-2.49 0.13,-3.73" /><path
         id="path230"
         style="fill:#6a79a8;fill-opacity:1;fill-rule:nonzero;stroke:none"
         d="m 3747.58,5914.07 c 0.87,-142.26 1.31,-284.52 2.9,-426.78 1.48,-132.29 -6.31,-263.45 -44.84,-390.87 -8.9,-29.41 -19.23,-58.37 -31.05,-86.73 -7.25,-17.39 -27.95,-45.31 -28.95,-63.84 -1.17,-21.6 29.89,-54.97 41.15,-71.44 40.07,-58.61 108.64,-128.86 121.39,-200.88 2.74,-15.44 26.62,-8.08 33.4,-0.95 39.06,41.05 75.67,84.56 112.92,127.25 29.26,33.52 71.62,68.73 91.74,108.91 17.96,35.87 17.67,82.15 18.01,121.18 0.53,62.18 -4.8,124.48 -11.5,186.25 -23.78,219.16 -61.85,454.53 -142.21,661.08 -13.23,33.98 -31.74,91.28 -70.66,104.38 -47.98,16.16 -94.04,-17.75 -92.3,-67.56 0.68,-19.62 37.38,-14.66 36.79,2.41 -1.11,31.65 20.16,49.05 43.46,34.58 14.83,-9.22 25.14,-34.98 32.17,-49.8 22.52,-47.43 37.5,-98.75 51.62,-149.17 21.8,-77.88 40.85,-157.05 56.83,-236.35 21.38,-106.13 38.15,-213.5 49.34,-321.19 5.76,-55.44 10.14,-111.26 9.67,-167.04 -0.3,-34.84 1.19,-79.59 -14.94,-111.69 -19.21,-38.26 -60.6,-72.32 -88.58,-104.38 -37.25,-42.68 -73.87,-86.19 -112.93,-127.25 11.13,-0.32 22.27,-0.63 33.4,-0.95 -11.8,66.63 -70.96,130.39 -108.39,184.15 -17.24,24.76 -53.52,61.22 -47.16,92.08 5.68,27.58 25.9,57.43 35.67,84.31 9.06,24.92 17.01,50.22 23.98,75.8 33.04,121.41 40.16,244.9 38.76,370.13 -1.59,142.25 -2.03,284.51 -2.9,426.77 -0.12,19.61 -36.9,14.75 -36.79,-2.41" /><path
         id="path232"
         style="fill:#bbdff5;fill-opacity:1;fill-rule:nonzero;stroke:none"
         d="m 3731.04,6108.42 c 5.92,13.59 16.03,21.42 35.56,11.92 27.92,-13.59 52.72,-43.87 74.46,-65.44 18.02,-17.87 27.67,-31.09 -0.43,-45.83 -24.79,-13.01 -57.1,-18.27 -83.85,-26.82 -42.78,-13.68 -39.23,61.87 -35.35,83.67 2.34,13.16 4.25,30.19 9.61,42.5" /><path
         id="path234"
         style="fill:#6a79a8;fill-opacity:1;fill-rule:nonzero;stroke:none"
         d="m 3749.1,6110.89 c 4.65,9.01 69.07,-56.62 75.09,-62.88 3.67,-3.82 13.49,-12.18 14.49,-17.57 1.9,-10.33 -12,-17.73 -20.68,-21.6 -16.13,-7.21 -37.77,-13.3 -55.27,-15.79 -12.58,-1.8 -15.34,-0.31 -20.51,13.08 -3.61,9.36 -4.37,20.3 -4.74,30.22 -0.92,24.61 3.36,51.56 11.62,74.54 3.94,10.96 -31.99,6.54 -36.12,-4.94 -11.29,-31.42 -22.1,-89.12 -2.11,-119.82 9.25,-14.22 24.67,-16.79 40.58,-13.96 29.16,5.2 61.31,14.62 88.5,26.48 14.07,6.14 39.02,17.73 36.3,37.01 -1.45,10.28 -11.63,19.17 -18.32,26.13 -11.51,11.98 -22.89,24.24 -34.91,35.71 -30.26,28.89 -83.86,59.14 -110.04,8.45 -4.76,-9.22 30.47,-5.99 36.12,4.94" /><path
         id="path236"
         style="fill:#bbdff5;fill-opacity:1;fill-rule:nonzero;stroke:none"
         d="m 3374.8,7863.39 c 20.44,52.17 53.45,140.16 31.61,194.68 46.4,-51.25 80.7,-117.57 126.28,-171.99 25.4,-30.33 51.04,-61.03 68.63,-96.47 27.14,-54.7 33.43,-117.89 27.9,-178.71 -5.53,-60.81 -22.28,-119.98 -39.33,-178.61 8.29,-2.77 9.83,11.55 6.26,19.53 -15.29,34.21 -30.59,68.42 -45.88,102.63 -3.74,-9.49 -22.07,-30.04 -25.81,-39.53 -8.11,-20.58 -16.23,-41.15 -24.34,-61.73 2.56,27.48 -8.55,55.89 -29.06,74.35 -3.93,-1.65 -7.86,-3.3 -11.8,-4.95 -8.17,-31.76 -31.42,-53.34 -51.55,-79.23 4.58,3.51 9.15,7.02 13.73,10.53 -7.82,17.14 -18.9,32.77 -32.48,45.82 -25.94,24.94 -61.53,37.74 -87.08,62.63 -39.11,38.1 -14.52,43.19 -9.64,91.29 7.27,71.63 56.65,143.66 82.56,209.76" /><path
         id="path238"
         style="fill:#bbdff5;fill-opacity:1;fill-rule:nonzero;stroke:none"
         d="m 2453.12,7496.53 c 3.59,10.53 6.83,21.17 9.72,31.92 -59.92,-35.94 -123.62,-46.94 -190.95,-61.75 69.56,19.84 128.23,67.54 175.72,122.1 157.23,180.67 243.09,430.98 461.7,552.4 86.29,47.93 187.23,46.12 280.1,20.27 78.38,-21.82 210.51,-47.13 187.82,-148.83 -35.27,-158.09 -105.94,-307.85 -203.69,-436.88 -48.88,-64.52 -104.56,-123.91 -166.02,-176.6 -27.11,-23.24 -62.36,-41.83 -78.04,-73.6 -7.73,-15.67 -23.84,-86.56 -16.45,-101.93 -3.57,7.42 -64.88,81.22 -71.4,69.11 -21.81,-40.56 -39.15,-88.86 -41.83,-135.23 -2.34,-40.52 40.77,-85.47 27.81,-122.55 -55.36,-2.72 -84.48,57.9 -108.6,97.91 -21.01,34.84 -65.4,-44.35 -73.79,-57.7 -21.93,-34.92 -91.04,-99.81 -90.84,-137.15 -0.31,58.92 -0.63,117.85 -0.94,176.77 -45.45,-29.44 -91.78,-57.54 -138.89,-84.25 38.25,21.68 59.06,120.2 67.4,159.57 11.69,55.2 25.42,123.43 21.58,179.21 -22.05,-12.81 -39.61,-32.84 -63.85,-43.62 -25.35,-11.29 -56.4,-13.56 -79.97,1.09 37.87,53.61 72.1,107.05 93.41,169.74" /><path
         id="path240"
         style="fill:#6a79a8;fill-opacity:1;fill-rule:nonzero;stroke:none"
         d="m 2971.67,5685.86 c -49.8,13.95 -102.52,45.03 -137.51,83.23 -19.3,21.07 -35.77,45.68 -54.2,67.63 -9.62,11.47 -42.3,43.8 -40.3,53.64 2.4,11.77 29.41,33.88 36.85,42.01 15.24,16.65 30.73,33.52 48.4,47.66 17.29,13.83 44.31,25.55 55.63,44.81 8.87,15.09 10.89,39.55 15.66,56.28 12.14,42.56 24.78,84.98 38.18,127.17 25.27,79.56 52.12,155.31 95.66,226.61 1.62,1.82 2.24,3.9 1.86,6.26 -111.32,185.25 -165.25,401.22 -217.24,608.92 -57.54,229.83 -78.33,497.87 22.08,719.5 37.02,81.7 99.44,166.18 190.96,189.15 85.69,21.5 175.24,-16.29 244.31,-65.13 184.4,-130.42 295.8,-355.05 359.41,-565.77 70.67,-234.11 136.91,-495.41 116.62,-741.7 -1.43,-17.38 46.89,-7.78 48.09,6.82 12.08,146.65 -10.67,295.28 -39.98,438.63 -33.53,163.99 -73.2,331.68 -141.73,484.91 -93.45,208.96 -290.06,507.64 -558.63,470.25 -279.13,-38.86 -340.2,-391.86 -335.48,-620.24 3.54,-171.39 45.09,-337.5 91.08,-501.69 24.31,-86.76 51.48,-172.92 84.85,-256.66 12.59,-31.59 26.04,-62.85 40.78,-93.5 6.6,-13.72 13.45,-27.33 20.61,-40.76 3.99,-7.49 26.78,-35.97 26.78,-41.13 0,-15.56 -25.41,-40.34 -33.18,-55.5 -15.28,-29.79 -26.37,-62.22 -37.54,-93.71 -24.43,-68.89 -45.54,-138.98 -65.58,-209.25 -4.69,-16.47 -7.2,-36.76 -14.58,-52.27 -0.43,-0.92 -0.41,-2.58 -0.96,-3.55 5.93,10.46 -4,-1.16 -7.65,-3.83 -9,-6.59 -17.64,-13.75 -26.52,-20.5 -40.75,-31 -74.73,-69.86 -107.45,-109.14 -2.61,-3.13 -2.3,-5.79 -0.24,-8.86 59.33,-88.6 134.97,-182.2 242.14,-212.21 13.46,-3.78 56.76,16.9 38.82,21.92 v 0" /><path
         id="path242"
         style="fill:#6a79a8;fill-opacity:1;fill-rule:nonzero;stroke:none"
         d="m 2785.21,5731.71 c -32.12,-283.04 -27.82,-570.62 -18.2,-854.86 6.59,-195.07 9.87,-394.96 38.12,-588.47 1.26,-8.64 15.34,-8.55 21.23,-8.33 252.73,9.39 505.47,19.45 758.09,31.53 362.73,17.35 723.45,53.69 1067.04,178.9 76.04,27.71 153.93,58.18 223.61,100.04 4.51,2.71 10.71,8.9 8.82,14.91 -95.38,303.17 -208.85,601.13 -342.06,889.74 -127.16,275.5 -271.64,548.71 -458.17,789.15 -83.52,107.65 -176.84,208.89 -287.44,289.22 -12.26,8.91 -44.73,-1.81 -43.16,-18.9 8.1,-88.12 -9.34,-210.01 -105.08,-240.94 -203.2,-65.63 -409.78,17.48 -596.29,95.3 -15.85,6.62 -59.45,-15.92 -38.03,-24.86 207.03,-86.38 443.3,-177.01 666.14,-89.31 106.34,41.85 130.98,170.14 121.55,272.76 -14.39,-6.3 -28.77,-12.6 -43.16,-18.91 212.06,-154.04 366.21,-384.9 497.48,-607.74 162.59,-275.98 295.28,-569.7 411.18,-868 61.5,-158.25 117.79,-318.5 168.74,-480.45 2.94,4.97 5.89,9.94 8.83,14.91 -51.19,-30.75 -113.14,-55.95 -170.75,-78.38 -168.56,-65.61 -345.95,-109.33 -524.26,-138.33 -332.27,-54.02 -673.94,-55.5 -1009.68,-69.07 -102.52,-4.14 -205.04,-8.17 -307.57,-11.98 7.08,-2.77 14.16,-5.55 21.23,-8.32 -27.59,189.08 -30.97,384.37 -37.65,574.95 -10.03,286.09 -14.38,575.81 17.95,860.71 2.39,21.1 -46.45,12.88 -48.51,-5.27 v 0" /><path
         id="path244"
         style="fill:#6a79a8;fill-opacity:1;fill-rule:nonzero;stroke:none"
         d="m 3367.08,6676.52 c -29.84,34.13 -35.2,115.46 34.39,80.96 18.95,-9.39 24.14,-28.91 31.34,-47.04 11.07,-27.84 29.49,-35.41 51.87,-54.75 9.58,-8.28 43.4,5.7 33.65,14.13 -17.31,14.96 -37.61,23.79 -47.36,45.36 -5.76,12.74 -8.87,26.44 -16.59,38.3 -18.56,28.48 -57.84,33.93 -89.22,29.3 -66.27,-9.78 -70.78,-75.73 -31.73,-120.4 8.17,-9.34 42.84,3.63 33.65,14.14 v 0" /><path
         id="path246"
         style="fill:#6a79a8;fill-opacity:1;fill-rule:nonzero;stroke:none"
         d="m 3288.15,6670.56 c 88.83,-36.12 326.63,-65.79 327.09,86.78 0.03,12.1 -48.25,3.97 -48.3,-12.94 -0.35,-116.61 -174.17,-79 -239.87,-52.29 -12.79,5.21 -56.87,-14.25 -38.92,-21.55 v 0" /><path
         id="path248"
         style="fill:#6a79a8;fill-opacity:1;fill-rule:nonzero;stroke:none"
         d="m 3403.53,6674.97 c -4.44,0 -8.83,1.95 -11.79,5.7 -11.41,14.47 -20.6,30.49 -27.3,47.64 -3.02,7.72 0.79,16.42 8.5,19.43 7.75,3.02 16.42,-0.8 19.44,-8.5 5.63,-14.4 13.34,-27.85 22.91,-39.98 5.13,-6.51 4.02,-15.94 -2.48,-21.07 -2.76,-2.17 -6.03,-3.22 -9.28,-3.22" /><path
         id="path250"
         style="fill:#6a79a8;fill-opacity:1;fill-rule:nonzero;stroke:none"
         d="m 2812.88,5706.97 c 13.74,-174.46 201.27,-286.5 352.19,-328.74 155.87,-43.62 321.64,-40.07 479.61,-9.79 328.7,63.01 641.2,230.45 897.16,443.36 59.76,49.7 116.78,102.9 169.08,160.44 24.14,26.57 47.25,54.13 68.57,83.03 6.6,8.95 14.75,17.73 17.33,28.36 2.14,8.8 -3.4,18.91 0.1,28.49 7.69,21.09 27.98,26.02 46.99,32.54 -9.55,-0.71 -19.1,-1.43 -28.65,-2.14 18.06,-5.93 36.11,-11.86 54.16,-17.79 13.88,-4.56 57.51,16.32 38.67,22.51 -37.65,12.36 -60.28,25.28 -97.45,10.62 -23.57,-9.3 -51.66,-22.69 -60.88,-48.38 -3.46,-9.65 -0.54,-19.28 -2.53,-28.66 -3.42,-16.04 -13.63,-27.18 -23.62,-40.15 -19.21,-24.96 -39.71,-48.92 -60.98,-72.14 -104.67,-114.26 -228.51,-212.07 -358.07,-296.5 -285.35,-185.94 -642.44,-338.55 -990.07,-293.16 -181.46,23.69 -436.54,128.1 -453.31,341.04 -1.14,14.44 -49.68,4.57 -48.3,-12.94 v 0" /></g></g></svg>