<?xml version="1.0" encoding="UTF-8" standalone="no"?>
<svg
   xmlns:dc="http://purl.org/dc/elements/1.1/"
   xmlns:cc="http://creativecommons.org/ns#"
   xmlns:rdf="http://www.w3.org/1999/02/22-rdf-syntax-ns#"
   xmlns:svg="http://www.w3.org/2000/svg"
   xmlns="http://www.w3.org/2000/svg"
   viewBox="0 0 1600 1600"
   height="1600"
   width="1600"
   xml:space="preserve"
   id="svg2"
   version="1.1"><metadata
     id="metadata8"><rdf:RDF><cc:Work
         rdf:about=""><dc:format>image/svg+xml</dc:format><dc:type
           rdf:resource="http://purl.org/dc/dcmitype/StillImage" /></cc:Work></rdf:RDF></metadata><defs
     id="defs6" /><g
     transform="matrix(1.3333333,0,0,-1.3333333,0,1600)"
     id="g10"><g
       transform="scale(0.1)"
       id="g12"><path
         id="path14"
         style="fill:#fafafa;fill-opacity:1;fill-rule:nonzero;stroke:none"
         d="M 12000,0 H 0 V 12000 H 12000 V 0" /><path
         id="path16"
         style="fill:#f9f9f9;fill-opacity:1;fill-rule:nonzero;stroke:none"
         d="M 3559.79,1736.2 C 3345.56,1781.8 771.527,2191.82 961,5216.25 1150.47,8240.67 1388.31,9150.21 2389.05,9482.98 3389.8,9815.74 5822.44,11390.3 7731.33,9893.14 9640.23,8395.96 11700.1,7053.13 10882.7,4662.55 10065.3,2271.97 9931.42,1474.5 7798.73,1596.5 5666.04,1718.6 4578.5,1519.7 3559.79,1736.2" /><path
         id="path18"
         style="fill:#e3e3e3;fill-opacity:1;fill-rule:nonzero;stroke:none"
         d="m 3212.62,2958.87 c -89.96,29.52 -123.38,64.25 -80.94,105.1 295.15,284.07 1638.25,274.45 2289.7,273.65 819.41,-0.99 1671.91,5.9 2410.72,-63.85 309.17,-29.19 1009.23,-56.34 1130.34,-152.6 317.62,-252.91 -1914.21,-320.8 -2275.52,-323.98 -602.33,-5.3 -2960.48,-6.92 -3474.3,161.68" /><path
         id="path20"
         style="fill:#dbdbdb;fill-opacity:1;fill-rule:nonzero;stroke:none"
         d="M 3189.23,6908.07 3001.58,3957.73 c -6.69,-105.17 76.8,-194.14 182.19,-194.14 h 5206.35 c 112.22,0 205.14,87.19 212.26,199.18 l 187.33,2945.3 H 3189.23" /><path
         id="path22"
         style="fill:#6a79a8;fill-opacity:1;fill-rule:nonzero;stroke:none"
         d="m 3165.03,6905.24 c -20.29,-318.98 -40.57,-637.96 -60.86,-956.94 -33.2,-521.86 -66.39,-1043.72 -99.58,-1565.58 -8.62,-135.61 -17.25,-271.21 -25.87,-406.81 -5.49,-86.28 25.79,-168.81 109.14,-207.51 37.26,-17.3 75.68,-19.15 115.43,-19.15 281.21,0 562.42,0 843.63,0 511.99,0 1023.98,0 1535.98,0 538.9,0 1077.8,0 1616.7,0 351.11,0 702.23,0 1053.34,0 84.99,0 179.1,-10.25 255.66,33.29 132.76,75.5 120.58,224.04 128.89,354.68 30.12,473.53 60.24,947.06 90.36,1420.59 27.18,427.36 54.36,854.72 81.54,1282.08 1.51,23.67 3.01,47.34 4.52,71.01 0.52,8.22 -7.83,11.5 -14.98,11.5 -186.33,0 -372.66,0 -558.99,0 -445.64,0 -891.28,0 -1336.93,0 -540.44,0 -1080.89,0 -1621.34,0 -465.43,0 -930.85,0 -1396.27,0 -225.43,0 -452.25,7.34 -677.6,0 -3.11,-0.1 -6.23,0 -9.35,0 -18.99,0 -50.97,-28.66 -18.44,-28.66 186.33,0 372.66,0 558.99,0 445.64,0 891.29,0 1336.93,0 540.45,0 1080.89,0 1621.34,0 465.43,0 930.85,0 1396.28,0 153.26,0 306.52,0 459.78,0 47.68,0 95.36,0 143.04,0 21.36,0 54.16,-6.32 74.77,0 2.6,0.8 6.55,0 9.35,0 -4.99,3.83 -9.99,7.67 -14.98,11.5 -19.83,-311.81 -39.66,-623.62 -59.49,-935.42 -32.98,-518.43 -65.95,-1036.85 -98.92,-1555.27 -8.97,-141.04 -17.94,-282.08 -26.92,-423.12 -5.56,-87.53 -37.11,-174.82 -129.79,-204.94 -29.76,-9.67 -58.3,-8.57 -88.7,-8.57 -283.38,0 -566.77,0 -850.16,0 -508.51,0 -1017.01,0 -1525.52,0 -531.54,0 -1063.08,0 -1594.61,0 -352.19,0 -704.38,0 -1056.57,0 -71.17,0 -169,-13.88 -231.09,26.95 -112.93,74.27 -72.34,244.07 -65.1,357.89 30.15,474.09 60.3,948.17 90.46,1422.26 26.68,419.45 53.36,838.91 80.03,1258.36 1.44,22.51 2.87,45.02 4.3,67.52 1.31,20.55 -47.31,11.45 -48.4,-5.66" /><path
         id="path24"
         style="fill:#efefef;fill-opacity:1;fill-rule:nonzero;stroke:none"
         d="m 3189.23,6927.22 c 0,0 -188.54,-2465.73 221.58,-2973.32 129.56,-160.35 5679.57,-1.84 5585.17,97.23 -329.24,345.52 -206.27,2876.09 -206.27,2876.09 H 3189.23" /><path
         id="path26"
         style="fill:#6a79a8;fill-opacity:1;fill-rule:nonzero;stroke:none"
         d="m 3164.98,6924.58 c -24.66,-323.21 -36.38,-647.91 -41.38,-971.95 -4.3,-279.09 -2.15,-558.51 12.51,-837.3 13.5,-256.69 34.91,-515.86 90.81,-767.25 21.23,-95.47 47.51,-191.07 88.15,-280.29 19.29,-42.35 45.04,-109.26 87.25,-133.85 58.45,-34.06 152.54,-30.97 217.3,-36.27 341.99,-28.03 687.28,-26.37 1030.14,-27.1 497.76,-1.05 995.54,6.05 1493.18,16.71 498.85,10.68 997.65,25.19 1496.22,45.14 361.2,14.46 723.06,28.81 1083.36,59.14 82.83,6.98 170.4,10.26 251.32,31.02 13.83,3.55 45.77,10.28 47.58,28.68 1.38,13.94 -22.03,32.19 -29.18,42.96 -18.09,27.24 -31.63,57.34 -43.47,87.72 -72.63,186.39 -93.75,395.42 -113.12,592.89 -26.55,270.67 -36.79,542.93 -41.5,814.77 -7.33,423.31 -0.66,847.13 16.74,1270.14 0.96,23.38 1.94,46.76 3.07,70.13 0.4,8.3 -7.67,12.3 -15.19,12.3 -186.33,0 -372.67,0 -559,0 -445.64,0 -891.28,0 -1336.92,0 -540.45,0 -1080.9,0 -1621.35,0 -465.42,0 -930.85,0 -1396.27,0 -225.49,0 -452.18,6.85 -677.59,0 -3.11,-0.09 -6.24,0 -9.35,0 -19.79,0 -50.66,-29.89 -18.12,-29.89 186.33,0 372.66,0 559,0 445.64,0 891.28,0 1336.92,0 540.45,0 1080.9,0 1621.35,0 465.42,0 930.84,0 1396.27,0 153.26,0 306.52,0 459.78,0 47.68,0 95.36,0 143.04,0 21.29,0 54.25,-6.38 74.77,0 2.59,0.8 6.56,0 9.35,0 -5.06,4.1 -10.13,8.2 -15.19,12.3 -14.94,-308.27 -20.92,-617.23 -22.28,-925.83 -2.23,-508.27 -2.85,-1028.59 82.26,-1531.14 15.19,-89.69 33.6,-179.68 63.12,-265.89 11.06,-32.31 23.77,-64.15 39.79,-94.36 7.04,-13.28 29.21,-62.99 45.47,-66.25 -3.8,0.76 5.11,11.82 4.93,11.91 1.88,-0.9 -10.31,-2.97 -20.53,-5.25 -23.1,-5.16 -66.62,-10.46 -98.39,-14.04 -305.15,-34.44 -613.75,-45.26 -920.33,-59.22 -475.76,-21.65 -951.83,-37.03 -1427.92,-49.12 -502.41,-12.77 -1004.95,-21.76 -1507.51,-24.35 -389.7,-2.01 -780.14,-2.99 -1169.54,14.6 -107.92,4.87 -217.42,8.93 -324.26,26.01 -23.13,3.69 -56.07,8.07 -71.49,17.93 -34.78,22.25 -67.64,101.68 -86,145.4 -84.95,202.3 -115.28,428.72 -138.8,645.21 -30.28,278.72 -40.56,559.55 -43.17,839.77 -3.95,423.55 9.69,847.72 37.8,1270.35 1.54,23.19 3.1,46.38 4.87,69.56 1.63,21.37 -47.12,12.75 -48.5,-5.29" /><path
         id="path28"
         style="fill:#f9f9f9;fill-opacity:1;fill-rule:nonzero;stroke:none"
         d="m 3189.23,6927.22 c 0,0 64.59,-2303.2 474.72,-2799.05 129.56,-156.64 5679.57,-1.8 5585.17,94.98 -329.25,337.53 -459.41,2704.07 -459.41,2704.07 H 3189.23" /><path
         id="path30"
         style="fill:#ffffff;fill-opacity:1;fill-rule:nonzero;stroke:none"
         d="m 3553.91,6927.22 c -93.02,0 -167.23,-77.59 -162.98,-170.51 24.1,-525.61 123.1,-2109.06 452.74,-2502.27 125.39,-149.57 5409.96,-15.8 5335.49,90.69 -245.83,351.54 -374.63,2582.09 -374.63,2582.09 H 3553.91" /><path
         id="path32"
         style="fill:#f9f9f9;fill-opacity:1;fill-rule:nonzero;stroke:none"
         d="m 8413.01,6659.24 c -136.69,-22.51 -177.2,-138.86 -281.1,-210.7 -55.36,44.7 -234.05,175.53 -234.05,175.53 l -363.18,-219.9 c 0,0 -193.69,201.54 -317.69,177.34 -60.08,-11.73 -109.37,-38.43 -157.86,-65.44 -29.18,-16.25 -60.13,-40.64 -98.61,-41.64 -53.74,-1.4 -119.16,33.42 -163.38,52.4 -48.2,20.68 -96.15,43.21 -149.64,56.26 -107.15,26.17 -207.91,-2.86 -293.25,-50.98 -80.57,-45.43 -190.14,-200.04 -190.14,-200.04 0,0 -142.39,150.56 -201.02,148.07 -56.02,-2.39 -105.85,-17.68 -150.42,-41.94 -49.95,-27.18 -160.46,-101.25 -160.46,-101.25 0,0 -150.33,58.59 -226.6,83.32 -94.11,30.51 -180.76,-102.89 -270.73,-129.59 -19.89,-5.9 -235.01,145.84 -235.01,145.84 0,0 -154.23,100.09 -231.94,101.1 -84.62,1.11 -147.71,-12.36 -244.12,-67.67 -79.76,-45.74 -190.08,-153.59 -190.08,-153.59 0,0 -274.97,235.33 -371.34,253.68 -86.41,16.45 -159.16,-20.63 -230.62,-49.8 -110.93,-45.28 -202.25,-49.33 -321.4,-17.3 -49.29,13.25 -76.94,29.31 -124.28,45.95 l -20,267.42 H 8786.57 V 6477.8 c -103.04,73.78 -220.97,206.58 -373.56,181.44" /><path
         id="path34"
         style="fill:#6a79a8;fill-opacity:1;fill-rule:nonzero;stroke:none"
         d="m 3164.94,6924.73 c 8.99,-318.84 30.38,-637.8 58.37,-955.48 24.36,-276.41 55.07,-552.51 98.81,-826.57 39.08,-244.86 85.67,-492.19 168.09,-726.67 29.9,-85.05 64.95,-169.96 113.91,-246.01 20.2,-31.38 35.72,-58.15 71.44,-69.65 75.81,-24.41 162.64,-25.81 241.33,-31.21 344.93,-23.68 692.04,-23 1037.59,-23.29 482.66,-0.4 965.33,6.43 1447.87,16.52 486.57,10.18 973.09,23.96 1459.4,42.73 358.72,13.85 717.87,28.13 1075.84,55.92 88.32,6.86 177.87,12.57 265.16,28.47 18.46,3.36 46.39,5.96 61.09,19.11 27.82,24.89 -23.89,62.34 -37.88,85.67 -95.61,159.47 -134.08,359.4 -171.61,538.9 -53.47,255.74 -90.42,514.93 -122.21,774.15 -51.15,417.15 -87.86,836.33 -114.06,1255.77 -1.47,23.53 -2.92,47.06 -4.22,70.6 -0.34,6.15 -10.64,8.97 -15.22,8.97 -186.34,0 -372.67,0 -559,0 -445.64,0 -891.28,0 -1336.92,0 -540.45,0 -1080.9,0 -1621.35,0 -465.42,0 -930.85,0 -1396.27,0 -225.53,0 -452.13,6.47 -677.59,0 -3.12,-0.09 -6.24,0 -9.36,0 -20.42,0 -50.4,-30.88 -17.85,-30.88 186.33,0 372.67,0 559,0 445.64,0 891.28,0 1336.92,0 540.45,0 1080.9,0 1621.35,0 465.42,0 930.85,0 1396.27,0 153.26,0 306.52,0 459.78,0 47.68,0 95.36,0 143.05,0 22.03,0 53.33,-5.79 74.76,0 2.7,0.73 6.5,0 9.35,0 -5.07,2.99 -10.14,5.98 -15.22,8.97 16.82,-305.02 42.43,-609.81 72.7,-913.77 26.04,-261.49 56.47,-522.68 96.07,-782.49 35.27,-231.42 75.28,-464.32 141.92,-689.07 23.29,-78.56 49.84,-157.24 87.87,-230.04 14.08,-26.94 29.63,-53.49 49.08,-76.95 12.09,-14.59 16.29,-17.97 18.52,-2.91 0.39,2.65 1.8,0.3 0.26,0.31 3.75,-0.03 -6.25,-1.75 -9.36,-2.52 -15.69,-3.88 -17,-3.85 -31.68,-6.15 -37.94,-5.97 -76.16,-10.1 -114.37,-13.9 -308.45,-30.69 -619.21,-42.56 -928.76,-56.03 -462.95,-20.16 -926.14,-34.71 -1389.38,-46.21 -488.13,-12.11 -976.38,-20.68 -1464.66,-23.46 -386.74,-2.2 -774,-3 -1160.51,12.16 -113.21,4.44 -227.04,9.14 -339.55,23.13 -29.91,3.72 -60.46,7.09 -89.34,16.59 -8.77,2.88 -9.54,1.56 -17.83,8.09 -11.13,8.77 -35.89,48.74 -47.75,68.32 -108.27,178.75 -158.7,395.47 -202.76,597.4 -56.9,260.81 -94.58,525.77 -125.17,790.83 -48.57,420.87 -78.9,844.3 -95,1267.65 -0.86,22.66 -1.7,45.32 -2.34,67.99 -0.64,22.59 -49.1,13.3 -48.58,-4.99" /><path
         id="path36"
         style="fill:#9fcded;fill-opacity:1;fill-rule:nonzero;stroke:none"
         d="M 3189.23,8175.51 V 6927.22 h 5600.48 v 1248.29 c 0,73.21 -59.35,132.56 -132.56,132.56 H 3321.79 c -73.21,0 -132.56,-59.35 -132.56,-132.56" /><path
         id="path38"
         style="fill:#bbdff5;fill-opacity:1;fill-rule:nonzero;stroke:none"
         d="m 3338.5,8175.51 v -842.72 c 0,-162.24 131.52,-293.77 293.76,-293.77 h 5157.45 v 1136.49 c 0,73.21 -59.35,132.56 -132.56,132.56 H 3471.06 c -73.21,0 -132.56,-59.35 -132.56,-132.56" /><path
         id="path40"
         style="fill:#ffffff;fill-opacity:1;fill-rule:nonzero;stroke:none"
         d="m 8413.01,6759.24 c -136.69,-22.51 -177.2,-138.86 -281.1,-210.7 -55.36,44.7 -234.05,175.53 -234.05,175.53 l -363.18,-219.9 c 0,0 -193.69,201.54 -317.69,177.34 -60.08,-11.73 -109.37,-38.43 -157.86,-65.44 -29.18,-16.25 -60.13,-40.64 -98.61,-41.64 -53.74,-1.4 -119.16,33.42 -163.38,52.4 -48.2,20.68 -96.15,43.21 -149.64,56.26 -107.15,26.17 -207.91,-2.86 -293.25,-50.98 -80.57,-45.43 -190.14,-200.04 -190.14,-200.04 0,0 -142.39,150.56 -201.02,148.07 -56.02,-2.39 -105.85,-17.68 -150.42,-41.94 -49.95,-27.18 -160.46,-101.25 -160.46,-101.25 0,0 -150.33,58.59 -226.6,83.32 -94.11,30.51 -180.76,-102.89 -270.73,-129.59 -19.89,-5.9 -235.01,145.84 -235.01,145.84 0,0 -154.23,100.09 -231.94,101.1 -84.62,1.11 -147.71,-12.36 -244.12,-67.67 -79.76,-45.74 -190.08,-153.59 -190.08,-153.59 0,0 -274.97,235.33 -371.34,253.68 -86.41,16.45 -159.16,-20.63 -230.62,-49.8 -110.93,-45.28 -202.25,-49.33 -321.4,-17.3 -49.29,13.25 -96.94,29.31 -144.28,45.95 v 267.42 H 8786.57 V 6577.8 c -103.04,73.78 -220.97,206.58 -373.56,181.44" /><path
         id="path42"
         style="fill:#6a79a8;fill-opacity:1;fill-rule:nonzero;stroke:none"
         d="m 8420.82,6778.4 c -59.06,-11.49 -111.24,-35.1 -156.4,-75.3 -52.63,-46.85 -93.56,-104.22 -151.14,-145.82 14.86,3.4 29.71,6.81 44.57,10.21 -76.07,60.92 -155.43,117.95 -234.05,175.53 -9.25,6.78 -32.97,-2.87 -41.16,-7.83 -121.06,-73.3 -242.12,-146.6 -363.18,-219.9 13.72,2.61 27.44,5.22 41.16,7.83 -50.19,51.91 -107.9,99.8 -170.16,136.36 -91.59,53.77 -170.91,51.29 -267.36,8.53 -29.31,-12.99 -57.8,-28.41 -85.51,-44.5 -52.46,-30.46 -88.74,-29.91 -143.48,-8.75 -63.53,24.55 -123.59,57.4 -188.63,78.27 -122.96,39.44 -256.25,15.04 -366.45,-49.79 -79.71,-46.9 -142.58,-130.33 -195.55,-204.69 15.52,4.16 31.04,8.32 46.57,12.48 -51.97,54.7 -131.61,149.32 -213.2,149.13 -127.83,-0.3 -238.57,-84.29 -339.86,-152.09 13.72,2.61 27.44,5.22 41.16,7.83 -45.83,17.84 -91.82,35.29 -137.99,52.21 -50.65,18.57 -101.95,44.23 -156.89,33.3 -58.32,-11.6 -104.57,-49.12 -150.64,-84.29 -16.27,-12.43 -33.43,-23.46 -49.99,-35.41 -12.28,-8.86 -24.23,-9.69 -9.08,-10.85 -3.01,0.23 -5.72,2.47 -8.54,3.35 -20.62,6.41 -41.12,22.58 -59.23,33.9 -62.88,39.27 -121.76,84.91 -185.29,123.02 -49.45,29.66 -101.41,58.28 -156.57,75.8 -57.45,18.24 -121.06,12.34 -179.07,-1.11 -137.54,-31.9 -250.76,-124.35 -349.76,-220.72 14.86,3.41 29.71,6.81 44.57,10.22 -47.17,40.3 -95.73,79.1 -145.14,116.62 -64.48,48.97 -138.36,112.7 -217.87,135.18 -127.86,36.14 -240.74,-56.95 -360.64,-78.91 -87.43,-16.02 -174.13,4.69 -257.4,30.62 -20.2,6.29 -76.95,15.86 -85.24,33.06 -4.18,8.67 0,28.49 0,38.08 0,74.57 0,149.15 0,223.72 -13.32,-5.27 -26.63,-10.55 -39.95,-15.82 206.67,0 413.34,0 620.01,0 487.74,0 975.47,0 1463.21,0 570.41,0 1140.81,0 1711.21,0 454.67,0 909.35,0 1364.02,0 121.93,0 243.86,0 365.8,0 20.59,0 50.97,5.76 70.95,0 1.17,-0.34 3.88,0.67 4.91,0 -12.76,8.39 -7.14,-11.26 -6.66,-19.49 3.77,-63.74 7.54,-127.48 11.3,-191.21 2.46,-41.64 4.92,-83.28 7.38,-124.92 15.65,4.84 31.3,9.67 46.95,14.51 -121.38,88.09 -243.96,203.9 -405.74,182.51 -11.87,-1.57 -52.36,-22.33 -21.25,-18.21 149.22,19.73 270.15,-99.64 381.39,-180.38 7.37,-5.35 47.62,3.09 46.95,14.51 -6.67,112.84 -13.34,225.67 -20,338.5 -0.16,2.71 -7.34,2.89 -8.36,2.89 -186.33,0 -372.66,0 -558.99,0 -445.64,0 -891.28,0 -1336.93,0 -540.44,0 -1080.89,0 -1621.34,0 -465.43,0 -930.85,0 -1396.28,0 -225.55,0 -452.09,6.14 -677.59,0 -3.11,-0.08 -6.23,0 -9.35,0 -8.08,0 -39.94,-4 -39.94,-15.83 0,-89.14 0,-178.28 0,-267.41 0.45,-0.53 0.9,-1.05 1.34,-1.57 117.88,-41.18 238.48,-81.77 364.8,-62.6 118.66,18.01 250.37,124.25 368.83,70.58 122.4,-55.44 232.51,-153.78 334.01,-240.51 8.55,-7.3 37.55,3.38 44.57,10.21 130.26,126.79 303.07,265.77 491.66,181.13 95.91,-43.05 177.52,-106.21 265.28,-162.87 32.61,-21.06 76.19,-59.88 117.78,-54.35 85.43,11.36 133.74,103.61 211.61,128.27 43.12,13.65 101.32,-19.14 141.68,-34.04 34.43,-12.72 68.76,-25.72 103.02,-38.92 41,-15.78 61.86,-2.25 97.32,21.02 79.76,52.37 197.44,150.64 292.59,91.24 53.75,-33.55 101.37,-80.19 144.87,-125.98 8,-8.42 41.09,4.79 46.57,12.48 59.46,83.48 128.67,172.43 224.04,215.33 115.07,51.76 219.98,28.12 330.26,-19.11 59.29,-25.4 121.29,-62.45 186.82,-67.11 56.66,-4.02 101.24,23.21 148.49,50.24 42.55,24.34 100.53,60.02 151.26,58.17 30.69,-1.11 60.74,-14.08 87.73,-27.72 72.6,-36.67 138.97,-91.82 195.4,-150.18 7.36,-7.61 34.31,3.68 41.16,7.83 121.06,73.3 242.13,146.6 363.19,219.9 -13.72,-2.61 -27.44,-5.22 -41.16,-7.83 78.61,-57.58 157.97,-114.61 234.04,-175.53 9.77,-7.82 36.13,4.11 44.57,10.21 86.26,62.32 143.65,178.68 254.66,200.29 18.54,3.61 43.34,23.1 9.35,16.48" /><path
         id="path44"
         style="fill:#6a79a8;fill-opacity:1;fill-rule:nonzero;stroke:none"
         d="m 3165.08,8169.04 c 0,-364.22 0,-728.43 0,-1092.65 0,-51.88 0,-103.76 0,-155.64 0,-5.01 11.56,-4.58 14.05,-4.58 186.33,0 372.66,0 558.99,0 445.64,0 891.28,0 1336.93,0 540.44,0 1080.89,0 1621.34,0 465.43,0 930.85,0 1396.27,0 225.07,0 452.68,-9.9 677.6,0 3.1,0.14 6.24,0 9.35,0 8.99,0 34.25,5.15 34.25,17.52 0,231.25 0,462.49 0,693.74 0,142.84 0,285.69 0,428.53 0,88.6 18.6,203.48 -79.69,249.04 -36.05,16.71 -74.9,14.12 -113.45,14.12 -52.91,0 -105.82,0 -158.74,0 -197.69,0 -395.38,0 -593.07,0 -282.98,0 -565.96,0 -848.94,0 -328.48,0 -656.95,0 -985.43,0 -329.96,0 -659.92,0 -989.88,0 -287.39,0 -574.79,0 -862.19,0 -205.09,0 -410.18,0 -615.27,0 -78.21,0 -157.13,3.12 -235.3,0 -87.2,-3.48 -162.22,-58.91 -166.82,-150.08 -0.48,-9.48 47.5,-2.88 48.3,12.94 3.12,61.78 40.91,110.96 105.41,115.04 11.69,0.74 23.66,0 35.37,0 49.49,0 98.98,0 148.47,0 186.67,0 373.34,0 560.01,0 590.64,0 1181.28,0 1771.92,0 614,0 1228.01,0 1842.01,0 217.4,0 434.79,0 652.19,0 102.27,0 205.24,3.5 307.48,0 89.44,-3.06 129.32,-72.73 129.32,-153.57 0,-106.29 0,-212.59 0,-318.88 0,-282.66 0,-565.32 0,-847.98 0,-18.61 0,-37.22 0,-55.84 11.42,5.84 22.83,11.68 34.25,17.52 -186.33,0 -372.66,0 -558.99,0 -445.65,0 -891.29,0 -1336.93,0 -540.45,0 -1080.89,0 -1621.34,0 -465.43,0 -930.85,0 -1396.28,0 -153.26,0 -306.52,0 -459.78,0 -47.68,0 -95.36,0 -143.04,0 -23.53,0 -51.54,4.2 -74.77,0 -2.91,-0.52 -6.36,0 -9.35,0 4.68,-1.52 9.36,-3.05 14.05,-4.58 0,364.22 0,728.43 0,1092.65 0,51.88 0,103.76 0,155.64 0,10.17 -48.3,2.61 -48.3,-12.94" /><path
         id="path46"
         style="fill:#6a79a8;fill-opacity:1;fill-rule:nonzero;stroke:none"
         d="m 5047.82,8309.38 c 227.33,227.88 454.65,455.77 681.98,683.65 61.09,61.25 123.53,117.8 215.21,127.18 109.39,11.2 204.39,-38.52 279.48,-113.42 122.05,-121.75 244.1,-243.51 366.15,-365.26 113.57,-113.3 227.15,-226.6 340.73,-339.9 8.63,-8.6 52.59,9.28 45.54,16.31 -234.82,234.25 -469.65,468.5 -704.47,702.75 -68.41,68.25 -149.02,114.13 -247.53,119.79 -112.34,6.45 -222.51,-36.92 -302.54,-115.05 -118.23,-115.42 -233.49,-234.06 -350.18,-351.04 -122.67,-122.97 -245.35,-245.94 -368.02,-368.92 -9.62,-9.65 35.4,-4.36 43.65,3.91 v 0" /><path
         id="path48"
         style="fill:#6a79a8;fill-opacity:1;fill-rule:nonzero;stroke:none"
         d="m 6098.7,9066.98 c -7.43,-57.45 -60.04,-98 -117.49,-90.56 -57.46,7.43 -98,60.04 -90.57,117.49 7.44,57.46 60.05,98 117.5,90.57 57.45,-7.44 98,-60.05 90.56,-117.5" /><path
         id="path50"
         style="fill:#6a79a8;fill-opacity:1;fill-rule:nonzero;stroke:none"
         d="m 5359.42,5391.2 c 64.35,3.14 117.21,24.81 158.58,65.01 41.36,40.2 57.21,95.77 47.56,166.73 -7.35,54.1 -32.22,99.74 -74.59,136.92 -42.39,37.19 -95.05,54.25 -158.01,51.18 -42.68,-2.08 -77.02,-9.77 -103.02,-23.06 -26.01,-13.3 -45.73,-30.17 -59.13,-50.6 -13.43,-20.48 -25.21,-46.5 -35.33,-78.1 -10.14,-31.63 -19.3,-61.4 -27.46,-89.38 -5,-15.09 -16.01,-27.29 -33.04,-36.63 -17.06,-9.31 -37.47,-14.54 -61.24,-15.7 -27.99,-1.36 -55.25,8.8 -81.79,30.49 -26.55,21.69 -42.39,51.5 -47.55,89.44 -4.97,36.52 0.82,75.53 17.37,116.99 16.54,41.47 43.48,81.5 80.84,120.1 37.35,38.58 86.01,70.49 145.96,95.68 59.95,25.2 128.75,39.69 206.4,43.47 67.84,3.31 131.03,-2.99 189.53,-18.87 58.49,-15.91 110.75,-40.41 156.82,-73.51 46.04,-33.13 82.71,-72.36 110.01,-117.7 27.29,-45.33 44.56,-94.72 51.82,-148.1 9.56,-70.26 2.53,-131.24 -21.07,-182.95 -23.59,-51.71 -60.48,-102.83 -110.64,-153.37 58.57,-26.84 109.16,-58.33 151.74,-94.44 42.58,-36.11 76.45,-76.71 101.6,-121.81 25.15,-45.11 41.34,-94.36 48.6,-147.74 8.7,-63.92 4.33,-126.37 -13.07,-187.33 -17.43,-60.95 -47.78,-116.01 -91.09,-165.13 -43.33,-49.15 -97.29,-88.54 -161.91,-118.21 -64.62,-29.66 -138.22,-46.51 -220.76,-50.54 -83.94,-4.09 -161.21,7.38 -231.76,34.34 -70.57,26.95 -130.44,62.06 -179.63,105.28 -49.18,43.21 -88.09,88.53 -116.71,135.92 -28.64,47.41 -45.1,86.91 -49.39,118.53 -5.54,40.74 3.11,74.21 25.95,100.43 22.84,26.22 53.83,40.29 93.02,42.2 19.58,0.95 39.25,-3.92 59.03,-14.64 19.76,-10.7 33.53,-24 41.33,-39.88 49.65,-95.87 98.52,-166.51 146.6,-211.89 48.06,-45.41 109.88,-66.25 185.43,-62.58 43.37,2.12 83.71,14.85 121.03,38.24 37.3,23.38 66.21,56.8 86.71,100.22 20.5,43.44 26.98,92.9 19.43,148.39 -11.18,82.2 -42.34,145.56 -93.45,190.1 -51.13,44.54 -116.56,64.87 -196.31,60.99 -14,-0.69 -35.49,-3.16 -64.49,-7.39 -28.99,-4.23 -47.69,-6.56 -56.08,-6.97 -38.49,-1.87 -69.52,6.32 -93.14,24.64 -23.61,18.29 -37.76,44.65 -42.44,79.08 -4.59,33.72 4.3,61.55 26.66,83.51 22.37,21.93 58.38,34.12 108.06,36.54 l 43.02,2.1" /><path
         id="path52"
         style="fill:#6a79a8;fill-opacity:1;fill-rule:nonzero;stroke:none"
         d="m 6761.47,4666.04 -130.41,958.95 C 6472,5479.35 6361.69,5405.01 6300.15,5402.01 c -29.38,-1.42 -57.05,9.06 -82.98,31.51 -25.94,22.42 -41,49.08 -45.21,80 -4.87,35.83 2.73,62.71 22.83,80.68 20.09,17.94 56.66,41.63 109.69,71.1 79.19,44.16 141.15,89.61 185.84,136.35 44.7,46.72 82.9,98.44 114.64,155.15 31.72,56.7 52.66,91.66 62.84,104.88 10.17,13.23 31.69,20.63 64.58,22.24 37.07,1.8 68.75,-11.14 95.06,-38.85 26.31,-27.73 42.9,-66.86 49.78,-117.45 L 7041.3,4721.05 c 19.21,-141.21 -19.11,-214.16 -114.95,-218.82 -42.68,-2.08 -78.92,10.66 -108.7,38.2 -29.81,27.53 -48.53,69.39 -56.18,125.61" /><path
         id="path54"
         style="fill:#6a79a8;fill-opacity:1;fill-rule:nonzero;stroke:none"
         d="m 6550.51,7540.73 c -135.62,-136.1 -348.83,-198.44 -535.79,-196.8 -184.68,1.62 -396.98,61.96 -535.55,191.15 -19.68,18.36 -78.97,-26.1 -54.36,-49.05 99.49,-92.77 242.57,-149.17 373.36,-176.64 227.97,-47.87 466.99,-7.62 666.02,113.09 44.2,26.81 89.04,57.47 125.71,94.27 35.14,35.27 -12.39,51.08 -39.39,23.98 v 0" /><path
         id="path56"
         style="fill:#6a79a8;fill-opacity:1;fill-rule:nonzero;stroke:none"
         d="m 6482.85,7871.69 c -11.2,-49.16 15.44,-99.13 59.5,-111.62 44.06,-12.49 88.86,17.23 100.05,66.38 11.2,49.16 -15.44,99.13 -59.5,111.63 -44.06,12.49 -88.86,-17.23 -100.05,-66.39" /><path
         id="path58"
         style="fill:#6a79a8;fill-opacity:1;fill-rule:nonzero;stroke:none"
         d="m 5343.57,7840.62 c -11.19,-49.16 15.45,-99.13 59.51,-111.62 44.06,-12.49 88.85,17.23 100.05,66.38 11.2,49.16 -15.45,99.13 -59.51,111.63 -44.06,12.49 -88.85,-17.24 -100.05,-66.39" /><path
         id="path60"
         style="fill:#6a79a8;fill-opacity:1;fill-rule:nonzero;stroke:none"
         d="m 8888.3,6242.13 c 247.79,-49.55 443.51,-261.88 396.1,-523.59 -3.08,-17.05 45.36,-8.91 48.16,6.57 49.62,273.9 -156.63,490.36 -414.32,541.89 -14.33,2.86 -56.59,-19.54 -29.94,-24.87 v 0" /><path
         id="path62"
         style="fill:#6a79a8;fill-opacity:1;fill-rule:nonzero;stroke:none"
         d="m 3135.98,6289.04 c -122.9,-90.95 -228.05,-208.63 -304.75,-340.91 -70.63,-121.82 -124,-271.6 -89.98,-413.35 70.52,-293.92 431.81,-363.31 686.79,-357.18 165.02,3.97 328.32,32.52 489.9,64.34 30.46,6 21.16,38.87 -8.83,32.96 -257.66,-50.74 -544.99,-104.67 -801.95,-23.23 -123.12,39.02 -247.87,120.89 -300.32,243.66 -55.39,129.64 -17.03,276.54 43.36,397.09 73.53,146.77 186.02,277.18 317.78,374.69 26.31,19.47 -12.83,36.12 -32,21.93 v 0" /><path
         id="path64"
         style="fill:#ffffff;fill-opacity:1;fill-rule:nonzero;stroke:none"
         d="m 7580.17,3793.06 c -53.93,697.72 -126.26,1249.47 -223.73,1850.68 -95.48,591.94 -216.08,1233.34 -320.47,1896.1 631.59,-21.76 1202.95,31.2 1827.88,55.92 48.85,-670.04 110.4,-1179.05 191.26,-1718.28 78.95,-530.17 177.21,-1090.55 255.52,-1654.21 -601.8,-87.98 -1142.45,-262.32 -1730.46,-430.21" /><path
         id="path66"
         style="fill:#6a79a6;fill-opacity:1;fill-rule:nonzero;stroke:none"
         d="m 7603.88,3803.52 c -10.81,139.24 -22.22,272.37 -34.35,401.2 -29.11,309.19 -62.62,594.09 -101.47,875.92 -46.63,338.63 -101.21,673.98 -161.47,1026.16 -52.2,305.31 -108.64,623.3 -164.28,949.99 -18.26,107.2 -36.39,215.15 -54.13,323.23 -5.6,34.05 -11.14,68.11 -16.64,102.16 -2.29,14.17 -1.47,39.9 -8.61,53.48 -0.9,1.72 -0.77,4.86 -1.08,6.75 -12.32,-3.59 -24.68,-7.13 -37.12,-10.62 217.3,-7.43 422.8,-7.05 626.55,-1.75 322.13,8.25 642.33,29.26 971.98,46.05 76.13,3.86 152.57,7.45 229.14,10.53 -4.59,1.56 -9.21,3.13 -13.8,4.7 9.92,-134.12 20.17,-261.51 30.96,-383.94 25.84,-293.82 54.73,-559.62 87.65,-818.32 39.49,-310.8 85.01,-612.44 134.39,-924.51 42.77,-270.47 88.38,-548.76 132.13,-831.09 14.35,-92.63 28.44,-185.53 42.07,-278.09 4.28,-29.16 8.53,-58.29 12.71,-87.36 1.73,-12.09 0.15,-34.88 6.52,-45.63 0.81,-1.36 0.59,-4.14 0.82,-5.75 11.86,5.25 23.78,10.45 35.77,15.56 -207.21,-29.68 -402.57,-68.26 -595.88,-113.5 -305.59,-71.52 -608.43,-160.37 -919.15,-250.83 -71.75,-20.9 -143.73,-41.83 -215.76,-62.52 -11.73,-3.4 -51.67,-33.2 -21.32,-24.56 196.42,55.93 392.31,114.06 585.81,169.24 307.62,87.69 607.14,167.48 921.85,226.49 73.01,13.7 146.98,26.32 222.52,37.78 6.17,0.96 37.13,5.81 35.86,15.5 -14.83,109.99 -30.81,221.53 -47.45,333.28 -39.99,268.62 -83.38,536.96 -125.08,798.24 -50.36,315.33 -98.16,620.04 -139.75,929.11 -36.27,269.18 -68.02,542.47 -95.71,842.41 -9.12,98.59 -17.81,200.14 -26.16,305.64 -2.62,33.24 -5.22,66.88 -7.78,100.94 -1.03,13.65 1.97,41.02 -4.01,53.86 -0.75,1.62 -0.36,4.98 -0.5,6.85 -0.33,4.71 -11.55,4.82 -13.81,4.75 -208.95,-7.34 -416.77,-19.05 -621.62,-30.02 -325.65,-17.54 -641.84,-32.82 -972.78,-30.94 -76.75,0.41 -154.48,1.7 -233.74,4.02 -6.49,0.17 -38.95,0.89 -37.21,-10.56 20.04,-129.92 41.14,-260.78 62.73,-391.15 51.89,-313.34 106.28,-622.38 157.78,-919.87 62.16,-358.97 120,-700.89 169.74,-1041.17 43.36,-296.31 80.76,-592.25 112.66,-910.76 10.49,-104.68 20.41,-211.9 29.82,-322.62 2.97,-34.88 5.89,-70.12 8.75,-105.74 1.16,-14.28 -1.31,-44.03 4.47,-56.28 0.74,-1.55 0.4,-5.2 0.56,-7.15 0.8,-10.29 48.49,6.88 47.42,20.89" /><path
         id="path68"
         style="fill:#b9f7ba;fill-opacity:1;fill-rule:nonzero;stroke:none"
         d="m 7684.87,3965.16 c -52.61,638.04 -116.71,1150.23 -202.48,1697.17 -84.47,540.88 -190.63,1116.52 -297.22,1741.33 545.15,-18.93 1032.25,16.49 1566.13,52.21 49.53,-618.37 105.44,-1097.14 177.89,-1594.3 71.2,-491.16 158.95,-1000.71 243.07,-1542.3 -520.52,-71 -982.63,-204.33 -1487.39,-354.11" /><path
         id="path70"
         style="fill:#ffffff;fill-opacity:1;fill-rule:nonzero;stroke:none"
         d="m 7788.15,4134.38 c -51.63,577.26 -109.62,1049.44 -185.23,1545.62 -74.8,492.4 -167.22,1008.82 -268.89,1587 455.05,-13.04 863.83,11.5 1307.12,48.31 50.25,-564.67 102.32,-1011.85 167.55,-1469.15 64.42,-453.51 141.99,-917.15 224.81,-1427.12 -435.4,-58.34 -824.38,-159.79 -1245.36,-284.66" /><path
         id="path72"
         style="fill:#6a79a6;fill-opacity:1;fill-rule:nonzero;stroke:none"
         d="m 7811.46,4144.79 c -35.37,390.96 -73.12,733.34 -117.33,1067.89 -69.41,526.93 -157.02,1044.75 -261.24,1638.28 -23.93,136.41 -48.59,276.09 -73.72,418.77 -9.05,-6.42 -18.14,-12.81 -27.26,-19.17 398.76,-11.76 758.74,4.9 1140.12,34.62 54.91,4.26 110.13,8.76 165.73,13.44 -7.07,3.75 -14.12,7.52 -21.18,11.29 34.72,-383.51 69.71,-712.53 109.1,-1027.65 61.8,-496.16 136.55,-967.8 223,-1497.67 19.85,-121.72 40.15,-245.78 60.69,-371.93 8.82,7.26 17.69,14.48 26.58,21.63 -381.71,-49.97 -724.59,-132.42 -1087.21,-235.99 -52.19,-14.91 -104.67,-30.24 -157.49,-45.91 -23.98,-7.1 -38.15,-45.55 -6.22,-36.08 367.58,109.09 713.28,201.65 1083.12,262.74 53.58,8.85 107.81,17.1 162.93,24.69 10.65,1.47 28.89,7.92 26.69,21.56 -55.42,342.67 -109.76,670.19 -158.66,984.26 -78.04,500.21 -141.24,962.16 -195.93,1511.63 -12.73,127.32 -25.11,259.79 -37.4,399.52 -0.81,9.16 -15.01,11.83 -21.22,11.33 -387.29,-31.4 -750.77,-54.71 -1137.98,-51.48 -56.11,0.43 -112.83,1.39 -170.44,2.92 -11.13,0.28 -30.09,-3.59 -27.37,-19.13 68.38,-389.77 133.94,-757.55 192.05,-1105.13 92.62,-553.29 165.36,-1051.67 224.4,-1623.01 13.72,-132.37 26.84,-269.09 39.57,-412.29 1.94,-21.6 48.79,-2.28 46.67,20.87" /><path
         id="path74"
         style="fill:#b9f7ba;fill-opacity:1;fill-rule:nonzero;stroke:none"
         d="m 8262.93,5353.51 c 225.65,37.97 393.01,243.99 362.18,468.87 -32.15,224.11 -247.97,382.37 -477.58,359.62 -229.95,-21.77 -396.08,-234.45 -360.97,-475.41 36.5,-240.38 251.01,-391.8 476.37,-353.08" /><path
         id="path76"
         style="fill:#6a79a6;fill-opacity:1;fill-rule:nonzero;stroke:none"
         d="m 8258.96,5345.27 c 174.58,32.26 331.74,152.19 379.13,326.46 48.01,177.57 -37.87,365.73 -201.41,459.37 -150.79,86.1 -344.36,81.42 -487.23,-11.25 -156.71,-100.68 -230.29,-308.65 -167.76,-494.76 69.85,-206.46 271.88,-311.61 471.97,-280.66 11.22,1.74 46.33,22.26 18.53,18.13 -164.59,-24.65 -328.5,51.32 -412.93,201.94 -80.49,143.42 -70.34,330.77 26.93,460.55 111.58,149.39 309.24,188.73 477.48,108.36 145.93,-69.95 242.71,-214.63 242.48,-371.42 -0.73,-191.3 -147.17,-365.16 -339.26,-400.26 -17.28,-3.1 -38.16,-21.99 -7.93,-16.46" /><path
         id="path78"
         style="fill:#b9f7ba;fill-opacity:1;fill-rule:nonzero;stroke:none"
         d="m 8355.84,4671.19 c 105.15,21.96 177.9,128.19 161.71,236.91 -16.31,108.82 -113.51,181.6 -215.98,163.16 -102.52,-18.41 -174.66,-123.52 -161,-235.67 13.72,-112.12 110.07,-186.3 215.27,-164.4" /><path
         id="path80"
         style="fill:#6a79a6;fill-opacity:1;fill-rule:nonzero;stroke:none"
         d="m 8352.45,4659.42 c 108.55,26.78 199.12,121.64 188.83,242.1 -10.79,123.68 -124.92,200.8 -236.34,180.62 -106.23,-19.2 -194.73,-118.92 -187.5,-241.13 7.84,-130.81 120.11,-201.57 235.01,-181.59 20.12,3.46 37.73,28.67 6.79,23.51 -92.78,-15.77 -176.84,51.5 -194.74,147.35 -18.1,97.42 37.89,212.97 133.69,230.08 87.74,15.81 171.65,-51.35 193.37,-139.61 24.21,-98.33 -32.05,-213.36 -132.32,-237.82 -19.53,-4.67 -37.57,-31.05 -6.79,-23.51" /><path
         id="path82"
         style="fill:#b9f7ba;fill-opacity:1;fill-rule:nonzero;stroke:none"
         d="m 8117.52,6471.81 c 105.03,8.91 179.28,105.41 165.23,218.18 -14.08,112.68 -114.59,201.85 -224.01,196.05 -109.38,-5.81 -183.47,-106.28 -165.19,-222.15 18.41,-116.05 118.96,-200.97 223.97,-192.08" /><path
         id="path84"
         style="fill:#6a79a6;fill-opacity:1;fill-rule:nonzero;stroke:none"
         d="m 8115.37,6456.33 c 109.66,13.15 199.65,101.24 191.3,225.33 -8.55,126.89 -124.92,226.32 -245.83,221.11 -115.05,-5.08 -204.96,-104.34 -191.89,-229.09 14.14,-133.22 130.56,-223.34 246.42,-217.35 23.85,1.18 34.74,32.44 4.31,30.99 -92.02,-4.51 -178.96,66.08 -200.79,166.94 -22.09,102.05 36.96,209.06 137.75,215.1 92.6,5.52 179.33,-71.48 199.9,-164.41 22.94,-104.02 -37.8,-205.9 -136.86,-217.63 -23.28,-2.68 -34.44,-34.49 -4.31,-30.99" /><path
         id="path86"
         style="fill:#6a79a6;fill-opacity:1;fill-rule:nonzero;stroke:none"
         d="m 8264.97,5791.66 c 32.89,4.47 65.86,8.94 99,13.41 -6.3,13.7 -13.55,24.08 -21.74,31.14 -8.2,7.07 -19.46,9.65 -33.77,7.75 -13.61,-1.81 -23.39,-6.93 -29.31,-15.4 -5.92,-8.45 -10.66,-20.75 -14.18,-36.9 z m -71.9,-43.16 c -37.56,-5.24 -75.13,-10.52 -112.89,-15.88 5.91,-17.03 14.76,-29.53 26.6,-37.5 11.82,-7.99 24.66,-10.95 38.57,-8.92 14.93,2.17 25.8,8.44 32.67,18.8 6.85,10.36 11.88,24.86 15.05,43.5 z m 254.45,34.86 c -9.45,-1.27 -18.87,-2.54 -28.28,-3.81 0.6,-18.43 -1.06,-34.51 -5,-48.28 -3.93,-13.78 -11.05,-26.3 -21.31,-37.59 -7.77,-8.87 -16.02,-16.04 -24.78,-21.52 -8.74,-5.47 -16.99,-8.76 -24.74,-9.85 -8.62,-1.22 -16.49,0.82 -23.63,6.15 -7.15,5.33 -11.33,12.44 -12.56,21.31 -2.33,16.71 5.26,28.81 22.84,36.28 20.76,8.59 33.23,24.1 37.36,46.48 -35.99,-4.9 -71.76,-9.81 -107.46,-14.74 -2.89,-21.99 -5.87,-39.62 -8.92,-52.87 -3.06,-13.24 -8.44,-25.49 -16.14,-36.73 -7.95,-11.99 -18.06,-21.81 -30.37,-29.5 -12.29,-7.69 -26.23,-12.72 -41.83,-15.07 -19.53,-2.95 -38.48,-1.12 -56.88,5.53 -18.39,6.66 -34.29,18.2 -47.69,34.65 -13.42,16.45 -22.91,36.99 -28.53,61.63 -21.59,-3.08 -43.26,-6.19 -65.05,-9.33 -10.33,-1.48 -18.01,-1.57 -23.06,-0.21 -5.03,1.34 -8.05,5.45 -9.03,12.32 -0.92,6.36 0.39,11.09 3.89,14.19 3.51,3.1 9.31,5.2 17.38,6.34 23.68,3.31 47.22,6.59 70.65,9.84 -0.65,20.73 1.59,39.24 6.7,55.47 5.12,16.25 12.36,30.17 21.74,41.77 9.38,11.59 19.55,20.56 30.53,26.89 10.98,6.35 22.07,10.23 33.3,11.64 8.28,1.05 16.19,-1.26 23.74,-6.91 7.55,-5.65 11.99,-13.3 13.36,-22.97 1.09,-7.77 0.21,-14.56 -2.65,-20.38 -2.87,-5.81 -7.42,-10.21 -13.67,-13.15 -13.46,-6.54 -23.68,-12.04 -30.69,-16.51 -7.01,-4.46 -13.13,-10.63 -18.34,-18.48 -5.22,-7.87 -8.65,-17.84 -10.29,-29.92 40.13,5.55 80.03,11.04 119.92,16.49 3.13,23.88 7.53,44.06 13.2,60.55 5.66,16.5 15.05,30.49 28.16,41.99 13.12,11.49 31.06,18.69 53.82,21.64 29.69,3.85 55.4,-2.32 77.06,-18.48 21.66,-16.14 36.51,-41.59 44.5,-76.32 9.23,1.24 18.48,2.48 27.76,3.72 14.7,1.97 22.82,-2.38 24.3,-13.08 1.5,-10.85 -4.96,-17.25 -19.31,-19.18" /><path
         id="path88"
         style="fill:#6a79a8;fill-opacity:1;fill-rule:nonzero;stroke:none"
         d="m 9284,5720.06 c -68.05,-320.08 -450.81,-428.18 -724.3,-502.02 -29.8,-8.05 -20.9,-41.78 9.03,-33.7 293.1,79.14 691.67,197.88 764.24,539.24 5.1,24.02 -44.33,18.34 -48.97,-3.52 v 0" /></g></g></svg>