<?xml version="1.0" encoding="UTF-8" standalone="no"?>
<svg
   xmlns:dc="http://purl.org/dc/elements/1.1/"
   xmlns:cc="http://creativecommons.org/ns#"
   xmlns:rdf="http://www.w3.org/1999/02/22-rdf-syntax-ns#"
   xmlns:svg="http://www.w3.org/2000/svg"
   xmlns="http://www.w3.org/2000/svg"
   viewBox="0 0 1600 1600"
   height="1600"
   width="1600"
   xml:space="preserve"
   id="svg2"
   version="1.1"><metadata
     id="metadata8"><rdf:RDF><cc:Work
         rdf:about=""><dc:format>image/svg+xml</dc:format><dc:type
           rdf:resource="http://purl.org/dc/dcmitype/StillImage" /></cc:Work></rdf:RDF></metadata><defs
     id="defs6" /><g
     transform="matrix(1.3333333,0,0,-1.3333333,0,1600)"
     id="g10"><g
       transform="scale(0.1)"
       id="g12"><path
         id="path14"
         style="fill:#fafafa;fill-opacity:1;fill-rule:nonzero;stroke:none"
         d="M 12000,0 H 0 V 12000 H 12000 V 0" /><path
         id="path16"
         style="fill:#f9f9f9;fill-opacity:1;fill-rule:nonzero;stroke:none"
         d="m 8391.25,1652.2 c 214.23,45.7 2788.25,458.01 2598.75,3498.74 -189.4,3040.73 -427.3,3955.18 -1428.01,4289.73 C 8561.24,9775.23 6128.61,11358.3 4219.71,9853.05 2310.81,8347.79 250.961,6997.72 1068.37,4594.26 1885.77,2190.79 2019.62,1389.1 4152.31,1511.7 6285,1634.4 7372.55,1434.5 8391.25,1652.2" /><path
         id="path18"
         style="fill:#ffffff;fill-opacity:1;fill-rule:nonzero;stroke:none"
         d="M 2294.94,6604.68 H 5061.3 c 13.5,265.38 -118.26,531.15 -353.54,654.63 -235.29,123.48 -541.3,97.14 -752.03,-64.73 -188.56,162.52 -384.47,329.21 -622.39,402.45 -237.93,73.23 -531.07,27.94 -677.96,-173.05 -101.5,-138.87 -115.41,-328.78 -65.62,-493.43 -215.47,1.67 -431,-3.4 -646.15,-15.21 -122.71,-6.74 -289.99,-42.46 -296.11,-165.2 -9.16,-184.01 647.44,-145.46 647.44,-145.46" /><path
         id="path20"
         style="fill:#ffffff;fill-opacity:1;fill-rule:nonzero;stroke:none"
         d="m 10237.9,5906.07 c -51.5,27.28 -109.4,31.86 -165.7,19.09 -33.9,-7.7 -66.6,-19.82 -99.84,-30.03 -63.24,-19.45 -68.74,-35.99 -94.51,19.05 -28.15,60.09 6.33,121.75 -48.78,184.4 -39.68,45.13 -97.81,71.4 -157.9,71.4 -21.86,0 -42.92,-3.33 -62.72,-9.51 -41.69,98.1 -89.87,191.92 -169.3,268.29 -157.96,151.85 -398.97,215.25 -604.97,130.12 -92.47,-38.22 -173.37,-101.2 -238.44,-176.71 -34.04,-39.5 -63.88,-82.58 -89.33,-128.08 -23.07,-41.28 -33.27,-95.05 -61.03,-132.44 -60.86,22.92 -117.02,53.16 -180.47,70.66 -124.3,34.28 -259.46,40.97 -368.26,-39.93 -89.33,-66.42 -145.91,-186.47 -117.05,-297.42 16.37,-62.91 46.22,-109.44 109.98,-110.34 90.21,-1.28 180.52,0 270.74,0 323.24,0 646.03,0 969.27,0 321.11,0 642.23,0 963.31,0 100.9,0 302.7,0 302.7,0 0,0 -64.8,112.13 -157.7,161.45" /><path
         id="path22"
         style="fill:#ffffff;fill-opacity:1;fill-rule:nonzero;stroke:none"
         d="m 6854.7,4302.83 c -29.49,154.51 26.46,324.61 140.96,434.65 142.94,137.37 361,194.71 547.4,117.68 83.67,-34.58 156.89,-91.57 215.77,-159.91 30.8,-35.74 57.8,-74.73 80.84,-115.9 20.87,-37.35 30.1,-86.01 55.22,-119.85 55.08,20.74 105.9,48.1 163.32,63.94 112.48,31.02 234.79,37.08 333.25,-36.13 82.03,-60.99 133.32,-171.82 104.8,-273.27 -10.12,-35.99 -36.55,-94.83 -76.92,-98.25 -11.71,-0.99 -23.95,0 -35.7,0 -108.82,0 -217.65,0 -326.47,0 -158.87,0 -317.74,0 -476.61,0 -145.03,0 -290.07,0 -435.1,0 -39.24,0 -78.48,0 -117.72,0 -20.4,0 -40.81,-0.13 -61.21,0 -23.92,0.15 -26.96,4.48 -41.19,23.8 -36.51,49.56 -59.58,105.31 -70.64,163.24" /><path
         id="path24"
         style="fill:#ffffff;fill-opacity:1;fill-rule:nonzero;stroke:none"
         d="m 4715.4,8736.98 c 29.49,154.51 -26.46,324.61 -140.96,434.65 -142.94,137.37 -361,194.71 -547.39,117.68 -83.68,-34.58 -156.89,-91.57 -215.78,-159.91 -30.8,-35.74 -57.8,-74.73 -80.84,-115.9 -20.87,-37.35 -30.1,-86.01 -55.22,-119.85 -55.07,20.74 -105.9,48.1 -163.32,63.94 -112.48,31.02 -234.79,37.08 -333.25,-36.13 -82.02,-60.99 -133.31,-171.82 -104.8,-273.27 10.12,-36 36.55,-94.83 76.92,-98.25 11.71,-1 23.95,0 35.7,0 108.83,0 217.65,0 326.47,0 158.87,0 317.74,0 476.61,0 145.04,0 290.07,0 435.1,0 39.24,0 78.48,0 117.72,0 20.4,0 40.81,-0.13 61.21,0 23.92,0.14 26.96,4.48 41.19,23.8 36.51,49.56 59.59,105.3 70.64,163.24" /><path
         id="path26"
         style="fill:#d1d1d1;fill-opacity:1;fill-rule:nonzero;stroke:none"
         d="m 5399.33,3449.66 c -0.37,8.95 -571.65,89.92 -669.73,100.41 -210.36,22.5 -830.88,170.05 -833.16,170.59 -8.34,1.98 -6.3,-27.07 -6.2,-30.41 0.96,-30.37 5.38,-60.74 9.72,-90.77 6.77,-46.8 14.91,-93.41 23.49,-139.9 10.97,-59.4 22.8,-118.64 35.13,-177.78 14.24,-68.27 29.16,-136.39 44.63,-204.4 16.69,-73.4 34.02,-146.67 51.98,-219.78 18.37,-74.81 37.4,-149.46 57.2,-223.91 19.28,-72.49 39.27,-144.79 60.28,-216.8 19.38,-66.46 39.6,-132.68 61.21,-198.45 18.66,-56.74 38.29,-113.19 60.02,-168.83 16.97,-43.43 35.05,-86.63 56.68,-128.03 14.07,-26.8 29.56,-54.2 51.2,-75.8 16.39,-16.4 41.06,-17.3 43.29,9.7 9.2,111.2 30.55,222.87 45.34,333.91 17.29,129.91 33.75,259.93 49.99,389.97 13.67,109.53 27.11,219.09 40.57,328.65 3.03,24.63 5.64,49.3 8.78,74.04 1.12,8.97 4.15,59.27 22.81,52.79 21.31,-7.43 5.07,-77.78 3.28,-94.37 -4.14,-38.38 -8.35,-76.76 -12.56,-115.13 -11.73,-106.93 -23.54,-213.84 -35.27,-320.77 -12.63,-115.19 -25.22,-230.4 -37.55,-345.63 -9.11,-85.14 -18.32,-170.26 -26.36,-255.56 -1.4,-14.8 -11.19,-49.3 -4.68,-63.6 3.85,-8.4 12.67,-14.4 21.95,-14.7 21.27,-0.9 36.07,25.9 46.11,40.9 78.82,117.7 160.58,233.32 236.9,352.78 37.53,58.74 73.34,118.61 108.86,178.6 35.82,60.5 67.76,124.52 106.08,183.41 0.69,1.22 1.46,2.46 2.1,3.72 102.93,181.92 195.65,368.68 275.05,562.2 32.56,79.36 68.26,157.07 91.93,239.9 5.67,20.29 11.54,41.78 10.93,63.05" /><path
         id="path28"
         style="fill:#e5e5e5;fill-opacity:1;fill-rule:nonzero;stroke:none"
         d="m 5399.33,3449.66 c -0.37,8.95 -571.65,89.92 -669.73,100.41 -210.36,22.5 -773.66,155.48 -773.56,153.14 3.82,-91.69 164.65,-775.49 182.61,-848.6 18.37,-74.82 241.49,-987.21 263.13,-1008.81 16.39,-16.4 41.06,-17.3 43.29,9.7 9.2,111.2 30.55,222.87 45.34,333.91 17.29,129.91 33.75,259.93 49.99,389.97 13.67,109.53 27.11,219.09 40.57,328.65 3.03,24.63 5.64,49.3 8.78,74.04 1.12,8.97 5.88,42.63 22.81,52.79 105.34,63.22 19.42,-455.15 7.69,-562.08 -12.64,-115.19 -108.16,-647.38 -98.88,-647.68 21.27,-0.9 36.07,25.9 46.11,40.9 78.82,117.7 160.58,233.32 236.9,352.78 37.53,58.74 73.34,118.61 108.86,178.6 35.82,60.5 67.76,124.52 106.08,183.41 0.69,1.22 1.46,2.46 2.1,3.72 102.93,181.92 195.65,368.68 275.05,562.2 32.56,79.36 68.26,157.07 91.93,239.9 5.67,20.29 11.54,41.78 10.93,63.05" /><path
         id="path30"
         style="fill:#d1d1d1;fill-opacity:1;fill-rule:nonzero;stroke:none"
         d="m 3890.76,3695.24 c -2.38,-6.62 -2.98,-13.53 -0.03,-20.01 4.72,-10.4 21.86,-12.16 31.36,-15.29 13.2,-4.35 27.06,-6.22 40.06,-11.27 13.36,-5.19 27.11,-9.09 40.55,-14 65.56,-23.96 131.16,-47.79 197.1,-70.59 63.11,-21.82 126.51,-42.73 190.4,-61.94 32.25,-9.7 64.63,-18.97 97.14,-27.71 16.26,-4.36 32.54,-8.6 48.86,-12.68 13.71,-3.43 29.03,-4.99 41.2,-12.59 53.1,-33.14 122.88,-38.63 183.33,-46.28 134.02,-17.02 268.48,-30.75 403.2,-41.34 29.53,-2.32 59.42,-2.79 87.98,-9.77 29.78,-7.27 64.74,-8.88 95.23,-5.18 24.95,3.02 40.8,33.9 30.79,58.71 -10.34,25.62 -37.22,24.83 -59.61,25.95 -230.19,11.53 -469.65,11.01 -692.42,61.6 -144.8,32.87 -286.45,79.25 -426.63,129.16 -22.87,3.49 -47.44,17.01 -69.28,24.96 -23.71,8.63 -47.41,17.32 -71.09,26.02 -42.07,15.46 -81.07,35.02 -122.69,51.77 -5.19,2.09 -10.57,4.21 -16.16,3.92 -13.98,-0.74 -24.81,-20.96 -29.29,-33.44" /><path
         id="path32"
         style="fill:#6a79a8;fill-opacity:1;fill-rule:nonzero;stroke:none"
         d="m 3883.38,3650.34 c 243.37,-87.41 489.02,-181.59 740.78,-242.09 115.57,-27.77 236.03,-37.76 354,-49.79 121.38,-12.38 242.95,-22.86 364.58,-32.35 22.16,-1.72 43.97,30.75 14.67,33.03 -121.64,9.48 -243.21,19.96 -364.58,32.34 -115.13,11.75 -232.66,21.52 -345.59,47.79 -251.27,58.46 -496.67,154.48 -739.08,241.54 -19.57,7.02 -50.9,-21.09 -24.78,-30.47 v 0" /><path
         id="path34"
         style="fill:#6a79a8;fill-opacity:1;fill-rule:nonzero;stroke:none"
         d="m 5416.08,3457.01 c -12.91,18.31 -78.94,18.24 -98.76,21.48 -77.25,12.61 -154.69,24 -232.15,35.23 -131.58,19.08 -264.52,32.4 -395.65,54.06 -171.98,28.4 -341.46,76.7 -509.3,122.95 -70.08,19.31 -140.02,39.12 -209.83,59.37 -20.79,6.03 -61,27.19 -82.93,15.92 -21.69,-11.16 -16.05,-43.05 -15.77,-63.62 0.74,-53.86 9.61,-107.29 18.3,-160.35 23.77,-145.03 54.57,-289.02 86.72,-432.39 65.84,-293.56 136.14,-588.28 231.06,-873.97 21.57,-64.93 44.75,-129.3 69.65,-193.04 23.97,-61.35 48.12,-127.55 87.85,-180.95 35.25,-47.4 87.58,-52.1 101.09,11.4 22.93,107.8 33.12,219.71 48.07,328.77 24.48,178.62 48.15,357.35 72.36,536 9.36,69.06 18.71,138.12 28.65,207.1 2.97,20.62 5.91,41.26 9.25,61.82 1.19,7.35 8.7,31.84 2.43,24.44 -8.53,-2.28 -17.07,-4.57 -25.61,-6.86 -3.53,1.01 -36.97,-284.39 -39.82,-309.8 -13.13,-116.94 -26.28,-233.87 -39.02,-350.85 -13.12,-120.48 -25.84,-241.01 -37.74,-361.62 -3.78,-38.3 -36.55,-176.7 25.55,-187.6 55.26,-9.7 84.31,53.9 106.8,91.5 60.34,101.09 127.08,198.65 190.55,297.76 117.24,183.07 230.18,370.28 330,563.48 58.06,112.37 112.06,226.87 161.05,343.49 21.89,52.11 44.03,104.18 65.07,156.64 23.23,57.95 50.98,121.19 53.56,184.3 0.66,16.07 -35.82,9.27 -36.36,-4.02 -4.08,-99.64 -60.72,-201.26 -98.17,-291.57 -39.97,-96.39 -82.23,-191.66 -128.03,-285.43 -84.29,-172.57 -179.7,-339.86 -279.52,-503.87 -101.54,-166.83 -207.78,-331.81 -313.44,-495.98 -12.77,-19.9 -38.37,-42.2 -48.3,-6.5 -3.93,14.1 -0.59,40 -0.07,55.3 1.77,51.7 9.31,103.55 14.51,154.98 10.88,107.54 22.34,215.02 34.09,322.47 12.79,116.86 26,233.68 39.07,350.52 6.8,60.71 13.51,121.44 19.97,182.19 3.5,32.93 16.66,77.27 9.41,109.95 -0.71,3.19 -4.48,4.9 -7.21,5.68 -0.04,0.01 -0.09,0.02 -0.14,0.04 -7.66,2.19 -20.34,-0.65 -25.61,-6.87 -10.95,-12.91 -10.12,-40.27 -12.51,-56 -6.99,-45.94 -13.3,-91.99 -19.65,-138.03 -19.78,-143.34 -38.82,-286.79 -58.12,-430.2 -18.71,-138.96 -37.29,-277.96 -57.42,-416.73 -5.77,-39.8 -6.53,-86.9 -19.4,-125.2 -1.19,-3.5 -0.33,-11.9 -2.77,-14.5 -11.09,-11.8 -20.92,7.5 -29.08,18.5 -41.86,56.3 -66.28,127 -91.33,191.96 -101.72,263.74 -171.71,538.18 -238.61,812.4 -33.6,137.72 -65.16,275.96 -93.97,414.77 -27.05,130.33 -61.41,266.13 -66.5,399.58 -0.47,12.49 -0.87,25.16 -0.15,37.66 0.1,1.6 3.07,21.74 2.31,22.48 -8.42,-2.57 -16.85,-5.13 -25.28,-7.69 0.56,-0.16 1.11,-0.32 1.66,-0.48 2.83,-5.13 31.2,-9.16 36.44,-10.69 57.72,-16.85 115.54,-33.38 173.44,-49.59 162.35,-45.47 325.43,-90.26 490.53,-124.75 129.88,-27.14 263.05,-39.08 394.36,-57.68 88.01,-12.46 175.98,-25.25 263.81,-38.97 32.44,-5.07 64.89,-10.16 97.2,-15.95 8.74,-1.57 40.22,-7.58 39.91,-7.14 7.7,-10.92 42.7,1.64 33.5,14.7" /><path
         id="path36"
         style="fill:#6a79a8;fill-opacity:1;fill-rule:nonzero;stroke:none"
         d="m 4219.99,3468.31 c -9.93,-70.15 -43.94,-131.54 -99.19,-176.08 -15.79,-12.73 20.17,-12.16 28.83,-5.18 58.31,47 95.98,111.81 106.5,186.1 1.9,13.37 -34.48,6.9 -36.14,-4.84 v 0" /><path
         id="path38"
         style="fill:#6a79a8;fill-opacity:1;fill-rule:nonzero;stroke:none"
         d="m 5020.59,3335.55 c 6.68,-78.54 36.92,-149.77 88.23,-209.49 8.45,-9.84 43.17,3.23 33.57,14.41 -50.3,58.56 -79.05,127.98 -85.57,204.78 -1.06,12.43 -37.44,4.6 -36.23,-9.7 v 0" /><path
         id="path40"
         style="fill:#e5e5e5;fill-opacity:1;fill-rule:nonzero;stroke:none"
         d="m 3865.37,3745.35 c 27.86,170.07 71.61,337.79 124.57,501.68 29.28,90.62 61.79,180.21 97.99,268.29 17.98,43.75 36.88,87.11 56.84,129.99 16.57,35.59 48.86,77.39 58.8,114.35 9.51,35.36 -13.15,68.89 -26.27,99.28 35,27.3 78.1,38.28 114.65,62.13 33.13,21.62 46.82,63.71 70.93,94.77 48.99,63.13 104.3,122.87 169.49,169.58 115.43,82.69 253.11,104.3 380.7,34.89 12.45,-6.77 24.54,-14.19 36.31,-22.09 338.26,-227.19 438.48,-1028.03 450.94,-1802.3 0,0 -653.79,79.4 -866.51,131.99 -180.21,44.56 -668.44,217.43 -668.44,217.44" /><path
         id="path42"
         style="fill:#e5e5e5;fill-opacity:1;fill-rule:nonzero;stroke:none"
         d="m 5182.57,5563.56 c 38.15,335.42 -78.6,624.13 -260.76,644.85 -182.17,20.72 -360.78,-234.39 -398.93,-569.81 -0.89,-7.77 -5.28,-46.41 -6.84,-60.12 -21.15,-185.97 -20.08,-317.36 -2.67,-410.69 35.79,-191.86 249.59,-294.56 249.59,-294.56 0,0 236.57,50 313.79,209.08 42.26,87.08 76.12,220.12 98.98,421.13 1.51,13.29 5.91,51.95 6.84,60.12" /><path
         id="path44"
         style="fill:#ffffff;fill-opacity:1;fill-rule:nonzero;stroke:none"
         d="m 3956.04,3703.21 c 45.1,275.3 144.99,682.45 282.42,1009 8.25,19.59 -11.77,12.56 -33.94,51.71 -14.69,25.96 -33.76,105.85 -33.76,105.85 60.89,24.82 134.44,47.23 168.02,106.56 1.68,2.97 3.76,6.11 7.03,7.05 5.81,1.67 10.73,-4.31 13.94,-9.44 54.58,-87.18 137.88,-153.41 224.24,-207.16 91.94,-57.23 193.7,-112.52 304.92,-111.96 11.25,0.05 58.08,66.78 69.2,67.06 42.26,1.07 48.99,-63.27 99.85,-63.91 73.19,-0.92 148.23,164.84 148.23,164.84 136.67,-362.34 185.66,-900.75 194.13,-1426.89 0,0 -653.79,79.4 -866.51,131.99 -180.21,44.56 -577.77,175.3 -577.77,175.3" /><path
         id="path46"
         style="fill:#ffffff;fill-opacity:1;fill-rule:nonzero;stroke:none"
         d="m 5159.77,4915.57 -62.95,127.89 -182.69,-111.93 -455.37,181.77 c -15.77,-16.48 -34.82,-32.29 -48.35,-50.55 -14.05,-18.96 99.11,-147.1 153.25,-196.74 49.62,-45.5 159.86,-112.05 219.47,-143.09 25.08,-13.07 44.37,-23.1 72.82,-29.57 2.14,-0.49 41.6,-9.43 41.9,-8.29 0.14,0.54 38.16,144.41 38.16,144.41 51.03,-59.35 113.53,-132.03 113.83,-132.28 -0.09,0.07 122.73,83.4 109.93,218.38" /><path
         id="path48"
         style="fill:#ffffff;fill-opacity:1;fill-rule:nonzero;stroke:none"
         d="m 5175.73,5503.44 c 1.51,13.29 5.91,51.95 6.84,60.12 38.15,335.42 -78.6,624.13 -260.76,644.85 -78.92,8.98 -129.34,-29.72 -162.08,-98.77 -85.04,-179.35 -152.01,-380.05 -183.43,-576.3 -11.82,-73.86 -19.23,-161.86 -24.38,-207.98 -5.56,-49.67 -16.32,-163.82 -16.32,-163.82 0,0 -22.57,4.1 -23.4,0.79 -0.47,-1.81 -0.71,-3.75 -0.83,-5.76 -30.47,-7.28 -56.12,-20.24 -52.61,-43.27 5.37,-35.2 47.93,-139.09 84.06,-175.67 18.98,-19.21 40.2,-35.99 62.93,-50.52 33.07,-21.13 69.37,-37.49 106.73,-49.66 61.67,-20.09 119.12,-18.77 182.17,-3.53 64.64,15.63 185.4,118.21 199.9,191.53 4.43,22.39 -4.01,39.88 -19.34,53.95 0.5,0.98 1.06,1.92 1.54,2.91 42.27,87.08 76.12,220.12 98.98,421.13" /><path
         id="path50"
         style="fill:#6a79a8;fill-opacity:1;fill-rule:nonzero;stroke:none"
         d="m 4923.41,4825.84 c 36.54,-45.43 72.44,-91.47 109.75,-136.26 6.43,-7.73 21.51,-4.44 28.37,0.54 73.92,53.74 122.35,137.69 116.35,230.31 -0.94,14.45 -37.26,6.31 -36.22,-9.71 5.31,-81.96 -38.01,-158.85 -103.52,-206.47 9.46,0.18 18.92,0.36 28.37,0.54 -37.31,44.8 -73.2,90.84 -109.74,136.27 -9.22,11.46 -43.94,-2.06 -33.36,-15.22 v 0" /><path
         id="path52"
         style="fill:#6a79a8;fill-opacity:1;fill-rule:nonzero;stroke:none"
         d="m 4903.42,4839.97 c -7.99,-54.77 -15.99,-109.55 -23.99,-164.32 10.89,3.51 21.77,7.02 32.66,10.53 -186.5,61.35 -376.22,193.5 -488.57,353.79 -5.56,7.93 -40.58,-3.57 -33.94,-13.05 113.24,-161.58 304.92,-294.23 493.11,-356.14 6.86,-2.26 31.24,0.76 32.66,10.53 8,54.77 16,109.55 23.99,164.32 1.6,10.93 -34.45,4.39 -35.92,-5.66 v 0" /><path
         id="path54"
         style="fill:#dddddd;fill-opacity:1;fill-rule:nonzero;stroke:none"
         d="m 4950.87,4551.72 c -11.9,-112.4 -24.22,-224.78 -35.39,-337.27 -13.23,-133.08 -50.33,-254.72 -117.08,-355.27 11.02,-38.82 95.39,-166.15 95.61,-207.67 26.84,22.21 131.1,119.31 158.23,143.1 54.34,47.67 34.32,398.61 21.22,502 -6.6,51.99 -29.7,287.89 -77.99,290.23 l -17.72,0.85 c -13.8,0.67 -25.75,-14.22 -26.67,-33.26 -0.04,-0.91 -0.11,-1.81 -0.21,-2.71" /><path
         id="path56"
         style="fill:#bbdff5;fill-opacity:1;fill-rule:nonzero;stroke:none"
         d="m 4954.43,4564.35 c -2.49,-113 -5.39,-226.02 -7.14,-339.05 -2.08,-133.72 -28.91,-258.03 -87.04,-363.8 14.21,-37.76 108.91,-157.61 112.6,-198.96 24.88,24.37 120.69,129.82 145.73,155.79 50.18,52.03 0.97,400.08 -20.72,502.02 -10.9,51.26 -53.6,284.41 -101.92,282.71 l -17.72,-0.62 c -13.82,-0.49 -24.47,-16.32 -23.81,-35.37 0.04,-0.91 0.04,-1.82 0.02,-2.72" /><path
         id="path58"
         style="fill:#6a79a8;fill-opacity:1;fill-rule:nonzero;stroke:none"
         d="m 4936.04,4563.14 c -2.37,-106.36 -4.82,-212.73 -6.83,-319.1 -1.8,-95.83 -11.3,-190.64 -42.92,-281.74 -6.36,-18.34 -13.43,-36.41 -21.4,-54.11 -5.65,-12.57 -22.53,-34.39 -23.04,-47.9 -0.6,-15.9 18.47,-37.96 26.37,-50.4 28.91,-45.49 77.33,-97.76 86.52,-152.21 2.64,-15.68 26.57,-7.75 33.39,-0.95 30.73,30.66 59.72,63.13 89.17,95 21.47,23.24 51.94,47.16 66.28,75.78 32.59,65.03 15.07,164.94 9.2,233.99 -7.43,87.31 -18.88,174.75 -36.18,260.69 -15.99,79.45 -30,162.84 -62.36,237.55 -10.61,24.49 -23.33,52.44 -52.18,57.05 -35.79,5.73 -66.27,-16.59 -66.02,-53.65 0.13,-19.61 36.9,-14.75 36.79,2.41 -0.26,39.03 23.55,22.58 33.93,6.78 12.5,-19.03 19.72,-42.74 26.65,-64.17 14.39,-44.55 24.88,-90.36 34.65,-136.12 16.28,-76.25 29.58,-152.79 39.06,-230.21 11.11,-90.81 30.35,-199.21 8.04,-289.85 -8.17,-33.17 -37.95,-55.64 -60.44,-79.98 -32.11,-34.76 -63.65,-70.23 -97.16,-103.66 11.14,-0.31 22.27,-0.63 33.4,-0.95 -8.51,50.4 -50.21,98.27 -77.35,139.82 -14,21.43 -32.94,40.8 -28.23,66.42 3.54,19.2 19.9,41.77 27.13,60.35 8.12,20.84 15.11,42.09 21.22,63.61 51.52,181.38 34.95,381.34 39.1,567.96 0.43,19.57 -36.41,14.81 -36.79,-2.41" /><path
         id="path60"
         style="fill:#bbdff5;fill-opacity:1;fill-rule:nonzero;stroke:none"
         d="m 4937.9,4718.66 c 5.99,10.97 15.07,16.8 30.77,7.35 22.44,-13.49 41.02,-40.79 57.68,-60.54 13.8,-16.36 20.92,-28.19 -3.79,-38.48 -21.8,-9.07 -49.34,-11.08 -72.46,-16.27 -36.96,-8.29 -28.34,54.92 -23.45,72.95 2.95,10.88 5.83,25.05 11.25,34.99" /><path
         id="path62"
         style="fill:#6a79a8;fill-opacity:1;fill-rule:nonzero;stroke:none"
         d="m 4954.66,4718.65 c 3.21,6.75 4.1,5.69 2.67,-3.18 1.79,-1.38 3.59,-2.76 5.38,-4.15 3.98,-5.35 10.62,-9.71 15.27,-14.71 9.71,-10.45 18.3,-21.9 27.29,-32.95 6.5,-7.98 21.82,-21.13 10.33,-29.93 -11.36,-8.7 -38.53,-9.53 -52.14,-11.55 -12.33,-1.83 -16.57,-2.85 -20.74,9.95 -2.8,8.6 -2.7,18.52 -2.17,27.41 1.25,20.73 6.75,42.89 15.41,61.59 4.54,9.81 -30.95,6.21 -36.12,-4.94 -11.68,-25.24 -26.2,-75.64 -9.78,-102.23 7.31,-11.84 19.73,-14.56 32.99,-13.23 25.32,2.55 53.29,8 77.41,16.21 13.24,4.51 36.84,13.27 36.52,30.67 -0.33,18.06 -24.95,38.96 -35.73,51.82 -23.97,28.62 -71.36,64.56 -100.11,19.24 -8.47,-13.35 27.54,-9.45 33.52,-0.02" /><path
         id="path64"
         style="fill:#6a79a8;fill-opacity:1;fill-rule:nonzero;stroke:none"
         d="m 4960.05,5227.95 c 26.9,5.52 45.37,47.17 42.68,71.64 -2.69,24.52 -22.62,45.01 -46.01,52.85 -23.38,7.85 -49.38,4.56 -72.41,-4.29 -4.31,-1.65 -8.66,-3.57 -12.01,-6.76 -4.12,-3.92 -6.36,-9.42 -7.88,-14.9 -13.57,-49.07 45.89,-108.76 95.63,-98.54" /><path
         id="path66"
         style="fill:#bbdff5;fill-opacity:1;fill-rule:nonzero;stroke:none"
         d="m 5132.7,6045.76 c 27.41,30.24 72.64,81.62 71.87,124.39 18.34,-46.89 24.55,-100.92 41.51,-149.76 9.46,-27.23 18.99,-54.76 21.8,-83.44 4.33,-44.27 -7.72,-88.92 -27.21,-128.9 -19.49,-39.98 -46.19,-75.94 -72.96,-111.46 4.93,-4.03 9.68,5.32 9.31,11.68 -1.57,27.25 -3.14,54.5 -4.71,81.75 -5,-5.5 -22.79,-14.75 -27.79,-20.25 -10.85,-11.91 -21.69,-23.82 -32.53,-35.74 8.84,18.05 8.62,40.27 -0.57,58.14 -3.11,-0.1 -6.21,-0.21 -9.31,-0.32 -13.78,-19.51 -35.19,-28.2 -55.59,-40.62 4.02,1.21 8.05,2.42 12.07,3.62 -0.89,13.69 -4.4,27.21 -10.27,39.6 -11.22,23.69 -32.14,41.61 -43.11,65.16 -16.77,36.06 1.28,33.17 17.04,64.66 23.47,46.9 75.72,83.18 110.45,121.49" /><path
         id="path68"
         style="fill:#bbdff5;fill-opacity:1;fill-rule:nonzero;stroke:none"
         d="m 4410.23,6034.24 c 5.17,6.25 10.13,12.66 14.88,19.23 -50.1,-8.98 -96.32,0 -146,7.32 52.5,-4.47 104.79,12.84 151.23,37.72 153.78,82.37 276.97,230.62 457.22,256.78 71.15,10.32 139.42,-17 195.97,-58.62 47.73,-35.12 131.17,-86.52 89.42,-149.91 -64.89,-98.53 -151.74,-182.24 -251.66,-244.83 -49.97,-31.29 -103.24,-57.34 -158.71,-77.33 -24.47,-8.81 -53.28,-12.36 -72.17,-29.94 -9.32,-8.67 -38.62,-52.78 -37.56,-65.15 -0.51,5.97 -23.18,72.08 -30.75,65.51 -25.34,-21.97 -49.63,-50.38 -63.45,-81.26 -12.07,-26.99 5.67,-68.75 -12.74,-90.64 -38.41,12.46 -42.56,61.26 -48.64,94.75 -5.3,29.15 -56,-13.29 -65.16,-20.22 -23.97,-18.1 -87.8,-44.42 -97.32,-69.9 15.02,40.2 30.04,80.41 45.06,120.62 -38.56,-8.3 -77.37,-15.46 -116.36,-21.47 31.65,4.88 71.29,66.58 87.16,91.24 22.23,34.56 49.22,77.47 61.02,116.45 -18.32,-3.03 -35.46,-12.12 -54.75,-13.2 -20.19,-1.13 -41.91,5.35 -54.18,21.42 39.65,26.72 76.78,54.26 107.49,91.43" /><path
         id="path70"
         style="fill:#6a79a8;fill-opacity:1;fill-rule:nonzero;stroke:none"
         d="m 4296.09,4671.37 c -30.42,23.12 -58.92,58.13 -73.06,93.56 -8.69,21.77 -14.42,45.3 -21.9,67.59 -1.99,5.93 -13.24,26.15 -13.24,29.79 0.02,11.73 -4.22,-0.68 4.01,9.35 29.69,36.21 94.9,25.89 128.25,54.35 32.49,27.73 57.08,76.92 83.64,110.41 37.8,47.69 75.64,92.34 123.77,129.66 1.89,1.47 4.41,3.82 3.92,6.56 -27.46,154.33 -9.08,314.46 9.38,468.7 20.02,167.31 72.58,348.92 191.07,474.31 48.37,51.19 114.13,95.46 187.81,82.88 61.81,-10.56 111.5,-54.94 146.56,-104.69 100.06,-141.96 116.05,-339.48 100.9,-507.11 -15.3,-169.39 -34.7,-351.65 -108.43,-507.17 -3.86,-8.13 31.04,-4.87 35.96,5.5 46.29,97.63 68.13,205.75 84.49,311.89 19.26,124.95 35.56,253.1 25.41,379.58 -12.97,161.61 -80.18,429.25 -282.8,441.36 -192.24,11.48 -313.43,-200.99 -366.68,-355.94 -41.75,-121.49 -55.72,-250.2 -66.08,-377.63 -4.82,-59.21 -7.79,-118.69 -6.73,-178.12 0.45,-24.88 1.56,-49.75 3.76,-74.55 1.18,-13.36 14.16,-54.02 11.22,-63.6 -2.76,-8.98 -26.61,-20.13 -34.35,-26.98 -19.57,-17.33 -36.68,-38.12 -53.52,-58.01 -34.43,-40.66 -66.92,-82.98 -98.73,-125.71 -7.53,-10.11 -16.56,-20.18 -22.89,-31.1 4.41,7.61 16.07,6.11 -3.66,1.13 -6.85,-1.73 -13.81,-3.98 -20.57,-6.05 -36.49,-11.21 -70.44,-29.04 -103.66,-47.73 -2.68,-1.51 -8.27,-4.67 -7.29,-8.68 18.72,-76.58 44.14,-157.06 109.54,-206.78 8.93,-6.78 41.55,7.41 33.9,13.23 v 0" /><path
         id="path72"
         style="fill:#6a79a8;fill-opacity:1;fill-rule:nonzero;stroke:none"
         d="M 4179.34,4739.23 C 4019.7,4428.9 3904.9,4086.81 3847.43,3742.42 c -0.43,-2.62 0.69,-3.71 3.19,-4.6 198.3,-70.18 397.47,-140.16 599.56,-198.67 226.94,-65.69 467.63,-89.69 701.14,-120.86 79.09,-10.55 158.23,-20.84 237.44,-30.47 7.17,-0.87 29.84,2.78 29.67,12.95 -5.34,314.62 -22.17,630.66 -72.69,941.6 -39.27,241.68 -95.03,498.01 -230.81,705.94 -6.01,9.21 -31.96,0.4 -36.04,-7.77 -11.85,-23.72 -27.23,-46.08 -44.51,-66.12 -17.99,-20.89 -40.15,-43.13 -66.71,-52.58 -38.11,-13.57 -91.87,0.91 -128.91,12.03 -119.42,35.85 -212.84,124.24 -301.26,207.94 -7.48,7.09 -40.85,-6.37 -33.98,-12.86 115.06,-108.94 247.25,-227.63 415.96,-227.97 88.95,-0.17 157.7,70.22 195.28,145.41 -12.02,-2.6 -24.03,-5.19 -36.05,-7.78 135.75,-207.89 191.64,-464.29 230.8,-705.95 50.4,-310.98 67.35,-626.95 72.7,-941.6 9.89,4.32 19.77,8.64 29.66,12.95 -278.43,33.86 -561.43,64.01 -835.44,124.92 -158.89,35.33 -314.09,92.61 -467.97,144.9 -65.63,22.3 -131.16,44.92 -196.58,67.86 -3.77,1.32 -29.43,6.86 -31.53,11.09 0.04,-0.08 9.33,32.53 9.84,35.35 2.49,13.75 5.11,27.48 7.82,41.19 5.69,28.74 11.84,57.39 18.37,85.95 65.51,286.4 164.36,568.41 298.83,829.81 3.43,6.67 -30.81,3.98 -35.87,-5.85 v 0" /><path
         id="path74"
         style="fill:#6a79a8;fill-opacity:1;fill-rule:nonzero;stroke:none"
         d="m 6002.51,5874.04 c -67.92,50.03 -79.78,-89.26 -91.58,-121.39 -46.79,-127.41 -104.28,-254.94 -164.44,-376.56 -114.3,-231.03 -274.22,-443.05 -504.16,-568.33 -21.29,-11.59 11.14,-14.82 21.98,-8.91 185.68,101.16 330.69,257.97 439.4,437.71 60.6,100.19 109.81,206.38 155.29,314.12 24.51,58.04 51.56,115.02 75.04,173.49 10.44,26.01 22.07,52.83 28.44,80.18 1.74,7.46 12.05,51.8 6.24,56.07 9.54,-7.02 42.38,7.29 33.79,13.62 v 0" /><path
         id="path76"
         style="fill:#6a79a8;fill-opacity:1;fill-rule:nonzero;stroke:none"
         d="m 4180.06,4749 c -131.22,-164.36 -278.72,-314.93 -437.76,-452.45 -82.69,-71.5 -168.39,-139.53 -256.59,-204.1 -45.54,-33.33 -91.77,-65.74 -138.57,-97.28 -40.26,-27.14 -122.91,-101.91 -170.96,-72.87 -10.36,6.26 -43.68,-8.77 -28.76,-17.79 31.02,-18.75 61.48,-20.9 93.89,-3.98 57.62,30.06 111.95,71.81 165.42,108.64 102.72,70.74 202.54,145.77 298.68,225.23 186.08,153.82 357.76,324.83 508.44,513.58 10.13,12.68 -26.24,10.48 -33.79,1.02 v 0" /><path
         id="path78"
         style="fill:#6a79a8;fill-opacity:1;fill-rule:nonzero;stroke:none"
         d="m 3385.77,3489.22 c -135.61,-209.01 -320.74,-372 -527.84,-507.68 -20.48,-13.42 9.33,-25.7 23.92,-16.15 211.97,138.88 399.78,306.12 538.49,519.91 10.72,16.52 -26.12,16.93 -34.57,3.92 v 0" /><path
         id="path80"
         style="fill:#6a79a8;fill-opacity:1;fill-rule:nonzero;stroke:none"
         d="m 2974.69,3232.71 c -122.24,-148.08 -285.85,-247.52 -458.72,-326.36 -22.97,-10.47 -1.83,-20.8 13.97,-13.59 180.28,82.22 350.8,185.41 478.29,339.87 9.57,11.59 -26.43,8.7 -33.54,0.08 v 0" /><path
         id="path82"
         style="fill:#6a79a8;fill-opacity:1;fill-rule:nonzero;stroke:none"
         d="m 3088.36,2723.32 c -69.39,-54.85 -123.97,-123.79 -181.51,-190.31 -8.14,-9.4 26.79,-5.45 33.04,1.78 56.03,64.75 108.99,132.73 176.56,186.13 14.81,11.71 -21.04,7.98 -28.09,2.4 v 0" /><path
         id="path84"
         style="fill:#ffffff;fill-opacity:1;fill-rule:nonzero;stroke:none"
         d="m 4952.29,9099.46 c -26.18,-43.42 -20.67,-101.28 5.8,-144.52 26.48,-43.24 71,-73.07 118.42,-91 -24.04,9.88 -53.38,-5.46 -64.41,-28.99 -11.03,-23.53 -6.52,-52.02 5.68,-74.97 24.29,-45.68 79.45,-72.72 130.44,-63.94 15.36,-79.08 106.33,-120.45 186.87,-122.1 80.54,-1.65 160.3,23.06 240.68,17.59 -43.07,119.59 -110.5,325.07 -226.93,391.61 -40,22.86 -375.85,150.65 -396.55,116.32" /><path
         id="path86"
         style="fill:#6a79a8;fill-opacity:1;fill-rule:nonzero;stroke:none"
         d="m 4935.14,9100.94 c -56.95,-110.61 31.67,-208.14 130.69,-248.36 7.12,7.58 14.24,15.15 21.36,22.73 -57.08,13.48 -109.15,-30.25 -97.97,-90.65 13.38,-72.23 90.04,-108.02 157.08,-100.73 -5.4,2.42 -10.8,4.84 -16.19,7.26 48.18,-192.8 307.29,-106.46 439.11,-111.8 7.43,-0.3 28.96,5.02 24.66,16.99 -58.17,162.11 -114.57,351.32 -286.8,421.42 -75.64,30.78 -153.13,58.78 -231.83,80.69 -32.2,8.96 -109.73,38.84 -137.89,5.48 -14.45,-17.12 20.23,-20.43 29.87,-9.01 -3.64,-4.31 10.55,-2.54 18.56,-3.55 13.92,-1.76 27.73,-5.2 41.33,-8.55 32.17,-7.93 63.89,-17.8 95.37,-28.12 61.87,-20.28 123.63,-42.32 183.46,-68.07 149.34,-64.25 201.5,-260.07 251.71,-399.99 8.21,5.66 16.43,11.33 24.65,16.99 -124.16,5.03 -371.34,-81.41 -415.98,97.22 -1.61,6.44 -10.79,7.85 -16.2,7.26 -36.82,-4 -74.72,8.03 -99.59,36.53 -8.49,9.73 -16.93,22.25 -20.98,34.51 -6.85,20.72 -12.82,84.98 36.27,73.39 13.12,-3.1 43.23,13.85 21.36,22.73 -87.72,35.63 -168.86,123.4 -117.74,222.68 8.88,17.25 -27.65,15.88 -34.31,2.95" /><path
         id="path88"
         style="fill:#ffffff;fill-opacity:1;fill-rule:nonzero;stroke:none"
         d="m 6604.24,10192.1 c -43.76,-25.6 -66.6,-79 -64.02,-129.7 2.57,-50.6 27.41,-98.08 60.48,-136.5 -16.38,20.17 -49.49,20.73 -70.43,5.33 -20.93,-15.39 -30.6,-42.56 -30.86,-68.55 -0.52,-51.74 35,-101.86 83.98,-118.53 -24.32,-76.8 35.78,-156.64 105.73,-196.6 69.94,-39.97 151.81,-56.41 219.78,-99.65 19.38,125.63 58.41,338.34 -12.02,452.45 -24.2,39.21 -258.05,312.05 -292.64,291.75" /><path
         id="path90"
         style="fill:#6a79a8;fill-opacity:1;fill-rule:nonzero;stroke:none"
         d="m 6590.41,10192.5 c -100.64,-67.5 -73.71,-191 -6.79,-272.72 11.39,4.08 22.78,8.15 34.16,12.23 -31.69,28.39 -86.25,18.88 -114.15,-11.75 -50.67,-55.64 -9.91,-130.4 37.43,-170.01 30.76,-25.73 14.28,-59.38 28.54,-96.37 12.92,-33.53 37.33,-63.11 64.62,-86.04 73.78,-61.98 175.92,-76.98 257.6,-126.05 7.15,-4.29 33.72,1.5 35.19,10.97 16.9,108.73 37.37,220.57 25,330.89 -8.35,74.49 -37.26,125.58 -83.52,181.09 -50.77,60.96 -103.84,120.86 -161.31,175.56 -27.84,26.5 -66.03,72.5 -109.15,55.8 -23.98,-9.4 -1.31,-13.2 12.41,-7.9 -18.03,-7 -8.67,-3 6.3,-12.4 9.76,-6.1 18.63,-13.9 27.36,-21.4 25.14,-21.4 48.48,-45 71.36,-68.8 48.88,-50.8 96.18,-103.79 140.08,-159.01 105.43,-132.61 59.08,-330.18 35.25,-483.54 11.73,3.65 23.46,7.31 35.19,10.96 -110.76,66.55 -370.76,108.43 -324.74,293.38 0.6,1.19 0.35,2.14 -0.77,2.87 -37.39,15.38 -66.08,43.09 -77.79,82.68 -8.98,30.31 3.44,138.36 60.94,86.84 6.2,-5.54 39.55,5.65 34.16,12.23 -60.3,73.59 -94.11,196.49 0.28,259.79 14.68,9.8 -21.2,5 -27.65,0.7" /><path
         id="path92"
         style="fill:#ffffff;fill-opacity:1;fill-rule:nonzero;stroke:none"
         d="m 8197.77,9921.6 c 33.58,-37.99 38.59,-95.9 20.35,-143.21 -18.25,-47.3 -56.66,-84.66 -100.08,-110.85 21.86,14.05 53.49,4.25 68.58,-16.9 15.09,-21.16 15.79,-50 7.93,-74.77 -15.66,-49.31 -65.04,-85.85 -116.77,-86.41 -0.86,-80.55 -82.88,-137.64 -161.8,-153.78 -78.93,-16.15 -161.84,-6.22 -239.91,-26.09 20.8,125.4 50.09,339.67 152.61,426.11 35.23,29.69 342.54,215.92 369.09,185.9" /><path
         id="path94"
         style="fill:#6a79a8;fill-opacity:1;fill-rule:nonzero;stroke:none"
         d="m 8179.65,9916.74 c 70.05,-89.74 8.04,-195.81 -75.4,-248.95 -15.44,-9.84 19.78,-4.2 24.13,-2.29 40.27,17.65 54.19,-55.45 50.67,-78.24 -7.12,-46.1 -43.35,-87.2 -93.34,-90.86 -5.84,-0.43 -25.5,-3.66 -26.05,-11.79 -12.08,-181.32 -256.97,-140.95 -380.12,-168.72 4.88,-0.48 9.76,-0.96 14.64,-1.44 23.56,143.05 40.1,348.69 171.93,437.91 49.81,33.71 102.23,64.04 154.77,93.24 20.39,11.34 137.53,88.25 159.79,69.93 7.32,-6.02 38.98,8.19 34.19,12.13 -27.62,22.72 -102.9,-20.77 -127.1,-32.28 -75.37,-35.83 -148.12,-78.22 -218.64,-122.75 -63.34,-39.99 -105.77,-84.42 -136.18,-155.17 -42.47,-98.82 -57.63,-207.36 -74.98,-312.72 -0.62,-3.74 13.88,-1.62 14.64,-1.45 128.51,28.98 409.96,-8.83 423.29,191.03 -8.69,-3.93 -17.37,-7.86 -26.05,-11.79 64.9,4.74 134.4,42.01 146.19,111.9 12.27,72.77 -51.02,100.28 -108.33,75.15 8.04,-0.76 16.09,-1.52 24.13,-2.28 85.91,54.71 158.56,163.69 84.05,259.15 -6.56,8.39 -38.52,-6.77 -36.23,-9.71" /><path
         id="path96"
         style="fill:#ffffff;fill-opacity:1;fill-rule:nonzero;stroke:none"
         d="m 8029.52,8979.46 c -50.69,0.68 -97.86,-33.29 -121.81,-77.98 -23.96,-44.69 -27.22,-98.17 -18.75,-148.16 -3.61,25.73 -31.67,43.32 -57.55,40.95 -25.87,-2.36 -48.19,-20.64 -61.84,-42.75 -27.17,-44.04 -22.65,-105.3 10.68,-144.88 -60.5,-53.19 -50.28,-152.6 -11.03,-222.95 39.24,-70.35 100.85,-126.73 136.71,-198.86 81.48,97.56 224.79,259.53 223.43,393.62 -0.46,46.07 -59.76,400.48 -99.84,401.01" /><path
         id="path98"
         style="fill:#6a79a8;fill-opacity:1;fill-rule:nonzero;stroke:none"
         d="m 8031.53,8991.23 c -127.64,-6.11 -176.56,-130.73 -160.68,-242.76 12.07,3.23 24.15,6.47 36.22,9.7 -17.34,56.57 -84.75,58.3 -126.03,26.38 -27.13,-20.98 -43.91,-53.77 -46.91,-87.83 -1.53,-17.28 0.28,-35.2 5.22,-51.76 3.45,-11.56 18.37,-31.71 16.6,-43.35 -1.38,-9 -19.03,-26.13 -23.12,-35.16 -6.69,-14.77 -10.62,-30.71 -12.5,-46.75 -4.35,-37.13 2.66,-75.48 16.3,-110.03 34.29,-86.88 109.33,-150.34 152.61,-232.4 5.17,-9.81 26.45,-2.79 31.56,3.31 69.1,82.54 142.02,165.66 189.62,263.09 32.76,67.03 40.66,128.34 30.1,200.57 -11.16,76.35 -25.36,152.71 -44.41,227.5 -8.09,31.75 -18.62,112.38 -59.96,119.55 -16.1,2.79 -37.41,-19.46 -13.25,-23.65 1.46,-0.26 16.22,-35.53 19.71,-45.7 10.03,-29.21 17.44,-59.39 24.44,-89.44 15.52,-66.63 28.08,-134.16 37.82,-201.88 25.24,-175.46 -108.75,-316.07 -213.8,-441.54 10.52,1.11 21.04,2.21 31.55,3.32 -57.75,109.5 -258.95,280.71 -127.51,409.99 3.27,3.22 4.73,7.89 1.83,11.82 -20.28,27.38 -30.32,58.79 -25.34,93.06 2.15,14.82 7.19,30.17 15.08,42.96 19.21,31.12 71.73,38.82 84.17,-1.76 4.56,-14.88 38.37,-5.45 36.22,9.7 -12.23,86.34 13.28,204.4 120.45,209.53 19.36,0.93 28.9,24.72 4.01,23.53" /><path
         id="path100"
         style="fill:#ffffff;fill-opacity:1;fill-rule:nonzero;stroke:none"
         d="m 9291.7,8005.03 c 10.89,-49.52 -12.87,-102.57 -51.8,-135.05 -38.94,-32.48 -90.67,-46.46 -141.34,-48.25 25.94,1.66 48.82,-22.27 51.72,-48.1 2.91,-25.82 -10.49,-51.37 -29.4,-69.19 -37.64,-35.5 -98.56,-43.43 -144.05,-18.78 -39.89,-69.98 -139.32,-80.02 -216.14,-55.78 -76.83,24.25 -144.47,73.21 -222.35,93.79 79.11,99.49 208.84,272.52 340.45,298.24 45.22,8.84 404.3,22.26 412.91,-16.88" /><path
         id="path102"
         style="fill:#6a79a8;fill-opacity:1;fill-rule:nonzero;stroke:none"
         d="m 9273.59,8000.18 c 15.41,-102.48 -72.51,-166 -167.05,-171.64 -4.17,-0.25 -33.57,-12.53 -22.93,-13.54 38.26,-3.62 56.93,-40.01 45.2,-75.09 -18.48,-55.26 -85.56,-71.11 -134.87,-48.23 -8.38,3.89 -29.85,-1.44 -34.93,-9.35 -56.43,-87.84 -167.59,-56.52 -245.27,-20.83 -31.43,14.44 -61.86,31.04 -93.59,44.84 -7.96,3.46 -42.75,12.51 -48.17,18.53 -10.26,11.39 -6.66,6.82 -0.89,20.99 8.78,21.55 36.11,45.5 50.84,63.33 23.28,28.18 47.24,55.81 72.68,82.08 46.99,48.54 105.8,106.45 173.57,122.87 67.14,16.25 145.15,10.51 213.68,10.35 41,-0.1 82.27,-0.67 123.11,-4.74 15.52,-1.54 61.58,-1.55 68.62,-19.57 3.08,-7.9 38.62,3.56 36.22,9.7 -12.98,33.26 -115.42,26.61 -142.3,27.54 -77.4,2.7 -155.31,1.13 -232.6,-4.01 -188.17,-12.51 -306,-176.43 -414.39,-313.08 -1.63,-2.04 1.82,-3.09 2.86,-3.39 102.57,-29.92 191.99,-105.88 302.41,-105.95 64.62,-0.05 132.63,21.61 168.87,78.01 -11.65,-3.12 -23.29,-6.24 -34.93,-9.35 50.56,-23.47 111.15,-18.37 158.2,11.86 50.64,32.53 79.02,129.07 -4.41,136.96 -7.64,-4.51 -15.29,-9.03 -22.93,-13.54 106.86,6.38 238.54,66.54 219.22,194.95 -0.96,6.36 -37.5,-1.17 -36.22,-9.7" /><path
         id="path104"
         style="fill:#ffffff;fill-opacity:1;fill-rule:nonzero;stroke:none"
         d="m 6362.59,9705.98 c 49.48,-11.1 87.47,-55.09 100.41,-104.11 12.94,-49.03 3.7,-101.81 -16.13,-148.47 9.48,24.2 40.85,34.79 65.47,26.49 24.63,-8.3 42.1,-31.26 50.24,-55.93 16.22,-49.14 -2.39,-107.69 -43.99,-138.45 46.51,-65.78 13.51,-160.1 -40.98,-219.43 -54.49,-59.34 -127.49,-99.88 -179.11,-161.73 -56.63,113.8 -158.46,304.59 -126.04,434.71 11.14,44.71 151.03,375.7 190.13,366.92" /><path
         id="path106"
         style="fill:#6a79a8;fill-opacity:1;fill-rule:nonzero;stroke:none"
         d="m 6348.06,9697.65 c 110.2,-31.91 116.44,-156.07 80.76,-246.75 -4.5,-11.43 30.4,-4.91 34.79,2.55 27.95,47.52 67.02,-3.3 76.02,-22.21 5.81,-12.2 9.26,-26.21 10.3,-39.65 3.14,-40.45 -15.22,-78.1 -45.7,-103.72 -3.25,-2.73 -4.84,-5.48 -2.51,-9.22 99.15,-159.46 -135.9,-278.38 -219.97,-374.35 11.62,1.64 23.24,3.27 34.86,4.91 -68.85,137.93 -173.11,311.74 -113.42,469.03 22.1,58.24 47.42,115.45 74.2,171.67 15.23,31.98 30.96,63.83 48.78,94.46 6.48,11.14 13.11,22.29 20.6,32.79 7.52,10.54 20.66,18.54 8.58,19.29 12.88,-0.8 38.77,17.55 14.49,19.06 -44.34,2.77 -71.25,-59.92 -88.19,-90.87 -37.18,-67.89 -68.9,-139.07 -98.31,-210.62 -27.39,-66.65 -42.27,-123.56 -29.2,-197.02 20.02,-112.53 75.72,-216.28 126.24,-317.5 5.71,-11.43 29,-1.78 34.86,4.91 60.85,69.45 148.76,113.29 201.5,190.03 20.84,30.32 36.62,65.45 40.96,102.23 1.96,16.61 1.54,33.61 -2.05,49.95 -3.22,14.69 -15.97,30.38 -11.93,45.57 2.83,10.63 21.55,25.13 27.31,36.16 8.12,15.54 13.02,32.15 14.69,49.56 2.94,30.66 -4.54,63.4 -25.2,87.01 -35.16,40.19 -103.4,34.34 -130.4,-11.57 11.6,0.85 23.2,1.7 34.8,2.55 37.81,96.12 27.53,225.01 -87.8,258.41 -10.26,2.97 -42.8,-12.68 -29.06,-16.66" /><path
         id="path108"
         style="fill:#5ce2a5;fill-opacity:1;fill-rule:nonzero;stroke:none"
         d="m 6170.63,8423.08 156.71,-390.43 c 55.24,35.96 91.93,78.63 110.07,128.01 18.14,49.35 17.54,98.12 -1.77,146.25 -20.75,51.71 -52.7,85.28 -95.83,100.77 -43.12,15.44 -99.52,20.59 -169.18,15.4 z m -219.48,219.31 -137.03,341.4 c -43.95,-34.89 -75.01,-70.13 -93.16,-105.71 -18.16,-35.58 -17.33,-78.02 2.47,-127.34 18.85,-46.95 46.15,-77.21 81.98,-90.78 35.8,-13.58 84.39,-19.43 145.74,-17.57 z m -132.22,656.94 38.63,-96.27 c 66.21,18.97 125.99,27.8 179.32,26.43 53.34,-1.37 104.92,-15.17 154.78,-41.38 38.91,-19.57 72.07,-42.49 99.51,-68.73 27.44,-26.24 46.53,-52.74 57.27,-79.48 11.93,-29.73 11.4,-59.78 -1.59,-90.17 -13,-30.41 -34.93,-51.8 -65.83,-64.2 -58.25,-23.38 -108.62,-7.03 -151.13,49.05 -49.43,66.41 -116.47,96.77 -201.12,91.08 l 148.84,-370.82 c 81.79,9.37 147.87,14.49 198.22,15.39 50.36,0.89 99.09,-7.49 146.21,-25.14 49.95,-17.91 94.01,-45.6 132.18,-83.06 38.15,-37.47 68.08,-83.26 89.79,-137.33 27.19,-67.74 36.74,-137.56 28.68,-209.45 -8.05,-71.9 -35.48,-138.96 -82.24,-201.2 -46.79,-62.24 -111.23,-113.99 -193.35,-155.23 l 89.09,-221.95 c 14.07,-35.07 20.91,-62.01 20.51,-80.79 -0.39,-18.79 -12.17,-32.83 -35.35,-42.13 -21.39,-8.59 -39.03,-8.07 -52.88,1.54 -13.87,9.61 -26.29,28.09 -37.26,55.43 l -96.6,240.68 c -72.62,-20.18 -139.96,-28.24 -201.97,-24.15 -62.03,4.09 -117.86,17.72 -167.53,40.92 -49.67,23.18 -90.89,51.5 -123.62,84.94 -32.75,33.42 -56.86,69.45 -72.37,108.09 -11.44,28.52 -10.61,58.7 2.48,90.52 13.11,31.83 36.29,54.41 69.57,67.77 26.74,10.73 51.83,13.55 75.26,8.47 23.42,-5.08 43.25,-17.48 59.45,-37.21 35.6,-42.29 64.52,-73.97 86.79,-95.06 22.26,-21.07 49.71,-37.48 82.38,-49.2 32.65,-11.75 71.15,-15.27 115.5,-10.57 l -166.37,414.5 c -88.47,-9.99 -164.85,-12.18 -229.19,-6.61 -64.34,5.57 -123.17,26.64 -176.48,63.21 -53.33,36.56 -95.72,94.06 -127.2,172.51 -41.03,102.2 -42.12,199.05 -3.29,290.55 38.83,91.48 117.61,167.26 236.33,227.34 l -37.92,94.49 c -20.04,49.92 -11.33,82.39 26.1,97.41 38.02,15.27 66.83,-1.47 86.4,-50.19" /><path
         id="path110"
         style="fill:#5ce2a5;fill-opacity:1;fill-rule:nonzero;stroke:none"
         d="m 8049.57,7589.66 -265.32,-326.48 c 58.25,-30.86 113.36,-42.23 165.34,-34.13 51.95,8.09 94.31,32.28 127.02,72.53 35.14,43.23 48.99,87.45 41.6,132.68 -7.42,45.2 -30.29,97.01 -68.64,155.4 z m 85.26,298.33 232,285.5 c -51.84,21.49 -97.72,31.54 -137.63,30.15 -39.92,-1.39 -76.63,-22.71 -110.15,-63.96 -31.9,-39.26 -45.11,-77.82 -39.59,-115.73 5.51,-37.89 23.97,-83.21 55.37,-135.96 z m 510.23,434.41 -65.42,-80.49 c 48.71,-48.69 85.44,-96.67 110.12,-143.97 24.69,-47.3 37.66,-99.1 38.94,-155.41 1.76,-43.52 -2.18,-83.64 -11.81,-120.37 -9.63,-36.72 -23.53,-66.27 -41.71,-88.64 -20.2,-24.85 -46.73,-38.97 -79.6,-42.36 -32.9,-3.4 -62.25,5.4 -88.09,26.4 -48.7,39.58 -58.85,91.56 -30.45,155.95 34.08,75.44 28.09,148.79 -17.96,220.05 l -252.01,-310.09 c 47.89,-66.97 84.44,-122.27 109.66,-165.85 25.22,-43.6 41.53,-90.28 48.96,-140.04 8.59,-52.37 5.76,-104.33 -8.47,-155.88 -14.25,-51.54 -39.76,-99.93 -76.5,-145.15 -46.04,-56.65 -102.45,-98.89 -169.21,-126.72 -66.78,-27.86 -138.72,-36.41 -215.84,-25.73 -77.13,10.7 -153.64,41.94 -229.56,93.72 l -150.83,-185.61 c -23.83,-29.31 -44.07,-48.36 -60.68,-57.13 -16.62,-8.78 -34.61,-5.29 -53.99,10.46 -17.89,14.54 -26,30.21 -24.32,46.99 1.68,16.79 11.81,36.61 30.38,59.47 l 163.56,201.26 c -52.88,53.71 -92.6,108.68 -119.12,164.88 -26.52,56.22 -41.7,111.65 -45.52,166.34 -3.84,54.68 0.92,104.46 14.27,149.31 13.34,44.85 33.14,83.41 59.4,115.73 19.38,23.85 46.17,37.76 80.35,41.76 34.18,3.98 65.18,-5.33 93.01,-27.95 22.37,-18.17 37,-38.73 43.94,-61.69 6.91,-22.95 5.69,-46.3 -3.69,-70.03 -19.7,-51.66 -33.37,-92.32 -41,-122.02 -7.62,-29.69 -8.65,-61.66 -3.05,-95.91 5.58,-34.25 21.18,-69.62 46.81,-106.12 l 281.69,346.62 c -51.66,72.51 -90.65,138.23 -117,197.19 -26.35,58.95 -36.48,120.62 -30.37,184.98 6.08,64.36 35.79,129.33 89.1,194.93 69.45,85.47 153.61,133.42 252.45,143.88 98.83,10.43 203.32,-21.67 313.47,-96.32 l 64.21,79.01 c 33.92,41.75 66.54,49.9 97.84,24.46 31.8,-25.84 31.15,-59.16 -1.96,-99.91" /><path
         id="path112"
         style="fill:#5ce2a5;fill-opacity:1;fill-rule:nonzero;stroke:none"
         d="m 7300.51,8944.5 -65.82,-415.52 c 65.87,2.51 119.26,20.31 160.16,53.39 40.89,33.05 65.41,75.22 73.52,126.44 8.73,55.03 -1.47,100.24 -30.54,135.66 -29.09,35.38 -74.86,68.74 -137.32,100.03 z m -75.85,300.85 57.55,363.35 c -55.63,-7.4 -100.37,-21.71 -134.2,-42.93 -33.84,-21.23 -54.91,-58.08 -63.22,-110.58 -7.91,-49.96 0,-89.95 23.79,-119.97 23.76,-30.03 62.47,-59.98 116.08,-89.87 z m 223.58,631.72 -16.24,-102.45 c 66.56,-17.7 122.4,-40.79 167.48,-69.33 45.08,-28.54 82.27,-66.85 111.62,-114.93 23.35,-36.76 40.06,-73.45 50.15,-110.06 10.09,-36.6 12.88,-69.14 8.37,-97.6 -5.01,-31.64 -20.89,-57.15 -47.63,-76.57 -26.76,-19.44 -56.56,-26.55 -89.45,-21.34 -61.98,9.82 -96.83,49.7 -104.55,119.65 -8.35,82.36 -50.31,142.82 -125.89,181.37 l -62.52,-394.66 c 75.01,-33.92 134.37,-63.43 178.05,-88.49 43.68,-25.07 81.2,-57.27 112.59,-96.6 33.69,-41 57.3,-87.37 70.83,-139.11 13.52,-51.74 15.72,-106.4 6.61,-163.95 -11.42,-72.09 -39.04,-136.92 -82.84,-194.49 -43.81,-57.59 -101.76,-101.07 -173.83,-130.5 -72.1,-29.42 -153.96,-40.77 -245.61,-34.04 l -37.41,-236.22 c -5.92,-37.31 -13.87,-63.94 -23.85,-79.86 -9.98,-15.93 -27.29,-21.94 -51.96,-18.02 -22.77,3.6 -37.64,13.09 -44.6,28.45 -6.97,15.37 -8.14,37.6 -3.54,66.69 l 40.58,256.15 c -72.69,19.95 -134.63,47.58 -185.75,82.91 -51.14,35.33 -92.07,75.68 -122.8,121.07 -30.74,45.39 -51.59,90.85 -62.53,136.34 -10.95,45.5 -13.16,88.79 -6.65,129.91 4.81,30.36 21.01,55.83 48.58,76.43 27.57,20.59 59.06,28.08 94.48,22.47 28.46,-4.51 51.44,-14.96 68.95,-31.34 17.49,-16.39 28.15,-37.21 31.93,-62.44 8.86,-54.57 17.43,-96.6 25.72,-126.13 8.29,-29.51 23.44,-57.68 45.46,-84.5 22,-26.84 53.24,-49.62 93.72,-68.34 l 69.87,441.15 c -81.05,36.82 -147.74,74.13 -200.11,111.92 -52.36,37.79 -92.05,86.06 -119.04,144.8 -27.02,58.74 -33.9,129.85 -20.67,213.34 17.22,108.77 65.98,192.46 146.26,251.08 80.27,58.59 186.77,83.22 319.5,73.87 l 15.93,100.56 c 8.41,53.13 32.55,76.54 72.38,70.22 40.47,-6.4 56.61,-35.56 48.41,-87.41" /><path
         id="path114"
         style="fill:#6a79a8;fill-opacity:1;fill-rule:nonzero;stroke:none"
         d="m 5898.2,5715.49 c 140.42,86.93 259.58,206.47 367.45,330.46 120.34,138.34 223.37,290.39 312.05,450.75 188.57,340.96 319.25,713.64 402.18,1093.78 24.42,111.95 44.38,224.79 60.44,338.24 3.16,22.35 7.62,45.05 8.47,67.66 0.88,23.72 -6.44,46.34 -5.65,69.87 2.1,62.01 86.06,68.49 120.34,26.06 7.43,-9.2 42.27,3.32 33.71,13.91 -29.58,36.61 -86.56,38.63 -128.49,25.5 -18.78,-5.87 -37.98,-15.69 -50.33,-31.46 -25.02,-31.96 -5.51,-73.5 -6.42,-109.9 -2.63,-105.97 -30.12,-216.84 -50.7,-320.57 -21.68,-109.25 -47.4,-217.7 -77.16,-325.03 -112.46,-405.6 -279.83,-806.92 -530.67,-1147.31 -130.99,-177.76 -288.3,-354.97 -477.47,-472.07 -20.72,-12.83 11.01,-16.85 22.25,-9.89 v 0" /><path
         id="path116"
         style="fill:#6a79a8;fill-opacity:1;fill-rule:nonzero;stroke:none"
         d="m 5897.02,5660.46 c 241.87,248.31 397.12,570.96 478.32,905.76 43.33,178.68 65.82,362.49 66.62,546.35 0.42,96.38 -5.31,192.84 -17.68,288.43 -5.27,40.73 -7.42,84.64 -21.9,123.25 -6.75,18.02 -24.17,37.8 -26.95,56.73 -6.92,46.94 86.08,75.22 98.75,22.55 2.85,-11.87 39.17,-2.56 36.22,9.7 -17.72,73.69 -189.62,33.51 -172.93,-37.02 7.74,-32.69 30.52,-59.77 37.57,-93.57 8.83,-42.36 12.85,-86.63 17.6,-129.63 9.84,-89.03 14,-178.64 12.87,-268.2 -4.18,-331.25 -78.63,-664.58 -222.82,-963.22 -80.68,-167.1 -184.88,-322.79 -314.53,-455.88 -14.49,-14.87 20.86,-13.47 28.86,-5.25 v 0" /><path
         id="path118"
         style="fill:#6a79a8;fill-opacity:1;fill-rule:nonzero;stroke:none"
         d="m 5908.73,5749.06 c 479.3,195.7 994.6,440.2 1299.21,877.88 42.01,60.37 78.37,124.07 110.54,190.17 19.76,40.6 32.38,79.87 46.93,121.98 4.06,11.73 5.73,17.34 14.1,28.29 16.26,21.28 65.82,32.92 89.6,18.77 23.45,-13.95 39.24,-45.03 39.78,-70.87 0.22,-10.58 36.5,-3.8 36.22,9.71 -1.23,58.94 -57.88,99.44 -114,91.77 -58.47,-7.98 -90.75,-42.05 -105.64,-96.95 -40.19,-148.22 -140.64,-291.1 -239.5,-406.87 -199.03,-233.07 -462.15,-403.67 -732.62,-542.6 -149.33,-76.7 -303.31,-143.9 -458.67,-207.34 -23.43,-9.57 -1.99,-20.49 14.05,-13.94 v 0" /><path
         id="path120"
         style="fill:#6a79a8;fill-opacity:1;fill-rule:nonzero;stroke:none"
         d="m 6338.58,7653.39 c -2.12,19.71 34.43,28.49 48.28,31.02 30.55,5.58 56.04,-4.61 81.94,-19.9 12.37,-7.29 44.85,9.9 28.25,19.69 -41.72,24.62 -85.11,33.49 -132.08,18.64 -26.98,-8.53 -66.25,-25.28 -62.61,-59.15 1.6,-14.92 37.95,-6.41 36.22,9.7 v 0" /><path
         id="path122"
         style="fill:#6a79a8;fill-opacity:1;fill-rule:nonzero;stroke:none"
         d="m 7041.91,8146.73 c -2.11,19.7 34.43,28.48 48.29,31.01 30.54,5.58 56.03,-4.61 81.94,-19.89 12.37,-7.3 44.85,9.89 28.24,19.68 -41.71,24.62 -85.11,33.49 -132.08,18.64 -26.98,-8.53 -66.25,-25.27 -62.61,-59.15 1.6,-14.92 37.95,-6.41 36.22,9.71 v 0" /><path
         id="path124"
         style="fill:#6a79a8;fill-opacity:1;fill-rule:nonzero;stroke:none"
         d="m 7453.04,7049.36 c 7.27,13.69 55.33,-9.48 62.91,-14.1 23.63,-14.44 38.3,-37.45 49.25,-62.28 6.51,-14.76 42.31,-4.1 36.22,9.71 -18.74,42.48 -46.96,73.74 -92.31,87.51 -29.21,8.87 -73.34,14.18 -90.37,-17.91 -9.06,-17.07 27.51,-15.74 34.3,-2.93 v 0" /></g></g></svg>