<?xml version="1.0" encoding="UTF-8" standalone="no"?>
<svg
   xmlns:dc="http://purl.org/dc/elements/1.1/"
   xmlns:cc="http://creativecommons.org/ns#"
   xmlns:rdf="http://www.w3.org/1999/02/22-rdf-syntax-ns#"
   xmlns:svg="http://www.w3.org/2000/svg"
   xmlns="http://www.w3.org/2000/svg"
   viewBox="0 0 1600 1600"
   height="1600"
   width="1600"
   xml:space="preserve"
   id="svg2"
   version="1.1"><metadata
     id="metadata8"><rdf:RDF><cc:Work
         rdf:about=""><dc:format>image/svg+xml</dc:format><dc:type
           rdf:resource="http://purl.org/dc/dcmitype/StillImage" /></cc:Work></rdf:RDF></metadata><defs
     id="defs6" /><g
     transform="matrix(1.3333333,0,0,-1.3333333,0,1600)"
     id="g10"><g
       transform="scale(0.1)"
       id="g12"><path
         id="path14"
         style="fill:#fafafa;fill-opacity:1;fill-rule:nonzero;stroke:none"
         d="M 12000,0 H 0 V 12000 H 12000 V 0" /><path
         id="path16"
         style="fill:#ffffff;fill-opacity:1;fill-rule:nonzero;stroke:none"
         d="M 2754.94,8804.68 H 5521.3 c 13.5,265.38 -118.26,531.15 -353.54,654.63 -235.29,123.48 -541.3,97.14 -752.03,-64.73 -188.56,162.52 -384.47,329.21 -622.39,402.45 -237.93,73.23 -531.07,27.94 -677.96,-173.05 -101.5,-138.87 -115.41,-328.78 -65.62,-493.43 -215.47,1.67 -431,-3.4 -646.15,-15.21 -122.71,-6.74 -289.99,-42.46 -296.11,-165.2 -9.16,-184.01 647.44,-145.46 647.44,-145.46" /><path
         id="path18"
         style="fill:#ffffff;fill-opacity:1;fill-rule:nonzero;stroke:none"
         d="m 9257.85,8766.07 c -51.4,27.28 -109.37,31.86 -165.64,19.09 -33.92,-7.7 -66.65,-19.82 -99.85,-30.03 -63.24,-19.45 -68.74,-35.99 -94.51,19.05 -28.15,60.09 6.33,121.75 -48.78,184.4 -39.68,45.13 -97.81,71.4 -157.9,71.4 -21.86,0 -42.92,-3.33 -62.72,-9.51 -41.69,98.1 -89.87,191.92 -169.3,268.29 -157.96,151.85 -398.97,215.25 -604.97,130.12 -92.47,-38.22 -173.37,-101.2 -238.44,-176.71 -34.04,-39.5 -63.88,-82.58 -89.33,-128.08 -23.07,-41.28 -33.27,-95.05 -61.03,-132.44 -60.86,22.92 -117.02,53.16 -180.47,70.66 -124.3,34.28 -259.46,40.97 -368.26,-39.93 -89.33,-66.42 -145.91,-186.47 -117.05,-297.42 16.37,-62.91 46.22,-109.44 109.98,-110.34 90.21,-1.28 180.52,0 270.74,0 323.09,0 646.18,0 969.27,0 321.11,0 642.23,0 963.34,0 100.88,0 302.63,0 302.63,0 0,0 -64.75,112.13 -157.71,161.45" /><path
         id="path20"
         style="fill:#ffffff;fill-opacity:1;fill-rule:nonzero;stroke:none"
         d="m 10336.4,8002.83 c 29.5,154.51 -26.4,324.61 -140.9,434.65 -143,137.37 -361.04,194.71 -547.43,117.68 -83.67,-34.58 -156.89,-91.57 -215.77,-159.91 -30.8,-35.74 -57.81,-74.73 -80.84,-115.9 -20.87,-37.35 -30.1,-86.01 -55.23,-119.85 -55.07,20.74 -105.89,48.1 -163.31,63.94 -112.48,31.02 -234.8,37.08 -333.25,-36.13 -82.03,-60.99 -133.32,-171.82 -104.8,-273.27 10.12,-35.99 36.55,-94.83 76.92,-98.25 11.71,-0.99 23.95,0 35.7,0 108.82,0 217.64,0 326.47,0 158.87,0 317.74,0 476.61,0 145.03,0 290.06,0 435.13,0 39.2,0 78.4,0 117.7,0 20.4,0 40.8,-0.13 61.2,0 23.9,0.15 27,4.48 41.2,23.8 36.5,49.56 59.6,105.31 70.6,163.24" /><path
         id="path22"
         style="fill:#ffffff;fill-opacity:1;fill-rule:nonzero;stroke:none"
         d="m 1533.67,7776.98 c -29.49,154.51 26.47,324.61 140.97,434.65 142.94,137.37 361,194.71 547.39,117.68 83.67,-34.58 156.89,-91.57 215.77,-159.91 30.8,-35.74 57.81,-74.73 80.84,-115.9 20.88,-37.35 30.1,-86.01 55.23,-119.85 55.07,20.74 105.9,48.1 163.31,63.94 112.48,31.02 234.8,37.08 333.26,-36.13 82.02,-60.99 133.31,-171.82 104.79,-273.27 -10.11,-36 -36.54,-94.83 -76.91,-98.25 -11.71,-1 -23.96,0 -35.7,0 -108.83,0 -217.65,0 -326.48,0 -158.87,0 -317.74,0 -476.61,0 -145.03,0 -290.06,0 -435.09,0 -39.24,0 -78.48,0 -117.72,0 -20.41,0 -40.81,-0.13 -61.22,0 -23.92,0.14 -26.96,4.48 -41.19,23.8 -36.5,49.56 -59.58,105.3 -70.64,163.24" /><path
         id="path24"
         style="fill:#ffffff;fill-opacity:1;fill-rule:nonzero;stroke:none"
         d="m 7244.47,3311.92 515.81,515.81 -277.21,277.22 c -31.04,31.04 -9.06,84.11 34.84,84.11 h 884.66 c 27.83,0 50.38,-22.56 50.38,-50.38 v -884.67 c 0,-43.89 -53.07,-65.87 -84.11,-34.83 l -268.53,268.53 -515.81,-515.81 -340.03,340.02" /><path
         id="path26"
         style="fill:#ffffff;fill-opacity:1;fill-rule:nonzero;stroke:none"
         d="m 7389.11,3401.27 399.3,401.2 -258.23,257.04 c -28.91,28.78 3.52,90.27 44.83,90.88 l 832.42,12.19 c 26.07,0.38 47.19,-20.64 46.93,-46.71 l -8.34,-832.47 c 0,-85.25 -39.62,-96.3 -90.72,-45.2 l -250.14,248.99 -478.97,-481.24 -236.71,235.61 c -44.2,44 -44.37,115.5 -0.37,159.71" /><path
         id="path28"
         style="fill:#6a79a8;fill-opacity:1;fill-rule:nonzero;stroke:none"
         d="m 7264.51,3305.44 c 171.94,171.94 343.88,343.88 515.81,515.82 3.94,3.93 6.79,12.22 2.14,16.87 -65.62,65.62 -131.24,131.24 -196.86,196.86 -25.39,25.39 -58.23,50.3 -79.42,79.42 -29.45,40.44 -1.54,57.85 33.05,57.85 210.04,0 420.08,0 630.11,0 48.58,0 97.16,0 145.74,0 23.49,0 55.05,5.61 78.02,0 55.22,-13.47 35.45,-115.59 35.45,-157.45 0,-224.89 0,-449.78 0,-674.67 0,-27.88 2.18,-56.74 0,-84.55 -5.43,-69.54 -60.49,-3.06 -78.18,14.62 -75.96,75.96 -151.92,151.93 -227.89,227.89 -11.54,11.55 -31.68,6.61 -42.21,-3.91 -171.93,-171.94 -343.87,-343.88 -515.81,-515.82 14.07,1.31 28.14,2.62 42.21,3.92 -113.34,113.34 -226.68,226.69 -340.02,340.03 -14.68,14.67 -60.47,-4.67 -44.35,-20.79 113.34,-113.34 226.69,-226.69 340.03,-340.03 11.54,-11.55 31.69,-6.6 42.21,3.92 171.93,171.93 343.87,343.87 515.81,515.81 -14.07,-1.31 -28.14,-2.61 -42.21,-3.92 75.96,-75.96 151.93,-151.92 227.89,-227.89 26.68,-26.68 51.9,-61.66 93.23,-61.33 44.48,0.35 76.08,31.9 78.09,75.1 10.42,223.26 0,449.42 0,672.91 0,68.08 7.8,141.29 -0.25,209.05 -9.89,83.34 -135.09,60.7 -193.93,60.7 -241.07,0 -482.14,0 -723.21,0 -31.73,0 -63.87,3.04 -90.37,-18.76 -48.51,-39.9 -16.62,-84.61 16.62,-117.85 83.97,-83.97 167.94,-167.93 251.9,-251.9 0.71,5.62 1.43,11.25 2.14,16.87 -171.94,-171.93 -343.88,-343.87 -515.81,-515.81 -21.08,-21.07 25.62,-27.41 40.07,-12.96" /><path
         id="path30"
         style="fill:#96e296;fill-opacity:1;fill-rule:nonzero;stroke:none"
         d="m 3750,2854.16 1557.58,1557.58 -837.1,837.09 c -93.72,93.73 -27.34,253.99 105.21,253.99 h 2671.39 c 84.02,0 152.13,-68.11 152.13,-152.13 v -2671.4 c 0,-132.54 -160.26,-198.93 -253.98,-105.2 L 6334.35,3384.97 4776.77,1827.4 3750,2854.16" /><path
         id="path32"
         style="fill:#bbf9bc;fill-opacity:1;fill-rule:nonzero;stroke:none"
         d="m 4186.75,3123.96 1205.77,1211.5 -779.77,776.17 c -87.31,86.9 10.63,272.59 135.35,274.41 l 2513.65,36.83 c 78.73,1.15 142.5,-62.32 141.71,-141.06 l -25.19,-2513.79 c 0,-257.43 -119.63,-290.78 -273.94,-136.47 L 6348.98,3383.42 4902.65,1930.2 4187.88,2641.69 c -133.48,132.87 -133.99,348.78 -1.13,482.27" /><path
         id="path34"
         style="fill:#6a79a8;fill-opacity:1;fill-rule:nonzero;stroke:none"
         d="m 3771.9,2855.82 c 175.11,175.11 350.22,350.22 525.33,525.33 279.46,279.47 558.93,558.93 838.39,838.39 64.62,64.62 129.24,129.24 193.86,193.86 2.18,2.19 3.15,4.33 0.83,6.64 -205.29,205.3 -410.58,410.59 -615.88,615.88 -73.46,73.47 -151.02,144.51 -221.17,221.18 -68.29,74.63 -50.36,226.75 69.24,235.65 19.74,1.47 40.18,0 59.96,0 273.91,0 547.82,0 821.72,0 381.5,0 763,0 1144.5,0 212.33,0 425.63,5.95 637.9,0 84.8,-2.38 145.4,-65.35 148.48,-149.55 0.65,-17.73 0,-35.6 0,-53.34 0,-104.54 0,-209.09 0,-313.63 0,-359.17 0,-718.35 0,-1077.52 0,-334.77 0,-669.54 0,-1004.3 0,-71.42 1.95,-143.15 0,-214.55 -2.49,-91.34 -79.99,-175.31 -174.23,-122.49 -31.32,17.56 -57.17,49.33 -82.31,74.47 -233.57,233.57 -467.15,467.14 -700.72,700.72 -20.24,20.24 -40.48,40.48 -60.72,60.71 -8.51,8.51 -37.6,-2.94 -44.63,-9.97 -175.11,-175.11 -350.22,-350.22 -525.33,-525.33 -279.47,-279.46 -558.93,-558.92 -838.39,-838.38 -64.62,-64.59 -129.24,-129.29 -193.86,-193.89 14.88,3.3 29.75,6.7 44.63,10 -299.78,299.78 -599.57,599.56 -899.35,899.35 -42.47,42.47 -84.95,84.94 -127.42,127.41 -8.95,8.96 -53.28,-8.79 -45.46,-16.61 299.78,-299.78 599.57,-599.57 899.35,-899.35 42.47,-42.5 84.95,-84.9 127.42,-127.4 8.51,-8.5 37.6,2.9 44.63,10 175.11,175.06 350.22,350.17 525.33,525.29 279.46,279.46 558.93,558.92 838.39,838.38 64.62,64.62 129.24,129.24 193.86,193.86 -14.88,-3.32 -29.75,-6.64 -44.63,-9.97 262.12,-262.12 524.24,-524.24 786.37,-786.37 58.16,-58.15 125.1,-86.6 207.96,-57.91 76.29,26.41 116.86,88.41 117.41,167.38 0.84,120.37 0,240.79 0,361.16 0,480.15 0,960.29 0,1440.43 0,205.49 0,410.98 0,616.46 0,60.62 0,121.23 0,181.85 0,36.46 3.39,75.91 -9.52,110.58 -47.75,128.29 -204.26,102.65 -312.68,102.65 -189.95,0 -379.9,0 -569.86,0 -487.69,0 -975.38,0 -1463.06,0 -144.31,0 -288.62,0 -432.93,0 -38.82,0 -76.88,1.28 -114.47,-11.37 -114.55,-38.55 -155.98,-172.87 -71.14,-262.93 119.68,-127.07 247.41,-247.42 370.83,-370.84 146.79,-146.79 293.58,-293.58 440.37,-440.37 7.79,-7.79 21.64,-28.96 24.5,-17.58 -1.47,-5.87 -15.31,-15.32 -19.45,-19.45 -39.83,-39.83 -79.65,-79.65 -119.47,-119.48 -149.09,-149.09 -298.18,-298.18 -447.27,-447.26 -304.75,-304.75 -609.49,-609.5 -914.24,-914.24 -18.96,-18.96 -37.91,-37.92 -56.87,-56.88 -10.24,-10.23 35.27,-5.2 43.8,3.33" /><path
         id="path36"
         style="fill:#ffffff;fill-opacity:1;fill-rule:nonzero;stroke:none"
         d="m 3292.48,3544.48 677.83,677.82 -364.29,364.29 c -40.79,40.79 -11.9,110.53 45.78,110.53 h 1162.54 c 36.56,0 66.2,-29.64 66.2,-66.21 V 3468.38 c 0,-57.68 -69.74,-86.57 -110.53,-45.78 l -352.87,352.87 -677.83,-677.82 -446.83,446.83" /><path
         id="path38"
         style="fill:#ffffff;fill-opacity:1;fill-rule:nonzero;stroke:none"
         d="m 3482.54,3661.89 524.73,527.22 -339.34,337.77 c -38,37.82 4.62,118.63 58.9,119.42 l 1093.89,16.03 c 34.26,0.5 62.01,-27.12 61.67,-61.39 l -10.96,-1093.95 c 0,-112.03 -52.06,-126.54 -119.21,-59.39 l -328.72,327.2 -629.41,-632.4 -311.06,309.62 c -58.08,57.82 -58.3,151.78 -0.49,209.87" /><path
         id="path40"
         style="fill:#6a79a8;fill-opacity:1;fill-rule:nonzero;stroke:none"
         d="m 3311.96,3540.07 c 197.43,197.43 394.86,394.85 592.29,592.28 28.51,28.52 57.02,57.03 85.54,85.55 3.48,3.48 7.42,9.5 2.9,14.02 -85.72,85.72 -171.44,171.44 -257.16,257.16 -34.78,34.78 -74.59,68.06 -105.99,105.99 -22.17,26.77 -28.26,77.12 15.8,87.81 8.79,2.13 20.81,0 29.79,0 280.1,0 560.2,0 840.3,0 62.42,0 124.84,0 187.26,0 31.11,0 66.1,4.52 96.97,0 49.41,-7.23 56.69,-41.08 56.69,-80.59 0,-44.08 0,-88.15 0,-132.23 0,-296.65 0,-593.3 0,-889.95 0,-35.19 0.85,-70.5 0,-105.69 -0.75,-30.91 -19.72,-63.84 -56.1,-47.68 -12.22,5.42 -23,20.62 -32.07,29.68 -100.83,100.84 -201.66,201.67 -302.49,302.5 -8.73,8.72 -17.45,17.45 -26.17,26.17 -10.08,10.07 -33.06,3.59 -41.87,-5.21 -197.43,-197.43 -394.85,-394.86 -592.28,-592.28 -28.52,-28.52 -57.03,-57.03 -85.54,-85.55 13.95,1.74 27.9,3.48 41.86,5.21 -148.94,148.95 -297.89,297.89 -446.83,446.83 -12.39,12.39 -58.2,-5.79 -44.76,-19.23 148.94,-148.94 297.88,-297.89 446.83,-446.83 10.07,-10.07 33.06,-3.59 41.86,5.21 197.43,197.43 394.86,394.86 592.29,592.28 28.51,28.52 57.02,57.03 85.54,85.55 -13.96,-1.74 -27.91,-3.48 -41.87,-5.21 97,-97 193.99,-193.99 290.99,-290.98 32.96,-32.97 69.06,-84.5 120.04,-85.4 57.96,-1.01 97.97,39.11 98.95,94.96 5.17,295 0,590.53 0,885.57 0,87.65 6.52,178.09 -0.02,265.57 -8.03,107.37 -181.51,75.77 -253.53,75.77 -312.47,0 -624.93,0 -937.4,0 -30.32,0 -65.91,3.83 -94.52,-7.68 -68.64,-27.63 -66.33,-95.99 -20.69,-141.62 106.79,-106.79 213.58,-213.58 320.37,-320.37 9.66,-9.67 19.32,-19.33 28.99,-28.99 0.96,4.67 1.93,9.35 2.89,14.02 -197.42,-197.43 -394.85,-394.86 -592.28,-592.28 -28.52,-28.52 -57.03,-57.03 -85.54,-85.55 -20.1,-20.09 27.07,-20.7 38.96,-8.81" /><path
         id="path42"
         style="fill:#e5e5e5;fill-opacity:1;fill-rule:nonzero;stroke:none"
         d="m 3021.17,5330.67 440.8,440.8 -236.9,236.89 c -26.52,26.53 -7.74,71.88 29.77,71.88 h 756.01 c 23.78,0 43.05,-19.27 43.05,-43.05 v -756.01 c 0,-37.51 -45.35,-56.3 -71.87,-29.77 l -229.48,229.48 -440.8,-440.8 -290.58,290.58" /><path
         id="path44"
         style="fill:#ffffff;fill-opacity:1;fill-rule:nonzero;stroke:none"
         d="m 3070.02,5330.67 440.8,440.8 -236.9,236.89 c -26.52,26.53 -7.74,71.88 29.77,71.88 h 756.01 c 23.78,0 43.05,-19.27 43.05,-43.05 v -756.01 c 0,-37.51 -45.35,-56.3 -71.87,-29.77 l -229.48,229.48 -440.8,-440.8 -290.58,290.58" /><path
         id="path46"
         style="fill:#e5e5e5;fill-opacity:1;fill-rule:nonzero;stroke:none"
         d="m 8447.9,2986.41 707.23,707.24 -380.09,380.09 c -42.56,42.55 -12.41,115.32 47.77,115.32 h 1212.99 c 38.1,0 69.1,-30.93 69.1,-69.08 V 2907.01 c 0,-60.18 -72.8,-90.32 -115.37,-47.76 l -368.18,368.18 -707.24,-707.23 -466.21,466.21" /><path
         id="path48"
         style="fill:#ffffff;fill-opacity:1;fill-rule:nonzero;stroke:none"
         d="m 8526.27,2986.41 707.24,707.24 -380.09,380.09 c -42.56,42.55 -12.42,115.32 47.76,115.32 h 1213.02 c 38.1,0 69,-30.93 69,-69.08 V 2907.01 c 0,-60.18 -72.7,-90.32 -115.3,-47.76 l -368.18,368.18 -707.23,-707.23 -466.22,466.21" /><path
         id="path50"
         style="fill:#e5e5e5;fill-opacity:1;fill-rule:nonzero;stroke:none"
         d="m 7563.73,5262.07 456.79,456.79 -245.5,245.5 c -27.48,27.49 -8.02,74.48 30.85,74.48 h 783.44 c 24.64,0 44.62,-19.97 44.62,-44.61 v -783.44 c 0,-38.87 -47,-58.34 -74.49,-30.85 l -237.8,237.8 -456.79,-456.79 -301.12,301.12" /><path
         id="path52"
         style="fill:#ffffff;fill-opacity:1;fill-rule:nonzero;stroke:none"
         d="m 7614.35,5262.07 456.79,456.79 -245.5,245.5 c -27.48,27.49 -8.02,74.48 30.86,74.48 h 783.43 c 24.64,0 44.62,-19.97 44.62,-44.61 v -783.44 c 0,-38.87 -47,-58.34 -74.49,-30.85 l -237.8,237.8 -456.79,-456.79 -301.12,301.12" /><path
         id="path54"
         style="fill:#e5e5e5;fill-opacity:1;fill-rule:nonzero;stroke:none"
         d="m 8970.15,4841.55 380.94,380.93 -204.73,204.73 c -22.92,22.92 -6.69,62.12 25.73,62.12 h 653.34 c 20.55,0 37.21,-16.66 37.21,-37.21 v -653.34 c 0,-32.42 -39.2,-48.65 -62.12,-25.73 l -198.31,198.32 -380.94,-380.94 -251.12,251.12" /><path
         id="path56"
         style="fill:#ffffff;fill-opacity:1;fill-rule:nonzero;stroke:none"
         d="m 9012.37,4841.55 380.93,380.93 -204.72,204.73 c -22.93,22.92 -6.69,62.12 25.73,62.12 h 653.34 c 20.55,0 37.2,-16.66 37.2,-37.21 v -653.34 c 0,-32.42 -39.19,-48.65 -62.11,-25.73 l -198.32,198.32 -380.94,-380.94 -251.11,251.12" /><path
         id="path58"
         style="fill:#e5e5e5;fill-opacity:1;fill-rule:nonzero;stroke:none"
         d="m 2150.15,2424.11 380.94,380.94 -204.73,204.73 c -22.92,22.92 -6.69,62.12 25.73,62.12 h 653.34 c 20.55,0 37.21,-16.66 37.21,-37.21 v -653.34 c 0,-32.42 -39.19,-48.65 -62.12,-25.73 L 2782.21,2553.93 2401.27,2173 2150.15,2424.11" /><path
         id="path60"
         style="fill:#ffffff;fill-opacity:1;fill-rule:nonzero;stroke:none"
         d="m 2192.37,2424.11 380.93,380.94 -204.72,204.73 c -22.93,22.92 -6.69,62.12 25.73,62.12 h 653.34 c 20.55,0 37.2,-16.66 37.2,-37.21 v -653.34 c 0,-32.42 -39.19,-48.65 -62.11,-25.73 L 2824.42,2553.93 2443.48,2173 2192.37,2424.11" /><path
         id="path62"
         style="fill:#e5e5e5;fill-opacity:1;fill-rule:nonzero;stroke:none"
         d="m 1732.62,3796.63 607.09,607.09 -326.27,326.27 c -36.53,36.53 -10.66,98.99 41,98.99 h 1041.21 c 32.75,0 59.3,-26.54 59.3,-59.29 V 3728.47 c 0,-51.66 -62.46,-77.53 -99,-41 l -316.05,316.05 -607.08,-607.09 -400.2,400.2" /><path
         id="path64"
         style="fill:#ffffff;fill-opacity:1;fill-rule:nonzero;stroke:none"
         d="m 1799.89,3796.63 607.09,607.09 -326.27,326.27 c -36.53,36.53 -10.66,98.99 41.01,98.99 h 1041.21 c 32.75,0 59.29,-26.54 59.29,-59.29 V 3728.47 c 0,-51.66 -62.46,-77.53 -98.99,-41 l -316.05,316.05 -607.09,-607.09 -400.2,400.2" /><path
         id="path66"
         style="fill:#e5e5e5;fill-opacity:1;fill-rule:nonzero;stroke:none"
         d="m 5825.57,2123.05 292.53,292.53 -157.22,157.21 c -17.6,17.6 -5.13,47.7 19.76,47.7 h 501.71 c 15.78,0 28.57,-12.79 28.57,-28.57 v -501.71 c 0,-24.89 -30.1,-37.36 -47.7,-19.75 l -152.29,152.28 -292.52,-292.54 -192.84,192.85" /><path
         id="path68"
         style="fill:#ffffff;fill-opacity:1;fill-rule:nonzero;stroke:none"
         d="m 5857.99,2123.05 292.52,292.53 -157.21,157.21 c -17.6,17.6 -5.13,47.7 19.76,47.7 h 501.7 c 15.78,0 28.57,-12.79 28.57,-28.57 v -501.71 c 0,-24.89 -30.09,-37.36 -47.7,-19.75 l -152.28,152.28 -292.53,-292.54 -192.83,192.85" /><path
         id="path70"
         style="fill:#e5e5e5;fill-opacity:1;fill-rule:nonzero;stroke:none"
         d="m 6904.75,7156.21 c -1.31,8.39 -548.59,23.47 -642.19,22.84 -200.74,-1.35 -801.58,71.22 -803.79,71.49 -8.07,0.97 -3.04,-26.2 -2.58,-29.34 4.16,-28.53 11.58,-56.69 18.89,-84.54 11.4,-43.39 24.08,-86.46 37.16,-129.37 16.7,-54.83 34.21,-109.41 52.18,-163.84 20.74,-62.84 42.12,-125.47 63.99,-187.92 23.61,-67.42 47.81,-134.63 72.58,-201.63 25.35,-68.57 51.29,-136.91 77.94,-204.98 25.95,-66.27 52.56,-132.29 80.08,-197.93 25.4,-60.58 51.56,-120.84 79,-180.53 23.67,-51.49 48.23,-102.61 74.69,-152.74 20.65,-39.13 42.33,-77.92 67.16,-114.58 16.15,-23.84 33.68,-48.01 56.41,-66.05 17.2,-13.65 40.56,-11.86 39.77,13.81 -3.26,105.87 4.9,213.4 6.93,319.68 2.37,124.33 3.95,248.68 5.31,373.03 1.15,104.73 2.06,209.46 3.01,314.19 0.21,23.55 0.03,47.09 0.33,70.75 0.1,8.58 -2.43,56.32 15.85,52.21 20.89,-4.72 13.12,-72.78 13.21,-88.61 0.21,-36.64 0.36,-73.27 0.51,-109.9 0.4,-102.06 0.74,-204.13 1.15,-306.19 0.44,-109.97 0.92,-219.93 1.66,-329.89 0.54,-81.25 0.99,-162.51 2.55,-243.75 0.27,-14.1 -5.27,-47.68 2.41,-60.47 4.53,-7.54 13.49,-12.2 22.28,-11.57 20.15,1.45 31.22,28.3 39.08,43.52 61.69,119.43 126.37,237.23 185.51,358.04 29.09,59.4 56.43,119.69 83.48,180.06 27.29,60.88 50.53,124.66 80.34,184.29 0.53,1.23 1.12,2.48 1.59,3.73 77.53,182.55 144.92,368.57 199.02,559.54 22.19,78.31 47.51,155.4 60.95,236.03 3.17,19.74 6.39,40.64 3.54,60.62" /><path
         id="path72"
         style="fill:#ffffff;fill-opacity:1;fill-rule:nonzero;stroke:none"
         d="m 6904.75,7156.21 c -1.31,8.39 -548.59,23.47 -642.19,22.84 -200.74,-1.35 -746.08,63.62 -745.73,61.43 13.44,-86.03 238.4,-713.48 263.17,-780.48 25.35,-68.56 333.54,-904.87 356.27,-922.91 17.2,-13.65 40.56,-11.86 39.77,13.81 -3.26,105.87 4.9,213.4 6.93,319.68 2.37,124.33 3.95,248.68 5.31,373.03 1.15,104.73 2.06,209.46 3.01,314.19 0.21,23.55 0.03,47.09 0.33,70.75 0.1,8.58 0.97,40.82 15.85,52.21 92.53,70.91 67.12,-427.03 67.53,-529.09 0.44,-109.97 -32.55,-621.92 -23.76,-621.29 20.15,1.45 31.22,28.3 39.08,43.52 61.69,119.43 126.37,237.23 185.51,358.04 29.09,59.4 56.43,119.69 83.48,180.06 27.29,60.88 50.53,124.66 80.34,184.29 0.53,1.23 1.12,2.48 1.59,3.73 77.53,182.55 144.92,368.57 199.02,559.54 22.19,78.31 47.51,155.4 60.95,236.03 3.17,19.74 6.39,40.64 3.54,60.62" /><path
         id="path74"
         style="fill:#9fcded;fill-opacity:1;fill-rule:nonzero;stroke:none"
         d="m 5759.14,6300.22 c 143.39,0.87 286.63,5.75 429.8,12.41 0.83,81.72 1.61,163.45 2.35,245.17 0.21,23.55 0.03,47.09 0.33,70.75 0.1,8.58 -2.43,56.32 15.85,52.21 20.89,-4.72 13.12,-72.78 13.21,-88.61 0.21,-36.63 0.36,-73.27 0.51,-109.9 0.22,-56.02 0.42,-112.03 0.63,-168.05 145.01,6.99 274.43,-21.81 419.42,-14.18 70.97,170.6 148.6,381.55 199.02,559.54 22.19,78.32 47.51,155.4 60.95,236.03 3.17,19.74 6.39,40.64 3.54,60.62 -1.31,8.39 -548.59,23.47 -642.19,22.84 -200.74,-1.35 -801.58,71.22 -803.79,71.49 -8.07,0.97 -3.04,-26.2 -2.58,-29.33 4.16,-28.54 11.58,-56.7 18.89,-84.55 11.4,-43.39 24.08,-86.46 37.16,-129.37 16.7,-54.83 34.21,-109.41 52.18,-163.84 20.74,-62.84 42.12,-125.47 63.99,-187.92 23.61,-67.42 47.81,-134.63 72.58,-201.63 18.99,-51.38 38.45,-102.58 58.15,-153.68" /><path
         id="path76"
         style="fill:#bbdff5;fill-opacity:1;fill-rule:nonzero;stroke:none"
         d="m 5838.82,6301.11 c 143.38,0.86 206.95,4.86 350.12,11.52 0.83,81.72 1.61,163.45 2.35,245.17 0.21,23.55 0.03,47.09 0.33,70.75 0.1,8.58 1.68,39.95 15.85,52.21 74.2,64.24 72.38,-152.46 72.53,-189.09 0.22,-56.02 -4.47,-176.39 -4.47,-176.39 123.9,-0.72 238.84,-21.93 365.71,-15.26 70.97,170.6 148.6,381.55 199.02,559.54 22.19,78.32 47.51,155.4 60.95,236.03 3.17,19.74 6.39,40.64 3.54,60.62 -1.31,8.39 -548.59,23.47 -642.19,22.84 -200.74,-1.35 -743.52,61.16 -745.73,61.43 -8.07,0.97 171.3,-505.53 193.17,-567.98 23.61,-67.42 109.11,-320.29 128.82,-371.39" /><path
         id="path78"
         style="fill:#6a79a8;fill-opacity:1;fill-rule:nonzero;stroke:none"
         d="m 5750.14,6285.07 c 145.4,1.06 290.7,5.89 435.94,12.56 8.02,0.37 27.02,7.11 27.13,17.58 0.69,69.15 1.37,138.3 2,207.45 0.33,36.16 0.32,72.32 0.68,108.47 0.16,16.08 10.39,45.32 -9.15,33.64 -18.11,-10.83 -7.83,-8.87 -9.26,-25.32 -1,-11.36 -0.39,-25.09 -0.55,-36.76 -0.37,-25.74 -0.31,-51.47 -0.2,-77.23 0.31,-71.28 0.56,-142.56 0.82,-213.84 0.05,-11.6 12.12,-12.77 21.41,-12.42 140.16,5.33 279.16,-20.09 419.42,-14.17 7.73,0.32 22.19,5.46 25.57,13.63 63.42,153.08 121.78,308.49 171.53,466.57 25.08,79.73 49.21,160.27 70.07,241.21 7.78,30.19 48.12,142.38 14.9,163.81 -12.6,8.12 -40.91,5.31 -55,6.19 -38.35,2.37 -76.75,3.89 -115.14,5.4 -99.3,3.9 -198.65,6.83 -298,9.27 -168.52,4.14 -335.34,7.93 -503.43,23.28 -108.19,9.87 -216.26,21.21 -324.23,33.23 -49.88,5.55 -106.31,20.34 -156.59,18.04 -50.99,-2.34 -37.4,-49.19 -29.68,-84.99 21.78,-100.96 55.21,-200.16 87.04,-298.29 64.26,-198.14 134.74,-394.25 209.58,-588.63 7.19,-18.7 55.09,-4.71 48.29,12.94 -60.8,157.92 -118.58,316.99 -172.71,477.33 -27.79,82.31 -54.75,164.94 -79.77,248.14 -11.08,36.83 -21.77,73.78 -31.58,110.97 -5.16,19.56 -10.29,39.14 -14.29,58.98 -1.12,5.53 -1.41,33.14 -6.22,37.52 2.98,-2.72 -44,1.71 -19.63,-5.36 8.55,-2.48 19.17,-2.27 27.96,-3.3 30.76,-3.61 61.53,-7.14 92.31,-10.6 95.3,-10.74 190.68,-20.91 286.14,-30.14 327,-31.62 654.34,-23.81 981.94,-44.1 7.44,-0.46 29,1.97 35.27,-2.65 6.94,-5.12 -5.75,-51.39 -9.07,-69.01 -16.89,-89.77 -45.39,-177.92 -71.61,-265.32 -51.71,-172.39 -114.65,-341.55 -183.5,-507.77 8.52,4.55 17.05,9.09 25.57,13.64 -140.14,-5.92 -279.19,19.5 -419.42,14.17 7.14,-4.13 14.27,-8.27 21.41,-12.41 -0.35,94.4 -2.97,189.1 -1,283.47 0.64,30.37 12.4,92.38 -31.69,95.59 -50.12,3.64 -46.07,-54.07 -46.19,-87.59 -0.37,-99.41 -1.53,-198.81 -2.53,-298.2 9.04,5.85 18.08,11.71 27.12,17.57 -141.15,-6.48 -282.35,-11.21 -423.65,-12.25 -20.01,-0.14 -50.53,-30.54 -18.01,-30.3" /><path
         id="path80"
         style="fill:#6a79a8;fill-opacity:1;fill-rule:nonzero;stroke:none"
         d="m 6926.9,7166.69 c -17.44,18.87 -73.74,12.4 -95.72,13.5 -69.9,3.52 -139.86,5.84 -209.8,8.06 -125.08,3.96 -250.13,6.24 -375.24,8.03 -160.2,2.3 -320.93,21.35 -480.13,37.94 -71.33,7.43 -142.61,15.27 -213.86,23.44 -27.78,3.19 -69.57,16.46 -97.66,8.86 -24.32,-6.58 -25.68,-26.01 -23.13,-47.44 7.99,-67.35 31.7,-135.19 51.15,-199.86 41.16,-136.82 87.05,-272.24 134.69,-406.91 94.24,-266.4 191.9,-533.72 315.12,-788.31 24.93,-51.48 50.78,-102.59 78.26,-152.77 26.51,-48.42 63.16,-129.45 117.47,-154.05 50.2,-22.74 71.94,21.21 74.4,62.63 6.6,110.95 7.53,222.41 10.02,333.5 3.76,167.67 6.85,335.35 10.49,503.02 1.36,62.34 2.7,124.69 4.63,187.03 0.56,18.15 1.02,36.32 2.01,54.46 0.35,6.33 4.11,25.95 0.74,20.48 -10.5,-4.86 -21.01,-9.72 -31.51,-14.58 0.05,-0.01 0.1,-0.02 0.15,-0.02 -5.22,3.53 -10.44,7.06 -15.66,10.59 12.97,-37.64 2.29,-95.6 2.52,-135.25 0.35,-59.58 0.45,-119.16 0.53,-178.74 0.17,-115.28 0.34,-230.56 0.95,-345.85 0.6,-111.89 1.58,-223.77 3.33,-335.65 0.68,-43.81 -12.94,-152.59 45.73,-164.12 59.7,-11.73 84.49,56.85 103.49,98.87 45.54,100.69 97.48,198.8 146.19,297.99 93.31,190.04 181.94,383.58 256.75,581.71 41.17,109.03 78.47,219.55 111.24,331.4 30.88,105.42 82.93,226.63 74.85,338.03 -1.53,21.1 -49.95,9.77 -48.3,-12.94 6.75,-93.05 -36.88,-195.17 -62.18,-283.14 -27.83,-96.75 -58.03,-192.67 -91.9,-287.48 -61.25,-171.42 -133.18,-339.44 -210.1,-504.37 -42.63,-91.42 -87.87,-181.64 -132.56,-272.06 -21.62,-43.76 -43.23,-87.53 -64.56,-131.44 -15.06,-31 -26.58,-71.72 -46.53,-99.96 -27.04,-38.27 -28,13.29 -30.29,36.85 -4.94,50.83 -3.45,102.57 -4.09,153.62 -1.25,98.72 -1.97,197.44 -2.41,296.16 -0.53,115.36 -0.62,230.73 -0.82,346.09 -0.1,56.27 -0.26,112.54 -0.66,168.8 -0.24,33.46 8.28,82.01 -2.88,114.42 -2.37,6.86 -8.89,9.76 -15.66,10.6 -0.05,0 -0.1,0.01 -0.15,0.01 -12.07,1.49 -25.12,-4.25 -31.5,-14.58 -7.91,-12.83 -4.02,-39.23 -4.54,-53.21 -1.67,-44.34 -2.68,-88.71 -3.74,-133.07 -3.12,-131.11 -5.59,-262.24 -8.28,-393.37 -2.72,-132.68 -5.34,-265.37 -9.24,-398.02 -1.23,-41.91 -2.36,-83.85 -4.69,-125.72 -0.29,-5.26 1.63,-26.77 -2.2,-30.96 -3.6,-3.92 -87.66,126.72 -96.75,143.29 -128.22,233.7 -224.22,483.74 -316.77,733.16 -92.11,248.22 -190.02,501.31 -249.45,759.8 -2.75,11.94 -2.59,32.27 -8.31,42.52 -9.74,17.41 11.8,14.98 -15.72,10.8 -38.19,-5.79 -10.11,-4.11 -7.55,-5.82 9.08,-6.08 33.69,-3.98 44.46,-5.24 60.37,-7.03 120.78,-13.79 181.21,-20.3 155.82,-16.78 312,-33.23 468.53,-41.88 125.54,-6.94 251.81,-5.27 377.5,-8.85 78.77,-2.24 157.53,-4.73 236.26,-8.08 29.6,-1.26 59.21,-2.53 88.76,-4.46 8.84,-0.57 19.05,-2.97 27.77,-2.11 11.9,1.16 11.03,-6.82 1.04,3.98 14.39,-15.57 60.28,3.68 44.3,20.97" /><path
         id="path82"
         style="fill:#6a79a8;fill-opacity:1;fill-rule:nonzero;stroke:none"
         d="m 5783.51,7045.07 c -1.94,-67.37 -27.78,-129.51 -75.13,-177.58 -8.88,-9.01 35.56,-3.44 43.46,4.59 49.99,50.75 77.92,114.65 79.96,185.93 0.17,5.75 -47.92,0.11 -48.29,-12.94 v 0" /><path
         id="path84"
         style="fill:#6a79a8;fill-opacity:1;fill-rule:nonzero;stroke:none"
         d="m 6552.32,7008.06 c 14.52,-73.16 50.88,-137.46 105.61,-188.01 9.96,-9.19 54.14,8.9 45.36,17.01 -53.7,49.6 -88.46,112.33 -102.67,183.94 -2.3,11.59 -50.9,0.19 -48.3,-12.94 v 0" /><path
         id="path86"
         style="fill:#e5e5e5;fill-opacity:1;fill-rule:nonzero;stroke:none"
         d="m 5426.83,7270.48 c 29.83,606.54 327.44,1765.24 866.19,1486.01 343.28,-177.91 523.65,-922.2 618.42,-1650.84 0,0 -624.89,4.75 -831.09,31.52 -174.68,22.68 -653.52,133.31 -653.52,133.31" /><path
         id="path88"
         style="fill:#e5e5e5;fill-opacity:1;fill-rule:nonzero;stroke:none"
         d="m 6473.69,9125.94 c 0,320.32 -141.03,580 -315,580 -173.97,0 -315,-259.68 -315,-580 0,-7.42 0,-44.33 0,-57.41 0,-177.61 15.11,-301.36 41.53,-387.49 54.31,-177.04 266.9,-250.94 266.9,-250.94 0,0 217.68,72.5 273.42,230.77 30.51,86.63 48.15,215.69 48.15,407.66 0,12.69 0,49.6 0,57.41" /><path
         id="path90"
         style="fill:#ffffff;fill-opacity:1;fill-rule:nonzero;stroke:none"
         d="m 6002.42,8426.33 c -23,11.25 -44.79,24.8 -64.75,40.88 -37.99,30.61 -89.26,123.99 -98.09,156.61 -12.14,44.79 101.67,61.6 124.78,64.23 75.3,8.55 257.8,22.3 328.66,8.44 56.41,-11.03 160.86,-20.75 155.39,-87.32 -5.8,-70.68 -108.65,-180.34 -167.92,-202.01 -57.8,-21.13 -111.83,-28.54 -172.13,-16.21 -36.52,7.47 -72.5,19.01 -105.94,35.38" /><path
         id="path92"
         style="fill:#ffffff;fill-opacity:1;fill-rule:nonzero;stroke:none"
         d="m 5516.83,7240.48 c 18.12,368.38 101.82,951.52 285.45,1290.1 l 3.36,-6.47 c 83.02,-154.04 201.94,-187.09 347.65,-172.38 69.1,6.98 240.12,58.62 309.39,257.44 0.87,2.49 3.28,-4.16 4.91,-6.26 232.62,-299.68 366.65,-903.66 443.85,-1497.26 0,0 -624.89,4.75 -831.09,31.52 -174.68,22.68 -563.52,103.31 -563.52,103.31" /><path
         id="path94"
         style="fill:#6a79a8;fill-opacity:1;fill-rule:nonzero;stroke:none"
         d="m 5833.47,8591.58 c 44.04,-136.8 177.44,-228.02 320.34,-227.78 136.54,0.22 269.34,85.26 311.18,217.55 8.37,26.48 -39.72,25.8 -46.16,5.43 -36.93,-116.77 -149.66,-194.67 -272.63,-187.23 -120.58,7.29 -227.57,90.47 -264.43,204.97 -7.07,21.96 -55.28,8.75 -48.3,-12.94 v 0" /><path
         id="path96"
         style="fill:#6a79a8;fill-opacity:1;fill-rule:nonzero;stroke:none"
         d="m 6828.3,7124.66 c -231.8,3.12 -465.63,3.55 -696.56,25.67 -220.77,21.14 -443.31,75.97 -658.21,129.19 -21.27,5.27 -57.04,-25.86 -27.73,-33.12 218.63,-54.15 444.8,-110.36 669.41,-131.88 235.01,-22.52 473.1,-22.81 709.01,-26 27.89,-0.37 36.77,35.7 4.08,36.14 v 0" /><path
         id="path98"
         style="fill:#ffffff;fill-opacity:1;fill-rule:nonzero;stroke:none"
         d="m 6158.69,9705.94 c 173.97,0 315,-259.68 315,-580 0,-7.81 0,-44.72 0,-57.41 0,-191.97 -17.64,-321.03 -48.15,-407.66 -55.7,-158.14 -273.07,-230.65 -273.42,-230.77 -22.89,-7.63 -95.84,47.34 -112.64,58.78 -40.26,27.41 -79.61,59.46 -108.86,98.77 -14.54,19.53 -49.41,62.45 -45.92,88.12 0.43,3.21 22.15,1.77 22.15,1.77 0,0 -2.1,108.77 -2.19,156.2 -0.08,44.02 -2.54,127.79 0.69,198.69 8.57,188.4 50.19,384.8 111.13,563 23.47,68.62 66.85,110.51 142.21,110.51" /><path
         id="path100"
         style="fill:#6a79a8;fill-opacity:1;fill-rule:nonzero;stroke:none"
         d="m 6361.58,8898.51 c -26.78,-15.18 -59.33,-15.88 -87.61,-27.66 -29.37,-12.23 -48.82,-32.04 -60.99,-61.36 -5.96,-14.34 41.81,-9.02 48.2,6.38 21.53,51.83 86.55,44.68 130.09,69.36 8.35,4.73 12.31,11.55 4.46,18.02 -7.84,6.44 -26.98,-0.68 -34.15,-4.74 v 0" /><path
         id="path102"
         style="fill:#6a79a8;fill-opacity:1;fill-rule:nonzero;stroke:none"
         d="m 6426.26,8616.74 c 151.17,-182.64 231.01,-420.41 293.76,-645.59 79.5,-285.31 128.84,-578.61 167.28,-871.98 11.12,6.95 22.24,13.89 33.36,20.83 -183.8,1.43 -367.69,5.06 -551.34,12.53 -103.11,4.19 -207.31,7.47 -309.42,23.38 -119.83,18.66 -238.66,44.55 -357.17,70.08 -87.22,18.78 -174.33,38.08 -261.26,58.15 3.19,-3.62 6.37,-7.23 9.56,-10.84 13.45,259.45 62.73,519.07 136.29,767.98 64.8,219.25 149.68,471.66 317.41,635.26 2.64,2.57 5.85,6.9 4.64,10.97 -42.96,144.61 -42.96,300.46 -41.4,449.96 1.65,158.7 33.15,337.49 134.46,465.08 38,47.85 91.91,92.37 156.5,88.77 60.36,-3.36 111.61,-43.9 148.91,-88.48 104.72,-125.13 138.63,-305.56 141.4,-464.2 2.78,-158.74 4.03,-328.55 -47.9,-480.59 -5.93,-17.34 42.61,-11.3 48.4,5.65 44.29,129.66 47.83,272.01 48.16,407.65 0.34,142.3 -10.1,283.84 -66.14,416.55 -39.81,94.26 -106.82,197.48 -211.88,225.41 -92.16,24.5 -183.63,-19.34 -244.74,-87.63 -88.86,-99.29 -130.19,-237.67 -147.03,-367.25 -18.79,-144.63 -13.63,-301 4.77,-445.3 3.95,-30.96 9.02,-61.8 15.96,-92.24 2.61,-11.49 9.14,-25.03 9.34,-36.59 0.15,-8.54 8.03,13.56 1.77,-4.36 -1.28,-3.69 -9.06,-8.79 -11.85,-11.57 -34.8,-34.71 -63.3,-75.96 -89.66,-117.32 -70.45,-110.53 -123.11,-232.33 -167.35,-355.4 -106.36,-295.87 -172.17,-613.85 -188.46,-928 -0.33,-6.27 3.66,-9.47 9.56,-10.83 194.68,-44.95 390.17,-89.69 587.19,-123.12 221.8,-37.64 451.75,-34.79 676.04,-39.15 75.59,-1.47 151.2,-2.68 226.81,-3.26 10.9,-0.09 35.37,5.51 33.36,20.83 -39.14,298.74 -89.39,597.68 -171.75,887.87 -63.06,222.19 -143.51,455.64 -292.84,636.06 -11.13,13.45 -57.52,-3.87 -44.74,-19.31 v 0" /><path
         id="path104"
         style="fill:#6a79a8;fill-opacity:1;fill-rule:nonzero;stroke:none"
         d="m 7230.34,9159.13 c -45.9,-195.66 -104.83,-387.86 -175.76,-575.91 -33.38,-88.5 -64.65,-183.59 -121.51,-260.39 -54.27,-73.31 -172.25,-134.16 -249.23,-54.39 -12.57,13.03 -58.53,-5.18 -44.68,-19.53 54.12,-56.08 142.94,-55.01 211.91,-29.69 95.63,35.1 150.39,125.34 189.96,214.14 103.93,233.27 179.53,482.93 237.78,731.2 4.55,19.4 -44.3,12.34 -48.47,-5.43 v 0" /><path
         id="path106"
         style="fill:#ffffff;fill-opacity:1;fill-rule:nonzero;stroke:none"
         d="m 6261.79,9277.28 c 31.37,5.63 64.15,6.75 92.21,9 374.43,29.98 745.98,95.79 1107.93,196.23 -75.5,-67.84 -155.19,-142.74 -175.35,-242.23 -15.15,-74.74 6.94,-153.84 48.8,-217.58 41.86,-63.74 102.08,-113.54 166.44,-154.44 -381.87,67.32 -764.49,134.73 -1151.12,164.32 -44.97,3.44 -91.94,6.89 -132.78,27.76 -46.97,23.98 -81.76,74.26 -69.89,128.35 3.9,17.75 12.38,34.59 25.01,47.65 22.82,23.58 54.96,34.88 88.75,40.94" /><path
         id="path108"
         style="fill:#6a79a8;fill-opacity:1;fill-rule:nonzero;stroke:none"
         d="m 6664.28,9018.05 c -69.39,3.12 -128.73,52.03 -141.03,121.43 -13.15,74.24 33.66,159.64 114.78,163.29 12.69,0.57 52.68,20.31 21.06,18.89 -83.25,-3.73 -168.33,-51.39 -183.96,-139.45 -17.87,-100.71 61.22,-179.1 157.71,-183.44 10.16,-0.45 54.79,18.23 31.44,19.28 v 0" /><path
         id="path110"
         style="fill:#6a79a8;fill-opacity:1;fill-rule:nonzero;stroke:none"
         d="m 7092.72,8952.36 c -100.69,15.7 -179.22,97.79 -185.37,200.53 -6.49,108.43 66.99,202.78 173.28,222.72 30.52,5.72 21.18,38.38 -8.78,32.76 -121.75,-22.83 -217.11,-128.11 -213.87,-254.7 3.18,-124.2 98.59,-217.52 217.94,-236.13 23.62,-3.68 49.16,29.78 16.8,34.82 v 0" /><path
         id="path112"
         style="fill:#bbdff5;fill-opacity:1;fill-rule:nonzero;stroke:none"
         d="m 7948.31,9183.4 c 0,-182.87 -148.25,-331.13 -331.13,-331.13 -182.87,0 -331.13,148.26 -331.13,331.13 0,182.88 148.26,331.13 331.13,331.13 182.88,0 331.13,-148.25 331.13,-331.13" /><path
         id="path114"
         style="fill:#6a79a8;fill-opacity:1;fill-rule:nonzero;stroke:none"
         d="m 7563.77,8869.88 c -159.1,25.27 -318.48,49.18 -477.27,76.38 -178.7,30.62 -356.31,66.16 -536.89,82.65 -63.26,5.77 -126.52,11.55 -189.78,17.32 -41.75,3.81 -98.84,1.48 -135.14,23.72 -85.53,52.39 -60.77,183.6 37.57,198.01 47.6,6.98 96.55,8.82 144.45,13.19 81.92,7.48 165.9,10.23 247.1,23.7 106.19,17.62 211.85,39.52 317.67,59.25 182.55,34.05 362.01,81.69 542.4,125.69 28.24,6.89 24.39,22.41 -4.14,15.45 -97.19,-23.71 -194.37,-47.41 -291.56,-71.11 -42.38,-10.34 -84.66,-21.39 -127.21,-31.03 -8.39,-1.9 1.23,0.21 0.9,0.15 -3.95,-0.82 -7.94,-1.5 -11.91,-2.23 -21.06,-3.86 -42.09,-7.85 -63.14,-11.77 -114.25,-21.31 -228.5,-42.62 -342.76,-63.94 -4.54,-0.84 -28.38,-4.81 -16.44,-3.28 -15.86,-2.04 -31.97,-2.92 -47.88,-4.37 -60.75,-5.55 -121.49,-11.1 -182.23,-16.64 -90.18,-8.23 -237.33,4.14 -288.56,-87.88 -42.21,-75.81 8.96,-166.27 92.21,-178.37 37.64,-5.47 76.58,-6.71 114.44,-10.16 63.58,-5.81 127.15,-11.61 190.73,-17.41 23.92,-2.19 47.83,-4.37 71.75,-6.55 6.54,-0.6 13.12,-1.02 19.64,-1.8 9.02,-1.07 -1.03,0.29 3.45,-0.34 104.39,-14.66 208.28,-35.68 312.18,-53.48 193.32,-33.12 387.09,-63.36 580.81,-94.12 11.52,-1.83 52.89,16.87 39.61,18.97 v 0" /><path
         id="path116"
         style="fill:#ffffff;fill-opacity:1;fill-rule:nonzero;stroke:none"
         d="m 7717.8,9074.77 c -0.8,-0.64 -1.6,-1.29 -2.42,-1.92 -31.44,-24.3 -70.78,-35.29 -110.79,-30.97 v 0 c -0.01,0 -0.01,0 -0.01,0 -83.25,8.98 -143.91,82.06 -135.18,162.9 8.7,80.85 83.59,139.3 166.82,130.33 40,-4.31 76.1,-23.45 101.64,-53.89 25.9,-30.88 37.84,-69.6 33.58,-109.01 -4.13,-38.41 -23.16,-72.89 -53.64,-97.44" /><path
         id="path118"
         style="fill:#6a79a8;fill-opacity:1;fill-rule:nonzero;stroke:none"
         d="m 7613.09,9120.64 c -38.94,4.2 -67.32,38.06 -63.29,75.47 4.04,37.41 38.99,64.44 77.93,60.24 38.94,-4.2 67.34,-38.06 63.31,-75.47 -4.04,-37.42 -39.01,-64.44 -77.95,-60.24" /><path
         id="path120"
         style="fill:#6a79a8;fill-opacity:1;fill-rule:nonzero;stroke:none"
         d="m 7921.23,9176.69 c -2.69,-129.8 -79.52,-254.19 -204.88,-298.36 -128.02,-45.11 -273.53,15.42 -348.94,123.73 -158.47,227.6 42.49,577.66 328.5,485.88 135.62,-43.52 222.41,-170.93 225.32,-311.25 0.21,-9.83 48.61,-2.04 48.3,12.94 -3.15,151.6 -104.79,286.38 -253.5,323.77 -131.1,32.97 -279.92,-10.64 -370.06,-112.05 -101.44,-114.1 -113.8,-287.52 -26.32,-413.42 81.65,-117.51 227.92,-167.24 365.89,-136.73 162.21,35.88 280.51,170.87 283.99,338.43 0.19,9.28 -47.98,2.33 -48.3,-12.94" /><path
         id="path122"
         style="fill:#6a79a8;fill-opacity:1;fill-rule:nonzero;stroke:none"
         d="m 5638.34,8260.3 c 95.3,-66.44 216.53,-88.17 330.63,-92.05 112.28,-3.82 228.8,8.84 334.26,49.13 246.28,94.09 434.31,326.15 476.7,585.57 12.51,76.57 16.04,155.56 6.01,232.65 -5.21,40.08 -15.44,158.17 -70.98,159.2 -19.41,0.36 -50.9,-28.51 -18.32,-29.12 13.59,-0.25 31.88,-90.98 34.33,-103.05 9.01,-44.34 12.62,-89.67 12.14,-134.89 -0.79,-74.02 -10.81,-149.44 -31.58,-220.6 -42.79,-146.63 -137.18,-277.87 -257.46,-371.11 -112.14,-86.93 -241.05,-129.38 -381.71,-137.69 -133.9,-7.92 -283.12,7.75 -395.86,86.33 -13.86,9.67 -58.13,-10.46 -38.16,-24.37 v 0" /><path
         id="path124"
         style="fill:#e5e5e5;fill-opacity:1;fill-rule:nonzero;stroke:none"
         d="m 5701.78,9354.43 c 2.43,-46.06 57.3,-65.17 93.47,-73.08 103.27,-22.58 207.82,0.06 309.75,16.77 106.22,17.43 287.29,61.88 313.64,80.12 1.82,1.26 6.69,5.77 6.69,5.77 20.92,177.77 -97.87,329.92 -264.23,349.49 -165.56,19.49 -316.67,-107.45 -338.74,-283.9 l -0.87,0.1 c -26.74,-5.26 -52.36,-14.04 -73.87,-26.55 -24.25,-14.12 -47.53,-36.75 -45.84,-68.72" /><path
         id="path126"
         style="fill:#9fcded;fill-opacity:1;fill-rule:nonzero;stroke:none"
         d="m 5726.23,9398.28 c 0.66,-46.12 54.76,-67.33 90.59,-76.61 102.33,-26.53 207.02,-4.49 309.52,8.3 106.81,13.34 213.08,36.03 317.13,64.6 1.9,-0.78 3.83,-1.49 5.72,-2.29 27.73,176.84 -83.95,341.22 -249.43,367.17 -164.7,25.82 -320.57,-95.23 -349.39,-270.7 l -0.87,0.14 c -26.92,-4.24 -52.86,-12.02 -74.83,-23.71 -24.77,-13.17 -48.9,-34.89 -48.44,-66.9" /><path
         id="path128"
         style="fill:#bbdff5;fill-opacity:1;fill-rule:nonzero;stroke:none"
         d="m 5751.42,9393.9 c -1.27,-4.35 -1.55,-9.14 -0.54,-14.45 5.81,-30.85 37.79,-50.49 65.95,-57.79 102.33,-26.52 207.01,-4.48 309.51,8.31 106.81,13.34 213.08,36.03 317.13,64.6 1.9,-0.78 3.83,-1.49 5.72,-2.29 27.73,176.84 -84,340.88 -249.43,367.17 -13.28,2.11 -28.71,-2.47 -41.37,-5.84 -26.66,-7.1 -53.21,-16.45 -76.51,-31.56 -22.97,-14.89 -42.98,-34.13 -59.89,-55.59 -3.72,-4.73 -7.29,-9.57 -10.72,-14.52 -11.28,-16.3 -21.06,-33.63 -29.21,-51.7 -8.07,-17.91 -16.14,-37.43 -18.97,-56.98 -2.27,-15.71 -3.43,-31.63 -4.75,-47.45 0,0 -121.05,-51.11 -144.36,-60.18 -20.93,-8.15 -55.8,-18.64 -62.56,-41.73" /><path
         id="path130"
         style="fill:#6a79a8;fill-opacity:1;fill-rule:nonzero;stroke:none"
         d="m 5873.75,9490.45 c 29.22,164.36 176.52,306.8 351.6,248.51 147.38,-49.06 219.69,-206.02 199.69,-353.15 15.63,4.91 31.26,9.83 46.89,14.74 -194.29,79.95 -402.77,104.74 -611.59,95.55 -13.17,-0.57 -52.57,-21.12 -20.84,-19.73 199.96,8.8 400.97,-15.83 586.95,-92.36 10.51,-4.33 44.93,0.31 46.89,14.74 24.95,183.63 -97.71,366.16 -291.33,373.86 -175.26,6.97 -325.56,-119.84 -355.92,-290.58 -2.03,-11.38 45.53,-3.56 47.66,8.42" /><path
         id="path132"
         style="fill:#6a79a8;fill-opacity:1;fill-rule:nonzero;stroke:none"
         d="m 6442.82,9402.18 c -141.96,-38.53 -287.02,-64.36 -433.39,-79.14 -68.8,-6.95 -149.14,-10.15 -212.73,22.28 -19.27,9.83 -40.27,24.74 -44.87,47.46 -11.07,54.6 50.5,79.48 93.13,87.38 19,3.52 43.06,23.76 9.08,17.45 -50.83,-9.42 -138.39,-30.27 -150.55,-91.63 -15.05,-75.92 95.33,-97.28 147.83,-103.39 94.26,-10.98 190.27,7.75 283.43,20.3 105.44,14.21 209.33,36.91 311.96,64.76 27.86,7.56 24.51,22.24 -3.89,14.53 v 0" /><path
         id="path134"
         style="fill:#6a79a8;fill-opacity:1;fill-rule:nonzero;stroke:none"
         d="m 6181.23,9735.48 c 5.33,30.56 4.52,61.25 -2.06,91.55 -4.67,21.49 -53.07,9.02 -48.3,-12.94 6,-27.63 6.38,-54.81 1.53,-82.64 -4.07,-23.35 45.19,-16.87 48.83,4.03 v 0" /><path
         id="path136"
         style="fill:#6a79a8;fill-opacity:1;fill-rule:nonzero;stroke:none"
         d="m 6320.5,9826.51 c -103.53,-12.87 -204.77,18.49 -283.4,86.99 -14.61,12.73 -60.07,-6.6 -44.51,-20.16 89.8,-78.24 204.39,-112.84 322.54,-98.15 25.21,3.13 38.54,35.44 5.37,31.32 v 0" /><path
         id="path138"
         style="fill:#6a79a8;fill-opacity:1;fill-rule:nonzero;stroke:none"
         d="m 6284.31,9953.9 c -74.25,-90.62 -174.26,-151.85 -290.68,-169.67 -19.92,-3.05 -42.64,-24.25 -8.65,-19.05 134.38,20.57 256.71,86.13 343.22,191.72 10.08,12.31 -36.15,6.45 -43.89,-3 v 0" /><path
         id="path140"
         style="fill:#6a79a8;fill-opacity:1;fill-rule:nonzero;stroke:none"
         d="m 6436.25,9893.39 c 16.44,50.95 -14.59,98.86 -64.95,111.71 -10.95,2.7 -26.19,-1 -34.15,-9.2 -7.22,-7.42 -5.44,-15.88 4.96,-18.52 40.22,-10.22 57.93,-51.6 45.7,-89.5 -5.79,-17.96 42.87,-11.76 48.44,5.51 v 0" /><path
         id="path142"
         style="fill:#6a79a8;fill-opacity:1;fill-rule:nonzero;stroke:none"
         d="m 6058.2,9971.84 c -60.36,11.55 -129.66,-19.69 -147.4,-81.2 -3.87,-13.42 43.86,-6.81 47.94,7.34 9.58,33.2 32.59,58.01 68.97,51.05 12.73,-2.44 56.13,17.91 30.49,22.81 v 0" /><path
         id="path144"
         style="fill:#6a79a8;fill-opacity:1;fill-rule:nonzero;stroke:none"
         d="m 5932.79,9991.75 c -70.44,-17.3 -118.06,-85.19 -91.84,-156.77 7.37,-20.13 55.4,-6.47 48.29,12.94 -16.98,46.36 -0.17,101.14 51.58,113.86 29.73,7.3 21.65,37.26 -8.03,29.97 v 0" /><path
         id="path146"
         style="fill:#6a79a8;fill-opacity:1;fill-rule:nonzero;stroke:none"
         d="m 6486.16,9840.33 c 32.32,42.8 31.84,100.97 -0.23,143.7 -11.11,14.8 -57.62,-2.5 -44.6,-19.85 27.34,-36.43 26.7,-84.86 -0.62,-121.04 -7.32,-9.7 6.31,-15.76 13.74,-16.63 11.79,-1.37 24.69,4.53 31.71,13.82 v 0" /></g></g></svg>