<?xml version="1.0" encoding="utf-8"?>
<!-- Generator: Adobe Illustrator 22.0.1, SVG Export Plug-In . SVG Version: 6.00 Build 0)  -->
<svg version="1.1" id="Layer_1" xmlns="http://www.w3.org/2000/svg" xmlns:xlink="http://www.w3.org/1999/xlink" x="0px" y="0px"
	 viewBox="0 0 166.2 166.2" style="enable-background:new 0 0 166.2 166.2;" xml:space="preserve">
<style type="text/css">
	.st0{fill:#99999C;}
	.st1{fill:none;}
</style>
<title>dashboar fill #9999cldpi</title>
<g id="Layer_2_1_">
	<g id="Layer_1-2">
		<path class="st0" d="M108,64.1c3.8,0,7.5-1.5,10.1-4.3L95.6,43c-3.8,6.8-1.4,15.5,5.5,19.3C103.2,63.5,105.6,64.1,108,64.1z"/>
		<path class="st0" d="M44.4,42.2h32.4c0.9,0,1.6,0.7,1.6,1.6v50.4c0,0.9-0.7,1.6-1.6,1.6H44.4c-0.9,0-1.6-0.7-1.6-1.6V43.8
			C42.8,42.9,43.5,42.2,44.4,42.2z"/>
		<path class="st0" d="M91.7,77.6h31.5c0.1,0,0.1,0.1,0.1,0.1v17.9c0,0.1-0.1,0.1-0.1,0.1H91.7c-0.1,0-0.1-0.1-0.1-0.1L91.7,77.6
			C91.6,77.6,91.7,77.6,91.7,77.6L91.7,77.6z"/>
		<path class="st0" d="M124.1,28.7H42.2c-7.2,0-13,5.9-13.1,13.1v54.9c0,7.2,5.9,13.1,13.1,13.1h32.5v15.9l-6.7,5.6
			c-0.4,0.4-0.7,0.9-0.7,1.5v2.7c0,1.1,0.9,2,2,2h28.1c1.1,0,2-0.9,2-2v-2.7c0-0.6-0.3-1.1-0.7-1.5l-6.7-5.6v-15.9h32
			c7.2,0,13.1-5.8,13.1-13.1V41.8C137.1,34.6,131.3,28.8,124.1,28.7z M93.5,39l1.2-1.6l29.1,21.8l-1.2,1.6c-6,8.1-17.3,9.8-25.4,3.9
			c-4.7-3.4-7.4-8.9-7.4-14.6C89.8,46,91.1,42.1,93.5,39z M82.4,94.1c0,3.1-2.5,5.6-5.6,5.6H44.4c-3.1,0-5.6-2.5-5.6-5.6V43.8
			c0-3.1,2.5-5.6,5.6-5.6h32.4c3.1,0,5.6,2.5,5.6,5.6V94.1z M95.1,133.5L95.1,133.5l-3.9-3.3L95.1,133.5z M127.4,95.6
			c0,2.3-1.8,4.1-4.1,4.1H91.7c-2.3,0-4.1-1.8-4.1-4.1V77.7c0-2.3,1.8-4.1,4.1-4.1h31.5c2.3,0,4.1,1.8,4.1,4.1L127.4,95.6z"/>
		<rect class="st1" width="166.2" height="166.2"/>
	</g>
</g>
</svg>
