<?xml version="1.0" encoding="utf-8"?>
<!-- Generator: Adobe Illustrator 22.0.1, SVG Export Plug-In . SVG Version: 6.00 Build 0)  -->
<svg version="1.1" id="Layer_1" xmlns="http://www.w3.org/2000/svg" xmlns:xlink="http://www.w3.org/1999/xlink" x="0px" y="0px"
	 viewBox="0 0 166.2 166.2" style="enable-background:new 0 0 166.2 166.2;" xml:space="preserve">
<style type="text/css">
	.st0{fill:#00C8B6;}
	.st1{fill:none;}
</style>
<title>sending payment fill #00c8b6ldpi</title>
<path class="st0" d="M127.9,140.2c-1.1,0-2-0.9-2-2v-8.1h-2.1c-1.1,0-2-0.9-2-2s0.9-2,2-2h4.1c1.1,0,2,0.9,2,2v5.3l9.2-9.1l-9.2-9.2
	v4c0,1.1-0.9,2-2,2s-2-0.9-2-2v-8.8c0-1.1,0.9-2,2-2c0.5,0,1,0.2,1.4,0.6l14.1,14.1c0.8,0.8,0.8,2,0,2.8c0,0,0,0,0,0l-14.1,13.8
	C128.9,140,128.4,140.2,127.9,140.2z"/>
<path class="st0" d="M56,68.2c0.2,3.5,2.4,6.2,5,6.2h0.7c2.8,0,5-3,5-6.7v-0.1c0-0.1,0-0.2,0-0.3l1.6-11.6h-6.6L56,68.2z"/>
<path class="st0" d="M76.5,74.4c2.8,0,5-3,5-6.7V55.8h-9.1l-1.7,12.1c0.1,3.6,2.3,6.5,5,6.5L76.5,74.4z"/>
<path class="st0" d="M90.6,74.4h0.7c2.7,0,5-2.9,5-6.5l-1.7-12.1h-9.1v11.9C85.6,71.4,87.8,74.4,90.6,74.4z"/>
<path class="st0" d="M100.3,67.7L100.3,67.7c0,3.7,2.3,6.7,5,6.7h0.7c2.7,0,4.9-2.8,5-6.2l-5.9-12.4h-6.6l1.6,11.6
	C100.3,67.5,100.3,67.6,100.3,67.7z"/>
<path class="st0" d="M111.6,23.4H55.5c-4.9,0-8.9,4-8.9,8.9v101.6c0,4.9,4,8.9,8.9,8.9h56.2c4.9,0,8.9-4,8.9-8.9V32.3
	C120.5,27.4,116.5,23.4,111.6,23.4L111.6,23.4z M69.2,29.7h27.6c1.1,0,2,0.9,2,2c0,1.1-0.9,2-2,2H69.2c-1.1,0-2-0.9-2-2
	C67.2,30.6,68.1,29.7,69.2,29.7z M68.8,74.4c-1.5,2.4-4.2,3.9-7.1,4H61c-5,0-9-4.8-9-10.7c0-0.3,0.1-0.6,0.2-0.9l6.6-14
	c0.3-0.7,1-1.1,1.8-1.1h9.6c0.3-0.1,0.5-0.1,0.8,0c0.1,0,0.1,0,0.2,0h11.8c0.3-0.1,0.7-0.1,1,0h12c0.1,0,0.1,0,0.2,0
	c0.2,0,0.3,0,0.5,0h9.8c0.8,0,1.5,0.4,1.8,1.1l6.6,14c0.1,0.3,0.2,0.6,0.2,0.9c0,5.9-4.1,10.7-9,10.7h-0.7c-2.9-0.1-5.5-1.6-7.1-4
	c-1.5,2.4-4.2,3.9-7,3.9h-0.7c-2.9-0.1-5.5-1.6-7-4c-1.5,2.4-4.2,3.9-7,4h-0.7C73,78.3,70.3,76.8,68.8,74.4z M93.4,113.3
	c-1,1.4-2.4,2.4-3.9,3c-0.8,0.3-1.6,0.5-2.5,0.7v6.2c0,1.8-1.4,3.2-3.2,3.2c-1.8,0-3.2-1.4-3.2-3.2c0,0,0,0,0,0v-6
	c-1.2-0.1-2.4-0.5-3.6-0.9c-1.5-0.6-2.8-1.5-3.8-2.7c-0.8-0.9-1.2-2.1-1.2-3.3c0-0.7,0.3-1.4,0.8-1.9c0.5-0.5,1.2-0.8,2-0.8
	c0.6,0,1.2,0.1,1.6,0.5c0.4,0.4,0.8,0.9,1.1,1.4c0.6,1.1,1.4,2,2.4,2.6c1.2,0.6,2.5,0.9,3.9,0.9c1.2,0,2.3-0.3,3.3-0.9
	c0.7-0.4,1.2-1.2,1.3-2c0.1-1-0.4-2-1.3-2.5c-1.4-0.7-2.8-1.2-4.4-1.5c-1.9-0.4-3.8-1-5.6-1.8c-1.3-0.5-2.5-1.4-3.4-2.5
	c-0.9-1.1-1.3-2.4-1.3-3.8c0-1.3,0.4-2.7,1.2-3.8c0.9-1.3,2.1-2.2,3.5-2.8c1.1-0.5,2.3-0.8,3.6-0.9v-6c0-1.8,1.4-3.2,3.2-3.2
	c1.8,0,3.2,1.4,3.2,3.2c0,0,0,0,0,0v6.2c0,0.1,0,0.1,0,0.2c0.1,0,0.2,0,0.2,0.1c1.2,0.3,2.4,0.8,3.4,1.4c0.8,0.5,1.5,1.2,2.1,2
	c0.4,0.6,0.7,1.4,0.7,2.1c0,0.7-0.3,1.4-0.8,1.9c-0.6,0.5-1.4,0.8-2.2,0.7c-0.6,0-1.2-0.2-1.7-0.6c-0.6-0.5-1.2-1.1-1.6-1.7
	c-0.5-0.6-1.1-1.2-1.8-1.6c-0.9-0.4-1.8-0.6-2.8-0.6c-1,0-2.1,0.2-3,0.8c-0.7,0.4-1.2,1.1-1.2,1.9c0,0.7,0.3,1.3,0.9,1.7
	c0.7,0.5,1.5,0.9,2.4,1.1c1,0.3,2.3,0.6,4.1,1.1c1.7,0.4,3.4,1,5,1.8c1.2,0.6,2.2,1.4,3,2.5c0.7,0.9,1,2.1,1,3.2
	C94.8,110.3,94.3,112,93.4,113.3L93.4,113.3z M94.7,118.8c0-1.1,0.9-2,2-2H114c1.1,0,2,0.9,2,2s-0.9,2-2,2H96.7
	C95.6,120.8,94.7,119.9,94.7,118.8L94.7,118.8z M116.1,130.2h-12.5c-1.1,0-2-0.9-2-2s0.9-2,2-2h12.5c1.1,0,2,0.9,2,2
	S117.2,130.2,116.1,130.2L116.1,130.2z"/>
<path class="st0" d="M127.6,140.2c-1.1,0-2-0.9-2-2v-8.1h-2.1c-1.1,0-2-0.9-2-2s0.9-2,2-2h4.1c1.1,0,2,0.9,2,2v5.3l9.2-9.1l-9.2-9.2
	v4c0,1.1-0.9,2-2,2s-2-0.9-2-2v-8.8c0-1.1,0.9-2,2-2c0.5,0,1,0.2,1.4,0.6l14.1,14.1c0.8,0.8,0.8,2,0,2.8c0,0,0,0,0,0L129,139.6
	C128.6,140,128.1,140.2,127.6,140.2z"/>
<rect class="st1" width="166.2" height="166.2"/>
</svg>
