<?xml version="1.0" encoding="utf-8"?>
<!-- Generator: Adobe Illustrator 22.0.1, SVG Export Plug-In . SVG Version: 6.00 Build 0)  -->
<svg version="1.1" id="Layer_1" xmlns="http://www.w3.org/2000/svg" xmlns:xlink="http://www.w3.org/1999/xlink" x="0px" y="0px"
	 viewBox="0 0 166.2 166.2" style="enable-background:new 0 0 166.2 166.2;" xml:space="preserve">
<style type="text/css">
	.st0{fill:#99999C;}
	.st1{fill:none;}
</style>
<title>receiving payment #9999cldpi</title>
<g id="Layer_2_1_">
	<g id="Layer_1-2">
		<path class="st0" d="M83.8,144.8H56c-6.2,0-11.2-5-11.2-11.2v-101c0-6.2,5-11.2,11.2-11.2h55.6c6.2,0,11.2,5,11.2,11.2v76.7
			c0,1.1-0.9,2-2,2s-2-0.9-2-2V32.6c0-4-3.2-7.2-7.2-7.2H56c-4,0-7.2,3.2-7.2,7.2v101.1c0,4,3.2,7.2,7.2,7.2h27.8c1.1,0,2,0.9,2,2
			S84.9,144.8,83.8,144.8L83.8,144.8z"/>
		<path class="st0" d="M94.8,108.7c0.2,3.4-2,6.6-5.3,7.7c-2,0.7-4.2,1.1-6.3,1c-2.1,0.1-4.2-0.3-6.1-1.1c-1.5-0.6-2.8-1.5-3.8-2.7
			c-0.8-0.9-1.2-2.1-1.2-3.3c0-0.7,0.3-1.4,0.8-1.9s1.2-0.8,2-0.8c0.6,0,1.2,0.1,1.6,0.5s0.8,0.9,1.1,1.4c0.6,1.1,1.4,2,2.4,2.6
			c1.2,0.6,2.5,0.9,3.9,0.9c1.2,0,2.3-0.3,3.3-0.9c0.7-0.4,1.2-1.2,1.3-2c0.1-1-0.4-2-1.3-2.5c-1.4-0.7-2.8-1.2-4.4-1.5
			c-1.9-0.4-3.8-1-5.6-1.8c-1.3-0.5-2.5-1.4-3.4-2.5s-1.3-2.4-1.3-3.8c0-1.3,0.4-2.7,1.2-3.8c0.9-1.3,2.1-2.2,3.5-2.8
			c1.8-0.7,3.7-1.1,5.6-1.1c1.6,0,3.1,0.2,4.6,0.5c1.2,0.3,2.4,0.8,3.4,1.4c0.8,0.5,1.5,1.2,2.1,2c0.4,0.6,0.7,1.4,0.7,2.1
			s-0.3,1.4-0.8,1.9c-0.6,0.5-1.4,0.8-2.2,0.7c-0.6,0-1.2-0.2-1.7-0.6c-0.6-0.5-1.2-1.1-1.6-1.7c-0.5-0.6-1.1-1.2-1.8-1.6
			c-0.9-0.4-1.8-0.6-2.8-0.6s-2.1,0.2-3,0.8c-0.7,0.4-1.2,1.1-1.2,1.9c0,0.7,0.3,1.3,0.9,1.7c0.7,0.5,1.5,0.9,2.4,1.1
			c1,0.3,2.3,0.6,4.1,1.1c1.7,0.4,3.4,1,5,1.8c1.2,0.6,2.2,1.4,3,2.5C94.4,106.4,94.8,107.5,94.8,108.7z"/>
		<path class="st0" d="M83.8,81.3c-1.8,0-3.2,1.4-3.2,3.2v6.2c0,1.8,1.4,3.2,3.2,3.2c1.8,0,3.2-1.4,3.2-3.2v-6.2
			C87,82.7,85.6,81.3,83.8,81.3z"/>
		<path class="st0" d="M83.8,113.1c-1.8,0-3.2,1.4-3.2,3.2l0,0v6.8c0,1.8,1.4,3.2,3.2,3.2c1.8,0,3.2-1.4,3.2-3.2l0,0v-6.8
			C87,114.6,85.6,113.1,83.8,113.1z"/>
		<path class="st0" d="M83.8,69.7c-1.1,0-2-0.9-2-2v-14c0-1.1,0.9-2,2-2s2,0.9,2,2v14C85.8,68.8,84.9,69.7,83.8,69.7z"/>
		<path class="st0" d="M76.8,78.4h-0.7c-5,0-9-4.8-9-10.7c0-1.1,0.9-2,2-2s2,0.9,2,2c0,3.7,2.3,6.7,5,6.7h0.7c2.8,0,5-3,5-6.7
			c0-1.1,0.9-2,2-2s2,0.9,2,2C85.8,73.6,81.8,78.4,76.8,78.4z"/>
		<path class="st0" d="M69.1,69.7c-0.1,0-0.2,0-0.3,0c-1.1-0.2-1.9-1.2-1.7-2.3l2-14c0.2-1.1,1.2-1.9,2.3-1.7
			c1.1,0.2,1.9,1.2,1.7,2.3l0,0l-2,14C70.9,69,70.1,69.7,69.1,69.7z"/>
		<path class="st0" d="M83.8,69.8c-1.1,0-2-0.9-2-2v-14c0-1.1,0.9-2,2-2s2,0.9,2,2v14C85.8,68.9,84.9,69.8,83.8,69.8z"/>
		<path class="st0" d="M54.3,69.8c-1.1,0-2-0.9-2-2c0-0.3,0.1-0.6,0.2-0.9l6.6-14c0.3-0.7,1-1.1,1.8-1.1h45.9c1.1,0,2,0.9,2,2
			s-0.9,2-2,2H62.2l-6.1,12.8C55.8,69.3,55,69.8,54.3,69.8z"/>
		<path class="st0" d="M62,78.4h-0.7c-5,0-9-4.8-9-10.7c0-1.1,0.9-2,2-2s2,0.9,2,2c0,3.7,2.3,6.7,5,6.7H62c2.8,0,5-3,5-6.7
			c0-1.1,0.9-2,2-2s2,0.9,2,2C71.1,73.7,67,78.4,62,78.4z"/>
		<path class="st0" d="M69.1,69.8c-0.1,0-0.2,0-0.3,0c-1.1-0.2-1.9-1.2-1.7-2.3l2-14c0.2-1.1,1.2-1.9,2.3-1.7
			c1.1,0.2,1.9,1.2,1.7,2.3l-2,14C70.9,69,70.1,69.8,69.1,69.8z"/>
		<path class="st0" d="M83.8,69.7c-1.1,0-2-0.9-2-2v-14c0-1.1,0.9-2,2-2s2,0.9,2,2v14C85.8,68.8,84.9,69.7,83.8,69.7z"/>
		<path class="st0" d="M91.6,78.4h-0.7c-5,0-9-4.8-9-10.7c0-1.1,0.9-2,2-2s2,0.9,2,2c0,3.7,2.3,6.7,5,6.7h0.7c2.8,0,5-3,5-6.7
			c0-1.1,0.9-2,2-2s2,0.9,2,2C100.6,73.6,96.6,78.4,91.6,78.4z"/>
		<path class="st0" d="M98.6,69.7c-1,0-1.8-0.7-2-1.7l-2-14c-0.2-1.1,0.6-2.1,1.7-2.3s2.1,0.6,2.3,1.7l0,0l2,14
			c0.2,1.1-0.6,2.1-1.7,2.3C98.8,69.7,98.7,69.7,98.6,69.7z"/>
		<path class="st0" d="M83.8,69.8c-1.1,0-2-0.9-2-2v-14c0-1.1,0.9-2,2-2s2,0.9,2,2v14C85.8,68.9,84.9,69.8,83.8,69.8z"/>
		<path class="st0" d="M113.4,69.8c-0.8,0-1.5-0.4-1.8-1.1l-6.6-14c-0.5-1,0-2.2,1-2.7s2.2,0,2.6,0.9l6.6,14c0.5,1,0,2.2-1,2.7
			C114,69.7,113.7,69.8,113.4,69.8z"/>
		<path class="st0" d="M106.4,78.4h-0.7c-5,0-9-4.8-9-10.7c0-1.1,0.9-2,2-2s2,0.9,2,2c0,3.7,2.3,6.7,5,6.7h0.7c2.8,0,5-3,5-6.7
			c0-1.1,0.9-2,2-2s2,0.9,2,2C115.4,73.7,111.3,78.4,106.4,78.4z"/>
		<path class="st0" d="M98.6,69.8c-1,0-1.8-0.7-2-1.7l-2-14c-0.2-1.1,0.6-2.1,1.7-2.3s2.1,0.6,2.3,1.7l2,14c0.2,1.1-0.6,2.1-1.7,2.3
			C98.8,69.8,98.7,69.8,98.6,69.8z"/>
		<path class="st0" d="M97.1,33.7H69.5c-1.1,0-2-0.9-2-2c0-1.1,0.9-2,2-2h27.6c1.1,0,2,0.9,2,2C99.1,32.8,98.2,33.7,97.1,33.7z"/>
		<path class="st0" d="M137.2,130.2h-12.5c-1.1,0-2-0.9-2-2s0.9-2,2-2h12.5c1.1,0,2,0.9,2,2C139.2,129.3,138.3,130.2,137.2,130.2z"
			/>
		<path class="st0" d="M113,140.2c-0.5,0-1-0.2-1.4-0.6l-14.1-13.8c-0.8-0.8-0.8-2,0-2.8l0,0l14.1-14.1c0.8-0.8,2-0.8,2.8,0
			c0.4,0.4,0.6,0.9,0.6,1.4v8.8c0,1.1-0.9,2-2,2s-2-0.9-2-2v-4l-9.2,9.2l9.2,9.1v-5.3c0-1.1,0.9-2,2-2h4.1c1.1,0,2,0.9,2,2
			c0,1.1-0.9,2-2,2H115v8.1C115,139.3,114.1,140.2,113,140.2L113,140.2z"/>
		<path class="st0" d="M144.1,120.8h-17.3c-1.1,0-2-0.9-2-2s0.9-2,2-2h17.3c1.1,0,2,0.9,2,2S145.2,120.8,144.1,120.8L144.1,120.8z"
			/>
		<rect class="st1" width="166.2" height="166.2"/>
	</g>
</g>
</svg>
