<?xml version="1.0" encoding="utf-8"?>
<!-- Generator: Adobe Illustrator 22.0.1, SVG Export Plug-In . SVG Version: 6.00 Build 0)  -->
<svg version="1.1" id="Layer_1" xmlns="http://www.w3.org/2000/svg" xmlns:xlink="http://www.w3.org/1999/xlink" x="0px" y="0px"
	 viewBox="0 0 166.2 166.2" style="enable-background:new 0 0 166.2 166.2;" xml:space="preserve">
<style type="text/css">
	.st0{fill:#00C8B6;}
	.st1{fill:none;}
</style>
<title>dashboard #00c8b6ldpi</title>
<path class="st0" d="M124.1,109.7H91.9c-1.1,0-2-0.9-2-2s0.9-2,2-2h32.2c5,0,9.1-4.1,9.1-9.1V41.8c0-5-4.1-9.1-9.1-9.1H42.2
	c-5,0-9,4.1-9.1,9.1v54.9c0,5,4.1,9.1,9.1,9.1l34.5,0l0,0c1.1,0,2,0.9,2,2s-0.9,2-2,2l-34.5,0c-7.2,0-13-5.9-13.1-13.1V41.8
	c0-7.2,5.8-13.1,13.1-13.1h81.9c7.2,0,13,5.9,13.1,13.1v54.9C137.1,103.9,131.3,109.7,124.1,109.7z"/>
<path class="st0" d="M76.8,99.7H44.4c-3.1,0-5.6-2.5-5.6-5.6V43.8c0-3.1,2.5-5.6,5.6-5.6h32.4c3.1,0,5.6,2.5,5.6,5.6v50.4
	C82.4,97.2,79.9,99.7,76.8,99.7z M44.4,42.2c-0.9,0-1.6,0.7-1.6,1.6v50.4c0,0.9,0.7,1.6,1.6,1.6h32.4c0.9,0,1.6-0.7,1.6-1.6V43.8
	c0-0.9-0.7-1.6-1.6-1.6L44.4,42.2z"/>
<path class="st0" d="M123.3,99.7H91.7c-2.3,0-4.1-1.8-4.1-4.1V77.7c0-2.3,1.8-4.1,4.1-4.1h31.5c2.3,0,4.1,1.8,4.1,4.1v17.9
	C127.4,97.9,125.5,99.7,123.3,99.7z M91.7,77.6c-0.1,0-0.1,0.1-0.1,0.1v17.9c0,0.1,0.1,0.1,0.1,0.1h31.5c0.1,0,0.1-0.1,0.1-0.1
	c0,0,0,0,0,0V77.7c0-0.1-0.1-0.1-0.1-0.1H91.7z"/>
<path class="st0" d="M108,68.1C98,68.1,89.8,60,89.8,50c0-4,1.3-7.8,3.7-11c0.7-0.9,1.9-1,2.8-0.4l25.9,19.4
	c0.9,0.7,1.1,1.9,0.4,2.8C119.2,65.4,113.8,68.1,108,68.1z M95.6,43c-3.8,6.8-1.4,15.5,5.5,19.3c2.1,1.2,4.5,1.8,6.9,1.8
	c3.8,0,7.5-1.5,10.1-4.3L95.6,43z"/>
<path class="st0" d="M97.4,137.5H69.3c-1.1,0-2-0.9-2-2v-2.7c0-0.6,0.3-1.1,0.7-1.5l6.7-5.6v-17.9c0-1.1,0.9-2,2-2s2,0.9,2,2v18.8
	c0,0.6-0.3,1.1-0.7,1.5l-6.4,5.4h25.8c1.1,0,2,0.9,2,2S98.5,137.5,97.4,137.5L97.4,137.5z"/>
<path class="st0" d="M97.4,137.5H69.3c-1.1,0-2-0.9-2-2s0.9-2,2-2h25.8l-6.4-5.4c-0.4-0.4-0.7-0.9-0.7-1.5V118c0-1.1,0.9-2,2-2
	s2,0.9,2,2v7.6l6.7,5.6c0.4,0.4,0.7,0.9,0.7,1.5v2.7C99.4,136.6,98.5,137.5,97.4,137.5C97.4,137.5,97.4,137.5,97.4,137.5z"/>
<rect class="st1" width="166.2" height="166.2"/>
</svg>
